<svg width="28" height="28" viewBox="0 0 28 28" fill="none" xmlns="http://www.w3.org/2000/svg">
<mask id="mask0_1166_51409" style="mask-type:luminance" maskUnits="userSpaceOnUse" x="0" y="0" width="28" height="28">
<path d="M28 14C28 15.8385 27.6379 17.659 26.9343 19.3576C26.2307 21.0561 25.1995 22.5995 23.8995 23.8995C22.5995 25.1995 21.0561 26.2307 19.3576 26.9343C17.659 27.6379 15.8385 28 14 28C12.1615 28 10.341 27.6379 8.64243 26.9343C6.94387 26.2307 5.40052 25.1995 4.1005 23.8995C2.80048 22.5995 1.76925 21.0561 1.06568 19.3576C0.362118 17.659 -2.73959e-08 15.8385 0 14C-2.73959e-08 12.1615 0.362118 10.341 1.06568 8.64243C1.76925 6.94387 2.80048 5.40053 4.1005 4.1005C5.40052 2.80048 6.94387 1.76925 8.64243 1.06569C10.341 0.36212 12.1615 0 14 0C15.8385 0 17.659 0.36212 19.3576 1.06569C21.0561 1.76925 22.5995 2.80048 23.8995 4.1005C25.1995 5.40053 26.2307 6.94387 26.9343 8.64243C27.6379 10.341 28 12.1615 28 14Z" fill="white"/>
</mask>
<g mask="url(#mask0_1166_51409)">
<path d="M1.33651 -0.582031C0.272584 -0.582031 -0.583252 0.275703 -0.583252 1.33963V26.6649C-0.583252 27.7288 0.272584 28.5846 1.33651 28.5846H26.6618C27.7257 28.5846 28.5834 27.7288 28.5834 26.6649V1.33963C28.5834 0.275703 27.7257 -0.582031 26.6618 -0.582031H1.33651Z" fill="#479951"/>
<path fill-rule="evenodd" clip-rule="evenodd" d="M11.2787 7.02346C11.2585 7.02286 11.2283 7.03413 11.1859 7.05926C11.0907 7.12309 10.902 7.31967 10.8962 7.54585C10.8905 7.67345 10.8664 7.67295 10.9499 7.75415C11.0103 7.84118 11.0706 7.83262 11.1924 7.7688C11.2624 7.71725 11.286 7.68437 11.3096 7.59793C11.3386 7.45295 11.157 7.66652 11.1338 7.50517C11.0933 7.35537 11.2092 7.29375 11.3194 7.14877C11.3219 7.0805 11.3231 7.02477 11.2787 7.02346ZM13.0525 7.03322C13.0185 7.03781 12.9768 7.0814 12.919 7.1862C12.8776 7.29595 12.699 7.46205 12.8279 7.8046C12.9334 8.02179 12.9767 8.37477 12.9288 8.768C12.8557 8.87975 12.8391 8.91826 12.7433 9.03C12.6087 9.17472 12.4629 9.13772 12.3511 9.0837C12.2466 9.01327 12.1645 8.97711 12.1167 8.75335C12.1254 8.39668 12.1461 7.81291 12.0809 7.68902C11.9848 7.49717 11.8264 7.56598 11.7587 7.62393C11.4334 7.92138 11.2727 8.42365 11.1745 8.82328C11.0843 9.11454 10.9881 9.03031 10.9206 8.91279C10.7563 8.75879 10.7447 7.5545 10.5463 7.75249C10.2285 8.66069 10.7287 9.6556 11.0752 9.5589C11.3252 9.6624 11.4838 9.18653 11.5862 8.66548C11.6562 8.51925 11.7097 8.50244 11.7457 8.57761C11.7364 9.27053 11.7954 9.42509 11.9735 9.63537C12.3709 9.94196 12.6996 9.67421 12.7254 9.64839C12.7512 9.62262 13.0346 9.33919 13.0346 9.33919C13.1034 9.26675 13.1944 9.26234 13.2917 9.32617C13.3862 9.41209 13.3741 9.5601 13.5765 9.66304C13.7468 9.73117 14.1105 9.67961 14.1949 9.53285C14.3084 9.33827 14.336 9.27141 14.3886 9.19761C14.4696 9.08975 14.6083 9.1375 14.6083 9.17157C14.5953 9.23172 14.5139 9.29106 14.5692 9.3994C14.6656 9.47168 14.688 9.42523 14.745 9.40917C14.9466 9.3128 15.0981 8.87539 15.0981 8.87539C15.107 8.71225 15.0142 8.72463 14.9549 8.75822C14.8775 8.80551 14.8728 8.82159 14.7954 8.86888C14.6968 8.88353 14.5059 8.94855 14.4113 8.80216C14.3148 8.62617 14.3143 8.38081 14.2405 8.20329C14.2405 8.19038 14.1115 7.92417 14.2307 7.90711C14.2909 7.91829 14.4202 7.95172 14.4406 7.84364C14.5037 7.73829 14.3045 7.43945 14.1689 7.28872C14.0511 7.15949 13.8886 7.14374 13.7311 7.2757C13.6208 7.37716 13.6372 7.49047 13.6156 7.59792C13.5875 7.72132 13.5928 7.87417 13.7181 8.03731C13.8281 8.25435 14.0281 8.53281 13.9622 8.92583C13.9622 8.92583 13.846 9.11287 13.6416 9.08856C13.5564 9.06998 13.4176 9.03311 13.3438 8.48808C13.2879 8.07551 13.3578 7.49749 13.1827 7.22685C13.1431 7.12473 13.1092 7.02559 13.0525 7.03322ZM12.4911 7.07697C12.4381 7.08159 12.3795 7.14329 12.3316 7.26249C12.2906 7.35314 12.2404 7.8272 12.2486 7.8272C12.2159 7.96829 12.396 8.02808 12.4781 7.84673C12.6011 7.51426 12.6017 7.37262 12.6099 7.23161C12.5907 7.12419 12.5441 7.07234 12.4911 7.07697ZM14.5643 7.1144C14.5099 7.11933 14.4666 7.15118 14.4504 7.23157C14.4288 7.42058 14.4398 7.52336 14.4716 7.68072C14.4959 7.78565 14.6487 7.96133 14.7238 8.06316C15.0829 8.54587 15.4285 9.03088 15.7621 9.53268C15.8146 9.90529 15.853 10.2698 15.8777 10.6328C15.9317 11.4287 15.9482 12.4195 15.8988 13.2577C16.0479 13.2636 16.2869 13.0169 16.3708 12.6556C16.4253 12.1558 16.3513 11.136 16.3463 10.8411C16.3428 10.7186 16.3353 10.5725 16.3268 10.4196C16.7149 11.0538 17.0914 11.7258 17.4611 12.4636C17.5958 12.3995 17.566 11.6409 17.4871 11.5343C17.1913 10.8976 16.7826 10.2691 16.6523 10.0274C16.6053 9.94007 16.4451 9.69644 16.2552 9.41547C16.2203 9.01457 16.1823 8.67501 16.1576 8.57247C16.0965 8.14867 16.3317 8.62026 16.2992 8.37393C16.2228 7.95071 15.9892 7.66309 15.7133 7.27544C15.6243 7.14936 15.6261 7.12365 15.4887 7.30636C15.4066 7.49263 15.4077 7.64759 15.4318 7.79295C15.3956 7.74044 15.351 7.67818 15.2869 7.60092C15.0486 7.39647 15.0339 7.3853 14.8362 7.21848C14.7738 7.17423 14.6551 7.10611 14.5644 7.11433L14.5643 7.1144ZM20.7093 7.17787C20.6828 7.17375 20.6539 7.18677 20.6214 7.23483C20.5593 7.28931 20.4924 7.38797 20.4945 7.51474C20.5096 7.73808 20.5493 7.96675 20.5645 8.19011C20.5698 8.21999 20.5754 8.24972 20.5807 8.27961C20.5567 8.24899 20.5358 8.2251 20.5238 8.21289C20.0884 7.75555 20.7238 8.13815 20.4408 7.78489C20.2014 7.52208 20.1314 7.43845 19.9265 7.28041C19.8238 7.21401 19.7617 7.08715 19.728 7.30319C19.7145 7.49299 19.7006 7.71278 19.7133 7.8728C19.7126 7.96171 19.8047 8.12909 19.8842 8.22756C20.1746 8.58437 20.4713 8.96402 20.7695 9.36021C20.8323 10.1682 20.849 10.9089 20.9127 11.7183C20.9037 12.0644 20.7972 12.5242 20.6963 12.5677C20.6963 12.5677 20.5421 12.6563 20.4391 12.558C20.3642 12.5279 20.0648 12.0583 20.0648 12.0583C19.9116 11.9178 19.8094 11.958 19.7003 12.0583C19.3996 12.3488 19.2635 12.8928 19.0592 13.2675C19.0065 13.3511 18.858 13.4223 18.693 13.261C18.2739 12.6884 18.519 11.8733 18.4668 12.0828C18.0935 12.5035 18.2588 13.2006 18.3431 13.3505C18.4662 13.5967 18.5658 13.7544 18.8053 13.8762C19.0234 14.0367 19.1933 13.9365 19.287 13.8241C19.5065 13.5966 19.5094 13.0148 19.6125 12.8997C19.6847 12.6883 19.8659 12.7247 19.9542 12.8184C20.0398 12.9415 20.1409 13.0215 20.2667 13.0885C20.4714 13.2691 20.7158 13.3019 20.9567 13.1373C21.1213 13.045 21.2281 12.925 21.3245 12.6882C21.4279 12.4116 21.3767 10.9623 21.3538 10.156C21.5084 10.3738 21.661 10.5964 21.8127 10.8216C21.8792 11.5293 21.9094 12.2264 21.8875 12.8948C21.8718 13.0277 22.3513 12.498 22.3481 12.2471C22.3459 12.0276 22.3485 11.8286 22.3481 11.6433C22.5806 12.0147 22.8058 12.3922 23.0186 12.7744C23.1504 12.7045 23.1052 11.9579 23.0218 11.8549C22.799 11.4811 22.5137 11.0771 22.2927 10.7646C22.2491 10.3701 22.1896 9.90468 22.1626 9.76209C22.1204 9.53975 22.0782 9.20577 22.0145 8.9419C21.997 8.83886 21.9442 8.50975 21.9608 8.4781C21.9867 8.40446 22.0849 8.48046 22.1333 8.3951C22.2056 8.31621 21.8824 7.47867 21.7183 7.23965C21.6593 7.13251 21.5526 7.16959 21.4205 7.3438C21.298 7.45843 21.3428 7.71996 21.3895 7.96871C21.511 8.60268 21.6195 9.24831 21.7053 9.89228C21.5464 9.65615 21.3526 9.37043 21.1617 9.0949C21.1566 9.06833 21.1373 8.97094 21.1373 8.96959C21.1373 8.9582 21.111 8.45097 21.0885 8.33005C21.0845 8.28097 21.0728 8.26685 21.1243 8.27309C21.1788 8.31896 21.1862 8.32144 21.2203 8.33656C21.2753 8.34664 21.3235 8.25355 21.2903 8.16731C21.1199 7.85317 20.9496 7.53761 20.7793 7.22344C20.7588 7.20326 20.7358 7.18199 20.7093 7.17787ZM4.85064 7.19414C4.75627 7.19144 4.65214 7.24995 4.69279 7.36339C4.66912 7.42522 4.87753 7.63423 4.91412 7.74907C4.94692 7.83085 4.88158 8.09418 4.94992 8.11849C5.01275 8.14573 5.09927 7.9362 5.13218 7.74256C5.1504 7.63648 5.13661 7.27345 4.88971 7.19899C4.87706 7.19614 4.86413 7.19453 4.85064 7.19414ZM22.9163 7.19622C22.8947 7.19836 22.8685 7.23313 22.8284 7.31828C22.7318 7.47648 22.6986 7.75975 22.7373 8.0099C22.9698 9.58274 23.1426 11.1058 23.1783 12.4998C23.1583 12.6321 23.1524 12.7025 23.0904 12.8692C22.9531 13.0452 22.8018 13.2658 22.6591 13.3721C22.5166 13.4784 22.2132 13.5797 22.114 13.6585C21.7992 13.8404 21.7977 14.0497 22.0521 14.0572C22.4907 14.0063 23.0096 13.9703 23.367 13.4307C23.4627 13.2795 23.5753 12.8695 23.5802 12.6186C23.6137 11.1476 23.5614 9.70935 23.341 8.64622C23.3269 8.54266 23.2812 8.30463 23.2987 8.27356C23.3271 8.20076 23.4706 8.28084 23.5216 8.19707C23.5966 8.12054 23.1506 7.54945 22.9944 7.30527C22.9632 7.24395 22.9439 7.19348 22.9163 7.19622ZM18.3173 7.22063C18.2992 7.22376 18.2725 7.25132 18.223 7.31665C18.1004 7.7172 18.0574 8.04431 18.1042 8.29307C18.4188 9.93523 18.7413 11.4313 18.69 12.9945C18.8392 12.9955 19.0118 12.6532 19.0855 12.3143C19.1258 11.8475 19.0585 11.5634 19.0464 11.289C19.0343 11.0147 18.7358 8.78868 18.6754 8.5811C18.6024 8.18859 18.9656 8.52947 18.926 8.3012C18.8004 8.0134 18.4871 7.59432 18.389 7.3443C18.3521 7.27735 18.3475 7.21543 18.3173 7.22063ZM7.11948 7.25155C7.08081 7.25825 7.04349 7.29012 7.02998 7.34269C7.02147 7.37712 7.04488 7.4344 7.0137 7.45172C6.9958 7.46978 6.92787 7.45764 6.9307 7.36222C6.9307 7.33182 6.90839 7.30011 6.8949 7.28085C6.88136 7.27198 6.87222 7.26946 6.84771 7.26946C6.81784 7.27066 6.81852 7.27854 6.80214 7.30363C6.79485 7.32915 6.78548 7.35414 6.78548 7.38331C6.78175 7.41727 6.76815 7.42877 6.74317 7.43376C6.71524 7.43376 6.72185 7.4368 6.69923 7.42236C6.68579 7.40767 6.66993 7.40189 6.66993 7.3768C6.66993 7.35082 6.66311 7.30934 6.65529 7.29217C6.64343 7.27653 6.62468 7.26839 6.60321 7.26288C6.48621 7.2633 6.47769 7.39775 6.48442 7.4484C6.47565 7.45795 6.47131 7.69624 6.63088 7.76248C6.84509 7.86462 7.24678 7.82144 7.22975 7.47606C7.22975 7.44552 7.22303 7.34293 7.21999 7.31495C7.19813 7.26404 7.15776 7.24479 7.11909 7.25148L7.11948 7.25155ZM9.99344 7.25481C9.91941 7.25858 9.85406 7.2798 9.79816 7.30851C9.65617 7.44446 9.62289 7.6624 9.73469 7.79835C9.8435 7.84973 9.95206 7.95925 9.87952 8.01967C9.57182 8.34832 8.77098 8.89751 8.73063 8.9977C8.73031 8.99852 8.72917 9.00021 8.729 9.00096C8.7289 9.00168 8.72901 9.00356 8.729 9.00421C8.72903 9.00452 8.72895 9.00555 8.729 9.00584C8.72926 9.00667 8.73012 9.00842 8.73063 9.00909C8.73083 9.0093 8.73202 9.01053 8.73225 9.01072C8.73251 9.01087 8.73359 9.01056 8.73388 9.01072C8.73419 9.01087 8.73515 9.01223 8.7355 9.01234C8.73586 9.01245 8.73671 9.01224 8.73712 9.01234C8.73723 9.01245 8.73861 9.01385 8.73875 9.01397C8.77945 9.04126 9.28055 9.04062 9.33601 9.01559C9.33642 9.01538 9.3373 9.01418 9.33763 9.01397C9.33779 9.01386 9.33912 9.01407 9.33926 9.01397C9.33936 9.01386 9.33915 9.01245 9.33926 9.01234C9.51147 8.94888 10.3287 8.01478 10.3287 8.01478C10.2863 7.97851 10.2473 7.95178 10.205 7.91551C10.1597 7.87625 10.1642 7.83765 10.205 7.79834C10.4074 7.68056 10.3433 7.42141 10.2376 7.30362C10.1499 7.26433 10.0675 7.25103 9.99344 7.25481ZM17.5054 7.25806C17.4839 7.2602 17.4577 7.29334 17.4175 7.37849C17.3209 7.53669 17.2553 7.81219 17.2629 8.07011C17.4721 9.51854 17.5363 10.7861 17.673 12.2346C17.6841 12.3747 17.6636 12.5782 17.5705 12.6593C17.226 13.019 16.7294 13.4625 16.1888 13.6667C16.1307 13.7319 16.3334 14.0103 16.5957 14.01C17.0342 13.9591 17.4197 13.713 17.7772 13.0645C17.8728 12.9133 18.0408 12.5896 18.0457 12.3387C18.0791 10.8677 17.9715 9.72404 17.7511 8.66086C17.737 8.5573 17.7466 8.43481 17.7642 8.40373C17.7926 8.36982 17.8888 8.40451 17.9399 8.32073C18.0149 8.2442 17.7397 7.60964 17.5835 7.36546C17.5523 7.30413 17.533 7.25532 17.5054 7.25806ZM5.868 7.30233C5.80747 7.30941 5.75053 7.35869 5.72316 7.42438C5.71303 7.6567 5.71167 7.8889 5.73781 8.10298C5.84347 8.47849 5.87693 8.80877 5.92821 9.19335C5.94243 9.70842 5.63077 9.41616 5.64505 9.1608C5.71701 8.82912 5.69759 8.30696 5.63366 8.17459C5.58295 8.04226 5.52424 8.0096 5.40094 8.03138C5.30305 8.0254 5.05015 8.30095 4.97945 8.75721C4.97945 8.75721 4.92055 8.99137 4.89483 9.19986C4.86024 9.43548 4.70415 9.60234 4.59539 9.16731C4.50138 8.85111 4.4436 8.07205 4.28619 8.25437C4.2411 8.86267 4.18756 9.93303 4.70442 10.0429C5.32959 10.103 4.98425 8.98603 5.21054 8.78325C5.25331 8.68305 5.33259 8.68126 5.3391 8.80766V9.75643C5.33338 10.0649 5.53635 10.1565 5.69387 10.2202C5.85779 10.2076 5.96648 10.2121 6.03074 10.3716C6.05635 10.9185 6.08323 11.4667 6.10885 12.0136C6.10885 12.0136 6.48782 12.1225 6.50593 11.0908C6.52409 10.4851 6.3853 9.97678 6.46687 9.85894C6.46975 9.74314 6.61818 9.73742 6.72074 9.79384C6.88414 9.90911 6.95663 10.051 7.21057 9.99401C7.597 9.88756 7.82976 9.7 7.83548 9.40326C7.81291 9.12129 7.78029 8.83902 7.6581 8.55703C7.67516 8.50575 7.58414 8.37234 7.60114 8.32106C7.67059 8.42982 7.77564 8.42079 7.79968 8.32106C7.73391 8.10434 7.63152 7.89668 7.46607 7.80682C7.32934 7.68635 7.12925 7.71183 7.05598 7.96304C7.02202 8.25252 7.16089 8.59561 7.37169 8.87598C7.41646 8.98553 7.47909 9.16772 7.45142 9.33165C7.33925 9.39563 7.22804 9.36901 7.13409 9.26981C7.13409 9.26981 6.82652 9.03955 6.82652 8.98827C6.90813 8.46569 6.8441 8.40586 6.79885 8.26083C6.76725 8.06063 6.67238 7.99723 6.59543 7.8605C6.51848 7.77893 6.4141 7.77893 6.36435 7.8605C6.2284 8.09617 6.29218 8.60216 6.39038 8.82879C6.46135 9.03723 6.57017 9.16729 6.51895 9.16729C6.47675 9.28507 6.38875 9.25767 6.32529 9.12172C6.23469 8.84074 6.21625 8.42198 6.21625 8.2332C6.18906 7.99915 6.15875 7.49919 6.00469 7.37234C5.96359 7.31635 5.91507 7.29683 5.868 7.30233ZM8.06331 7.30558C8.03228 7.30951 7.99799 7.32717 7.95753 7.3365C7.82463 7.37881 7.7002 7.4937 7.73946 7.71731C7.89656 8.67196 7.99897 9.40055 8.15607 10.3553C8.18021 10.4671 8.08649 10.6144 7.96567 10.5994C7.76022 10.4604 7.70924 10.1789 7.35867 10.1909C7.10489 10.1939 6.81547 10.4701 6.77933 10.7361C6.73702 10.9475 6.72196 11.1766 6.77933 11.361C6.95769 11.5755 7.17134 11.5526 7.35867 11.5042C7.51273 11.4408 7.63948 11.289 7.69391 11.3252C7.69407 11.3253 7.6954 11.325 7.69554 11.3252C7.69569 11.3254 7.69538 11.3266 7.69554 11.3268C7.72913 11.3855 7.69237 11.8821 6.9697 12.2658C6.5256 12.4652 6.17211 12.5128 5.98188 12.1502C5.86404 11.9236 5.99045 11.0606 5.70035 11.2601C4.8424 13.4716 7.71037 13.7803 8.03074 11.3512C8.05149 11.2827 8.11469 11.2139 8.1593 11.2308C8.17888 11.2391 8.19679 11.2657 8.20324 11.3154C8.13673 13.5148 5.9845 13.6656 5.61898 12.9737C5.52838 12.8106 5.50113 12.4476 5.49204 12.23C5.47548 12.0984 5.44245 12.0225 5.40417 11.9924C5.31697 11.9269 5.19979 12.0977 5.17471 12.3944C5.13844 12.633 5.14867 12.6986 5.14867 12.9281C5.26347 14.6653 8.03305 13.9189 8.48314 12.4839C8.70596 11.742 8.4786 11.1823 8.55312 11.1136C8.55376 11.1131 8.55568 11.1125 8.55637 11.112C8.55708 11.1116 8.55887 11.1108 8.55963 11.1104C8.5604 11.1101 8.56206 11.109 8.56288 11.1088C8.56542 11.1081 8.56967 11.1072 8.57265 11.1072C8.84758 11.4033 9.23338 11.1448 9.31795 11.0421C9.35422 10.9907 9.44495 10.9577 9.50835 11.0242C9.72282 11.1783 10.0987 11.1056 10.1772 10.8338C10.2226 10.5679 10.2609 10.2942 10.27 10.0103C10.1303 10.0537 10.0175 10.0862 9.97216 10.134C9.96136 10.1458 9.95336 10.1589 9.95101 10.1731C9.93888 10.2516 9.92733 10.3305 9.9152 10.409C9.91391 10.4155 9.91182 10.4215 9.90869 10.4269C9.90274 10.4366 9.8929 10.4455 9.88266 10.4513C9.83327 10.4783 9.74714 10.4629 9.7427 10.3911C9.67625 10.089 9.40277 10.0497 9.23659 10.5181C9.12479 10.6087 8.92093 10.6264 8.89972 10.4904C8.92691 10.1762 8.80031 10.134 8.54659 10.2821C8.46501 9.65974 8.3841 9.06556 8.30248 8.4432C8.40825 8.44016 8.50523 8.51684 8.60192 8.39601C8.49728 8.0706 8.27588 7.4085 8.15114 7.34637C8.15016 7.3459 8.14885 7.34512 8.14788 7.34474C8.14222 7.33795 8.13552 7.33169 8.12998 7.32684C8.12768 7.32489 8.12413 7.32198 8.12184 7.32033C8.11956 7.31875 8.11598 7.31676 8.11371 7.31545C8.1087 7.3127 8.10244 7.31047 8.09743 7.30894C8.08606 7.30572 8.07501 7.30421 8.06326 7.30569L8.06331 7.30558ZM16.6214 7.31046C16.5117 7.30721 16.3902 7.37638 16.4376 7.51388C16.41 7.58889 16.6734 7.84331 16.7158 7.98256C16.7923 8.19651 16.6575 8.40059 16.737 8.43009C16.8102 8.46311 16.912 8.20921 16.9502 7.97443C16.9943 7.78463 16.8589 7.39566 16.667 7.31536C16.6523 7.3119 16.6371 7.31093 16.6214 7.31046ZM9.95418 7.5448C10.0042 7.53971 10.0646 7.58564 10.0941 7.65058C10.1257 7.71986 10.1099 7.78605 10.0583 7.79867C10.0068 7.8113 9.94016 7.76543 9.90861 7.69615C9.87706 7.62687 9.89289 7.55905 9.94441 7.54643C9.94763 7.54564 9.95085 7.54514 9.95418 7.5448ZM22.3222 7.86539C22.2221 7.86189 22.1131 7.93786 22.1562 8.08672C22.1311 8.16792 22.3697 8.44371 22.4084 8.59445C22.4432 8.70174 22.3555 9.0475 22.428 9.07941C22.4947 9.11515 22.5884 8.84052 22.6232 8.58631C22.6426 8.44717 22.5394 7.95885 22.3645 7.87189C22.3511 7.86814 22.3365 7.86589 22.3222 7.86539ZM15.4841 8.03464C15.4933 8.07544 15.5024 8.11652 15.5085 8.15832C15.529 8.2485 15.5467 8.33807 15.5655 8.42683C15.4865 8.31806 15.4211 8.23018 15.393 8.199C15.2142 7.98658 15.397 8.05951 15.4841 8.03464ZM17.0594 8.80927C17.0207 8.81597 16.9834 8.84946 16.9699 8.90202C16.9614 8.93646 16.9864 8.99211 16.9552 9.00943C16.9373 9.02749 16.8678 9.01698 16.8706 8.92155C16.8706 8.89116 16.8483 8.85782 16.8348 8.83855C16.8213 8.82968 16.8121 8.82716 16.7876 8.82716C16.7578 8.82837 16.7584 8.83625 16.7421 8.86134C16.7351 8.8869 16.7258 8.9121 16.7258 8.94108C16.7221 8.97504 16.7101 8.98654 16.6851 8.99152C16.6572 8.99152 16.6622 8.99457 16.6395 8.98013C16.6261 8.96544 16.6102 8.95966 16.6102 8.93457C16.6102 8.90858 16.6034 8.86711 16.5956 8.84994C16.5837 8.8343 16.565 8.82779 16.5435 8.82228C16.4265 8.82269 16.4196 8.95552 16.4264 9.00617C16.4176 9.01572 16.4116 9.25564 16.5712 9.32188C16.7854 9.42402 17.1887 9.37921 17.1717 9.03384C17.1717 9.00329 17.1633 8.9007 17.1603 8.87272C17.1384 8.82181 17.0981 8.80257 17.0594 8.80927ZM9.86669 8.88087C9.84028 8.87818 9.80565 8.88788 9.76579 8.91179C9.57636 9.01425 9.50301 9.31819 9.62096 9.49603C9.73114 9.65266 9.90533 9.5953 9.92853 9.5953C10.1141 9.6185 10.2247 9.24704 10.2247 9.24704C10.2247 9.24704 10.2303 9.1426 10.0099 9.3398C9.91715 9.35717 9.90454 9.32367 9.88133 9.27145C9.86202 9.17482 9.86617 9.07684 9.91063 8.98015C9.93116 8.92218 9.91073 8.88535 9.86669 8.88087ZM20.0345 8.92806C19.9293 8.92295 19.8174 8.99105 19.7888 9.13474C19.7892 9.21951 19.827 9.2661 19.8197 9.34305C19.8087 9.38703 19.7634 9.41596 19.6553 9.3642C19.6722 9.34867 19.5853 9.22588 19.5853 9.22588C19.501 9.17454 19.3885 9.22866 19.3152 9.27633C19.2749 9.3496 19.2451 9.4752 19.2908 9.60343C19.4118 9.82698 19.8268 10.2084 20.0247 10.2121C20.0284 10.0105 20.048 9.74249 20.0589 9.57577C20.0636 9.51284 20.0783 9.44348 20.1386 9.42768C20.1989 9.41193 20.3035 9.48831 20.3046 9.4228C20.2937 9.29457 20.268 9.10535 20.1956 9.01596C20.1585 8.96098 20.0976 8.93113 20.0345 8.92806ZM11.618 9.62947C11.6152 9.6305 11.6124 9.63289 11.6099 9.63435C11.6086 9.63512 11.6063 9.63669 11.605 9.63761C11.584 9.65333 11.5593 9.68962 11.5041 9.72874C11.4109 9.83471 11.3942 9.90851 11.3999 10.1209C11.4052 10.1434 11.5768 10.6204 11.7222 10.9558C11.8202 11.3043 11.9108 11.7034 11.8442 12.0803C11.6148 12.5786 11.1535 13.0255 10.7083 13.2682C10.4815 13.3409 10.2856 13.3161 10.2331 13.2666C10.2327 13.2662 10.2319 13.2654 10.2315 13.265C10.1013 13.1774 10.0983 13.0215 10.1062 12.9948C10.1062 12.9947 10.1062 12.9934 10.1062 12.9932C10.1065 12.9929 10.1075 12.9919 10.1078 12.9916C10.4835 12.7299 10.9126 12.5182 11.2486 11.8118C11.3478 11.5418 11.3781 11.3797 11.2795 10.9623C11.2411 10.8068 11.1936 10.6788 11.0875 10.5685C11.0878 10.5682 11.0888 10.5671 11.0891 10.5669C11.1531 10.5363 11.319 10.6585 11.3446 10.5815C11.3054 10.3822 11.1704 10.1146 11.0175 9.97774C10.8837 9.85617 10.7381 9.8421 10.6156 9.95333C10.4776 10.0301 10.4482 10.3059 10.5147 10.5473C10.5885 10.729 10.7877 10.7609 10.9296 11.1266C10.9296 11.127 10.9296 11.1282 10.9296 11.1283C10.9326 11.1512 10.9784 11.4013 10.9069 11.5026C10.8488 11.6835 10.1036 12.2712 10.0508 12.3065C10.0503 12.3071 10.0465 12.3092 10.046 12.3098C10.0456 12.3101 10.0446 12.3111 10.0443 12.3114C10.0442 12.3115 10.043 12.3127 10.0427 12.313C10.0425 12.3132 10.0412 12.3145 10.0411 12.3146C10.0409 12.3146 10.0396 12.3147 10.0395 12.3146C10.0394 12.3146 10.0382 12.3146 10.0378 12.3146C10.0375 12.3144 10.0365 12.3133 10.0362 12.313C10.0362 12.3129 10.0362 12.3115 10.0362 12.3114C10.0359 12.3108 10.0349 12.3087 10.0346 12.3081C10.0323 12.2935 10.0363 12.2561 10.0346 12.1959C10.0297 12.0857 10.0753 11.8366 10.072 11.7939C10.072 11.7937 10.072 11.7924 10.072 11.7923C10.0717 11.792 10.0707 11.7909 10.0704 11.7906C10.0704 11.7905 10.0704 11.7892 10.0704 11.789C10.07 11.789 10.0688 11.789 10.0688 11.789C9.82243 11.9481 9.74108 12.4356 9.6961 12.5799C9.07249 13.0108 8.36431 13.3314 7.95645 13.7679C7.74403 14.0996 9.41999 13.387 9.61476 13.3008C9.61643 13.3021 9.61809 13.3041 9.61963 13.3057C9.65665 13.3465 9.65982 13.4885 9.77098 13.6165C9.94519 13.8525 10.3155 13.9979 10.6758 13.9078C11.28 13.6894 11.6282 13.2776 11.9826 12.8208C12.0332 12.7471 12.1126 12.689 12.186 12.7459C12.4296 13.2911 13.1318 13.6791 14.0396 13.7191C14.2497 13.4636 14.1492 13.338 14.064 13.2846C14.0378 13.2672 13.6125 13.1014 13.5465 12.9363C13.5049 12.7828 13.606 12.6465 13.8085 12.5441C14.3914 12.4736 14.9644 12.3953 15.5189 12.217C15.5245 12.0308 15.6342 11.7522 15.7077 11.6312C15.7586 11.5472 15.7914 11.5389 15.8037 11.527C15.8041 11.5266 15.805 11.5258 15.8053 11.5254C15.8055 11.5252 15.8068 11.524 15.8069 11.5238C15.8072 11.5235 15.8083 11.5224 15.8085 11.5222C15.8085 11.5216 15.8086 11.5195 15.8085 11.5189C15.8089 11.5152 15.8085 11.5089 15.8069 11.5026L15.7125 11.4473L13.8524 11.4392C13.8295 11.4303 13.8124 11.4214 13.802 11.4131C13.8012 11.4125 13.7994 11.4105 13.7987 11.4099C13.7984 11.4096 13.7974 11.4086 13.7971 11.4082C13.7968 11.4079 13.7957 11.4069 13.7955 11.4066C13.7952 11.4061 13.7941 11.4039 13.7939 11.4034C13.7937 11.4032 13.7924 11.4019 13.7922 11.4017C13.7922 11.4016 13.7922 11.4003 13.7922 11.4001C13.7921 11.4 13.7908 11.3987 13.7906 11.3985C13.7906 11.3983 13.7906 11.397 13.7906 11.3969C13.7906 11.3967 13.7906 11.3954 13.7906 11.3952C13.7906 11.3951 13.7906 11.3938 13.7906 11.3936C13.7906 11.3934 13.7906 11.3922 13.7906 11.392C13.7906 11.3919 13.7906 11.3907 13.7906 11.3904C13.7906 11.3902 13.7906 11.3889 13.7906 11.3887C13.7906 11.3886 13.7906 11.3873 13.7906 11.3871C13.7906 11.387 13.7906 11.3857 13.7906 11.3855C13.7909 11.3852 13.7919 11.3842 13.7922 11.3839C13.7927 11.383 13.7933 11.3815 13.7939 11.3806C13.8029 11.3684 13.825 11.3568 13.8524 11.3464C14.2966 11.2859 15.0857 11.1566 15.1381 10.3977C15.1299 10.0024 14.9689 9.74355 14.4839 9.67184C14.1275 9.6994 13.8733 10.0441 13.9143 10.4237C13.8973 10.5259 13.9489 10.7265 13.8443 10.7492C13.1607 10.8116 12.4145 11.24 12.3894 11.5466C12.3893 11.5465 12.388 11.5466 12.3878 11.5466C12.3876 11.5469 12.3865 11.5479 12.3862 11.5482C12.3857 11.5485 12.3838 11.5494 12.3829 11.5498C12.3824 11.5498 12.3803 11.5498 12.3797 11.5498C12.3786 11.5502 12.3759 11.5512 12.3748 11.5514C12.3745 11.5515 12.3736 11.5514 12.3732 11.5514C12.3722 11.5514 12.3705 11.5514 12.3699 11.5514C12.3696 11.5514 12.3687 11.5514 12.3683 11.5514C12.3676 11.5515 12.3656 11.5515 12.365 11.5514C12.3633 11.5511 12.3601 11.5502 12.3585 11.5498C12.3141 11.5375 12.2568 11.4641 12.2658 11.361C12.2397 10.8311 12.0672 10.2314 11.7971 9.76951C11.7007 9.67312 11.6587 9.63407 11.6311 9.62955C11.6302 9.62945 11.6287 9.62959 11.6278 9.62955C11.6267 9.62955 11.6244 9.62957 11.623 9.62955C11.6227 9.62956 11.6216 9.62953 11.6213 9.62955C11.6212 9.62955 11.6199 9.62957 11.6197 9.62955C11.6195 9.6296 11.6183 9.6295 11.6181 9.62955L11.618 9.62947ZM13.3984 9.90938C13.3597 9.91608 13.3224 9.94795 13.3089 10.0005C13.3004 10.0349 13.3254 10.0922 13.2942 10.1096C13.2763 10.1276 13.2068 10.1171 13.2096 10.0217C13.2096 9.99128 13.1873 9.95794 13.1738 9.93867C13.1602 9.9298 13.1527 9.92728 13.1282 9.92728C13.0984 9.92849 13.0974 9.93637 13.081 9.96146C13.0741 9.98702 13.0648 10.0122 13.0648 10.0412C13.061 10.0752 13.0491 10.0867 13.0241 10.0916C12.9961 10.0916 13.0028 10.0947 12.9801 10.0803C12.9667 10.0656 12.9492 10.0598 12.9492 10.0347C12.9492 10.0087 12.944 9.96723 12.9362 9.95006C12.9243 9.93442 12.904 9.92791 12.8825 9.9224C12.7655 9.92281 12.7586 10.0556 12.7653 10.1063C12.7566 10.1158 12.7506 10.3558 12.9102 10.422C13.1244 10.5241 13.6348 10.464 13.5106 10.134C13.5106 10.1034 13.5023 10.0008 13.4992 9.97284C13.4774 9.92193 13.437 9.90268 13.3984 9.90938ZM20.5833 10.2039C20.5779 10.203 20.5717 10.2033 20.5654 10.2056C20.5654 10.2056 19.5729 10.9117 19.5483 10.9362C19.4499 11.0237 19.4991 11.3314 19.5483 11.2959C19.6194 11.3232 20.6186 10.6461 20.5996 10.5668C20.6431 10.5694 20.664 10.2185 20.5833 10.2039ZM14.3363 10.3086C14.3768 10.3043 14.4299 10.3181 14.4811 10.3477C14.5552 10.3905 14.6009 10.4552 14.595 10.5023C14.5948 10.5035 14.5953 10.5059 14.595 10.5071C14.5947 10.5084 14.5921 10.5108 14.5917 10.512C14.5913 10.5132 14.5906 10.5157 14.5901 10.5169C14.5898 10.5177 14.5889 10.5194 14.5885 10.5202C14.5881 10.5209 14.5873 10.5227 14.5869 10.5234C14.5844 10.5274 14.5804 10.5316 14.5771 10.5348C14.5415 10.5681 14.4593 10.5633 14.3818 10.5185C14.3084 10.4761 14.263 10.4108 14.2679 10.3639C14.2681 10.3626 14.2693 10.3603 14.2695 10.359C14.2708 10.3532 14.2731 10.3479 14.276 10.3428C14.2771 10.3409 14.278 10.338 14.2793 10.3363C14.2796 10.336 14.2807 10.335 14.2809 10.3346C14.2831 10.3321 14.2864 10.3287 14.2891 10.3265C14.3009 10.3172 14.3176 10.3106 14.3363 10.3086ZM5.64428 10.4876C5.12999 10.497 4.37686 11.1617 4.35702 11.5307C4.8997 11.2701 5.43275 11.0193 5.98439 10.7496C5.89536 10.6167 5.979 10.497 5.64428 10.4876ZM7.31071 10.7187C7.36112 10.7193 7.41429 10.7442 7.44252 10.8147C7.46793 10.8794 7.44372 10.9471 7.41323 10.9807C7.41307 10.981 7.41338 10.9821 7.41323 10.9823C7.41276 10.9831 7.41211 10.9849 7.4116 10.9856C7.39002 11.0134 7.31424 11.0019 7.26026 11.0019C7.19496 10.999 7.16277 10.9883 7.12356 10.9351C7.10482 10.8761 7.16189 10.8181 7.18703 10.774C7.18729 10.7736 7.1884 10.7728 7.18866 10.7724C7.19138 10.7683 7.19584 10.7634 7.20005 10.7594C7.21958 10.7415 7.25335 10.7248 7.28956 10.7203C7.2966 10.7195 7.3035 10.7186 7.31071 10.7187ZM20.3901 10.9234C20.2986 10.9346 20.2117 11.0211 20.2517 11.1593C20.2267 11.2405 20.3758 11.5245 20.4145 11.6752C20.4493 11.7825 20.3697 12.0859 20.4421 12.1178C20.5089 12.1536 20.6843 11.9377 20.6781 11.6671C20.6974 11.5279 20.6285 11.0152 20.4535 10.9282C20.4334 10.9226 20.4112 10.9208 20.3901 10.9234ZM9.28177 11.4246C9.20095 11.4302 9.12883 11.4734 9.16135 11.5873C9.15647 11.6699 9.38971 11.7704 9.40383 11.9616C9.43716 12.0405 9.35396 12.2929 9.42335 12.3164C9.48707 12.3426 9.57549 12.1419 9.60887 11.9551C9.62735 11.8528 9.52885 11.495 9.36151 11.4311C9.33583 11.4256 9.30871 11.4227 9.28177 11.4246ZM12.6065 11.8786C12.6126 11.8782 12.618 11.8787 12.6244 11.8786C12.6255 11.8786 12.6266 11.8786 12.6277 11.8786C12.8349 11.9349 13.1404 11.9408 13.4056 11.9681C13.6216 11.9818 13.7283 12.1509 13.526 12.222C13.3264 12.2903 13.1347 12.3437 13.1338 12.6321C13.16 12.775 13.1545 12.8499 13.1322 12.8843C13.1304 12.8869 13.1276 12.8904 13.1257 12.8925C13.1254 12.8928 13.1243 12.8938 13.124 12.8941C13.1237 12.8944 13.1227 12.8955 13.1224 12.8957C13.1221 12.896 13.1211 12.8971 13.1208 12.8974L13.1192 12.899C13.1186 12.8992 13.1165 12.9003 13.1159 12.9006C13.113 12.9024 13.1093 12.9043 13.1061 12.9055C13.1034 12.9064 13.0994 12.9066 13.0964 12.9071C13.0489 12.9141 12.98 12.8688 12.9288 12.842C12.8057 12.7537 12.4604 12.5397 12.4113 12.0804C12.4043 11.9768 12.4818 11.8874 12.6065 11.8786ZM4.4858 12.2318C4.47286 12.2322 4.44695 12.2709 4.41257 12.3148C4.10661 12.8022 4.0794 13.5297 4.24821 13.7468C4.33792 13.8494 4.48582 13.8945 4.59484 13.8624C4.78706 13.779 4.87154 13.3897 4.82592 13.2473C4.76178 13.1469 4.71095 13.131 4.64691 13.2164C4.51165 13.491 4.45536 13.3031 4.4435 13.1496C4.42276 12.8586 4.45095 12.5905 4.48255 12.3783C4.49938 12.2695 4.49875 12.2314 4.48581 12.2318L4.4858 12.2318ZM14.9093 12.8718C14.8865 12.8706 14.8623 12.8741 14.8377 12.8864C14.8329 12.8864 14.6187 13.0313 14.5496 13.1322C14.5076 13.1642 14.5123 13.192 14.5252 13.2477C14.558 13.3231 14.6159 13.2995 14.6815 13.264C14.7685 13.2521 14.8107 13.3091 14.8035 13.4137C14.7633 13.5441 14.8214 13.5927 14.8214 13.6008C14.8214 13.609 14.9053 13.681 15.0037 13.6236C15.2114 13.5443 15.3409 13.4672 15.6318 13.4039C15.7082 13.4024 15.7038 13.198 15.583 13.1907C15.4254 13.1987 15.28 13.2067 15.1225 13.3307C15.0255 13.3531 15.0089 13.2941 14.9874 13.2412C14.9628 13.1099 15.0428 13.0174 15.0264 12.919C15.0308 12.9233 14.9775 12.8754 14.9093 12.8718ZM21.5833 13.1208C21.5447 13.122 21.504 13.1273 21.445 13.1322C21.3812 13.1457 21.359 13.1736 21.3474 13.2509C21.3519 13.3682 21.4236 13.3624 21.4971 13.4088C21.5396 13.4629 21.5673 13.5119 21.4938 13.6008C21.4242 13.6646 21.3746 13.6998 21.305 13.7636C21.2722 13.8196 21.2517 13.9057 21.3522 13.9328C21.5378 13.985 21.9674 13.7059 21.9674 13.7001C22.037 13.6479 22.0139 13.5488 22.008 13.5488C21.9675 13.5024 21.8759 13.5302 21.8144 13.5227C21.7851 13.5227 21.6889 13.5085 21.7346 13.4234C21.7728 13.3705 21.7869 13.3389 21.8128 13.2737C21.8417 13.21 21.8163 13.1669 21.7119 13.1321C21.6587 13.1225 21.622 13.1196 21.5833 13.1208ZM18.7952 18.7658C18.7948 18.766 18.794 18.7671 18.7936 18.7674C18.4849 18.8466 18.4945 19.1671 18.6927 19.3077C15.433 19.3077 10.4308 19.2524 9.35808 19.2524C8.75791 19.2524 6.85912 19.1808 6.82262 19.1808C7.22983 19.7763 7.81971 19.8976 8.59158 19.9098C10.0394 19.9098 16.7477 19.8919 18.6568 19.8919C18.5211 20.1329 18.6691 20.5207 18.7756 20.5917C18.7778 20.5932 18.7815 20.5954 18.7837 20.5966C18.7877 20.5986 18.7929 20.6005 18.7967 20.6015C18.798 20.6018 18.8004 20.6013 18.8016 20.6015C18.928 20.6313 18.9836 20.5398 19.0262 20.4729C19.2312 20.491 20.3852 20.5077 20.4908 20.4713C20.4912 20.4711 20.4921 20.4698 20.4925 20.4697C20.5639 20.5748 20.6348 20.6741 20.7707 20.6568C21.0087 20.6058 21.1961 20.5799 21.202 20.097C21.202 20.097 21.1777 19.2741 20.6373 19.3256C20.5094 19.345 20.1507 19.381 20.1507 19.381C19.7356 19.3316 19.4311 19.3265 18.9644 19.3094C19.0074 19.2547 19.0835 19.0332 18.9904 18.953C18.9661 18.9328 18.9299 18.9215 18.8797 18.9253C18.8794 18.9253 18.8785 18.9253 18.8781 18.9253C18.8774 18.9253 18.8755 18.9254 18.8748 18.9253C18.8745 18.9252 18.8736 18.9238 18.8732 18.9237C18.8719 18.9232 18.8696 18.9228 18.8683 18.9221C18.8658 18.9203 18.8625 18.9167 18.8602 18.9139C18.8596 18.9132 18.8575 18.9114 18.857 18.9107C18.8333 18.8763 18.8205 18.7921 18.8049 18.7707C18.8047 18.7705 18.8034 18.7693 18.8033 18.7691C18.803 18.7689 18.8018 18.7676 18.8016 18.7675C18.8011 18.7671 18.799 18.766 18.7984 18.7658C18.7982 18.7658 18.7969 18.7658 18.7967 18.7658C18.7965 18.7659 18.7953 18.7658 18.7951 18.7658L18.7952 18.7658ZM19.0165 19.9424C19.0171 19.9421 19.0176 19.9426 19.0181 19.9424C19.4937 19.9656 19.9405 19.9468 20.4161 19.97C20.4914 20.0341 20.4537 20.1809 20.4047 20.2076C20.4025 20.2087 20.3988 20.2103 20.3965 20.2109C20.3947 20.2113 20.3918 20.2108 20.39 20.2109C20.3882 20.2109 20.3853 20.2113 20.3835 20.2109C20.2289 20.207 20.1394 20.2034 19.9848 20.1995C19.9845 20.1918 19.9837 20.1835 19.9816 20.1767C19.9449 20.0681 19.6795 20.0754 19.617 20.1604C19.6162 20.1617 19.6146 20.1641 19.6138 20.1653C19.6128 20.167 19.6114 20.1701 19.6105 20.1718C19.6095 20.174 19.608 20.1777 19.6073 20.18C19.6063 20.1832 19.6061 20.188 19.6056 20.1914C19.6052 20.1953 19.6037 20.2003 19.604 20.2044C19.3953 20.2295 19.2074 20.1974 18.9986 20.1897C18.9374 20.1135 18.9445 19.9755 19.0165 19.9424Z" fill="white"/>
</g>
</svg>
