<svg width="28" height="29" viewBox="0 0 28 29" fill="none" xmlns="http://www.w3.org/2000/svg">
<mask id="mask0_500_2" style="mask-type:luminance" maskUnits="userSpaceOnUse" x="0" y="0" width="28" height="29">
<path d="M28 14.5C28 16.3385 27.6379 18.159 26.9343 19.8576C26.2307 21.5561 25.1995 23.0995 23.8995 24.3995C22.5995 25.6995 21.0561 26.7307 19.3576 27.4343C17.659 28.1379 15.8385 28.5 14 28.5C12.1615 28.5 10.341 28.1379 8.64243 27.4343C6.94387 26.7307 5.40052 25.6995 4.1005 24.3995C2.80048 23.0995 1.76925 21.5561 1.06568 19.8576C0.362118 18.159 -2.73959e-08 16.3385 0 14.5C-2.73959e-08 12.6615 0.362118 10.841 1.06568 9.14243C1.76925 7.44387 2.80048 5.90053 4.1005 4.6005C5.40052 3.30048 6.94387 2.26925 8.64243 1.56569C10.341 0.86212 12.1615 0.5 14 0.5C15.8385 0.5 17.659 0.86212 19.3576 1.56569C21.0561 2.26925 22.5995 3.30048 23.8995 4.6005C25.1995 5.90053 26.2307 7.44387 26.9343 9.14243C27.6379 10.841 28 12.6615 28 14.5Z" fill="white"/>
</mask>
<g mask="url(#mask0_500_2)">
<path d="M1.33643 -0.083252C0.272508 -0.083252 -0.583328 0.774483 -0.583328 1.83841V27.1637C-0.583328 28.2276 0.272508 29.0834 1.33643 29.0834H26.6617C27.7256 29.0834 28.5833 28.2276 28.5833 27.1637V1.83841C28.5833 0.774483 27.7256 -0.083252 26.6617 -0.083252H1.33643Z" fill="#479951"/>
<path fill-rule="evenodd" clip-rule="evenodd" d="M11.2785 7.5237C11.2583 7.52311 11.2281 7.53438 11.1857 7.55951C11.0905 7.62333 10.9018 7.81992 10.8961 8.04609C10.8903 8.17369 10.8662 8.17319 10.9498 8.2544C11.0101 8.34143 11.0704 8.33287 11.1922 8.26904C11.2622 8.2175 11.2858 8.18462 11.3094 8.09817C11.3384 7.9532 11.1569 8.16676 11.1337 8.00541C11.0931 7.85561 11.209 7.794 11.3192 7.64902C11.3217 7.58074 11.3229 7.52502 11.2785 7.5237ZM13.0523 7.53347C13.0183 7.53805 12.9766 7.58165 12.9189 7.68644C12.8774 7.7962 12.6988 7.9623 12.8277 8.30484C12.9332 8.52204 12.9765 8.87502 12.9286 9.26824C12.8556 9.37999 12.8389 9.4185 12.7431 9.53025C12.6085 9.67496 12.4628 9.63796 12.3509 9.58395C12.2464 9.51351 12.1643 9.47735 12.1166 9.25359C12.1252 8.89693 12.146 8.31315 12.0808 8.18926C11.9847 7.99742 11.8262 8.06622 11.7585 8.12417C11.4332 8.42163 11.2725 8.9239 11.1743 9.32353C11.0841 9.61479 10.9879 9.53056 10.9204 9.41304C10.7561 9.25903 10.7445 8.05474 10.5461 8.25273C10.2284 9.16094 10.7285 10.1558 11.075 10.0591C11.325 10.1626 11.4837 9.68677 11.586 9.16573C11.656 9.01949 11.7095 9.00268 11.7455 9.07785C11.7363 9.77077 11.7952 9.92533 11.9733 10.1356C12.3707 10.4422 12.6994 10.1745 12.7252 10.1486C12.751 10.1229 13.0344 9.83943 13.0344 9.83943C13.1033 9.76699 13.1943 9.76259 13.2915 9.82641C13.3861 9.91234 13.3739 10.0603 13.5763 10.1633C13.7466 10.2314 14.1104 10.1799 14.1947 10.0331C14.3083 9.83852 14.3358 9.77166 14.3884 9.69785C14.4694 9.58999 14.6081 9.63775 14.6081 9.67182C14.5952 9.73197 14.5137 9.79131 14.569 9.89965C14.6654 9.97192 14.6878 9.92547 14.7448 9.90941C14.9464 9.81304 15.0979 9.37563 15.0979 9.37563C15.1068 9.2125 15.014 9.22487 14.9547 9.25846C14.8773 9.30576 14.8726 9.32183 14.7952 9.36913C14.6966 9.38377 14.5057 9.4488 14.4112 9.30241C14.3146 9.12641 14.3141 8.88105 14.2403 8.70353C14.2403 8.69062 14.1113 8.42441 14.2305 8.40735C14.2907 8.41853 14.42 8.45196 14.4405 8.34388C14.5035 8.23854 14.3043 7.9397 14.1687 7.78896C14.0509 7.65974 13.8884 7.64398 13.7309 7.77594C13.6206 7.8774 13.637 7.99072 13.6154 8.09816C13.5873 8.22157 13.5927 8.37441 13.7179 8.53755C13.828 8.75459 14.0279 9.03306 13.962 9.42607C13.962 9.42607 13.8458 9.61311 13.6414 9.58881C13.5562 9.57023 13.4174 9.53336 13.3436 8.98832C13.2878 8.57576 13.3576 7.99773 13.1825 7.7271C13.143 7.62497 13.109 7.52583 13.0523 7.53347ZM12.4909 7.57721C12.438 7.58184 12.3793 7.64353 12.3314 7.76273C12.2904 7.85338 12.2403 8.32744 12.2484 8.32744C12.2157 8.46853 12.3959 8.52832 12.4779 8.34697C12.6009 8.0145 12.6015 7.87286 12.6097 7.73185C12.5906 7.62443 12.5439 7.57259 12.4909 7.57721ZM14.5642 7.61464C14.5098 7.61957 14.4664 7.65143 14.4502 7.73181C14.4286 7.92083 14.4396 8.0236 14.4714 8.18097C14.4958 8.28589 14.6485 8.46157 14.7236 8.5634C15.0828 9.04611 15.4283 9.53112 15.7619 10.0329C15.8144 10.4055 15.8528 10.77 15.8775 11.133C15.9315 11.929 15.948 12.9197 15.8986 13.758C16.0478 13.7638 16.2867 13.5172 16.3706 13.1559C16.4251 12.6561 16.3511 11.6363 16.3462 11.3413C16.3426 11.2189 16.3351 11.0728 16.3266 10.9198C16.7147 11.5541 17.0913 12.226 17.4609 12.9638C17.5956 12.8998 17.5658 12.1411 17.4869 12.0346C17.1911 11.3978 16.7824 10.7693 16.6521 10.5276C16.6051 10.4403 16.4449 10.1967 16.255 9.91572C16.2201 9.51481 16.1821 9.17525 16.1574 9.07271C16.0963 8.64891 16.3316 9.1205 16.299 8.87417C16.2226 8.45095 15.9891 8.16334 15.7131 7.77569C15.6241 7.64961 15.6259 7.62389 15.4885 7.80661C15.4064 7.99287 15.4075 8.14784 15.4316 8.29319C15.3954 8.24068 15.3508 8.17842 15.2867 8.10116C15.0484 7.89672 15.0337 7.88554 14.836 7.71873C14.7736 7.67447 14.6549 7.60635 14.5642 7.61458L14.5642 7.61464ZM20.7091 7.67811C20.6826 7.67399 20.6537 7.68702 20.6212 7.73507C20.5591 7.78955 20.4922 7.88822 20.4943 8.01498C20.5094 8.23832 20.5492 8.467 20.5643 8.69035C20.5696 8.72024 20.5752 8.74997 20.5805 8.77986C20.5565 8.74924 20.5356 8.72534 20.5236 8.71314C20.0882 8.2558 20.7236 8.63839 20.4406 8.28514C20.2012 8.02233 20.1312 7.9387 19.9263 7.78065C19.8236 7.71426 19.7615 7.58739 19.7278 7.80344C19.7144 7.99324 19.7004 8.21303 19.7132 8.37304C19.7124 8.46196 19.8045 8.62934 19.884 8.72781C20.1744 9.08462 20.4711 9.46426 20.7693 9.86046C20.8321 10.6685 20.8488 11.4091 20.9125 12.2185C20.9035 12.5647 20.797 13.0244 20.6961 13.068C20.6961 13.068 20.5419 13.1565 20.439 13.0582C20.3641 13.0281 20.0647 12.5586 20.0647 12.5586C19.9114 12.4181 19.8092 12.4582 19.7001 12.5586C19.3994 12.849 19.2633 13.393 19.059 13.7677C19.0063 13.8514 18.8578 13.9225 18.6928 13.7612C18.2737 13.1886 18.5188 12.3735 18.4666 12.583C18.0933 13.0037 18.2586 13.7008 18.3429 13.8507C18.466 14.097 18.5656 14.2546 18.8051 14.3764C19.0233 14.537 19.1931 14.4368 19.2868 14.3243C19.5063 14.0968 19.5092 13.5151 19.6123 13.4C19.6846 13.1886 19.8657 13.2249 19.954 13.3186C20.0396 13.4417 20.1407 13.5218 20.2665 13.5888C20.4712 13.7694 20.7156 13.8022 20.9565 13.6376C21.1211 13.5452 21.2279 13.4253 21.3243 13.1884C21.4277 12.9119 21.3765 11.4625 21.3536 10.6562C21.5082 10.8741 21.6608 11.0966 21.8125 11.3218C21.879 12.0296 21.9093 12.7266 21.8873 13.3951C21.8716 13.528 22.3511 12.9983 22.3479 12.7473C22.3457 12.5278 22.3483 12.3288 22.3479 12.1436C22.5805 12.5149 22.8056 12.8924 23.0184 13.2746C23.1502 13.2047 23.105 12.4582 23.0216 12.3552C22.7988 11.9813 22.5135 11.5774 22.2926 11.2648C22.2489 10.8703 22.1894 10.4049 22.1624 10.2623C22.1202 10.04 22.078 9.70601 22.0143 9.44214C21.9968 9.33911 21.944 9.00999 21.9606 8.97835C21.9866 8.9047 22.0847 8.9807 22.1331 8.89535C22.2055 8.81646 21.8822 7.97892 21.7181 7.73989C21.6591 7.63276 21.5524 7.66983 21.4203 7.84404C21.2978 7.95868 21.3426 8.22021 21.3894 8.46895C21.5108 9.10292 21.6193 9.74856 21.7051 10.3925C21.5462 10.1564 21.3524 9.87067 21.1615 9.59514C21.1564 9.56857 21.1371 9.47119 21.1371 9.46984C21.1371 9.45845 21.1108 8.95121 21.0883 8.83029C21.0843 8.78122 21.0726 8.76709 21.1241 8.77333C21.1786 8.81921 21.186 8.82168 21.2201 8.8368C21.2752 8.84688 21.3233 8.75379 21.2901 8.66756C21.1197 8.35341 20.9494 8.03786 20.7791 7.72368C20.7586 7.7035 20.7356 7.68223 20.7091 7.67811ZM4.85046 7.69439C4.75608 7.69169 4.65196 7.75019 4.69261 7.86363C4.66894 7.92546 4.87735 8.13447 4.91393 8.24932C4.94674 8.3311 4.88139 8.59443 4.94973 8.61873C5.01256 8.64597 5.09909 8.43644 5.132 8.24281C5.15021 8.13673 5.13643 7.7737 4.88952 7.69924C4.87687 7.69638 4.86394 7.69477 4.85046 7.69439ZM22.9161 7.69647C22.8946 7.6986 22.8684 7.73337 22.8282 7.81852C22.7316 7.97672 22.6984 8.25999 22.7371 8.51014C22.9696 10.083 23.1424 11.606 23.1781 13.0001C23.1581 13.1324 23.1522 13.2028 23.0902 13.3695C22.9529 13.5454 22.8016 13.766 22.659 13.8723C22.5164 13.9786 22.213 14.08 22.1138 14.1588C21.7991 14.3407 21.7975 14.5499 22.0519 14.5575C22.4905 14.5065 23.0094 14.4706 23.3668 13.9309C23.4625 13.7797 23.5751 13.3698 23.58 13.1189C23.6135 11.6479 23.5612 10.2096 23.3408 9.14647C23.3267 9.0429 23.281 8.80487 23.2985 8.7738C23.3269 8.701 23.4704 8.78109 23.5214 8.69731C23.5964 8.62078 23.1504 8.0497 22.9942 7.80552C22.963 7.74419 22.9437 7.69372 22.9161 7.69647ZM18.3172 7.72088C18.299 7.724 18.2723 7.75156 18.2228 7.8169C18.1003 8.21744 18.0572 8.54455 18.104 8.79332C18.4186 10.4355 18.7411 11.9316 18.6898 13.4948C18.8391 13.4958 19.0116 13.1534 19.0853 12.8146C19.1256 12.3478 19.0584 12.0637 19.0462 11.7893C19.0342 11.5149 18.7357 9.28892 18.6752 9.08135C18.6022 8.68883 18.9654 9.02972 18.9258 8.80144C18.8002 8.51364 18.4869 8.09456 18.3888 7.84455C18.3519 7.77759 18.3473 7.71567 18.3172 7.72088ZM7.1193 7.7518C7.08063 7.7585 7.04331 7.79036 7.02979 7.84293C7.02129 7.87736 7.0447 7.93464 7.01352 7.95197C6.99562 7.97002 6.92769 7.95789 6.93052 7.86246C6.93052 7.83207 6.90821 7.80035 6.89472 7.78109C6.88118 7.77222 6.87204 7.7697 6.84752 7.7697C6.81766 7.77091 6.81833 7.77878 6.80196 7.80387C6.79467 7.82939 6.78529 7.85439 6.78529 7.88355C6.78157 7.91751 6.76797 7.92901 6.74298 7.934C6.71506 7.934 6.72167 7.93704 6.69904 7.92261C6.68561 7.90791 6.66975 7.90213 6.66975 7.87704C6.66975 7.85106 6.66293 7.80958 6.6551 7.79242C6.64324 7.77678 6.6245 7.76864 6.60303 7.76313C6.48603 7.76354 6.47751 7.89799 6.48423 7.94865C6.47547 7.9582 6.47113 8.19648 6.6307 8.26273C6.84491 8.36487 7.2466 8.32169 7.22957 7.97631C7.22957 7.94576 7.22285 7.84318 7.2198 7.8152C7.19794 7.76428 7.15758 7.74503 7.11891 7.75173L7.1193 7.7518ZM9.99326 7.75505C9.91923 7.75883 9.85387 7.78005 9.79798 7.80875C9.65599 7.9447 9.6227 8.16265 9.73451 8.29859C9.84332 8.34998 9.95188 8.4595 9.87934 8.51991C9.57164 8.84857 8.7708 9.39775 8.73044 9.49795C8.73013 9.49876 8.72899 9.50045 8.72882 9.5012C8.72871 9.50192 8.72883 9.50381 8.72882 9.50446C8.72884 9.50477 8.72877 9.50579 8.72882 9.50608C8.72908 9.50691 8.72993 9.50866 8.73044 9.50934C8.73065 9.50954 8.73184 9.51077 8.73207 9.51096C8.73233 9.51112 8.73341 9.51081 8.73369 9.51096C8.734 9.51112 8.73497 9.51247 8.73532 9.51259C8.73568 9.51269 8.73653 9.51248 8.73694 9.51259C8.73704 9.51269 8.73843 9.5141 8.73857 9.51421C8.77926 9.54151 9.28036 9.54086 9.33582 9.51584C9.33624 9.51563 9.33711 9.51442 9.33745 9.51421C9.3376 9.51411 9.33894 9.51431 9.33907 9.51421C9.33918 9.51411 9.33897 9.51269 9.33907 9.51259C9.51129 9.44913 10.3285 8.51502 10.3285 8.51502C10.2862 8.47875 10.2471 8.45202 10.2048 8.41575C10.1595 8.37649 10.164 8.3379 10.2048 8.29858C10.4072 8.1808 10.3431 7.92165 10.2374 7.80386C10.1497 7.76458 10.0673 7.75128 9.99326 7.75505ZM17.5052 7.75831C17.4837 7.76044 17.4575 7.79358 17.4173 7.87873C17.3207 8.03693 17.2551 8.31243 17.2627 8.57035C17.4719 10.0188 17.5361 11.2863 17.6728 12.7348C17.6839 12.8749 17.6634 13.0784 17.5703 13.1595C17.2258 13.5192 16.7292 13.9628 16.1887 14.1669C16.1305 14.2322 16.3333 14.5105 16.5955 14.5103C17.034 14.4594 17.4195 14.2132 17.777 13.5648C17.8726 13.4136 18.0406 13.0899 18.0455 12.839C18.0789 11.368 17.9714 10.2243 17.751 9.1611C17.7368 9.05754 17.7464 8.93505 17.764 8.90398C17.7924 8.87007 17.8887 8.90475 17.9397 8.82098C18.0147 8.74445 17.7395 8.10988 17.5833 7.8657C17.5521 7.80437 17.5329 7.75556 17.5052 7.75831ZM5.86782 7.80257C5.80729 7.80965 5.75035 7.85893 5.72298 7.92463C5.71285 8.15694 5.71149 8.38914 5.73763 8.60323C5.84329 8.97874 5.87675 9.30901 5.92803 9.69359C5.94225 10.2087 5.63059 9.9164 5.64487 9.66104C5.71683 9.32936 5.6974 8.80721 5.63347 8.67483C5.58277 8.54251 5.52406 8.50984 5.40076 8.53162C5.30287 8.52564 5.04997 8.80119 4.97927 9.25746C4.97927 9.25746 4.92036 9.49161 4.89464 9.7001C4.86005 9.93572 4.70396 10.1026 4.59521 9.66755C4.5012 9.35136 4.44342 8.5723 4.28601 8.75461C4.24092 9.36291 4.18738 10.4333 4.70424 10.5431C5.32941 10.6032 4.98407 9.48628 5.21035 9.28349C5.25313 9.18329 5.33241 9.18151 5.33892 9.3079V10.2567C5.3332 10.5651 5.53616 10.6568 5.69368 10.7205C5.85761 10.7078 5.9663 10.7123 6.03055 10.8718C6.05617 11.4187 6.08305 11.967 6.10867 12.5138C6.10867 12.5138 6.48764 12.6227 6.50574 11.5911C6.52391 10.9853 6.38512 10.477 6.46669 10.3592C6.46957 10.2434 6.61799 10.2377 6.72056 10.2941C6.88395 10.4093 6.95645 10.5512 7.21039 10.4943C7.59681 10.3878 7.82957 10.2002 7.8353 9.90351C7.81273 9.62154 7.78011 9.33926 7.65792 9.05727C7.67498 9.00599 7.58396 8.87259 7.60096 8.82131C7.6704 8.93006 7.77546 8.92104 7.7995 8.82131C7.73373 8.60458 7.63134 8.39692 7.46589 8.30706C7.32916 8.1866 7.12907 8.21207 7.05579 8.46329C7.02183 8.75277 7.16071 9.09585 7.3715 9.37623C7.41628 9.48577 7.4789 9.66797 7.45124 9.83189C7.33907 9.89588 7.22786 9.86926 7.1339 9.77005C7.1339 9.77005 6.82633 9.5398 6.82633 9.48852C6.90795 8.96594 6.84391 8.9061 6.79867 8.76107C6.76707 8.56088 6.6722 8.49748 6.59525 8.36074C6.5183 8.27917 6.41392 8.27917 6.36416 8.36074C6.22821 8.59641 6.292 9.1024 6.3902 9.32904C6.46116 9.53747 6.56999 9.66753 6.51876 9.66753C6.47656 9.78531 6.38857 9.75791 6.32511 9.62196C6.23451 9.34099 6.21607 8.92222 6.21607 8.73345C6.18888 8.4994 6.15857 7.99944 6.00451 7.87258C5.96341 7.81659 5.91489 7.79707 5.86782 7.80257ZM8.06312 7.80583C8.0321 7.80975 7.9978 7.82741 7.95735 7.83675C7.82444 7.87905 7.70002 7.99395 7.73928 8.21755C7.89638 9.17221 7.99878 9.9008 8.15588 10.8555C8.18003 10.9673 8.08631 11.1147 7.96549 11.0996C7.76004 10.9606 7.70905 10.6791 7.35849 10.6911C7.1047 10.6942 6.81529 10.9703 6.77915 11.2363C6.73684 11.4477 6.72177 11.6769 6.77915 11.8612C6.95751 12.0757 7.17116 12.0528 7.35849 12.0044C7.51255 11.941 7.6393 11.7892 7.69373 11.8254C7.69388 11.8256 7.69522 11.8252 7.69535 11.8254C7.69551 11.8256 7.6952 11.8268 7.69535 11.8271C7.72895 11.8858 7.69219 12.3823 6.96952 12.766C6.52541 12.9654 6.17193 13.0131 5.98169 12.6505C5.86386 12.4239 5.99027 11.5608 5.70016 11.7603C4.84221 13.9718 7.71018 14.2805 8.03055 11.8514C8.0513 11.7829 8.11451 11.7141 8.15912 11.731C8.17869 11.7393 8.19661 11.7659 8.20306 11.8156C8.13655 14.0151 5.98432 14.1658 5.6188 13.4739C5.5282 13.3108 5.50094 12.9478 5.49186 12.7302C5.47529 12.5986 5.44227 12.5227 5.40398 12.4926C5.31678 12.4271 5.1996 12.598 5.17453 12.8946C5.13826 13.1333 5.14849 13.1988 5.14849 13.4284C5.26329 15.1656 8.03286 14.4192 8.48296 12.9841C8.70577 12.2422 8.47842 11.6826 8.55293 11.6139C8.55358 11.6134 8.5555 11.6127 8.55619 11.6123C8.5569 11.6119 8.55869 11.611 8.55944 11.6106C8.56022 11.6103 8.56188 11.6093 8.5627 11.609C8.56523 11.6083 8.56949 11.6074 8.57246 11.6074C8.8474 11.9035 9.2332 11.645 9.31777 11.5423C9.35404 11.4909 9.44477 11.4579 9.50817 11.5244C9.72264 11.6786 10.0986 11.6059 10.177 11.334C10.2224 11.0681 10.2607 10.7944 10.2698 10.5106C10.1301 10.554 10.0174 10.5864 9.97198 10.6343C9.96117 10.6461 9.95318 10.6591 9.95082 10.6733C9.9387 10.7519 9.92715 10.8307 9.91502 10.9093C9.91372 10.9158 9.91164 10.9218 9.90851 10.9272C9.90256 10.9368 9.89271 10.9457 9.88247 10.9516C9.83308 10.9786 9.74696 10.9631 9.74252 10.8914C9.67607 10.5893 9.40259 10.55 9.23641 11.0183C9.1246 11.1089 8.92074 11.1266 8.89954 10.9907C8.92673 10.6765 8.80013 10.6343 8.5464 10.7823C8.46483 10.16 8.38391 9.5658 8.3023 8.94345C8.40806 8.9404 8.50505 9.01708 8.60173 8.89625C8.4971 8.57085 8.2757 7.90874 8.15095 7.84661C8.14997 7.84614 8.14867 7.84536 8.1477 7.84499C8.14203 7.83819 8.13533 7.83193 8.1298 7.82709C8.1275 7.82513 8.12395 7.82223 8.12166 7.82058C8.11937 7.81899 8.1158 7.817 8.11352 7.8157C8.10851 7.81295 8.10225 7.81071 8.09725 7.80919C8.08588 7.80597 8.07483 7.80445 8.06308 7.80593L8.06312 7.80583ZM16.6213 7.81071C16.5115 7.80745 16.3901 7.87662 16.4374 8.01413C16.4098 8.08913 16.6732 8.34356 16.7157 8.48281C16.7921 8.69676 16.6573 8.90084 16.7368 8.93034C16.81 8.96335 16.9118 8.70946 16.95 8.47467C16.9941 8.28487 16.8587 7.8959 16.6668 7.8156C16.6521 7.81214 16.6369 7.81117 16.6213 7.81071ZM9.95399 8.04505C10.004 8.03996 10.0644 8.08588 10.0939 8.15082C10.1255 8.2201 10.1097 8.28629 10.0581 8.29892C10.0066 8.31154 9.93998 8.26567 9.90843 8.19639C9.87688 8.12711 9.8927 8.0593 9.94423 8.04667C9.94745 8.04588 9.95066 8.04539 9.95399 8.04505ZM22.322 8.36564C22.2219 8.36213 22.1129 8.43811 22.156 8.58696C22.1309 8.66816 22.3696 8.94395 22.4083 9.0947C22.4431 9.20198 22.3553 9.54774 22.4278 9.57965C22.4945 9.6154 22.5883 9.34077 22.6231 9.08656C22.6424 8.94741 22.5393 8.4591 22.3643 8.37213C22.3509 8.36839 22.3363 8.36614 22.322 8.36564ZM15.4839 8.53488C15.4931 8.57569 15.5022 8.61677 15.5083 8.65856C15.5288 8.74874 15.5465 8.83832 15.5653 8.92708C15.4863 8.81831 15.4209 8.73042 15.3928 8.69925C15.2141 8.48683 15.3968 8.55975 15.4839 8.53488ZM17.0592 9.30951C17.0205 9.31621 16.9832 9.3497 16.9697 9.40227C16.9612 9.4367 16.9862 9.49235 16.9551 9.50967C16.9372 9.52773 16.8676 9.51722 16.8704 9.4218C16.8704 9.39141 16.8481 9.35807 16.8346 9.3388C16.8211 9.32993 16.812 9.32741 16.7874 9.32741C16.7576 9.32862 16.7583 9.33649 16.7419 9.36158C16.7349 9.38714 16.7256 9.41235 16.7256 9.44132C16.7219 9.47528 16.7099 9.48678 16.6849 9.49177C16.657 9.49177 16.662 9.49481 16.6394 9.48038C16.6259 9.46568 16.6101 9.4599 16.6101 9.43481C16.6101 9.40883 16.6032 9.36735 16.5954 9.35019C16.5836 9.33455 16.5648 9.32803 16.5433 9.32252C16.4263 9.32294 16.4194 9.45576 16.4262 9.50641C16.4174 9.51596 16.4114 9.75588 16.571 9.82212C16.7852 9.92426 17.1885 9.87946 17.1715 9.53408C17.1715 9.50353 17.1631 9.40095 17.1601 9.37297C17.1382 9.32205 17.0979 9.30281 17.0592 9.30951ZM9.86651 9.38112C9.84009 9.37842 9.80547 9.38812 9.76561 9.41204C9.57618 9.51449 9.50283 9.81843 9.62078 9.99627C9.73095 10.1529 9.90515 10.0955 9.92835 10.0955C10.1139 10.1187 10.2245 9.74728 10.2245 9.74728C10.2245 9.74728 10.2301 9.64284 10.0097 9.84004C9.91697 9.85741 9.90436 9.82392 9.88115 9.77169C9.86183 9.67506 9.86599 9.57708 9.91044 9.48039C9.93098 9.42242 9.91055 9.3856 9.86651 9.38112ZM20.0343 9.42831C19.9291 9.4232 19.8172 9.4913 19.7886 9.63499C19.789 9.71976 19.8268 9.76634 19.8195 9.84329C19.8085 9.88728 19.7632 9.9162 19.6551 9.86445C19.672 9.84891 19.5852 9.72612 19.5852 9.72612C19.5008 9.67479 19.3883 9.72891 19.315 9.77657C19.2747 9.84985 19.2449 9.97544 19.2906 10.1037C19.4116 10.3272 19.8266 10.7087 20.0246 10.7123C20.0282 10.5108 20.0478 10.2427 20.0587 10.076C20.0634 10.0131 20.0782 9.94372 20.1385 9.92792C20.1987 9.91218 20.3033 9.98855 20.3045 9.92304C20.2935 9.79481 20.2679 9.60559 20.1954 9.5162C20.1583 9.46123 20.0974 9.43138 20.0343 9.42831ZM11.6178 10.1297C11.615 10.1307 11.6123 10.1331 11.6097 10.1346C11.6084 10.1354 11.6061 10.1369 11.6048 10.1379C11.5839 10.1536 11.5591 10.1899 11.5039 10.229C11.4107 10.335 11.394 10.4088 11.3998 10.6212C11.4051 10.6436 11.5766 11.1207 11.722 11.456C11.82 11.8045 11.9106 12.2036 11.844 12.5805C11.6146 13.0788 11.1533 13.5257 10.7081 13.7685C10.4813 13.8411 10.2854 13.8164 10.233 13.7669C10.2325 13.7664 10.2317 13.7656 10.2313 13.7652C10.1011 13.6777 10.0981 13.5217 10.106 13.4951C10.106 13.4949 10.106 13.4936 10.106 13.4935C10.1063 13.4932 10.1074 13.4921 10.1077 13.4918C10.4833 13.2302 10.9124 13.0184 11.2484 12.312C11.3476 12.0421 11.3779 11.88 11.2793 11.4626C11.2409 11.307 11.1935 11.179 11.0873 11.0687C11.0876 11.0684 11.0887 11.0674 11.0889 11.0671C11.1529 11.0365 11.3188 11.1587 11.3444 11.0817C11.3052 10.8825 11.1702 10.6149 11.0173 10.478C10.8835 10.3564 10.7379 10.3423 10.6154 10.4536C10.4774 10.5304 10.448 10.8062 10.5145 11.0475C10.5883 11.2293 10.7875 11.2611 10.9295 11.6269C10.9295 11.6273 10.9294 11.6284 10.9295 11.6285C10.9324 11.6514 10.9782 11.9015 10.9067 12.0028C10.8487 12.1837 10.1035 12.7714 10.0507 12.8068C10.0501 12.8073 10.0463 12.8095 10.0458 12.81C10.0455 12.8103 10.0444 12.8114 10.0441 12.8116C10.044 12.8117 10.0429 12.8129 10.0425 12.8133C10.0424 12.8134 10.041 12.8147 10.0409 12.8149C10.0407 12.8149 10.0395 12.8149 10.0393 12.8149C10.0392 12.8149 10.038 12.8149 10.0376 12.8149C10.0373 12.8146 10.0363 12.8136 10.036 12.8133C10.036 12.8131 10.036 12.8118 10.036 12.8116C10.0357 12.8111 10.0347 12.809 10.0344 12.8084C10.0322 12.7937 10.0361 12.7564 10.0344 12.6961C10.0295 12.586 10.0751 12.3369 10.0718 12.2941C10.0718 12.294 10.0718 12.2927 10.0718 12.2925C10.0715 12.2922 10.0705 12.2912 10.0702 12.2909C10.0702 12.2907 10.0702 12.2894 10.0702 12.2893C10.0698 12.2893 10.0686 12.2893 10.0686 12.2893C9.82225 12.4483 9.7409 12.9358 9.69591 13.0802C9.07231 13.5111 8.36413 13.8316 7.95627 14.2681C7.74385 14.5999 9.41981 13.8872 9.61457 13.8011C9.61624 13.8023 9.61791 13.8044 9.61945 13.806C9.65647 13.8467 9.65963 13.9888 9.7708 14.1168C9.945 14.3528 10.3153 14.4981 10.6756 14.4081C11.2798 14.1897 11.628 13.7779 11.9824 13.321C12.0331 13.2473 12.1124 13.1893 12.1858 13.2462C12.4294 13.7914 13.1316 14.1794 14.0394 14.2193C14.2495 13.9639 14.149 13.8383 14.0638 13.7848C14.0376 13.7674 13.6123 13.6016 13.5463 13.4366C13.5047 13.283 13.6058 13.1468 13.8083 13.0444C14.3912 12.9739 14.9642 12.8956 15.5187 12.7173C15.5243 12.531 15.634 12.2524 15.7075 12.1314C15.7585 12.0475 15.7912 12.0392 15.8035 12.0273C15.8039 12.0269 15.8048 12.0261 15.8051 12.0257C15.8053 12.0254 15.8066 12.0243 15.8067 12.024C15.807 12.0238 15.8081 12.0227 15.8084 12.0224C15.8084 12.0219 15.8084 12.0197 15.8084 12.0192C15.8087 12.0155 15.8083 12.0091 15.8067 12.0029L15.7123 11.9475L13.8523 11.9394C13.8293 11.9306 13.8122 11.9217 13.8018 11.9134C13.801 11.9127 13.7993 11.9108 13.7986 11.9101C13.7982 11.9098 13.7972 11.9088 13.7969 11.9085C13.7966 11.9082 13.7956 11.9072 13.7953 11.9069C13.795 11.9063 13.7939 11.9042 13.7937 11.9036C13.7935 11.9035 13.7922 11.9022 13.7921 11.902C13.7921 11.9018 13.792 11.9005 13.7921 11.9004C13.7919 11.9002 13.7906 11.8989 13.7904 11.8987C13.7904 11.8986 13.7904 11.8973 13.7904 11.8971C13.7904 11.897 13.7904 11.8957 13.7904 11.8955C13.7904 11.8953 13.7904 11.894 13.7904 11.8939C13.7904 11.8936 13.7904 11.8925 13.7904 11.8922C13.7904 11.8921 13.7904 11.891 13.7904 11.8906C13.7904 11.8905 13.7904 11.8892 13.7904 11.889C13.7904 11.8888 13.7904 11.8875 13.7904 11.8874C13.7904 11.8872 13.7904 11.8859 13.7904 11.8857C13.7907 11.8854 13.7917 11.8844 13.7921 11.8841C13.7925 11.8833 13.7931 11.8817 13.7937 11.8809C13.8028 11.8686 13.8248 11.8571 13.8523 11.8467C14.2964 11.7862 15.0855 11.6568 15.1379 10.8979C15.1297 10.5026 14.9688 10.2438 14.4837 10.1721C14.1273 10.1996 13.8731 10.5444 13.9141 10.924C13.8971 11.0262 13.9487 11.2267 13.8441 11.2494C13.1605 11.3119 12.4143 11.7403 12.3893 12.0468C12.3891 12.0468 12.3878 12.0468 12.3876 12.0468C12.3874 12.0471 12.3863 12.0481 12.386 12.0484C12.3855 12.0487 12.3836 12.0496 12.3828 12.0501C12.3822 12.0501 12.3801 12.0501 12.3795 12.0501C12.3784 12.0504 12.3757 12.0514 12.3746 12.0517C12.3743 12.0517 12.3734 12.0517 12.373 12.0517C12.3721 12.0517 12.3704 12.0517 12.3697 12.0517C12.3694 12.0517 12.3685 12.0517 12.3681 12.0517C12.3674 12.0517 12.3654 12.0517 12.3649 12.0517C12.3631 12.0513 12.3599 12.0505 12.3583 12.0501C12.3139 12.0377 12.2566 11.9643 12.2656 11.8613C12.2396 11.3313 12.0671 10.7316 11.7969 10.2697C11.7005 10.1734 11.6585 10.1343 11.6309 10.1298C11.63 10.1297 11.6285 10.1298 11.6277 10.1298C11.6265 10.1298 11.6242 10.1298 11.6228 10.1298C11.6225 10.1298 11.6214 10.1298 11.6212 10.1298C11.621 10.1298 11.6197 10.1298 11.6195 10.1298C11.6193 10.1298 11.6181 10.1297 11.6179 10.1298L11.6178 10.1297ZM13.3982 10.4096C13.3595 10.4163 13.3222 10.4482 13.3087 10.5008C13.3002 10.5352 13.3252 10.5925 13.294 10.6098C13.2761 10.6279 13.2066 10.6173 13.2094 10.5219C13.2094 10.4915 13.1871 10.4582 13.1736 10.4389C13.1601 10.43 13.1526 10.4275 13.128 10.4275C13.0982 10.4287 13.0972 10.4366 13.0808 10.4617C13.0739 10.4873 13.0646 10.5125 13.0646 10.5414C13.0608 10.5754 13.0489 10.5869 13.0239 10.5919C12.996 10.5919 13.0026 10.5949 12.9799 10.5805C12.9665 10.5658 12.949 10.56 12.949 10.5349C12.949 10.5089 12.9438 10.4675 12.936 10.4503C12.9241 10.4347 12.9038 10.4282 12.8823 10.4226C12.7653 10.4231 12.7584 10.5559 12.7651 10.6065C12.7564 10.6161 12.7504 10.856 12.91 10.9222C13.1242 11.0244 13.6347 10.9642 13.5105 10.6342C13.5105 10.6037 13.5021 10.5011 13.4991 10.4731C13.4772 10.4222 13.4369 10.4029 13.3982 10.4096ZM20.5831 10.7042C20.5777 10.7032 20.5715 10.7036 20.5652 10.7058C20.5652 10.7058 19.5727 11.4119 19.5481 11.4365C19.4497 11.524 19.4989 11.8317 19.5481 11.7961C19.6192 11.8235 20.6185 11.1463 20.5994 11.0671C20.6429 11.0696 20.6639 10.7187 20.5831 10.7042ZM14.3361 10.8088C14.3766 10.8046 14.4297 10.8183 14.4809 10.8479C14.555 10.8908 14.6007 10.9555 14.5948 11.0025C14.5946 11.0038 14.5951 11.0061 14.5948 11.0074C14.5945 11.0086 14.5919 11.0111 14.5916 11.0123C14.5911 11.0135 14.5904 11.016 14.5899 11.0171C14.5896 11.0179 14.5887 11.0196 14.5883 11.0204C14.5879 11.0212 14.5871 11.0229 14.5867 11.0237C14.5843 11.0276 14.5803 11.0318 14.5769 11.035C14.5413 11.0683 14.4591 11.0636 14.3816 11.0188C14.3082 10.9763 14.2629 10.9111 14.2677 10.8642C14.2679 10.8629 14.2691 10.8605 14.2694 10.8593C14.2706 10.8535 14.2729 10.8482 14.2759 10.843C14.2769 10.8412 14.2779 10.8382 14.2791 10.8365C14.2794 10.8362 14.2805 10.8352 14.2807 10.8349C14.2829 10.8323 14.2862 10.8289 14.2889 10.8267C14.3007 10.8175 14.3174 10.8108 14.3361 10.8088ZM5.6441 10.9879C5.12981 10.9973 4.37668 11.662 4.35684 12.031C4.89952 11.7704 5.43257 11.5195 5.9842 11.2499C5.89518 11.1169 5.97882 10.9972 5.6441 10.9879ZM7.31052 11.2189C7.36094 11.2195 7.41411 11.2444 7.44234 11.315C7.46774 11.3797 7.44354 11.4474 7.41304 11.481C7.41289 11.4812 7.4132 11.4823 7.41304 11.4826C7.41258 11.4833 7.41192 11.4851 7.41142 11.4858C7.38983 11.5136 7.31405 11.5021 7.26008 11.5021C7.19478 11.4992 7.16259 11.4885 7.12338 11.4354C7.10464 11.3763 7.1617 11.3183 7.18685 11.2743C7.18711 11.2739 7.18822 11.2731 7.18847 11.2727C7.1912 11.2685 7.19566 11.2636 7.19986 11.2596C7.21939 11.2417 7.25316 11.225 7.28937 11.2206C7.29641 11.2197 7.30332 11.2189 7.31052 11.2189ZM20.3899 11.4236C20.2984 11.4349 20.2115 11.5213 20.2516 11.6596C20.2265 11.7408 20.3756 12.0247 20.4143 12.1754C20.4491 12.2827 20.3695 12.5862 20.442 12.6181C20.5087 12.6538 20.6841 12.4379 20.6779 12.1673C20.6972 12.0282 20.6283 11.5155 20.4533 11.4285C20.4332 11.4228 20.411 11.421 20.3899 11.4236ZM9.28159 11.9248C9.20077 11.9305 9.12865 11.9737 9.16117 12.0876C9.15629 12.1702 9.38952 12.2706 9.40364 12.4619C9.43697 12.5407 9.35378 12.7932 9.42317 12.8166C9.48689 12.8429 9.57531 12.6421 9.60869 12.4554C9.62717 12.3531 9.52867 11.9952 9.36133 11.9314C9.33565 11.9258 9.30853 11.9229 9.28159 11.9248ZM12.6063 12.3789C12.6125 12.3785 12.6179 12.3789 12.6242 12.3789C12.6253 12.3789 12.6264 12.3789 12.6275 12.3789C12.8347 12.4352 13.1402 12.441 13.4054 12.4684C13.6214 12.4821 13.7281 12.6512 13.5258 12.7222C13.3262 12.7906 13.1345 12.844 13.1336 13.1323C13.1599 13.2752 13.1543 13.3502 13.132 13.3846C13.1302 13.3872 13.1274 13.3906 13.1255 13.3927C13.1252 13.393 13.1241 13.3941 13.1239 13.3944C13.1235 13.3946 13.1225 13.3957 13.1222 13.396C13.1219 13.3962 13.1209 13.3974 13.1206 13.3976L13.119 13.3992C13.1184 13.3995 13.1163 13.4006 13.1157 13.4009C13.1128 13.4027 13.1091 13.4046 13.106 13.4057C13.1032 13.4067 13.0992 13.4069 13.0962 13.4074C13.0488 13.4143 12.9799 13.3691 12.9286 13.3423C12.8055 13.2539 12.4603 13.0399 12.4111 12.5807C12.4041 12.477 12.4816 12.3877 12.6063 12.3789ZM4.48562 12.732C4.47267 12.7324 4.44677 12.7711 4.41239 12.815C4.10643 13.3024 4.07922 14.03 4.24803 14.2471C4.33773 14.3497 4.48564 14.3948 4.59465 14.3626C4.78687 14.2793 4.87135 13.8899 4.82574 13.7475C4.7616 13.6471 4.71077 13.6312 4.64673 13.7166C4.51147 13.9912 4.45518 13.8034 4.44331 13.6499C4.42258 13.3588 4.45077 13.0908 4.48237 12.8785C4.49919 12.7697 4.49857 12.7317 4.48562 12.7321L4.48562 12.732ZM14.9091 13.372C14.8864 13.3708 14.8621 13.3744 14.8375 13.3867C14.8327 13.3867 14.6185 13.5315 14.5495 13.6324C14.5074 13.6644 14.5121 13.6923 14.5251 13.7479C14.5579 13.8234 14.6157 13.7997 14.6813 13.7642C14.7684 13.7524 14.8105 13.8094 14.8033 13.9139C14.7631 14.0443 14.8212 14.0929 14.8212 14.1011C14.8212 14.1093 14.9051 14.1812 15.0035 14.1239C15.2113 14.0446 15.3407 13.9674 15.6316 13.9042C15.708 13.9027 15.7036 13.6983 15.5828 13.691C15.4253 13.6989 15.2799 13.707 15.1223 13.8309C15.0253 13.8534 15.0087 13.7943 14.9872 13.7414C14.9626 13.6102 15.0426 13.5176 15.0263 13.4192C15.0306 13.4235 14.9774 13.3757 14.9091 13.372ZM21.5831 13.621C21.5445 13.6222 21.5038 13.6276 21.4448 13.6324C21.381 13.6459 21.3588 13.6739 21.3472 13.7512C21.3517 13.8685 21.4235 13.8626 21.4969 13.909C21.5394 13.9632 21.5671 14.0122 21.4936 14.1011C21.424 14.1648 21.3745 14.2 21.3049 14.2638C21.272 14.3199 21.2515 14.406 21.3521 14.4331C21.5377 14.4852 21.9672 14.2062 21.9672 14.2003C22.0368 14.1482 22.0137 14.049 22.0079 14.049C21.9673 14.0026 21.8757 14.0305 21.8142 14.023C21.7849 14.023 21.6887 14.0087 21.7345 13.9237C21.7726 13.8708 21.7867 13.8392 21.8126 13.774C21.8416 13.7102 21.8161 13.6672 21.7117 13.6324C21.6585 13.6227 21.6218 13.6198 21.5831 13.621ZM18.795 19.266C18.7946 19.2662 18.7938 19.2674 18.7934 19.2676C18.4847 19.3469 18.4943 19.6673 18.6925 19.8079C15.4329 19.8079 10.4307 19.7526 9.3579 19.7526C8.75772 19.7526 6.85894 19.681 6.82243 19.681C7.22964 20.2766 7.81953 20.3979 8.59139 20.4101C10.0392 20.4101 16.7475 20.3922 18.6566 20.3922C18.5209 20.6331 18.6689 21.0209 18.7754 21.092C18.7777 21.0934 18.7813 21.0957 18.7835 21.0968C18.7875 21.0988 18.7928 21.1007 18.7966 21.1017C18.7978 21.102 18.8002 21.1016 18.8014 21.1017C18.9278 21.1315 18.9834 21.04 19.026 20.9731C19.231 20.9912 20.385 21.0079 20.4906 20.9715C20.491 20.9714 20.4919 20.97 20.4923 20.9699C20.5637 21.075 20.6346 21.1744 20.7706 21.157C21.0085 21.106 21.1959 21.0801 21.2018 20.5972C21.2018 20.5972 21.1775 19.7743 20.6371 19.8259C20.5092 19.8452 20.1505 19.8812 20.1505 19.8812C19.7354 19.8318 19.4309 19.8268 18.9642 19.8096C19.0072 19.7549 19.0833 19.5334 18.9902 19.4532C18.9659 19.433 18.9297 19.4218 18.8795 19.4255C18.8792 19.4256 18.8783 19.4255 18.8779 19.4255C18.8772 19.4255 18.8754 19.4257 18.8747 19.4255C18.8743 19.4254 18.8734 19.424 18.873 19.4239C18.8717 19.4235 18.8694 19.4231 18.8682 19.4223C18.8656 19.4206 18.8623 19.4169 18.86 19.4142C18.8594 19.4134 18.8573 19.4117 18.8568 19.4109C18.8332 19.3765 18.8203 19.2923 18.8047 19.271C18.8045 19.2707 18.8033 19.2695 18.8031 19.2693C18.8029 19.2692 18.8016 19.2679 18.8014 19.2677C18.8009 19.2673 18.7988 19.2663 18.7982 19.2661C18.798 19.2661 18.7968 19.2661 18.7966 19.2661C18.7964 19.2661 18.7951 19.266 18.7949 19.2661L18.795 19.266ZM19.0163 20.4426C19.0169 20.4424 19.0174 20.4429 19.018 20.4426C19.4935 20.4658 19.9403 20.4471 20.4159 20.4703C20.4912 20.5344 20.4536 20.6811 20.4045 20.7079C20.4023 20.709 20.3986 20.7105 20.3963 20.7111C20.3946 20.7116 20.3916 20.7111 20.3898 20.7111C20.388 20.7111 20.3851 20.7116 20.3833 20.7111C20.2287 20.7073 20.1393 20.7036 19.9846 20.6997C19.9844 20.6921 19.9835 20.6838 19.9814 20.677C19.9447 20.5684 19.6793 20.5756 19.6168 20.6607C19.616 20.6619 19.6144 20.6643 19.6136 20.6656C19.6126 20.6673 19.6112 20.6703 19.6103 20.6721C19.6093 20.6743 19.6078 20.6779 19.6071 20.6802C19.6061 20.6834 19.6059 20.6882 19.6055 20.6916C19.605 20.6955 19.6035 20.7005 19.6038 20.7046C19.3951 20.7297 19.2072 20.6977 18.9984 20.69C18.9372 20.6137 18.9443 20.4758 19.0163 20.4426Z" fill="white"/>
</g>
</svg>
