<svg width="24" height="24" viewBox="0 0 24 24" fill="none" xmlns="http://www.w3.org/2000/svg">
<g clip-path="url(#clip0_1166_51465)">
<path d="M12 0.75C9.01631 0.75 6.15483 1.93526 4.04505 4.04505C1.93526 6.15483 0.75 9.01631 0.75 12C0.75 14.9837 1.93526 17.8452 4.04505 19.955C6.15483 22.0647 9.01631 23.25 12 23.25C14.9837 23.25 17.8452 22.0647 19.955 19.955C22.0647 17.8452 23.25 14.9837 23.25 12C23.25 9.01631 22.0647 6.15483 19.955 4.04505C17.8452 1.93526 14.9837 0.75 12 0.75Z" fill="#2B4896"/>
<path d="M4.63431 3.51692C4.06278 4.01322 3.5428 4.56592 3.08228 5.16664L7.2332 10.127H10.1664L4.63431 3.51692ZM19.3072 3.45312L13.2904 10.127H16.3185L20.8659 5.08348C20.4023 4.48919 19.8801 3.94299 19.3072 3.45312ZM7.85157 13.877L3.21221 19.0229C3.67523 19.6031 4.19452 20.136 4.76251 20.6139L10.7668 13.877H7.85153H7.85157ZM13.2236 13.877L19.2641 20.5764C19.8388 20.0893 20.3632 19.5457 20.8292 18.9538L16.2523 13.877H13.2236Z" fill="white"/>
<path d="M3.85159 4.26428C3.67992 4.44005 3.51405 4.6214 3.35425 4.80803L7.84103 10.1262H8.79831L3.85159 4.26428ZM19.6434 3.76562L13.8628 10.1262H14.8497L20.1686 4.2752C19.9991 4.09969 19.824 3.92975 19.6434 3.76562ZM9.27226 13.8761V13.8762L3.89144 19.7955C4.05267 19.9578 4.21883 20.1153 4.38967 20.2675L10.1287 13.8761H9.27226ZM14.6309 13.8762L20.0529 19.8408C20.2254 19.6674 20.3921 19.4885 20.5528 19.3042L15.6198 13.8762H14.6309Z" fill="#E32D3C"/>
<path d="M12 0.75C11.3717 0.750607 10.7445 0.803856 10.125 0.909187V23.0801C10.7442 23.189 11.3714 23.2459 12 23.25C12.6283 23.2494 13.2555 23.1961 13.875 23.0908V0.919828C13.2558 0.81093 12.6286 0.754122 12 0.75Z" fill="white"/>
<path d="M0.919828 10.125C0.81093 10.7442 0.754122 11.3714 0.75 12C0.750607 12.6283 0.803856 13.2555 0.909187 13.875H23.0801C23.189 13.2558 23.2459 12.6286 23.25 12C23.2494 11.3717 23.1961 10.7445 23.0908 10.125H0.919828Z" fill="white"/>
<path d="M12 0.75C11.6241 0.753893 11.2486 0.776624 10.875 0.818109V23.1935C11.2488 23.2311 11.6243 23.25 12 23.25C12.3759 23.2461 12.7514 23.2234 13.125 23.1819V0.806484C12.7512 0.768883 12.3757 0.750031 12 0.75Z" fill="#E32D3C"/>
<path d="M0.806484 10.875C0.768883 11.2488 0.750031 11.6243 0.75 12C0.753893 12.3759 0.776624 12.7514 0.818109 13.125H23.1935C23.2311 12.7512 23.25 12.3757 23.25 12C23.2461 11.6241 23.2234 11.2486 23.1819 10.875H0.806484Z" fill="#E32D3C"/>
</g>
<defs>
<clipPath id="clip0_1166_51465">
<rect width="24" height="24" fill="white"/>
</clipPath>
</defs>
</svg>
