<svg width="25" height="26" viewBox="0 0 25 26" xmlns="http://www.w3.org/2000/svg">
    <path
        d="M12.5 25.0713C5.607 25.0713 0 19.4643 0 12.5713C0 5.67829 5.607 0.0712891 12.5 0.0712891C19.393 0.0712891 25 5.67829 25 12.5713C25 19.4643 19.393 25.0713 12.5 25.0713ZM12.5 2.07129C6.71 2.07129 2 6.78129 2 12.5713C2 18.3613 6.71 23.0713 12.5 23.0713C18.29 23.0713 23 18.3603 23 12.5713C23 6.78229 18.29 2.07129 12.5 2.07129Z" />
    <path
        d="M12.5 19.5713C12.2348 19.5713 11.9804 19.4659 11.7929 19.2784C11.6054 19.0909 11.5 18.8365 11.5 18.5713V6.57129C11.5 6.30607 11.6054 6.05172 11.7929 5.86418C11.9804 5.67665 12.2348 5.57129 12.5 5.57129C12.7652 5.57129 13.0196 5.67665 13.2071 5.86418C13.3946 6.05172 13.5 6.30607 13.5 6.57129V18.5713C13.5 18.8365 13.3946 19.0909 13.2071 19.2784C13.0196 19.4659 12.7652 19.5713 12.5 19.5713Z"
        class="transform" />
    <path
        d="M18.5 13.5713H6.5C6.23478 13.5713 5.98043 13.4659 5.79289 13.2784C5.60536 13.0909 5.5 12.8365 5.5 12.5713C5.5 12.3061 5.60536 12.0517 5.79289 11.8642C5.98043 11.6766 6.23478 11.5713 6.5 11.5713H18.5C18.7652 11.5713 19.0196 11.6766 19.2071 11.8642C19.3946 12.0517 19.5 12.3061 19.5 12.5713C19.5 12.8365 19.3946 13.0909 19.2071 13.2784C19.0196 13.4659 18.7652 13.5713 18.5 13.5713Z"
    />
</svg>
    