<svg width="8" height="6" viewBox="0 0 8 6" xmlns="http://www.w3.org/2000/svg">
    <path
        d="M7.33333 1.1133C7.20842 0.989128 7.03946 0.919434 6.86333 0.919434C6.68721 0.919434 6.51824 0.989128 6.39333 1.1133L4 3.4733L1.64 1.1133C1.51509 0.989128 1.34612 0.919434 1.17 0.919434C0.993875 0.919434 0.824907 0.989128 0.699999 1.1133C0.637513 1.17527 0.587917 1.249 0.554071 1.33024C0.520225 1.41148 0.5028 1.49862 0.5028 1.58663C0.5028 1.67464 0.520225 1.76177 0.554071 1.84301C0.587917 1.92425 0.637513 1.99799 0.699999 2.05996L3.52667 4.88663C3.58864 4.94911 3.66237 4.99871 3.74361 5.03256C3.82485 5.0664 3.91199 5.08383 4 5.08383C4.08801 5.08383 4.17514 5.0664 4.25638 5.03256C4.33762 4.99871 4.41136 4.94911 4.47333 4.88663L7.33333 2.05996C7.39582 1.99799 7.44541 1.92425 7.47926 1.84301C7.5131 1.76177 7.53053 1.67464 7.53053 1.58663C7.53053 1.49862 7.5131 1.41148 7.47926 1.33024C7.44541 1.249 7.39582 1.17527 7.33333 1.1133Z"
    />
</svg>
    