<svg width="8" height="12" viewBox="0 0 8 12" xmlns="http://www.w3.org/2000/svg">
    <path
        d="M1.17 6.7103L5.41 10.9503C5.50297 11.044 5.61357 11.1184 5.73543 11.1692C5.85729 11.22 5.98799 11.2461 6.12 11.2461C6.25202 11.2461 6.38272 11.22 6.50458 11.1692C6.62644 11.1184 6.73704 11.044 6.83 10.9503C7.01625 10.7629 7.1208 10.5095 7.1208 10.2453C7.1208 9.98111 7.01625 9.72766 6.83 9.5403L3.29 6.0003L6.83 2.4603C7.01626 2.27293 7.1208 2.01948 7.1208 1.75529C7.1208 1.49111 7.01626 1.23766 6.83 1.05029C6.73656 0.957614 6.62575 0.884289 6.50391 0.834524C6.38207 0.784759 6.25161 0.759535 6.12 0.760296C5.9884 0.759535 5.85794 0.784759 5.7361 0.834524C5.61426 0.884289 5.50344 0.957614 5.41 1.05029L1.17 5.2903C1.07628 5.38326 1.00188 5.49386 0.951113 5.61572C0.900344 5.73758 0.874206 5.86828 0.874206 6.0003C0.874206 6.13231 0.900344 6.26301 0.951113 6.38487C1.00188 6.50673 1.07628 6.61733 1.17 6.7103Z"
    />
</svg>
    