<svg width="12" height="8" viewBox="0 0 12 8" xmlns="http://www.w3.org/2000/svg">
    <path
        d="M5.28995 1.1703L1.04995 5.4103C0.95622 5.50326 0.881826 5.61387 0.831057 5.73572C0.780288 5.85758 0.75415 5.98829 0.75415 6.1203C0.75415 6.25231 0.780288 6.38302 0.831057 6.50488C0.881826 6.62674 0.95622 6.73734 1.04995 6.8303C1.23731 7.01655 1.49076 7.12109 1.75495 7.12109C2.01913 7.12109 2.27259 7.01655 2.45995 6.8303L5.99995 3.2903L9.53995 6.8303C9.72731 7.01655 9.98076 7.12109 10.2449 7.12109C10.5091 7.12109 10.7626 7.01655 10.9499 6.8303C11.0426 6.73686 11.116 6.62604 11.1657 6.50421C11.2155 6.38237 11.2407 6.25191 11.2399 6.1203C11.2407 5.98869 11.2155 5.85823 11.1657 5.73639C11.116 5.61456 11.0426 5.50374 10.9499 5.4103L6.70995 1.1703C6.61699 1.07657 6.50638 1.00218 6.38453 0.95141C6.26267 0.900641 6.13196 0.874503 5.99995 0.874503C5.86794 0.874503 5.73723 0.900641 5.61537 0.95141C5.49351 1.00218 5.38291 1.07657 5.28995 1.1703Z"
    />
</svg>
    