<svg width="14" height="14" viewBox="0 0 14 14" xmlns="http://www.w3.org/2000/svg">
    <path
        d="M8.90457 10.3878C10.1676 10.238 11.3855 9.94104 12.5408 9.51458C11.5829 8.45134 10.9999 7.04376 10.9999 5.5V5.03279C11 5.02187 11 5.01094 11 5C11 2.79086 9.20914 1 7 1C4.79086 1 3 2.79086 3 5L2.99987 5.5C2.99987 7.04376 2.41685 8.45134 1.45898 9.51458C2.61427 9.94107 3.83229 10.238 5.09542 10.3878M8.90457 10.3878C8.27999 10.4619 7.64438 10.5 6.99987 10.5C6.35545 10.5 5.71992 10.4619 5.09542 10.3878M8.90457 10.3878C8.96654 10.5807 9 10.7865 9 11C9 12.1046 8.10457 13 7 13C5.89543 13 5 12.1046 5 11C5 10.7865 5.03346 10.5808 5.09542 10.3878"
        stroke-width="1.5" stroke-linecap="round" stroke-linejoin="round" fill="none" />
</svg>
    