<svg width="11" height="10" viewBox="0 0 11 10" fill="none" xmlns="http://www.w3.org/2000/svg">
    <path
        d="M5.34151 9.85319C5.54012 9.66135 5.54562 9.34482 5.35378 9.14622L1.20724 4.99973L5.35372 0.853187C5.54086 0.659461 5.54086 0.352271 5.35372 0.158485C5.16189 -0.0401236 4.84536 -0.0456167 4.64675 0.146217L0.146752 4.64622C0.0528186 4.73984 8.41877e-05 4.8671 0.000267287 4.99973C0.000145211 5.13236 0.0528185 5.25956 0.146752 5.35319L4.64675 9.85319C4.84054 10.0404 5.14773 10.0404 5.34151 9.85319Z"
        fill="#333333" />
    <path
        d="M10.3415 9.85319C10.5401 9.66135 10.5456 9.34482 10.3538 9.14622L6.20724 4.99973L10.3537 0.853187C10.5409 0.659461 10.5409 0.352271 10.3537 0.158485C10.1619 -0.0401236 9.84536 -0.0456167 9.64675 0.146217L5.14675 4.64622C5.05282 4.73984 5.00008 4.8671 5.00027 4.99973C5.00015 5.13236 5.05282 5.25956 5.14675 5.35319L9.64675 9.85319C9.84054 10.0404 10.1477 10.0404 10.3415 9.85319Z"
        fill="#333333" />
</svg>
    