<svg width="17" height="25" viewBox="0 0 17 25" xmlns="http://www.w3.org/2000/svg">
    <path
        d="M15 0H2C1.46957 0 0.960859 0.210714 0.585786 0.585786C0.210714 0.960859 0 1.46957 0 2V23C0 23.5304 0.210714 24.0391 0.585786 24.4142C0.960859 24.7893 1.46957 25 2 25H15C15.5304 25 16.0391 24.7893 16.4142 24.4142C16.7893 24.0391 17 23.5304 17 23V2C17 1.46957 16.7893 0.960859 16.4142 0.585786C16.0391 0.210714 15.5304 0 15 0ZM3.5 15C3.69705 15.0001 3.89215 15.0389 4.07418 15.1144C4.2562 15.1899 4.42158 15.3005 4.56087 15.4398C4.70016 15.5792 4.81063 15.7447 4.88597 15.9267C4.96132 16.1088 5.00007 16.304 5 16.501C4.99993 16.698 4.96106 16.8932 4.88559 17.0752C4.81012 17.2572 4.69954 17.4226 4.56016 17.5619C4.42078 17.7012 4.25533 17.8116 4.07325 17.887C3.89118 17.9623 3.69605 18.0011 3.499 18.001C3.10104 18.0009 2.71944 17.8427 2.43813 17.5612C2.15683 17.2797 1.99887 16.898 1.999 16.5C1.99913 16.102 2.15735 15.7204 2.43884 15.4391C2.72033 15.1578 3.10204 14.9999 3.5 15ZM2 11.5C2.00013 11.102 2.15835 10.7204 2.43984 10.4391C2.72133 10.1578 3.10304 9.99987 3.501 10C3.89896 10.0001 4.28056 10.1583 4.56187 10.4398C4.84317 10.7213 5.00113 11.103 5.001 11.501C5.00087 11.899 4.84265 12.2806 4.56116 12.5619C4.27967 12.8432 3.89796 13.0011 3.5 13.001C3.10204 13.0009 2.72044 12.8427 2.43913 12.5612C2.15783 12.2797 1.99987 11.898 2 11.5ZM8.5 23H3.5C3.10218 23 2.72064 22.842 2.43934 22.5607C2.15804 22.2794 2 21.8978 2 21.5C2 21.1022 2.15804 20.7206 2.43934 20.4393C2.72064 20.158 3.10218 20 3.5 20H8.5C8.89782 20 9.27936 20.158 9.56066 20.4393C9.84196 20.7206 10 21.1022 10 21.5C10 21.8978 9.84196 22.2794 9.56066 22.5607C9.27936 22.842 8.89782 23 8.5 23ZM8.5 18C8.30295 17.9999 8.10785 17.9611 7.92582 17.8856C7.7438 17.8101 7.57842 17.6995 7.43913 17.5602C7.29984 17.4208 7.18937 17.2553 7.11403 17.0733C7.03868 16.8912 6.99993 16.696 7 16.499C7.00007 16.302 7.03894 16.1068 7.11441 15.9248C7.18988 15.7428 7.30046 15.5774 7.43984 15.4381C7.57922 15.2988 7.74467 15.1884 7.92675 15.113C8.10882 15.0377 8.30395 14.9989 8.501 14.999C8.89896 14.9991 9.28056 15.1573 9.56187 15.4388C9.84317 15.7203 10.0011 16.102 10.001 16.5C10.0009 16.898 9.84265 17.2796 9.56116 17.5609C9.27967 17.8422 8.89796 18.0001 8.5 18ZM8.5 13C8.10204 12.9999 7.72044 12.8417 7.43913 12.5602C7.15783 12.2787 6.99987 11.897 7 11.499C7.00013 11.101 7.15835 10.7194 7.43984 10.4381C7.72133 10.1568 8.10304 9.99887 8.501 9.999C8.89896 9.99913 9.28056 10.1573 9.56187 10.4388C9.84317 10.7203 10.0011 11.102 10.001 11.5C10.0009 11.898 9.84265 12.2796 9.56116 12.5609C9.27967 12.8422 8.89796 13.0001 8.5 13ZM13.5 23C13.102 22.9999 12.7204 22.8417 12.4391 22.5602C12.1578 22.2787 11.9999 21.897 12 21.499C12.0001 21.101 12.1583 20.7194 12.4398 20.4381C12.7213 20.1568 13.103 19.9989 13.501 19.999C13.698 19.9991 13.8932 20.0379 14.0752 20.1134C14.2572 20.1889 14.4226 20.2995 14.5619 20.4388C14.7012 20.5782 14.8116 20.7437 14.887 20.9257C14.9623 21.1078 15.0011 21.303 15.001 21.5C15.0009 21.697 14.9621 21.8922 14.8866 22.0742C14.8111 22.2562 14.7005 22.4216 14.5612 22.5609C14.4218 22.7002 14.2563 22.8106 14.0743 22.886C13.8922 22.9613 13.697 23.0001 13.5 23ZM13.5 18C13.303 17.9999 13.1078 17.9611 12.9258 17.8856C12.7438 17.8101 12.5784 17.6995 12.4391 17.5602C12.2998 17.4208 12.1894 17.2553 12.114 17.0733C12.0387 16.8912 11.9999 16.696 12 16.499C12.0001 16.302 12.0389 16.1068 12.1144 15.9248C12.1899 15.7428 12.3005 15.5774 12.4398 15.4381C12.5792 15.2988 12.7447 15.1884 12.9267 15.113C13.1088 15.0377 13.304 14.9989 13.501 14.999C13.899 14.9991 14.2806 15.1573 14.5619 15.4388C14.8432 15.7203 15.0011 16.102 15.001 16.5C15.0009 16.898 14.8427 17.2796 14.5612 17.5609C14.2797 17.8422 13.898 18.0001 13.5 18ZM13.5 13C13.102 12.9999 12.7204 12.8417 12.4391 12.5602C12.1578 12.2787 11.9999 11.897 12 11.499C12.0001 11.101 12.1583 10.7194 12.4398 10.4381C12.7213 10.1568 13.103 9.99887 13.501 9.999C13.899 9.99913 14.2806 10.1573 14.5619 10.4388C14.8432 10.7203 15.0011 11.102 15.001 11.5C15.0009 11.898 14.8427 12.2796 14.5612 12.5609C14.2797 12.8422 13.898 13.0001 13.5 13ZM15 6C15 6.53043 14.7893 7.03914 14.4142 7.41421C14.0391 7.78929 13.5304 8 13 8H4C3.46957 8 2.96086 7.78929 2.58579 7.41421C2.21071 7.03914 2 6.53043 2 6V4C2 3.46957 2.21071 2.96086 2.58579 2.58579C2.96086 2.21071 3.46957 2 4 2H13C13.5304 2 14.0391 2.21071 14.4142 2.58579C14.7893 2.96086 15 3.46957 15 4V6Z"
    />
</svg>
    