<svg width="20" height="20" viewBox="0 0 20 20" fill="none" xmlns="http://www.w3.org/2000/svg">
<path d="M17.125 3.16667H15.5417V0.791667C15.5417 0.581704 15.4583 0.38034 15.3098 0.231874C15.1613 0.0834077 14.96 0 14.75 0C14.54 0 14.3387 0.0834077 14.1902 0.231874C14.0417 0.38034 13.9583 0.581704 13.9583 0.791667V3.16667H6.04167V0.791667C6.04167 0.581704 5.95826 0.38034 5.80979 0.231874C5.66133 0.0834077 5.45996 0 5.25 0C5.04004 0 4.83867 0.0834077 4.69021 0.231874C4.54174 0.38034 4.45833 0.581704 4.45833 0.791667V3.16667H2.875C2.24511 3.16667 1.64102 3.41689 1.19562 3.86229C0.750223 4.30769 0.5 4.91178 0.5 5.54167V16.625C0.5 17.2549 0.750223 17.859 1.19562 18.3044C1.64102 18.7498 2.24511 19 2.875 19H17.125C17.7549 19 18.359 18.7498 18.8044 18.3044C19.2498 17.859 19.5 17.2549 19.5 16.625V5.54167C19.5 4.91178 19.2498 4.30769 18.8044 3.86229C18.359 3.41689 17.7549 3.16667 17.125 3.16667ZM2.08333 5.54167C2.08333 5.3317 2.16674 5.13034 2.31521 4.98187C2.46367 4.83341 2.66504 4.75 2.875 4.75H17.125C17.335 4.75 17.5363 4.83341 17.6848 4.98187C17.8333 5.13034 17.9167 5.3317 17.9167 5.54167V6.33333H2.08333V5.54167ZM17.9167 16.625C17.9167 16.835 17.8333 17.0363 17.6848 17.1848C17.5363 17.3333 17.335 17.4167 17.125 17.4167H2.875C2.66504 17.4167 2.46367 17.3333 2.31521 17.1848C2.16674 17.0363 2.08333 16.835 2.08333 16.625V7.91667H17.9167V16.625Z" fill="#088F44"/>
<path d="M6.125 12.25H7.375C7.54076 12.25 7.69973 12.1842 7.81694 12.0669C7.93415 11.9497 8 11.7908 8 11.625C8 11.4592 7.93415 11.3003 7.81694 11.1831C7.69973 11.0658 7.54076 11 7.375 11H6.125C5.95924 11 5.80027 11.0658 5.68306 11.1831C5.56585 11.3003 5.5 11.4592 5.5 11.625C5.5 11.7908 5.56585 11.9497 5.68306 12.0669C5.80027 12.1842 5.95924 12.25 6.125 12.25ZM6.125 16H7.375C7.54076 16 7.69973 15.9342 7.81694 15.8169C7.93415 15.6997 8 15.5408 8 15.375C8 15.2092 7.93415 15.0503 7.81694 14.9331C7.69973 14.8158 7.54076 14.75 7.375 14.75H6.125C5.95924 14.75 5.80027 14.8158 5.68306 14.9331C5.56585 15.0503 5.5 15.2092 5.5 15.375C5.5 15.5408 5.56585 15.6997 5.68306 15.8169C5.80027 15.9342 5.95924 16 6.125 16ZM9.875 12.25H11.125C11.2908 12.25 11.4497 12.1842 11.5669 12.0669C11.6842 11.9497 11.75 11.7908 11.75 11.625C11.75 11.4592 11.6842 11.3003 11.5669 11.1831C11.4497 11.0658 11.2908 11 11.125 11H9.875C9.70924 11 9.55027 11.0658 9.43306 11.1831C9.31585 11.3003 9.25 11.4592 9.25 11.625C9.25 11.7908 9.31585 11.9497 9.43306 12.0669C9.55027 12.1842 9.70924 12.25 9.875 12.25ZM9.875 16H11.125C11.2908 16 11.4497 15.9342 11.5669 15.8169C11.6842 15.6997 11.75 15.5408 11.75 15.375C11.75 15.2092 11.6842 15.0503 11.5669 14.9331C11.4497 14.8158 11.2908 14.75 11.125 14.75H9.875C9.70924 14.75 9.55027 14.8158 9.43306 14.9331C9.31585 15.0503 9.25 15.2092 9.25 15.375C9.25 15.5408 9.31585 15.6997 9.43306 15.8169C9.55027 15.9342 9.70924 16 9.875 16ZM13.625 16H14.875C15.0408 16 15.1997 15.9342 15.3169 15.8169C15.4342 15.6997 15.5 15.5408 15.5 15.375C15.5 15.2092 15.4342 15.0503 15.3169 14.9331C15.1997 14.8158 15.0408 14.75 14.875 14.75H13.625C13.4592 14.75 13.3003 14.8158 13.1831 14.9331C13.0658 15.0503 13 15.2092 13 15.375C13 15.5408 13.0658 15.6997 13.1831 15.8169C13.3003 15.9342 13.4592 16 13.625 16ZM13.625 12.25H14.875C15.0408 12.25 15.1997 12.1842 15.3169 12.0669C15.4342 11.9497 15.5 11.7908 15.5 11.625C15.5 11.4592 15.4342 11.3003 15.3169 11.1831C15.1997 11.0658 15.0408 11 14.875 11H13.625C13.4592 11 13.3003 11.0658 13.1831 11.1831C13.0658 11.3003 13 11.4592 13 11.625C13 11.7908 13.0658 11.9497 13.1831 12.0669C13.3003 12.1842 13.4592 12.25 13.625 12.25Z" fill="#088F44"/>
</svg>
