<svg width="30" height="30" viewBox="0 0 30 30" fill="none" xmlns="http://www.w3.org/2000/svg">
<path d="M25.9797 23.0187C25.6536 22.2981 25.0259 22.0457 24.7366 21.9657L20.5951 19.3258C20.5336 19.2765 19.9489 18.8519 19.0935 18.8519C18.3489 18.8519 17.2412 19.1842 16.2197 20.7781C15.8874 21.3011 15.512 21.3627 15.2597 21.3627C14.6197 21.3627 13.4197 20.9134 11.3889 18.7965L11.2597 18.6611C10.9828 18.3904 9.36432 16.4519 8.3797 15.2519C8.25663 15.0734 7.24124 13.4611 8.71816 12.2488C10.6382 10.6673 10.1397 8.92575 9.62278 8.24883L6.92124 4.2796C6.82893 4.15652 6.00432 3.04883 4.96432 3.04883C4.70586 3.04883 4.45355 3.12267 4.22586 3.2519C3.90586 3.4119 1.54893 4.64883 0.607395 7.3319C-0.0879893 9.3319 0.176626 11.5904 1.40124 14.0581C4.98893 21.2581 15.1243 27.775 15.5551 28.0519C15.5797 28.0642 15.6043 28.0827 15.6351 28.095C15.7274 28.1381 18.0351 29.1534 20.4536 29.1534C22.5151 29.1534 24.0905 28.3965 25.0074 26.9565C26.072 25.2888 26.3982 23.9664 25.9797 23.0187ZM23.9736 26.2919C23.2782 27.375 22.0966 27.9227 20.4536 27.9227C18.4659 27.9227 16.4782 27.1165 16.1766 26.9873C15.4689 26.5319 5.83201 20.1873 2.50893 13.5104C1.43816 11.3565 1.18586 9.42421 1.76432 7.75037C2.57663 5.41806 4.75509 4.36575 4.7797 4.35344C4.79816 4.34114 4.82278 4.33498 4.84124 4.32267C4.88432 4.29191 4.92124 4.2796 4.96432 4.2796C5.2474 4.2796 5.70278 4.69806 5.91201 4.98729L8.6197 8.96267C8.75509 9.14729 9.35201 10.1319 7.93663 11.295C6.03509 12.8642 6.73047 15.0242 7.39509 15.9904C7.6597 16.3104 9.98586 19.1411 10.392 19.5411L10.5028 19.6519C12.3982 21.6273 13.9612 22.5934 15.2597 22.5934C16.0843 22.5934 16.7736 22.1934 17.2535 21.4427C17.6535 20.8211 18.2997 20.0827 19.0935 20.0827C19.5366 20.0827 19.8505 20.3042 19.8874 20.335L24.1582 23.055C24.232 23.1042 24.3059 23.1288 24.392 23.1473C24.392 23.1473 24.7182 23.215 24.8536 23.5227C24.9643 23.7688 25.0997 24.5319 23.9736 26.2919Z" fill="#6DB863"/>
<path d="M25.8184 21.7391C25.6971 21.739 25.5785 21.703 25.4776 21.6356C25.3766 21.5683 25.2979 21.4726 25.2512 21.3606C25.2045 21.2486 25.1919 21.1253 25.2151 21.0061C25.2383 20.887 25.2962 20.7774 25.3815 20.6911C27.4178 18.6327 28.5397 15.9145 28.5397 13.0376C28.5397 6.99453 23.5551 2.07761 17.4283 2.07761C14.5901 2.07761 11.8886 3.13238 9.82214 5.04684C9.76321 5.10347 9.6936 5.1478 9.61735 5.17723C9.54111 5.20666 9.45977 5.22062 9.37808 5.21827C9.29638 5.21593 9.21598 5.19734 9.14155 5.16358C9.06712 5.12983 9.00016 5.08158 8.94457 5.02167C8.88899 4.96175 8.8459 4.89137 8.81781 4.81462C8.78973 4.73787 8.77721 4.65629 8.78099 4.57465C8.78478 4.49301 8.80478 4.41295 8.83985 4.33912C8.87491 4.2653 8.92433 4.1992 8.98521 4.14468C11.2816 2.01765 14.2982 0.839137 17.4283 0.846223C24.2344 0.846223 29.7704 6.31515 29.7704 13.037C29.7704 16.2401 28.5224 19.2647 26.2566 21.5564C26.1994 21.6144 26.1311 21.6604 26.0559 21.6917C25.9807 21.7229 25.8999 21.7395 25.8184 21.7391Z" fill="#6DB863"/>
<path d="M17.4603 4.99486C17.2983 4.99487 17.1428 4.93097 17.0275 4.81702C16.9123 4.70307 16.8467 4.54828 16.8449 4.38625L16.8129 1.46871C16.8113 1.3056 16.8745 1.14851 16.9886 1.03197C17.1027 0.915423 17.2584 0.848954 17.4215 0.847168H17.4277C17.5896 0.847156 17.7451 0.910977 17.8602 1.02479C17.9754 1.13861 18.0411 1.29324 18.0431 1.45517L18.0757 4.37332C18.0773 4.53643 18.0142 4.69352 17.9 4.81006C17.7859 4.92661 17.6302 4.99307 17.4671 4.99486H17.4609H17.4603ZM26.1329 13.6853C26.0521 13.6857 25.972 13.6702 25.8972 13.6397C25.8224 13.6091 25.7543 13.5641 25.6969 13.5073C25.6395 13.4504 25.5938 13.3828 25.5625 13.3083C25.5312 13.2338 25.5149 13.1538 25.5145 13.073C25.5141 12.9922 25.5296 12.9121 25.5601 12.8373C25.5907 12.7625 25.6357 12.6944 25.6925 12.637C25.7494 12.5795 25.817 12.5339 25.8915 12.5026C25.966 12.4713 26.046 12.455 26.1268 12.4546L29.1483 12.4219H29.1551C29.3183 12.4211 29.4751 12.4852 29.5911 12.6C29.7071 12.7148 29.7727 12.871 29.7735 13.0342C29.7744 13.1975 29.7103 13.3543 29.5955 13.4703C29.4806 13.5863 29.3244 13.6519 29.1612 13.6527L26.1397 13.6853H26.1329ZM11.9846 14.6552V14.0601L12.7563 13.321C14.6129 11.5776 15.4517 10.6509 15.4628 9.56901C15.4628 8.84163 15.1046 8.1684 14.0197 8.1684C13.36 8.1684 12.8123 8.49886 12.4763 8.77455L12.1637 8.09086C12.7437 7.61589 13.4713 7.35821 14.2209 7.36225C15.7871 7.36225 16.4474 8.42194 16.4474 9.44778C16.4474 10.7715 15.4745 11.8416 13.9415 13.2989L13.36 13.8281V13.8502H16.6259V14.6558L11.9846 14.6552ZM21.6905 11.9413V7.48532H20.6258L17.3828 12.0638V12.7038H20.7612V14.6546H21.6905V12.7038H22.7058V11.9407H21.6905V11.9413ZM20.7612 9.54686V11.9407H18.3797V11.9229L20.1582 9.47978C20.3612 9.15363 20.5397 8.83978 20.7612 8.42132H20.7982C20.7735 8.79671 20.7612 9.17148 20.7612 9.54686Z" fill="#6DB863"/>
</svg>
