<svg width="30" height="30" viewBox="0 0 30 30" xmlns="http://www.w3.org/2000/svg">
    <path
        d="M8.65877 10.2298C8.22485 9.79588 8.22485 9.09236 8.65877 8.65844C9.09269 8.22453 9.7962 8.22453 10.2301 8.65845L15 13.4283L19.7698 8.65845C20.2037 8.22453 20.9073 8.22453 21.3412 8.65844C21.7751 9.09236 21.7751 9.79588 21.3412 10.2298L16.5713 14.9997L21.3412 19.7695C21.7751 20.2034 21.7751 20.907 21.3412 21.3409C20.9073 21.7748 20.2037 21.7748 19.7698 21.3409L15 16.571L10.2301 21.3409C9.7962 21.7748 9.09269 21.7748 8.65877 21.3409C8.22485 20.907 8.22485 20.2034 8.65877 19.7695L13.4286 14.9997L8.65877 10.2298Z" />
</svg>