<svg width="30" height="30" viewBox="0 0 30 30" xmlns="http://www.w3.org/2000/svg">
    <path
        d="M20.2558 9.74507C20.1241 9.61229 19.9674 9.5069 19.7947 9.43498C19.6221 9.36305 19.4369 9.32602 19.2499 9.32602C19.0629 9.32602 18.8777 9.36305 18.7051 9.43498C18.5325 9.5069 18.3758 9.61229 18.2441 9.74507L14.9999 13.0034L11.7558 9.74507C11.489 9.47831 11.1272 9.32844 10.7499 9.32844C10.3727 9.32844 10.0109 9.47831 9.7441 9.74507C9.47733 10.0118 9.32747 10.3736 9.32747 10.7509C9.32747 11.1282 9.47733 11.49 9.7441 11.7567L13.0024 15.0009L9.7441 18.2451C9.61131 18.3768 9.50592 18.5335 9.434 18.7061C9.36208 18.8787 9.32505 19.0639 9.32505 19.2509C9.32505 19.4379 9.36208 19.6231 9.434 19.7957C9.50592 19.9684 9.61131 20.125 9.7441 20.2567C9.87579 20.3895 10.0325 20.4949 10.2051 20.5668C10.3777 20.6388 10.5629 20.6758 10.7499 20.6758C10.9369 20.6758 11.1221 20.6388 11.2947 20.5668C11.4674 20.4949 11.6241 20.3895 11.7558 20.2567L14.9999 16.9984L18.2441 20.2567C18.3758 20.3895 18.5325 20.4949 18.7051 20.5668C18.8777 20.6388 19.0629 20.6758 19.2499 20.6758C19.4369 20.6758 19.6221 20.6388 19.7947 20.5668C19.9674 20.4949 20.1241 20.3895 20.2558 20.2567C20.3885 20.125 20.4939 19.9684 20.5659 19.7957C20.6378 19.6231 20.6748 19.4379 20.6748 19.2509C20.6748 19.0639 20.6378 18.8787 20.5659 18.7061C20.4939 18.5335 20.3885 18.3768 20.2558 18.2451L16.9974 15.0009L20.2558 11.7567C20.3885 11.625 20.4939 11.4684 20.5659 11.2957C20.6378 11.1231 20.6748 10.9379 20.6748 10.7509C20.6748 10.5639 20.6378 10.3787 20.5659 10.2061C20.4939 10.0335 20.3885 9.87677 20.2558 9.74507ZM25.0158 4.98507C23.7089 3.63201 22.1457 2.55276 20.4173 1.8103C18.6889 1.06784 16.83 0.677037 14.9489 0.660691C13.0679 0.644345 11.2024 1.00279 9.46141 1.7151C7.72038 2.42741 6.13865 3.47933 4.8085 4.80948C3.47835 6.13962 2.42643 7.72136 1.71412 9.46239C1.00181 11.2034 0.643369 13.0689 0.659715 14.9499C0.67606 16.831 1.06687 18.6899 1.80933 20.4183C2.55179 22.1467 3.63103 23.7099 4.9841 25.0167C6.29093 26.3698 7.85414 27.449 9.58253 28.1915C11.3109 28.934 13.1699 29.3248 15.0509 29.3411C16.932 29.3575 18.7974 28.999 20.5384 28.2867C22.2795 27.5744 23.8612 26.5225 25.1914 25.1923C26.5215 23.8622 27.5734 22.2805 28.2857 20.5394C28.9981 18.7984 29.3565 16.9329 29.3401 15.0519C29.3238 13.1708 28.933 11.3119 28.1905 9.58351C27.4481 7.85512 26.3688 6.2919 25.0158 4.98507ZM23.0183 23.0192C21.1653 24.8742 18.7265 26.0294 16.1174 26.2879C13.5082 26.5464 10.8902 25.8923 8.70925 24.437C6.52832 22.9817 4.91944 20.8152 4.15672 18.3067C3.39401 15.7981 3.52465 13.1028 4.52639 10.6798C5.52813 8.25676 7.33898 6.25603 9.65044 5.01845C11.9619 3.78087 14.6309 3.38301 17.2029 3.89264C19.7748 4.40228 22.0904 5.78789 23.7553 7.81339C25.4201 9.8389 26.3312 12.379 26.3333 15.0009C26.3383 16.4902 26.0479 17.9658 25.4789 19.3421C24.9099 20.7185 24.0735 21.9683 23.0183 23.0192Z"
    />
</svg>
    