<svg width="20" height="20" viewBox="0 0 20 20" xmlns="http://www.w3.org/2000/svg">
    <path
        d="M17.785 0.25H6.715C6.19446 0.251976 5.6958 0.459636 5.32772 0.827718C4.95964 1.1958 4.75198 1.69446 4.75 2.215V4.75H2.215C1.69446 4.75198 1.1958 4.95964 0.827718 5.32772C0.459636 5.6958 0.251976 6.19446 0.25 6.715V17.785C0.251976 18.3055 0.459636 18.8042 0.827718 19.1723C1.1958 19.5404 1.69446 19.748 2.215 19.75H13.285C13.8055 19.748 14.3042 19.5404 14.6723 19.1723C15.0404 18.8042 15.248 18.3055 15.25 17.785V15.25H17.785C18.3055 15.248 18.8042 15.0404 19.1723 14.6723C19.5404 14.3042 19.748 13.8055 19.75 13.285V2.215C19.748 1.69446 19.5404 1.1958 19.1723 0.827718C18.8042 0.459636 18.3055 0.251976 17.785 0.25ZM13.75 17.785C13.75 17.9083 13.701 18.0266 13.6138 18.1138C13.5266 18.201 13.4083 18.25 13.285 18.25H2.215C2.09167 18.25 1.9734 18.201 1.8862 18.1138C1.79899 18.0266 1.75 17.9083 1.75 17.785V6.715C1.75 6.59167 1.79899 6.4734 1.8862 6.3862C1.9734 6.29899 2.09167 6.25 2.215 6.25H13.285C13.4083 6.25 13.5266 6.29899 13.6138 6.3862C13.701 6.4734 13.75 6.59167 13.75 6.715V17.785ZM18.25 13.285C18.25 13.4083 18.201 13.5266 18.1138 13.6138C18.0266 13.701 17.9083 13.75 17.785 13.75H15.25V6.715C15.248 6.19446 15.0404 5.6958 14.6723 5.32772C14.3042 4.95964 13.8055 4.75198 13.285 4.75H6.25V2.215C6.25 2.09167 6.29899 1.9734 6.3862 1.8862C6.4734 1.79899 6.59167 1.75 6.715 1.75H17.785C17.9083 1.75 18.0266 1.79899 18.1138 1.8862C18.201 1.9734 18.25 2.09167 18.25 2.215V13.285Z"
         />
</svg>
    