<svg width="34" height="34" viewBox="0 0 34 34" xmlns="http://www.w3.org/2000/svg">
    <path
        d="M26.4125 8.24906H25.6625C25.3653 6.16333 24.3255 4.25486 22.7342 2.8742C21.1429 1.49354 19.1068 0.733398 17 0.733398C14.8932 0.733398 12.8571 1.49354 11.2658 2.8742C9.67446 4.25486 8.6347 6.16333 8.3375 8.24906H7.5875C5.7751 8.25236 4.03787 8.9738 2.75631 10.2554C1.47474 11.5369 0.753304 13.2742 0.75 15.0866V16.4116C0.753304 18.224 1.47474 19.9612 2.75631 21.2428C4.03787 22.5243 5.7751 23.2458 7.5875 23.2491C7.91902 23.2491 8.23696 23.1174 8.47138 22.8829C8.7058 22.6485 8.8375 22.3306 8.8375 21.9991C8.8375 21.6675 8.7058 21.3496 8.47138 21.1152C8.23696 20.8808 7.91902 20.7491 7.5875 20.7491C6.43814 20.7458 5.33679 20.2877 4.52407 19.475C3.71134 18.6623 3.2533 17.5609 3.25 16.4116V15.0866C3.2533 13.9372 3.71134 12.8359 4.52407 12.0231C5.33679 11.2104 6.43814 10.7524 7.5875 10.7491H9.5C9.83152 10.7491 10.1495 10.6174 10.3839 10.3829C10.6183 10.1485 10.75 9.83058 10.75 9.49906C10.75 7.84146 11.4085 6.25174 12.5806 5.07964C13.7527 3.90754 15.3424 3.24906 17 3.24906C18.6576 3.24906 20.2473 3.90754 21.4194 5.07964C22.5915 6.25174 23.25 7.84146 23.25 9.49906C23.25 9.83058 23.3817 10.1485 23.6161 10.3829C23.8505 10.6174 24.1685 10.7491 24.5 10.7491H26.4125C27.5619 10.7524 28.6632 11.2104 29.4759 12.0231C30.2887 12.8359 30.7467 13.9372 30.75 15.0866V16.4116C30.7467 17.5609 30.2887 18.6623 29.4759 19.475C28.6632 20.2877 27.5619 20.7458 26.4125 20.7491C26.081 20.7491 25.763 20.8808 25.5286 21.1152C25.2942 21.3496 25.1625 21.6675 25.1625 21.9991C25.1625 22.3306 25.2942 22.6485 25.5286 22.8829C25.763 23.1174 26.081 23.2491 26.4125 23.2491C28.2249 23.2458 29.9621 22.5243 31.2437 21.2428C32.5253 19.9612 33.2467 18.224 33.25 16.4116V15.0866C33.2467 13.2742 32.5253 11.5369 31.2437 10.2554C29.9621 8.9738 28.2249 8.25236 26.4125 8.24906Z"
    />
    <path class="arrow"
        d="M21.1125 26.1125L18.25 28.9875V14.5C18.25 14.1685 18.1183 13.8505 17.8839 13.6161C17.6495 13.3817 17.3315 13.25 17 13.25C16.6685 13.25 16.3505 13.3817 16.1161 13.6161C15.8817 13.8505 15.75 14.1685 15.75 14.5V28.9875L12.8875 26.1125C12.7709 25.996 12.6326 25.9035 12.4803 25.8404C12.328 25.7773 12.1648 25.7449 12 25.7449C11.8352 25.7449 11.672 25.7773 11.5197 25.8404C11.3674 25.9035 11.229 25.996 11.1125 26.1125C10.9959 26.229 10.9035 26.3674 10.8404 26.5197C10.7773 26.672 10.7449 26.8352 10.7449 27C10.7449 27.1648 10.7773 27.328 10.8404 27.4803C10.9035 27.6326 10.9959 27.771 11.1125 27.8875L16.1125 32.8875C16.2314 33.0013 16.3715 33.0905 16.525 33.15C16.6746 33.2161 16.8364 33.2503 17 33.2503C17.1636 33.2503 17.3254 33.2161 17.475 33.15C17.6284 33.0905 17.7686 33.0013 17.8875 32.8875L22.8875 27.8875C23.1229 27.6521 23.2551 27.3329 23.2551 27C23.2551 26.6671 23.1229 26.3479 22.8875 26.1125C22.6521 25.8771 22.3329 25.7449 22 25.7449C21.6671 25.7449 21.3479 25.8771 21.1125 26.1125Z"
    />
</svg>
    