<svg width="32" height="36" viewBox="0 0 32 36" xmlns="http://www.w3.org/2000/svg">
    <path
        d="M31.5772 15.758L28.832 13.7288H28.804V8.66078H28.8024L20.0036 0.0507812L19.9996 0.0551813H3.18876V13.7416L0.422363 15.832V27.284H3.18876V35.9504H28.804V27.2836H31.5704V23.7084L31.5772 15.758ZM9.46916 24.3792V19.3276H11.1752C11.5208 19.3276 11.8196 19.3688 12.0716 19.4496C12.3236 19.5312 12.5304 19.644 12.6932 19.7896C12.8556 19.9344 12.9756 20.1068 13.0532 20.3068C13.1312 20.506 13.17 20.7232 13.17 20.9576C13.17 21.206 13.1296 21.4332 13.048 21.6404C12.9684 21.8443 12.8419 22.0265 12.6788 22.1724C12.514 22.3208 12.3064 22.4364 12.0556 22.5184C11.8052 22.6012 11.5116 22.6428 11.1748 22.6428H10.5132V24.38L9.46916 24.3792ZM14.0664 24.3792V19.3276H16.0088C16.3964 19.3276 16.7492 19.39 17.0672 19.516C17.3852 19.6412 17.658 19.816 17.8836 20.0404C18.1092 20.2648 18.2852 20.5308 18.4092 20.8396C18.5336 21.148 18.5952 21.4852 18.5952 21.8524C18.5952 22.2212 18.5336 22.5608 18.4092 22.8704C18.2911 23.1702 18.1121 23.4424 17.8836 23.6696C17.6498 23.8974 17.372 24.0751 17.0672 24.192C16.7492 24.3172 16.3964 24.38 16.0088 24.38L14.0664 24.3792ZM22.8132 20.146H20.6476V21.5416H22.4652V22.3636H20.6476V24.3792H19.5964V19.3276H22.8132V20.146ZM18.766 1.28878L18.7576 9.88318L27.57 9.89318V15.7644H4.42196V1.28878H18.766ZM27.5704 34.7164H4.42196V27.2836H27.5704V34.7164Z"
    />
    <path
        d="M17.4189 22.5698C17.4893 22.359 17.5237 22.1198 17.5237 21.853C17.5237 21.5882 17.4893 21.3502 17.4189 21.139C17.357 20.9417 17.2551 20.7592 17.1197 20.603C16.9887 20.456 16.8263 20.3405 16.6445 20.265C16.4577 20.1858 16.2461 20.1466 16.0093 20.1466H15.1181V23.5618H16.0093C16.2461 23.5618 16.4581 23.5226 16.6445 23.4446C16.827 23.3705 16.9897 23.2549 17.1197 23.107C17.2497 22.9602 17.3493 22.781 17.4189 22.5698ZM11.8941 21.6054C12.0461 21.4474 12.1221 21.2318 12.1221 20.9582C12.1221 20.833 12.1033 20.7186 12.0649 20.6158C12.0283 20.515 11.9686 20.4243 11.8905 20.351C11.806 20.2739 11.7056 20.2163 11.5965 20.1822C11.4601 20.1401 11.3179 20.1203 11.1753 20.1234H10.5137V21.843H11.1753C11.5025 21.8426 11.7421 21.763 11.8941 21.6054Z"
    />
</svg>
    