<svg width="22" height="20" viewBox="0 0 22 20" xmlns="http://www.w3.org/2000/svg">
    <path
        d="M18.875 2.125H18V1.25C18 1.01794 17.9078 0.795376 17.7437 0.631282C17.5796 0.467187 17.3571 0.375 17.125 0.375C16.8929 0.375 16.6704 0.467187 16.5063 0.631282C16.3422 0.795376 16.25 1.01794 16.25 1.25V2.125H5.75V1.25C5.75 1.01794 5.65781 0.795376 5.49372 0.631282C5.32962 0.467187 5.10706 0.375 4.875 0.375C4.64294 0.375 4.42038 0.467187 4.25628 0.631282C4.09219 0.795376 4 1.01794 4 1.25V2.125H3.125C2.42881 2.125 1.76113 2.40156 1.26884 2.89384C0.776562 3.38613 0.5 4.05381 0.5 4.75V17C0.5 17.6962 0.776562 18.3639 1.26884 18.8562C1.76113 19.3484 2.42881 19.625 3.125 19.625H18.875C19.5712 19.625 20.2389 19.3484 20.7312 18.8562C21.2234 18.3639 21.5 17.6962 21.5 17V4.75C21.5 4.05381 21.2234 3.38613 20.7312 2.89384C20.2389 2.40156 19.5712 2.125 18.875 2.125ZM19.75 17C19.75 17.2321 19.6578 17.4546 19.4937 17.6187C19.3296 17.7828 19.1071 17.875 18.875 17.875H3.125C2.89294 17.875 2.67038 17.7828 2.50628 17.6187C2.34219 17.4546 2.25 17.2321 2.25 17V4.75C2.25 4.51794 2.34219 4.29538 2.50628 4.13128C2.67038 3.96719 2.89294 3.875 3.125 3.875H4V4.75C4 4.98206 4.09219 5.20462 4.25628 5.36872C4.42038 5.53281 4.64294 5.625 4.875 5.625C5.10706 5.625 5.32962 5.53281 5.49372 5.36872C5.65781 5.20462 5.75 4.98206 5.75 4.75V3.875H16.25V4.75C16.25 4.98206 16.3422 5.20462 16.5063 5.36872C16.6704 5.53281 16.8929 5.625 17.125 5.625C17.3571 5.625 17.5796 5.53281 17.7437 5.36872C17.9078 5.20462 18 4.98206 18 4.75V3.875H18.875C19.1071 3.875 19.3296 3.96719 19.4937 4.13128C19.6578 4.29538 19.75 4.51794 19.75 4.75V17Z"
    />
    <path
        d="M17.3 7.375H4.7C4.51435 7.375 4.3363 7.46719 4.20503 7.63128C4.07375 7.79538 4 8.01794 4 8.25C4 8.48206 4.07375 8.70462 4.20503 8.86872C4.3363 9.03281 4.51435 9.125 4.7 9.125H17.3C17.4857 9.125 17.6637 9.03281 17.795 8.86872C17.9263 8.70462 18 8.48206 18 8.25C18 8.01794 17.9263 7.79538 17.795 7.63128C17.6637 7.46719 17.4857 7.375 17.3 7.375Z"
    />
</svg>
    