<svg width="32" height="32" viewBox="0 0 32 32" xmlns="http://www.w3.org/2000/svg">
    <path
        d="M28.667 19.333V5.33301C28.667 4.26634 27.7337 3.33301 26.667 3.33301H2.66699C1.60033 3.33301 0.666992 4.26634 0.666992 5.33301V26.6663C0.666992 27.733 1.60033 28.6663 2.66699 28.6663H19.3337"
        fill="none" stroke-width="2" stroke-linecap="round" stroke-linejoin="round" />
    <path
        d="M7.99967 7.33333C8.36786 7.33333 8.66634 7.03486 8.66634 6.66667C8.66634 6.29848 8.36786 6 7.99967 6C7.63148 6 7.33301 6.29848 7.33301 6.66667C7.33301 7.03486 7.63148 7.33333 7.99967 7.33333Z"
        fill="none" stroke-width="2" stroke-linecap="round" stroke-linejoin="round" />
    <path
        d="M21.3337 7.33333C21.7018 7.33333 22.0003 7.03486 22.0003 6.66667C22.0003 6.29848 21.7018 6 21.3337 6C20.9655 6 20.667 6.29848 20.667 6.66667C20.667 7.03486 20.9655 7.33333 21.3337 7.33333Z"
        fill="none" stroke-width="2" stroke-linecap="round" stroke-linejoin="round" />
    <path d="M8.66699 6.66699V0.666992M22.0003 6.66699V0.666992M0.666992 10.0003H28.667"
        fill="none" stroke-width="2" stroke-linecap="round" stroke-linejoin="round" />
    <path
        d="M24.6667 31.3333C28.3486 31.3333 31.3333 28.3486 31.3333 24.6667C31.3333 20.9848 28.3486 18 24.6667 18C20.9848 18 18 20.9848 18 24.6667C18 28.3486 20.9848 31.3333 24.6667 31.3333Z"
        fill="none" stroke-width="2" stroke-linecap="round" stroke-linejoin="round" />
    <path d="M24.667 20.667V24.667L26.667 26.667" fill="none" stroke-width="2"
        stroke-linecap="round" stroke-linejoin="round" />
</svg>
    