<svg width="73" height="54" viewBox="0 0 73 54" fill="none" xmlns="http://www.w3.org/2000/svg">
<mask id="mask0_676_97" style="mask-type:luminance" maskUnits="userSpaceOnUse" x="12" y="3" width="50" height="51">
<path d="M14.5658 28.3067C14.5658 23.8168 15.8888 19.4277 18.3675 15.6943C20.8463 11.9609 24.3694 9.0509 28.4915 7.33219C32.6137 5.61347 37.1497 5.16323 41.5261 6.03839C45.9025 6.91355 49.9227 9.07481 53.0786 12.2489C56.2344 15.423 58.3841 19.4675 59.2559 23.8709C60.1277 28.2743 59.6824 32.8389 57.9763 36.9877C56.2703 41.1364 53.38 44.683 49.6711 47.179C45.9621 49.675 41.6009 51.0084 37.139 51.0105C31.1549 51.0077 25.4166 48.6151 21.1843 44.3582C16.9519 40.1014 14.5715 34.3283 14.5658 28.3067ZM12.4282 28.4573C12.4282 33.3649 13.8739 38.1624 16.5826 42.2435C19.2912 46.3246 23.1413 49.5062 27.6463 51.3862C32.1513 53.2662 37.109 53.7603 41.893 52.806C46.6769 51.8517 51.0724 49.4918 54.524 46.0246C57.9756 42.5574 60.3284 38.1385 61.285 33.3263C62.2416 28.514 61.7592 23.5244 59.8987 18.9879C58.0382 14.4514 54.8831 10.5717 50.8321 7.83901C46.7811 5.10631 42.016 3.64327 37.139 3.63477C30.5965 3.63761 24.3226 6.25341 19.6954 10.9076C15.0682 15.5618 12.466 21.8738 12.4603 28.4573" fill="white"/>
</mask>
<g mask="url(#mask0_676_97)">
<path d="M61.79 3.64551H12.4647V53.2798H61.79V3.64551Z" fill="white"/>
</g>
<mask id="mask1_676_97" style="mask-type:luminance" maskUnits="userSpaceOnUse" x="35" y="4" width="4" height="31">
<path d="M35.3928 4.85059L37.135 34.158L38.3855 4.85059H35.3928Z" fill="white"/>
</mask>
<g mask="url(#mask1_676_97)">
<path d="M38.3897 4.74575L34.3734 4.88672L35.3936 34.2514L39.4099 34.1105L38.3897 4.74575Z" fill="white"/>
</g>
<path d="M31.8041 3.11858C47.227 7.92606 50.8609 23.2842 50.8609 23.2842C50.32 18.1958 48.301 13.3807 45.0562 9.44032C41.8113 5.49996 37.4846 2.60909 32.6164 1.12891L31.8041 3.11858Z" fill="white"/>
<mask id="mask2_676_97" style="mask-type:luminance" maskUnits="userSpaceOnUse" x="36" y="0" width="37" height="50">
<path d="M36.7733 3.02325L37.5642 4.94839C41.6568 2.74158 46.3289 1.86632 50.9366 2.44323C55.5443 3.02014 59.8608 5.02081 63.2912 8.16956C66.7217 11.3183 69.0972 15.4601 70.0905 20.0243C71.0838 24.5884 70.646 29.3502 68.8374 33.6535C67.5147 36.8469 65.5286 39.7188 63.0123 42.0764C60.4961 44.4341 57.5079 46.223 54.2482 47.3231C53.7779 47.9469 53.1794 48.6029 52.4205 49.3773C55.9438 48.7841 59.2969 47.4273 62.2474 45.4009C65.198 43.3745 67.6755 40.727 69.5084 37.6416C71.3413 34.5562 72.4858 31.1067 72.8626 27.5321C73.2394 23.9575 72.8395 20.3432 71.6905 16.9396C70.5416 13.5359 68.6711 10.4243 66.2086 7.82015C63.7462 5.21603 60.7505 3.18166 57.4293 1.85798C54.1081 0.534287 50.5406 -0.0470876 46.9739 0.154119C43.4072 0.355325 39.9267 1.3343 36.7733 3.02325Z" fill="white"/>
</mask>
<g mask="url(#mask2_676_97)">
<path d="M56.5489 -19.7917L12.3068 24.7275L56.5489 69.2468L100.791 24.7275L56.5489 -19.7917Z" fill="white"/>
</g>
<path d="M16.031 2.04368C11.0435 4.15137 6.88393 7.85236 4.19451 12.5754C1.50508 17.2984 0.43528 22.7809 1.15023 28.1766C1.86517 33.5723 4.32511 38.5812 8.15036 42.4301C11.9756 46.2791 16.9535 48.7541 22.3156 49.4732C21.5675 48.8459 20.854 48.1781 20.178 47.4728C16.8087 46.4248 13.71 44.6434 11.1018 42.2549C8.49361 39.8665 6.43991 36.9295 5.08647 33.6526C3.28015 29.3506 2.84358 24.5908 3.83688 20.0288C4.83018 15.4667 7.2045 11.3267 10.6329 8.17872C14.0613 5.03076 18.3753 3.02969 22.9807 2.45102C27.5861 1.87235 32.2566 2.74455 36.349 4.94753L37.1506 3.02238C33.9244 1.28854 30.3543 0.300974 26.7007 0.13166C23.0471 -0.0376531 19.4019 0.615558 16.031 2.04368Z" fill="white"/>
<path d="M50.4016 32.9102C45.8472 33.7434 41.4012 35.0928 37.1485 36.9325C37.8966 37.2552 38.6555 37.5993 39.425 38.008L50.4016 32.9102ZM34.8505 37.9758C30.8771 39.855 27.1799 42.2761 23.8632 45.1709L37.1485 39.019L34.8505 37.9758Z" fill="white"/>
<path d="M23.8632 32.9102L34.8505 37.9758L37.1378 39.0513L50.4016 45.1709C47.0824 42.2912 43.3853 39.8847 39.4143 38.0188C38.6448 37.6424 37.8859 37.2982 37.1378 36.9433C32.8781 35.0997 28.425 33.7467 23.8632 32.9102Z" fill="white"/>
<mask id="mask3_676_97" style="mask-type:luminance" maskUnits="userSpaceOnUse" x="23" y="1" width="20" height="25">
<path d="M23.1483 25.5212C23.1483 25.5212 27.1776 7.36681 42.0126 3.14009L41.4782 1.12891C30.7368 4.16182 23.3941 14.3253 23.1483 25.5212Z" fill="white"/>
</mask>
<g mask="url(#mask3_676_97)">
<path d="M32.5669 -8.35821L11.0127 13.3311L32.5669 35.0203L54.1212 13.3311L32.5669 -8.35821Z" fill="white"/>
</g>
<g style="mix-blend-mode:multiply" opacity="0.4">
<path d="M57.764 1.9359C54.5641 0.579509 51.1144 -0.0777801 47.6431 0.00750551C44.1719 0.0927911 40.7582 0.918708 37.6278 2.43063L37.0613 2.71026L36.8689 2.81781C35.4715 2.0955 34.0075 1.51197 32.4975 1.0755C30.2187 0.370641 27.8489 0.00823257 25.4648 0C19.2119 0.00828419 13.1958 2.40784 8.63526 6.71259C4.07473 11.0173 1.31069 16.9054 0.903053 23.1842C0.495411 29.4629 2.47464 35.6628 6.43982 40.5281C10.405 45.3933 16.0597 48.5601 22.2584 49.3869C21.2858 48.4943 20.8155 48.1286 20.1208 47.3758C16.7374 46.3349 13.6239 44.5557 11.0023 42.165C8.38074 39.7743 6.3157 36.8309 4.95444 33.5448C3.31146 29.6252 2.80196 25.3184 3.48461 21.1202C4.16725 16.922 6.01429 13.0032 8.81305 9.81491C11.6118 6.62663 15.2485 4.29854 19.3044 3.0987C23.3603 1.89887 27.6705 1.87606 31.7387 3.03291C32.4441 3.24801 33.1067 3.49537 33.7587 3.75349C27.5336 4.54409 21.8419 7.69199 17.8419 12.5565C13.842 17.421 11.8345 23.6365 12.2281 29.9378C12.6218 36.2392 15.3868 42.1528 19.9606 46.475C24.5344 50.7972 30.5731 53.2032 36.8476 53.2032C43.122 53.2032 49.1607 50.7972 53.7345 46.475C58.3083 42.1528 61.0734 36.2392 61.467 29.9378C61.8606 23.6365 59.8531 17.421 55.8532 12.5565C51.8533 7.69199 46.1615 4.54409 39.9364 3.75349L40.2677 3.62443L40.7059 3.46311L41.561 3.19423C45.6345 1.96375 49.9716 1.92321 54.0671 3.07736C58.1626 4.2315 61.8479 6.53281 64.6938 9.71324C67.5397 12.8937 69.4291 16.8223 70.1417 21.0415C70.8544 25.2607 70.3611 29.5969 68.7193 33.5448C67.4005 36.7292 65.4217 39.5938 62.9151 41.9473C60.4084 44.3008 57.4317 46.0892 54.1836 47.1929C53.7133 47.8275 53.1147 48.4728 52.3559 49.2471C57.6183 48.3482 62.4484 45.7546 66.1201 41.8562C69.7918 37.9577 72.1065 32.9652 72.7163 27.6293C73.3261 22.2934 72.198 16.9025 69.5016 12.2672C66.8052 7.63184 62.6863 4.0026 57.764 1.92514V1.9359ZM59.5917 28.1996C59.5934 32.4773 58.394 36.6684 56.1319 40.2901C53.8697 43.9118 50.6368 46.8167 46.8056 48.6703C42.9743 50.5238 38.7007 51.2504 34.4769 50.7665C30.2532 50.2826 26.2512 48.6079 22.9321 45.9351C19.613 43.2624 17.1117 39.7005 15.7166 35.6598C14.3214 31.6191 14.089 27.264 15.0462 23.0962C16.0035 18.9284 18.1113 15.1175 21.127 12.1025C24.1426 9.08757 27.9434 6.99125 32.0914 6.05506C29.3231 8.46794 27.0868 11.4366 25.5259 14.7705C23.9651 18.1043 23.1142 21.7298 23.0279 25.4141C23.0279 25.4141 25.8389 12.8092 35.3619 6.16261L37.0186 34.0503L38.2156 6.03355C44.2948 10.056 48.7392 16.1386 50.742 23.177C50.0706 16.4453 46.7725 10.2566 41.5717 5.96902C46.6564 7.02683 51.224 9.81462 54.5059 13.8634C57.7878 17.9121 59.5838 22.9748 59.5917 28.1996Z" fill="white"/>
<path d="M37.0187 36.8358C32.7648 34.9894 28.3144 33.6398 23.7549 32.8135L34.7422 37.8683C30.7698 39.7317 27.0724 42.1385 23.7549 45.0204L37.0187 38.9223L50.2933 45.0204C46.9674 42.1391 43.2631 39.7325 39.2846 37.8683L50.2719 32.8135C45.7164 33.642 41.2698 34.9916 37.0187 36.8358Z" fill="white"/>
</g>
</svg>
