<svg width="48" height="36" viewBox="0 0 48 36" xmlns="http://www.w3.org/2000/svg">
    <path
        d="M10 36H2C0.8 36 0 35.2 0 34V26C0 24.8 0.8 24 2 24C3.2 24 4 24.8 4 26V32H10C11.2 32 12 32.8 12 34C12 35.2 11.2 36 10 36ZM46 36H38C36.8 36 36 35.2 36 34C36 32.8 36.8 32 38 32H44V26C44 24.8 44.8 24 46 24C47.2 24 48 24.8 48 26V34C48 35.2 47.2 36 46 36ZM46 12C44.8 12 44 11.2 44 10V4H38C36.8 4 36 3.2 36 2C36 0.8 36.8 0 38 0H46C47.2 0 48 0.8 48 2V10C48 11.2 47.2 12 46 12ZM2 12C0.8 12 0 11.2 0 10V2C0 0.8 0.8 0 2 0H10C11.2 0 12 0.8 12 2C12 3.2 11.2 4 10 4H4V10C4 11.2 3.2 12 2 12Z"
    />
</svg>
    