<svg width="40" height="40" viewBox="0 0 40 40" xmlns="http://www.w3.org/2000/svg">
    <path
        d="M20 0C8.95435 0 0 8.95435 0 20C0 31.0457 8.95435 40 20 40C31.0403 39.9871 39.9871 31.0403 40 20C40 8.95435 31.0457 0 20 0ZM20 38C10.0588 38 2 29.9412 2 20C2 10.0588 10.0588 2 20 2C29.9366 2.01086 37.9891 10.0634 38 20C38 29.9412 29.9412 38 20 38ZM28.5488 17.4102L16.5137 10.375C16.0549 10.1071 15.5332 9.96582 15.002 9.96558C13.3448 9.96484 12.0007 11.3076 12 12.9648V27.0352C12.0043 28.6909 13.3444 30.0326 15 30.0391C15.5325 30.0388 16.0552 29.8958 16.5137 29.625L28.5488 22.5898C28.9963 22.3291 29.3687 21.9568 29.6294 21.5092C30.463 20.0789 29.9791 18.2437 28.5488 17.4102Z"
    />
</svg>
    