<svg width="20" height="19" viewBox="0 0 20 19" xmlns="http://www.w3.org/2000/svg">
    <path
        d="M14.5443 18.9998C14.4043 18.9998 14.2609 18.9823 14.1193 18.9448L1.23342 15.4939C0.808574 15.376 0.44703 15.096 0.226639 14.7141C0.00624787 14.3323 -0.0553593 13.8791 0.0550839 13.4523L1.68092 7.39228C1.71088 7.28716 1.78095 7.19804 1.87602 7.1441C1.97108 7.09017 2.08354 7.07575 2.18913 7.10396C2.29473 7.13216 2.38502 7.20072 2.44054 7.29488C2.49605 7.38903 2.51235 7.50122 2.48592 7.60728L0.860917 13.6656C0.745084 14.1073 1.01008 14.5673 1.45258 14.6898L14.3334 18.1389C14.5457 18.1954 14.7717 18.1654 14.9619 18.0554C15.152 17.9454 15.2907 17.7645 15.3476 17.5523L15.9984 15.1406C16.0126 15.0878 16.0371 15.0382 16.0705 14.9948C16.1039 14.9514 16.1455 14.915 16.1929 14.8877C16.2403 14.8604 16.2927 14.8427 16.347 14.8356C16.4013 14.8285 16.4564 14.8322 16.5093 14.8464C16.5621 14.8607 16.6116 14.8852 16.655 14.9185C16.6984 14.9519 16.7348 14.9935 16.7621 15.0409C16.7894 15.0884 16.8072 15.1407 16.8142 15.195C16.8213 15.2493 16.8176 15.3044 16.8034 15.3573L16.1534 17.7656C16.0587 18.1199 15.8495 18.4329 15.5585 18.6561C15.2675 18.8793 14.911 19.0001 14.5443 18.9998Z"
    />
    <path
        d="M18.3333 13.9993H4.99992C4.08075 13.9993 3.33325 13.2518 3.33325 12.3327V2.33268C3.33325 1.41352 4.08075 0.666016 4.99992 0.666016H18.3333C19.2524 0.666016 19.9999 1.41352 19.9999 2.33268V12.3327C19.9999 13.2518 19.2524 13.9993 18.3333 13.9993ZM4.99992 1.49935C4.54075 1.49935 4.16659 1.87352 4.16659 2.33268V12.3327C4.16659 12.7918 4.54075 13.166 4.99992 13.166H18.3333C18.7924 13.166 19.1666 12.7918 19.1666 12.3327V2.33268C19.1666 1.87352 18.7924 1.49935 18.3333 1.49935H4.99992Z"
    />
    <path
        d="M7.50009 6.49935C6.58092 6.49935 5.83342 5.75185 5.83342 4.83268C5.83342 3.91352 6.58092 3.16602 7.50009 3.16602C8.41926 3.16602 9.16676 3.91352 9.16676 4.83268C9.16676 5.75185 8.41926 6.49935 7.50009 6.49935ZM7.50009 3.99935C7.04092 3.99935 6.66676 4.37352 6.66676 4.83268C6.66676 5.29185 7.04092 5.66602 7.50009 5.66602C7.95926 5.66602 8.33342 5.29185 8.33342 4.83268C8.33342 4.37352 7.95926 3.99935 7.50009 3.99935ZM3.80842 13.1077C3.72608 13.1077 3.64558 13.0832 3.57711 13.0375C3.50863 12.9918 3.45523 12.9268 3.42367 12.8507C3.39211 12.7747 3.38379 12.691 3.39976 12.6102C3.41574 12.5294 3.45529 12.4552 3.51342 12.3968L7.44926 8.46102C7.92092 7.98935 8.74509 7.98935 9.21676 8.46102L10.3884 9.63268L13.6318 5.74102C13.7482 5.6014 13.8936 5.48882 14.058 5.4111C14.2223 5.33339 14.4016 5.29241 14.5834 5.29102H14.5926C14.7729 5.29092 14.951 5.32982 15.1149 5.40505C15.2787 5.48028 15.4243 5.59005 15.5418 5.72685L19.9001 10.8118C19.9364 10.8533 19.9642 10.9015 19.9817 10.9537C19.9993 11.006 20.0063 11.0611 20.0024 11.1161C19.9985 11.1711 19.9837 11.2247 19.9589 11.2739C19.9342 11.3231 19.8999 11.3669 19.8581 11.4028C19.8162 11.4387 19.7677 11.4659 19.7153 11.4829C19.6629 11.4999 19.6076 11.5063 19.5527 11.5018C19.4978 11.4973 19.4443 11.4819 19.3954 11.4566C19.3464 11.4313 19.303 11.3966 19.2676 11.3543L14.9093 6.26935C14.8702 6.22355 14.8217 6.18684 14.767 6.16179C14.7123 6.13674 14.6528 6.12396 14.5926 6.12435C14.5318 6.12597 14.472 6.14014 14.4169 6.16595C14.3619 6.19176 14.3127 6.22866 14.2726 6.27435L10.7368 10.5168C10.6997 10.5614 10.6537 10.5977 10.6017 10.6234C10.5498 10.6491 10.493 10.6636 10.4351 10.666C10.3772 10.6696 10.3192 10.6606 10.2651 10.6396C10.211 10.6186 10.1621 10.5861 10.1218 10.5443L8.62759 9.05018C8.54803 8.97481 8.4426 8.9328 8.33301 8.9328C8.22341 8.9328 8.11799 8.97481 8.03842 9.05018L4.10259 12.986C4.06398 13.0247 4.01812 13.0553 3.96764 13.0762C3.91716 13.0971 3.86305 13.1078 3.80842 13.1077Z"
    />
</svg>
    