<svg width="40" height="36" viewBox="0 0 40 36" xmlns="http://www.w3.org/2000/svg">
    <path
        d="M29.5 6V6.5H30H33.8C36.9136 6.5 39.5 9.06572 39.5 12.4V14.4C39.5 16.0455 38.7694 17.5235 37.6464 18.6464L37.5 18.7929V19V28C37.5 32.1239 34.1239 35.5 30 35.5H10C5.87614 35.5 2.5 32.1239 2.5 28V18.8V18.5929L2.35355 18.4464C1.23064 17.3235 0.5 15.8455 0.5 14.2V12.2C0.5 9.07614 3.07614 6.5 6.2 6.5H10H10.5V6C10.5 2.87614 12.8761 0.5 16 0.5H24C27.1239 0.5 29.5 2.87614 29.5 6ZM26 6.5H26.5V6C26.5 5.28638 26.2599 4.65284 25.8036 4.19645C25.3472 3.74006 24.7136 3.5 24 3.5H16C15.2864 3.5 14.6528 3.74006 14.1964 4.19645C13.7401 4.65284 13.5 5.28638 13.5 6V6.5H14H26ZM21.5149 19.5213L21.6324 19.9912L22.1059 19.8887L34.0659 17.2973C34.2674 17.2813 34.4747 17.1967 34.6236 17.1222C34.7937 17.0371 34.9801 16.9184 35.126 16.7803C36.0191 16.0996 36.5 15.1671 36.5 14.2V12.2C36.5 10.7239 35.2761 9.5 33.8 9.5H6.2C4.72386 9.5 3.5 10.7239 3.5 12.2V14.2C3.5 15.3237 3.95087 16.3015 4.72265 16.816L4.84861 16.9H4.99754C5.19789 17.082 5.48867 17.283 5.94175 17.299L17.8941 19.8887L18.3072 19.9782L18.4642 19.5857C18.6472 19.1283 18.8579 18.8098 19.098 18.6067C19.3268 18.4131 19.6103 18.3 20 18.3C20.733 18.3 21.3609 18.9053 21.5149 19.5213ZM6.10588 20.5113L5.5 20.3801V21V28C5.5 30.4761 7.52386 32.5 10 32.5H30C32.4761 32.5 34.5 30.4761 34.5 28V21V20.3801L33.8941 20.5113L21.8941 23.1113L21.5 23.1967V23.6V24C21.5 24.4864 21.3401 24.8528 21.0964 25.0964C20.8528 25.3401 20.4864 25.5 20 25.5C19.5136 25.5 19.1472 25.3401 18.9036 25.0964C18.6599 24.8528 18.5 24.4864 18.5 24V23.6V23.1967L18.1059 23.1113L6.10588 20.5113Z"
        stroke="white" />
</svg>
    