<svg width="42" height="34" viewBox="0 0 42 34" fill="none" xmlns="http://www.w3.org/2000/svg">
    <path
        d="M25 8.5C25 6.29 23.21 4.5 21 4.5C18.79 4.5 17 6.29 17 8.5C17 10.71 18.79 12.5 21 12.5C23.21 12.5 25 10.71 25 8.5ZM19 8.5C19 7.4 19.9 6.5 21 6.5C22.1 6.5 23 7.4 23 8.5C23 9.6 22.1 10.5 21 10.5C19.9 10.5 19 9.6 19 8.5Z"
        fill="#6DB863" />
    <path
        d="M0.999956 33.5H41C41.35 33.5 41.67 33.32 41.85 33.02C42.03 32.72 42.05 32.36 41.89 32.05L33.89 16.05C33.72 15.71 33.38 15.5 33 15.5H26.77C28.25 12.23 29 9.87 29 8.5C29 4.09 25.41 0.5 21 0.5C16.59 0.5 13 4.09 13 8.5C13 9.87 13.75 12.23 15.23 15.5H8.99996C8.61996 15.5 8.27996 15.71 8.10996 16.05L0.109956 32.05C-0.0500443 32.36 -0.0300441 32.73 0.149956 33.02C0.329956 33.32 0.649956 33.5 0.999956 33.5ZM15 8.5C15 5.19 17.69 2.5 21 2.5C24.31 2.5 27 5.19 27 8.5C27 10.79 23.98 17.06 21 22.46C18.02 17.06 15 10.79 15 8.5ZM9.61996 17.5H16.17C18.04 21.36 20.05 24.85 20.14 25C20.5 25.62 21.52 25.62 21.87 25C21.96 24.85 23.97 21.36 25.84 17.5H32.39L39.39 31.5H2.61996L9.61996 17.5Z"
        fill="#6DB863" />
</svg>
    