<svg width="26" height="26" viewBox="0 0 26 26" fill="none" xmlns="http://www.w3.org/2000/svg">
    <path
        d="M23.1333 2.38648H15.9333L13 0.146484L10.0667 2.43982H2.86668V8.09315L0.200012 10.1732V25.9065H25.8V10.1198L23.1333 8.03982V2.38648ZM13 1.47982L14.1733 2.38648H11.8267L13 1.47982ZM22.0667 3.45315V11.9865L13 18.2798L3.93335 11.9865V3.45315H22.0667ZM2.86668 11.2398L1.64001 10.3865L2.86668 9.42649V11.2398ZM1.26668 24.7865V11.3998L13 19.5598L24.7333 11.3998V24.7865H1.26668ZM24.36 10.3865L23.1333 11.2398V9.42649L24.36 10.3865Z"
        fill="#6DB863" />
    <path d="M19.4 5.05322H6.06668V6.11989H19.4V5.05322Z" fill="#6DB863" />
    <path d="M19.4 8.25342H6.06668V9.32008H19.4V8.25342Z" fill="#6DB863" />
    <path d="M19.4 11.4531H6.06668V12.5198H19.4V11.4531Z" fill="#6DB863" />
</svg>
    