<svg width="15" height="8" viewBox="0 0 15 8" fill="none" xmlns="http://www.w3.org/2000/svg">
    <path
        d="M6.88456 7.54135L6.88457 7.54135L6.88343 7.54027L0.417327 1.40458L0.417407 1.40449L0.412294 1.39996C0.271428 1.27515 0.2 1.11072 0.2 0.912487C0.2 0.523217 0.522238 0.2 0.974576 0.2C1.19219 0.2 1.3906 0.281073 1.5512 0.422708L7.36216 5.95022L7.5 6.08134L7.63784 5.95022L13.4505 0.421122C13.6008 0.281988 13.7979 0.199999 14.0169 0.199999C14.4789 0.199999 14.8 0.524316 14.8 0.912487C14.8 1.11072 14.7286 1.27515 14.5877 1.39996L14.5876 1.39987L14.5827 1.40458L8.11657 7.54026L8.11544 7.54135C7.93068 7.71945 7.73464 7.79938 7.50271 7.8C7.26312 7.79292 7.06648 7.71671 6.88456 7.54135Z"
        fill="#A5A5A5" stroke="#A5A5A5" stroke-width="0.4" />
</svg>