<svg width="24" height="22" viewBox="0 0 24 22" xmlns="http://www.w3.org/2000/svg">
    <path
        d="M18.9867 21.6452C18.1869 22.2148 13.0556 18.604 12.0728 18.596C11.0901 18.5882 5.90096 22.1159 5.11057 21.5335C4.32018 20.9511 6.17835 14.969 5.88223 14.0345C5.5861 13.1001 0.617849 9.2691 0.929064 8.33955C1.24035 7.40999 7.52009 7.32365 8.31981 6.75403C9.11952 6.18447 11.2381 0.289015 12.221 0.296883C13.2037 0.304819 15.2266 6.2336 16.0169 6.81601C16.8073 7.39836 23.085 7.58582 23.3811 8.52023C23.6773 9.45464 18.6477 13.2052 18.3364 14.1348C18.0252 15.0643 19.7864 21.0756 18.9867 21.6452Z"
    />
</svg>
    