<svg width="80" height="80" viewBox="0 0 80 80" fill="none" xmlns="http://www.w3.org/2000/svg">
    <path
        d="M40 79.375C61.7462 79.375 79.375 61.7462 79.375 40C79.375 18.2538 61.7462 0.625 40 0.625C18.2538 0.625 0.625 18.2538 0.625 40C0.625 61.7462 18.2538 79.375 40 79.375Z"
        fill="#00AF6C" />
    <path
        d="M53.8128 26.1877L33.3128 46.7502C33.1878 46.8752 33.0628 46.8752 32.8753 46.8752C32.7503 46.8752 32.5628 46.8126 32.5003 46.6876L26.1878 40.0626C25.6253 39.4376 24.8128 39.1251 24.0003 39.0626C23.1253 39.0626 22.3753 39.3751 21.7503 40.0001L21.6253 40.1251C20.5628 41.3126 20.6878 43.1876 21.8128 44.3751L30.6253 53.7502C31.1878 54.3752 31.9378 54.6876 32.8128 54.7501C33.6253 54.7501 34.4378 54.4376 35.0628 53.8126L58.1878 30.6251C59.3753 29.4376 59.3753 27.4376 58.1878 26.2501C57.0003 25.0001 55.0628 25.0002 53.8128 26.1877Z"
        fill="white" />
</svg>