<svg width="40" height="30" viewBox="0 0 40 30" fill="none" xmlns="http://www.w3.org/2000/svg">
<mask id="mask0_274_1332" style="mask-type:luminance" maskUnits="userSpaceOnUse" x="6" y="2" width="28" height="28">
<path d="M7.60374 15.7973C7.60374 13.2916 8.33721 10.8421 9.71143 8.75855C11.0856 6.67501 13.0389 5.05098 15.3242 4.09179C17.6095 3.1326 20.1243 2.88133 22.5506 3.36975C24.9769 3.85816 27.2057 5.06432 28.9554 6.83574C30.705 8.60716 31.8968 10.8643 32.3801 13.3218C32.8634 15.7792 32.6165 18.3267 31.6707 20.642C30.7249 22.9574 29.1225 24.9367 27.0662 26.3297C25.01 27.7227 22.5921 28.4668 20.1184 28.468C16.8008 28.4664 13.6195 27.1311 11.273 24.7554C8.92658 22.3798 7.60688 19.1579 7.60374 15.7973ZM6.41864 15.8814C6.41864 18.6202 7.22014 21.2976 8.72183 23.5752C10.2235 25.8528 12.358 27.6284 14.8556 28.6776C17.3532 29.7268 20.1018 30.0026 22.754 29.47C25.4063 28.9374 27.8432 27.6204 29.7567 25.6854C31.6703 23.7504 32.9747 21.2843 33.505 18.5987C34.0354 15.913 33.768 13.1284 32.7365 10.5967C31.705 8.06493 29.9558 5.89972 27.7099 4.37464C25.464 2.84957 22.8222 2.03307 20.1184 2.02832C16.4912 2.02991 13.013 3.48974 10.4476 6.08718C7.88224 8.68461 6.43956 12.2073 6.43642 15.8814" fill="white"/>
</mask>
<g mask="url(#mask0_274_1332)">
<path d="M33.7849 2.03418H6.43872V29.7343H33.7849V2.03418Z" fill="url(#paint0_linear_274_1332)"/>
</g>
<mask id="mask1_274_1332" style="mask-type:luminance" maskUnits="userSpaceOnUse" x="19" y="2" width="2" height="18">
<path d="M19.1503 2.70703L20.1162 19.063L20.8095 2.70703H19.1503Z" fill="white"/>
</mask>
<g mask="url(#mask1_274_1332)">
<path d="M20.8118 2.64878L18.5852 2.72754L19.1502 19.1155L21.3768 19.0368L20.8118 2.64878Z" fill="url(#paint1_linear_274_1332)"/>
</g>
<path d="M17.1608 1.74029C25.7113 4.42327 27.7259 12.9944 27.7259 12.9944C27.426 10.1547 26.3067 7.46741 24.5077 5.26835C22.7088 3.0693 20.31 1.45595 17.6111 0.629883L17.1608 1.74029Z" fill="#E83139"/>
<mask id="mask2_274_1332" style="mask-type:luminance" maskUnits="userSpaceOnUse" x="19" y="0" width="21" height="28">
<path d="M19.9157 1.68737L20.3542 2.76176C22.6232 1.53018 25.2134 1.04171 27.7679 1.36367C30.3225 1.68563 32.7155 2.80218 34.6174 4.55944C36.5192 6.3167 37.8363 8.62819 38.3869 11.1754C38.9376 13.7225 38.6949 16.38 37.6922 18.7816C36.9589 20.5638 35.8578 22.1666 34.4628 23.4823C33.0678 24.7981 31.4111 25.7964 29.6039 26.4104C29.3432 26.7585 29.0113 27.1247 28.5906 27.5568C30.544 27.2258 32.4029 26.4686 34.0387 25.3377C35.6745 24.2068 37.0481 22.7292 38.0642 21.0073C39.0804 19.2854 39.7149 17.3603 39.9238 15.3654C40.1327 13.3704 39.911 11.3534 39.274 9.45385C38.637 7.55433 37.6 5.81777 36.2348 4.36445C34.8696 2.91112 33.2088 1.77578 31.3675 1.03705C29.5262 0.29832 27.5484 -0.0261362 25.571 0.086154C23.5936 0.198444 21.664 0.744796 19.9157 1.68737Z" fill="white"/>
</mask>
<g mask="url(#mask2_274_1332)">
<path d="M30.8793 -11.0457L6.35132 13.7998L30.8793 38.6453L55.4073 13.7998L30.8793 -11.0457Z" fill="url(#paint2_linear_274_1332)"/>
</g>
<path d="M8.41607 1.14028C5.65094 2.31655 3.34489 4.38201 1.85386 7.01786C0.362831 9.65371 -0.230273 12.7134 0.166095 15.7246C0.562464 18.7359 1.92627 21.5313 4.047 23.6793C6.16773 25.8274 8.92748 27.2086 11.9003 27.6099C11.4855 27.2598 11.0899 26.8872 10.7152 26.4935C8.84722 25.9087 7.12928 24.9145 5.68329 23.5815C4.2373 22.2486 3.09872 20.6095 2.34837 18.7807C1.34693 16.3798 1.1049 13.7235 1.65559 11.1775C2.20628 8.63146 3.52261 6.32097 5.42334 4.56415C7.32407 2.80732 9.71572 1.69055 12.269 1.36761C14.8223 1.04466 17.4116 1.53142 19.6804 2.76087L20.1248 1.68648C18.3362 0.718849 16.357 0.167702 14.3314 0.0732108C12.3058 -0.0212803 10.2849 0.343266 8.41607 1.14028Z" fill="#E73139"/>
<path d="M27.4714 18.3662C24.9464 18.8312 22.4815 19.5843 20.1238 20.611C20.5385 20.7911 20.9592 20.9832 21.3859 21.2112L27.4714 18.3662ZM18.8498 21.1932C16.6469 22.242 14.5971 23.5932 12.7584 25.2087L20.1238 21.7755L18.8498 21.1932Z" fill="#009444"/>
<path d="M12.7584 18.3662L18.8498 21.1932L20.1178 21.7935L27.4714 25.2087C25.6311 23.6016 23.5815 22.2586 21.38 21.2173C20.9533 21.0072 20.5326 20.8151 20.1178 20.617C17.7563 19.5882 15.2874 18.8331 12.7584 18.3662Z" fill="#009444"/>
<mask id="mask3_274_1332" style="mask-type:luminance" maskUnits="userSpaceOnUse" x="12" y="0" width="11" height="15">
<path d="M12.3619 14.2429C12.3619 14.2429 14.5958 4.11115 22.8204 1.75229L22.5242 0.629883C16.569 2.3225 12.4982 7.99457 12.3619 14.2429Z" fill="white"/>
</mask>
<g mask="url(#mask3_274_1332)">
<path d="M17.5837 -4.66498L5.63397 7.43945L17.5837 19.5439L29.5335 7.43945L17.5837 -4.66498Z" fill="url(#paint3_linear_274_1332)"/>
</g>
<g style="mix-blend-mode:multiply" opacity="0.4">
<path d="M31.5531 1.08039C29.779 0.323415 27.8665 -0.0434078 25.942 0.0041887C24.0175 0.0517852 22.1249 0.512716 20.3894 1.3565L20.0754 1.51255L19.9687 1.57257C19.194 1.16946 18.3823 0.843807 17.5452 0.600219C16.2818 0.206849 14.968 0.00459446 13.6462 0C10.1796 0.00462327 6.84424 1.34377 4.31586 3.74619C1.78748 6.1486 0.255086 9.43466 0.0290878 12.9387C-0.196911 16.4428 0.900383 19.9029 3.09869 22.6181C5.297 25.3333 8.43198 27.1006 11.8686 27.5621C11.3294 27.0639 11.0686 26.8598 10.6835 26.4397C8.8077 25.8588 7.08156 24.8658 5.62816 23.5316C4.17475 22.1974 3.02988 20.5547 2.2752 18.7208C1.36432 16.5334 1.08185 14.1298 1.46031 11.7868C1.83877 9.44391 2.86278 7.25687 4.41442 5.47754C5.96607 3.69821 7.98226 2.39895 10.2309 1.72934C12.4795 1.05973 14.8691 1.047 17.1245 1.69262C17.5156 1.81266 17.8829 1.95071 18.2444 2.09476C14.7932 2.53598 11.6376 4.29278 9.42007 7.00758C7.20249 9.72238 6.08955 13.1911 6.30777 16.7078C6.52599 20.2245 8.05896 23.5248 10.5947 25.937C13.1304 28.3491 16.4783 29.6918 19.9569 29.6918C23.4355 29.6918 26.7833 28.3491 29.3191 25.937C31.8548 23.5248 33.3878 20.2245 33.606 16.7078C33.8242 13.1911 32.7113 9.72238 30.4937 7.00758C28.2761 4.29278 25.1206 2.53598 21.6693 2.09476L21.853 2.02274L22.096 1.93271L22.57 1.78265C24.8284 1.09594 27.2329 1.07332 29.5035 1.71742C31.774 2.36153 33.8172 3.64586 35.395 5.4208C36.9728 7.19575 38.0202 9.38825 38.4153 11.7429C38.8104 14.0976 38.5369 16.5175 37.6267 18.7208C36.8955 20.498 35.7985 22.0966 34.4088 23.4101C33.0191 24.7236 31.3688 25.7216 29.568 26.3376C29.3073 26.6917 28.9755 27.0519 28.5548 27.484C31.4722 26.9824 34.1501 25.5349 36.1857 23.3593C38.2213 21.1836 39.5046 18.3974 39.8427 15.4195C40.1808 12.4416 39.5553 9.43303 38.0604 6.84612C36.5655 4.25921 34.282 2.23379 31.5531 1.07439V1.08039ZM32.5663 15.7377C32.5672 18.125 31.9023 20.464 30.6482 22.4853C29.394 24.5065 27.6017 26.1277 25.4776 27.1621C23.3536 28.1965 20.9842 28.602 18.6426 28.332C16.3009 28.0619 14.0822 27.1273 12.2421 25.6357C10.4019 24.1441 9.01525 22.1562 8.24176 19.9012C7.46827 17.6461 7.33944 15.2156 7.87013 12.8896C8.40082 10.5636 9.56942 8.43681 11.2413 6.75422C12.9132 5.07162 15.0204 3.9017 17.32 3.37923C15.7853 4.72582 14.5455 6.38257 13.6801 8.24315C12.8148 10.1037 12.3431 12.127 12.2952 14.1832C12.2952 14.1832 13.8536 7.14861 19.1332 3.43926L20.0517 19.0029L20.7153 3.36723C24.0857 5.61209 26.5497 9.00667 27.66 12.9347C27.2878 9.17786 25.4593 5.72404 22.5759 3.33122C25.395 3.92156 27.9272 5.47738 29.7467 7.73693C31.5662 9.99648 32.5619 12.8219 32.5663 15.7377Z" fill="url(#paint4_linear_274_1332)"/>
<path d="M20.0517 20.5573C17.6932 19.5268 15.2259 18.7736 12.6981 18.3125L18.7895 21.1335C16.5872 22.1734 14.5374 23.5166 12.6981 25.125L20.0517 21.7217L27.4111 25.125C25.5673 23.517 23.5135 22.1739 21.3079 21.1335L27.3993 18.3125C24.8737 18.7749 22.4085 19.5281 20.0517 20.5573Z" fill="url(#paint5_linear_274_1332)"/>
</g>
<defs>
<linearGradient id="paint0_linear_274_1332" x1="6.52251" y1="16.427" x2="33.5836" y2="16.427" gradientUnits="userSpaceOnUse">
<stop stop-color="#2B8A3A"/>
<stop offset="0.12" stop-color="#499C3B"/>
<stop offset="0.28" stop-color="#67AF3C"/>
<stop offset="0.42" stop-color="#7DBC3D"/>
<stop offset="0.57" stop-color="#8BC43E"/>
<stop offset="0.7" stop-color="#8FC73E"/>
<stop offset="1" stop-color="#00A651"/>
</linearGradient>
<linearGradient id="paint1_linear_274_1332" x1="21.445" y1="21.0195" x2="20.7165" y2="0.422418" gradientUnits="userSpaceOnUse">
<stop stop-color="#2B8A3A"/>
<stop offset="0.12" stop-color="#499C3B"/>
<stop offset="0.28" stop-color="#67AF3C"/>
<stop offset="0.42" stop-color="#7DBC3D"/>
<stop offset="0.57" stop-color="#8BC43E"/>
<stop offset="0.7" stop-color="#8FC73E"/>
<stop offset="1" stop-color="#00A651"/>
</linearGradient>
<linearGradient id="paint2_linear_274_1332" x1="41.4087" y1="3.27846" x2="7.1609" y2="37.0886" gradientUnits="userSpaceOnUse">
<stop stop-color="#324B58"/>
<stop offset="1" stop-color="#917DBA"/>
</linearGradient>
<linearGradient id="paint3_linear_274_1332" x1="32.6607" y1="-7.33945" x2="-4.97706" y2="29.8173" gradientUnits="userSpaceOnUse">
<stop stop-color="#324B58"/>
<stop offset="1" stop-color="#917DBA"/>
</linearGradient>
<linearGradient id="paint4_linear_274_1332" x1="-0.0238953" y1="14.8374" x2="39.9317" y2="14.8374" gradientUnits="userSpaceOnUse">
<stop stop-color="#231F20"/>
<stop offset="0.02" stop-color="#2C2829"/>
<stop offset="0.12" stop-color="#636161"/>
<stop offset="0.22" stop-color="#939191"/>
<stop offset="0.32" stop-color="#BAB9B9"/>
<stop offset="0.42" stop-color="#D8D7D8"/>
<stop offset="0.52" stop-color="#EEEDED"/>
<stop offset="0.61" stop-color="#FBFBFB"/>
<stop offset="0.7" stop-color="white"/>
<stop offset="1" stop-color="#231F20"/>
</linearGradient>
<linearGradient id="paint5_linear_274_1332" x1="12.6981" y1="21.7217" x2="27.4111" y2="21.7217" gradientUnits="userSpaceOnUse">
<stop stop-color="#231F20"/>
<stop offset="0.02" stop-color="#2C2829"/>
<stop offset="0.12" stop-color="#636161"/>
<stop offset="0.22" stop-color="#939191"/>
<stop offset="0.32" stop-color="#BAB9B9"/>
<stop offset="0.42" stop-color="#D8D7D8"/>
<stop offset="0.52" stop-color="#EEEDED"/>
<stop offset="0.61" stop-color="#FBFBFB"/>
<stop offset="0.7" stop-color="white"/>
<stop offset="1" stop-color="#231F20"/>
</linearGradient>
</defs>
</svg>
