<svg width="18" height="24" viewBox="0 0 18 24" xmlns="http://www.w3.org/2000/svg">
    <path
        d="M12.7055 6.52515C12.7055 6.7314 12.6914 6.93765 12.6656 7.14156C12.6773 7.05953 12.6891 6.97515 12.6984 6.89312C12.6422 7.30094 12.5344 7.69703 12.3773 8.07672C12.4078 8.00172 12.4406 7.92672 12.4711 7.85172C12.3141 8.22203 12.1125 8.5689 11.8664 8.88765L12.0141 8.69781C11.7703 9.01187 11.4867 9.29547 11.1727 9.53922L11.3625 9.39156C11.0438 9.63531 10.6969 9.83922 10.3266 9.99625C10.4016 9.96578 10.4766 9.93297 10.5516 9.9025C10.1719 10.0595 9.77579 10.1673 9.36798 10.2236C9.45001 10.2119 9.53438 10.2002 9.61641 10.1908C9.20626 10.2447 8.79376 10.2447 8.3836 10.1908C8.46563 10.2025 8.55001 10.2142 8.63204 10.2236C8.22422 10.1673 7.82813 10.0595 7.44844 9.9025C7.52344 9.93297 7.59844 9.96578 7.67344 9.99625C7.30313 9.83922 6.95626 9.63765 6.63751 9.39156L6.82735 9.53922C6.51329 9.29547 6.22969 9.01187 5.98594 8.69781L6.1336 8.88765C5.88985 8.5689 5.68594 8.22203 5.52891 7.85172C5.55938 7.92672 5.59219 8.00172 5.62266 8.07672C5.46563 7.69703 5.35782 7.30094 5.30157 6.89312C5.31329 6.97515 5.32501 7.05953 5.33438 7.14156C5.28047 6.7314 5.28047 6.3189 5.33438 5.90875C5.32266 5.99078 5.31094 6.07515 5.30157 6.15719C5.35782 5.74937 5.46563 5.35328 5.62266 4.97359C5.59219 5.04859 5.55938 5.12359 5.52891 5.19859C5.68594 4.82828 5.88751 4.4814 6.1336 4.16265L5.98594 4.3525C6.22969 4.03843 6.51329 3.75484 6.82735 3.51109L6.63751 3.65875C6.95626 3.415 7.30313 3.21109 7.67344 3.05406C7.59844 3.08453 7.52344 3.11734 7.44844 3.14781C7.82813 2.99078 8.22422 2.88297 8.63204 2.82672C8.55001 2.83844 8.46563 2.85015 8.3836 2.85953C8.79376 2.80562 9.20626 2.80562 9.61641 2.85953C9.53438 2.84781 9.45001 2.83609 9.36798 2.82672C9.77579 2.88297 10.1719 2.99078 10.5516 3.14781C10.4766 3.11734 10.4016 3.08453 10.3266 3.05406C10.6969 3.21109 11.0438 3.41265 11.3625 3.65875L11.1727 3.51109C11.4867 3.75484 11.7703 4.03843 12.0141 4.3525L11.8664 4.16265C12.1102 4.4814 12.3141 4.82828 12.4711 5.19859C12.4406 5.12359 12.4078 5.04859 12.3773 4.97359C12.5344 5.35328 12.6422 5.74937 12.6984 6.15719C12.6867 6.07515 12.675 5.99078 12.6656 5.90875C12.6914 6.11265 12.7031 6.3189 12.7055 6.52515C12.7078 7.015 13.1344 7.48609 13.643 7.46265C14.1492 7.43922 14.5828 7.05015 14.5805 6.52515C14.5758 5.4025 14.2383 4.25406 13.5773 3.34C13.3992 3.0939 13.2094 2.8525 12.9984 2.63453C12.7852 2.41422 12.5508 2.22437 12.307 2.03922C11.8641 1.70172 11.3695 1.45328 10.8445 1.26109C8.72813 0.48531 6.17579 1.17672 4.74376 2.92047C4.54688 3.15953 4.35938 3.40797 4.20001 3.67515C4.04063 3.94 3.91641 4.22125 3.80157 4.50719C3.58594 5.03687 3.47579 5.59937 3.43126 6.1689C3.34454 7.28453 3.63516 8.44937 4.21641 9.40562C4.77657 10.3291 5.62266 11.1212 6.61172 11.5689C6.90235 11.7002 7.20001 11.822 7.50938 11.9087C7.81641 11.9931 8.12813 12.04 8.44454 12.0775C9.0211 12.1455 9.60938 12.0986 10.1789 11.9837C12.3422 11.5431 14.1539 9.67984 14.4891 7.49312C14.5383 7.17437 14.5758 6.85562 14.5758 6.53219C14.5781 6.04234 14.1422 5.57125 13.6383 5.59469C13.132 5.61109 12.7055 6.00015 12.7055 6.52515ZM15.8156 21.1806H3.78985C3.25782 21.1806 2.72579 21.1853 2.19376 21.1806C2.13516 21.1806 2.07657 21.1759 2.02032 21.1689C2.10235 21.1806 2.18672 21.1923 2.26876 21.2017C2.17501 21.1877 2.08594 21.1619 1.99922 21.1267C2.07422 21.1572 2.14922 21.19 2.22422 21.2205C2.13047 21.1806 2.04376 21.1291 1.96172 21.0658L2.15157 21.2134C2.08126 21.1548 2.01563 21.0916 1.95938 21.0212L2.10704 21.2111C2.04376 21.1291 1.99454 21.0423 1.95235 20.9486C1.98282 21.0236 2.01563 21.0986 2.0461 21.1736C2.01094 21.0869 1.98751 20.9955 1.9711 20.9041C1.98282 20.9861 1.99454 21.0705 2.00391 21.1525C1.96641 20.8689 1.99219 20.5689 1.99219 20.283V19.2798C1.99219 19.0291 2.00626 18.7806 2.03907 18.5322C2.02735 18.6142 2.01563 18.6986 2.00626 18.7806C2.07188 18.3002 2.19844 17.8291 2.38829 17.3814C2.35782 17.4564 2.32501 17.5314 2.29454 17.6064C2.47735 17.1798 2.71172 16.7791 2.99532 16.4111L2.84766 16.6009C3.13126 16.2377 3.45704 15.9095 3.82266 15.6259L3.63282 15.7736C4.00079 15.49 4.40157 15.2556 4.82813 15.0728C4.75313 15.1033 4.67813 15.1361 4.60313 15.1666C5.05079 14.9791 5.51954 14.8502 6.00235 14.7845C5.92032 14.7962 5.83594 14.808 5.75391 14.8173C6.10079 14.7728 6.44532 14.7705 6.79454 14.7705H11.0836C11.4703 14.7705 11.8547 14.7681 12.2414 14.8173C12.1594 14.8056 12.075 14.7939 11.993 14.7845C12.4734 14.8502 12.9445 14.9767 13.3922 15.1666C13.3172 15.1361 13.2422 15.1033 13.1672 15.0728C13.5938 15.2556 13.9945 15.49 14.3625 15.7736L14.1727 15.6259C14.5359 15.9095 14.8641 16.2353 15.1477 16.6009L15 16.4111C15.2836 16.7791 15.518 17.1798 15.7008 17.6064C15.6703 17.5314 15.6375 17.4564 15.607 17.3814C15.7945 17.8291 15.9234 18.2978 15.9891 18.7806C15.9773 18.6986 15.9656 18.6142 15.9563 18.5322C16.0008 18.8861 16.0031 19.2377 16.0031 19.5939V20.7541C16.0031 20.8877 16.0078 21.0212 15.9914 21.1525C16.0031 21.0705 16.0148 20.9861 16.0242 20.9041C16.0102 20.9978 15.9844 21.0869 15.9492 21.1736C15.9797 21.0986 16.0125 21.0236 16.043 20.9486C16.0031 21.0423 15.9516 21.1291 15.8883 21.2111L16.0359 21.0212C15.9773 21.0916 15.9141 21.1572 15.8438 21.2134L16.0336 21.0658C15.9516 21.1291 15.8648 21.1783 15.7711 21.2205C15.8461 21.19 15.9211 21.1572 15.9961 21.1267C15.9094 21.1619 15.818 21.1853 15.7266 21.2017C15.8086 21.19 15.893 21.1783 15.975 21.1689C15.9234 21.1759 15.8695 21.1783 15.8156 21.1806C15.5742 21.183 15.3258 21.2837 15.1523 21.4548C14.9906 21.6166 14.8664 21.8837 14.8781 22.1181C14.9016 22.6197 15.2906 23.0627 15.8156 23.0556C16.7273 23.0416 17.5289 22.4462 17.7961 21.572C17.9016 21.2252 17.8781 20.8525 17.8781 20.4962C17.8781 19.6806 17.9039 18.872 17.7633 18.0634C17.557 16.8798 16.9617 15.7666 16.1461 14.8923C15.3305 14.0181 14.2336 13.3759 13.0734 13.09C12.4078 12.9259 11.7375 12.9002 11.0578 12.9002H6.90001C6.20391 12.9002 5.51251 12.933 4.83516 13.1134C3.68438 13.4181 2.60157 14.0673 1.80235 14.9486C0.996099 15.8369 0.412506 16.9525 0.222662 18.1431C0.0960996 18.9423 0.121881 19.7439 0.121881 20.5502C0.121881 20.9205 0.100787 21.3072 0.234381 21.6611C0.407818 22.1158 0.684381 22.4744 1.08985 22.7439C1.40626 22.9525 1.80704 23.0533 2.18204 23.058C2.36485 23.0603 2.54766 23.058 2.73047 23.058H15.818C16.3078 23.058 16.7789 22.6267 16.7555 22.1205C16.732 21.6095 16.343 21.1806 15.8156 21.1806Z"
    />
</svg>
    