<svg width="22" height="14" viewBox="0 0 22 14" xmlns="http://www.w3.org/2000/svg">
    <path
        d="M11 2.5C10.11 2.5 9.23996 2.76392 8.49994 3.25839C7.75991 3.75285 7.18314 4.45566 6.84254 5.27792C6.50195 6.10019 6.41283 7.00499 6.58647 7.87791C6.7601 8.75082 7.18869 9.55264 7.81802 10.182C8.44736 10.8113 9.24918 11.2399 10.1221 11.4135C10.995 11.5872 11.8998 11.4981 12.7221 11.1575C13.5443 10.8169 14.2471 10.2401 14.7416 9.50007C15.2361 8.76004 15.5 7.89002 15.5 7C15.4987 5.80693 15.0241 4.66311 14.1805 3.81948C13.3369 2.97585 12.1931 2.50132 11 2.5ZM11 10.5C10.3078 10.5 9.63108 10.2947 9.05551 9.91014C8.47993 9.52556 8.03133 8.97893 7.76642 8.33939C7.50152 7.69985 7.4322 6.99612 7.56725 6.31718C7.7023 5.63825 8.03564 5.01461 8.52513 4.52513C9.01461 4.03564 9.63825 3.7023 10.3172 3.56725C10.9961 3.4322 11.6999 3.50151 12.3394 3.76642C12.9789 4.03133 13.5256 4.47993 13.9101 5.0555C14.2947 5.63108 14.5 6.30777 14.5 7C14.4989 7.92791 14.1298 8.8175 13.4736 9.47363C12.8175 10.1298 11.9279 10.4989 11 10.5Z"
    />
    <path
        d="M11 0C5.3496 0 0 5.09375 0 7C0 8.90625 5.3496 14 11 14C16.6504 14 22 8.90625 22 7C22 5.09375 16.6504 0 11 0ZM11 13C5.61425 13 1 8.13915 1 7C1 5.86085 5.61425 1 11 1C16.3857 1 21 5.86085 21 7C21 8.13915 16.3857 13 11 13Z"
    />
</svg>