<svg width="26" height="33" viewBox="0 0 26 33" xmlns="http://www.w3.org/2000/svg">
    <path
        d="M26 4.3C26 2.2 24.3 0.5 22.2 0.5H3.8C1.7 0.5 0 2.2 0 4.3V28.7C0 30.8 1.7 32.5 3.8 32.5H22.2C24.3 32.5 26 30.8 26 28.7V4.3ZM24 28.7C24 29.7 23.2 30.5 22.2 30.5H3.8C2.8 30.5 2 29.7 2 28.7V4.3C2 3.3 2.8 2.5 3.8 2.5H22.2C23.2 2.5 24 3.3 24 4.3V28.7Z"
    />
    <path
        d="M6.9 18.5004H18.7C19 18.5004 19.3 18.4004 19.5 18.1004C19.7 17.9004 19.8 17.6004 19.7 17.3004C19.3 14.9004 17.8 13.0004 15.8 12.1004C16.4 11.4004 16.8 10.5004 16.8 9.40039C16.8 7.20039 15 5.40039 12.8 5.40039C10.6 5.40039 8.8 7.20039 8.8 9.40039C8.8 10.4004 9.2 11.3004 9.8 12.1004C7.8 13.1004 6.2 15.0004 5.9 17.3004C5.9 17.6004 5.9 17.9004 6.1 18.1004C6.3 18.4004 6.6 18.5004 6.9 18.5004ZM10.8 9.50039C10.8 8.40039 11.7 7.50039 12.8 7.50039C13.9 7.50039 14.8 8.40039 14.8 9.50039C14.8 10.6004 13.9 11.5004 12.8 11.5004C11.7 11.5004 10.8 10.6004 10.8 9.50039ZM12.8 13.5004C14.8 13.5004 16.6 14.7004 17.4 16.5004H8.2C9 14.7004 10.8 13.5004 12.8 13.5004ZM21 21.5004H5C4.4 21.5004 4 21.9004 4 22.5004C4 23.1004 4.4 23.5004 5 23.5004H21C21.6 23.5004 22 23.1004 22 22.5004C22 21.9004 21.6 21.5004 21 21.5004ZM21 25.5004H5C4.4 25.5004 4 25.9004 4 26.5004C4 27.1004 4.4 27.5004 5 27.5004H21C21.6 27.5004 22 27.1004 22 26.5004C22 25.9004 21.6 25.5004 21 25.5004Z"
    />
</svg>
    