<svg width="18" height="18" viewBox="0 0 18 18" xmlns="http://www.w3.org/2000/svg">
    <path
        d="M9 0C7.21997 0 5.47991 0.527841 3.99987 1.51677C2.51983 2.50571 1.36628 3.91131 0.685088 5.55585C0.00389957 7.20038 -0.17433 9.00998 0.172937 10.7558C0.520204 12.5016 1.37737 14.1053 2.63604 15.364C3.89472 16.6226 5.49836 17.4798 7.24419 17.8271C8.99002 18.1743 10.7996 17.9961 12.4442 17.3149C14.0887 16.6337 15.4943 15.4802 16.4832 14.0001C17.4722 12.5201 18 10.78 18 9C18 6.61305 17.0518 4.32387 15.364 2.63604C13.6761 0.948212 11.387 0 9 0ZM9 16.5C7.51664 16.5 6.0666 16.0601 4.83323 15.236C3.59986 14.4119 2.63856 13.2406 2.07091 11.8701C1.50325 10.4997 1.35473 8.99168 1.64411 7.53682C1.9335 6.08197 2.64781 4.74559 3.6967 3.6967C4.7456 2.64781 6.08197 1.9335 7.53683 1.64411C8.99168 1.35472 10.4997 1.50325 11.8701 2.0709C13.2406 2.63856 14.4119 3.59985 15.236 4.83322C16.0601 6.06659 16.5 7.51664 16.5 9C16.5 10.9891 15.7098 12.8968 14.3033 14.3033C12.8968 15.7098 10.9891 16.5 9 16.5Z"
    />
    <path
        d="M8.99987 7.27449C8.80096 7.27449 8.61019 7.35351 8.46954 7.49416C8.32889 7.63482 8.24987 7.82558 8.24987 8.02449V13.1245C8.24987 13.3234 8.32889 13.5142 8.46954 13.6548C8.61019 13.7955 8.80096 13.8745 8.99987 13.8745C9.19878 13.8745 9.38955 13.7955 9.5302 13.6548C9.67085 13.5142 9.74987 13.3234 9.74987 13.1245V8.02449C9.74987 7.82558 9.67085 7.63482 9.5302 7.49416C9.38955 7.35351 9.19878 7.27449 8.99987 7.27449ZM8.99987 4.19949C8.79683 4.20713 8.60442 4.29221 8.46216 4.43727C8.31989 4.58232 8.23856 4.77635 8.23487 4.97949V5.09949C8.23451 5.19735 8.25453 5.2942 8.29365 5.3839C8.33278 5.47359 8.39014 5.55416 8.4621 5.62048C8.53406 5.68679 8.61903 5.7374 8.71162 5.76908C8.8042 5.80076 8.90237 5.81282 8.99987 5.80449C9.19641 5.79707 9.38289 5.71567 9.52197 5.57659C9.66104 5.43752 9.74244 5.25104 9.74987 5.05449V4.87449C9.75046 4.77917 9.73085 4.68481 9.69234 4.59761C9.65383 4.51041 9.59729 4.43236 9.52643 4.36859C9.45558 4.30482 9.37202 4.25678 9.28126 4.22764C9.1905 4.19849 9.0946 4.1889 8.99987 4.19949Z"
    />
</svg>
    