<svg width="26" height="26" viewBox="0 0 26 26" xmlns="http://www.w3.org/2000/svg">
    <path
        d="M13 25.0713C6.107 25.0713 0.5 19.4643 0.5 12.5713C0.5 5.67829 6.107 0.0712891 13 0.0712891C19.893 0.0712891 25.5 5.67829 25.5 12.5713C25.5 19.4643 19.893 25.0713 13 25.0713ZM13 2.07129C7.21 2.07129 2.5 6.78129 2.5 12.5713C2.5 18.3613 7.21 23.0713 13 23.0713C18.79 23.0713 23.5 18.3603 23.5 12.5713C23.5 6.78229 18.79 2.07129 13 2.07129Z"
    />
    <path
        d="M13 19.5713C12.7348 19.5713 12.4804 19.4659 12.2929 19.2784C12.1054 19.0909 12 18.8365 12 18.5713V6.57129C12 6.30607 12.1054 6.05172 12.2929 5.86418C12.4804 5.67665 12.7348 5.57129 13 5.57129C13.2652 5.57129 13.5196 5.67665 13.7071 5.86418C13.8946 6.05172 14 6.30607 14 6.57129V18.5713C14 18.8365 13.8946 19.0909 13.7071 19.2784C13.5196 19.4659 13.2652 19.5713 13 19.5713Z"
    />
    <path
        d="M19 13.5713H7C6.73478 13.5713 6.48043 13.4659 6.29289 13.2784C6.10536 13.0909 6 12.8365 6 12.5713C6 12.3061 6.10536 12.0517 6.29289 11.8642C6.48043 11.6766 6.73478 11.5713 7 11.5713H19C19.2652 11.5713 19.5196 11.6766 19.7071 11.8642C19.8946 12.0517 20 12.3061 20 12.5713C20 12.8365 19.8946 13.0909 19.7071 13.2784C19.5196 13.4659 19.2652 13.5713 19 13.5713Z"
    />
</svg>
    