<svg width="16" height="16" viewBox="0 0 16 16" xmlns="http://www.w3.org/2000/svg">
    <path
        d="M1.21875 8.96875H7.03125V14.7812C7.03125 15.3155 7.46573 15.75 8 15.75C8.53427 15.75 8.96875 15.3155 8.96875 14.7812V8.96875H14.7812C15.3155 8.96875 15.75 8.53427 15.75 8C15.75 7.46573 15.3155 7.03125 14.7812 7.03125H8.96875V1.21875C8.96875 0.68448 8.53427 0.25 8 0.25C7.46573 0.25 7.03125 0.68448 7.03125 1.21875V7.03125H1.21875C0.68448 7.03125 0.25 7.46573 0.25 8C0.25 8.53427 0.68448 8.96875 1.21875 8.96875Z"
    />
</svg>
    