<svg width="22" height="22" viewBox="0 0 22 22" fill="none" xmlns="http://www.w3.org/2000/svg">
    <path
        d="M11 0.125C8.84913 0.125 6.74656 0.762808 4.95818 1.95777C3.16979 3.15273 1.77592 4.85117 0.952815 6.83832C0.129712 8.82546 -0.0856493 11.0121 0.333965 13.1216C0.753579 15.2312 1.78932 17.1689 3.31022 18.6898C4.83111 20.2107 6.76885 21.2464 8.8784 21.666C10.9879 22.0857 13.1745 21.8703 15.1617 21.0472C17.1488 20.2241 18.8473 18.8302 20.0422 17.0418C21.2372 15.2534 21.875 13.1509 21.875 11C21.875 8.11577 20.7292 5.34967 18.6898 3.31021C16.6503 1.27076 13.8842 0.125 11 0.125ZM11 20.375C9.14581 20.375 7.33325 19.8252 5.79153 18.795C4.24982 17.7649 3.04821 16.3007 2.33863 14.5877C1.62906 12.8746 1.44341 10.9896 1.80514 9.17103C2.16688 7.35246 3.05976 5.68199 4.37088 4.37087C5.682 3.05976 7.35246 2.16687 9.17103 1.80514C10.9896 1.4434 12.8746 1.62906 14.5877 2.33863C16.3007 3.0482 17.7649 4.24982 18.795 5.79153C19.8252 7.33324 20.375 9.1458 20.375 11C20.375 12.2311 20.1325 13.4502 19.6614 14.5877C19.1902 15.7251 18.4997 16.7586 17.6291 17.6291C16.7586 18.4997 15.7251 19.1902 14.5877 19.6614C13.4502 20.1325 12.2311 20.375 11 20.375Z"
        fill="#A5A5A5" />
    <path
        d="M15.875 10.25H11.75V4.625C11.75 4.42609 11.671 4.23532 11.5303 4.09467C11.3897 3.95402 11.1989 3.875 11 3.875C10.8011 3.875 10.6103 3.95402 10.4697 4.09467C10.329 4.23532 10.25 4.42609 10.25 4.625V11C10.25 11.1989 10.329 11.3897 10.4697 11.5303C10.6103 11.671 10.8011 11.75 11 11.75H15.875C16.0739 11.75 16.2647 11.671 16.4053 11.5303C16.546 11.3897 16.625 11.1989 16.625 11C16.625 10.8011 16.546 10.6103 16.4053 10.4697C16.2647 10.329 16.0739 10.25 15.875 10.25Z"
        fill="#A5A5A5" />
</svg>
    