<svg width="14" height="18" viewBox="0 0 14 18" xmlns="http://www.w3.org/2000/svg">
    <path
        d="M0.333252 9.0013C0.333252 9.22232 0.421049 9.43428 0.57733 9.59056C0.73361 9.74684 0.945572 9.83463 1.16659 9.83463H7.49159L5.57492 11.743C5.49681 11.8204 5.43482 11.9126 5.39251 12.0142C5.3502 12.1157 5.32842 12.2246 5.32842 12.3346C5.32842 12.4446 5.3502 12.5536 5.39251 12.6551C5.43482 12.7567 5.49681 12.8488 5.57492 12.9263C5.65239 13.0044 5.74455 13.0664 5.8461 13.1087C5.94765 13.151 6.05658 13.1728 6.16658 13.1728C6.2766 13.1728 6.38552 13.151 6.48707 13.1087C6.58861 13.0664 6.68078 13.0044 6.75825 12.9263L10.0916 9.59297C10.1675 9.51372 10.2269 9.42026 10.2666 9.31797C10.3499 9.11508 10.3499 8.88752 10.2666 8.68464C10.2269 8.58234 10.1675 8.48889 10.0916 8.40964L6.75825 5.0763C6.68055 4.9986 6.58831 4.93697 6.48679 4.89492C6.38527 4.85287 6.27647 4.83123 6.16658 4.83123C6.0567 4.83123 5.9479 4.85287 5.84638 4.89492C5.74486 4.93697 5.65262 4.9986 5.57492 5.0763C5.49722 5.154 5.43559 5.24624 5.39354 5.34776C5.35148 5.44928 5.32984 5.55809 5.32984 5.66797C5.32984 5.77785 5.35148 5.88666 5.39354 5.98818C5.43559 6.08969 5.49722 6.18194 5.57492 6.25964L7.49159 8.16797H1.16659C0.945572 8.16797 0.73361 8.25577 0.57733 8.41205C0.421049 8.56833 0.333252 8.78029 0.333252 9.0013ZM11.1666 0.667969H2.83325C2.17021 0.667969 1.53433 0.931361 1.06549 1.4002C0.596644 1.86904 0.333252 2.50493 0.333252 3.16797V5.66797C0.333252 5.88898 0.421049 6.10094 0.57733 6.25722C0.73361 6.4135 0.945572 6.5013 1.16659 6.5013C1.3876 6.5013 1.59956 6.4135 1.75584 6.25722C1.91212 6.10094 1.99992 5.88898 1.99992 5.66797V3.16797C1.99992 2.94695 2.08772 2.73499 2.244 2.57871C2.40028 2.42243 2.61224 2.33464 2.83325 2.33464H11.1666C11.3876 2.33464 11.5996 2.42243 11.7558 2.57871C11.9121 2.73499 11.9999 2.94695 11.9999 3.16797V14.8346C11.9999 15.0556 11.9121 15.2676 11.7558 15.4239C11.5996 15.5802 11.3876 15.668 11.1666 15.668H2.83325C2.61224 15.668 2.40028 15.5802 2.244 15.4239C2.08772 15.2676 1.99992 15.0556 1.99992 14.8346V12.3346C1.99992 12.1136 1.91212 11.9017 1.75584 11.7454C1.59956 11.5891 1.3876 11.5013 1.16659 11.5013C0.945572 11.5013 0.73361 11.5891 0.57733 11.7454C0.421049 11.9017 0.333252 12.1136 0.333252 12.3346V14.8346C0.333252 15.4977 0.596644 16.1336 1.06549 16.6024C1.53433 17.0712 2.17021 17.3346 2.83325 17.3346H11.1666C11.8296 17.3346 12.4655 17.0712 12.9344 16.6024C13.4032 16.1336 13.6666 15.4977 13.6666 14.8346V3.16797C13.6666 2.50493 13.4032 1.86904 12.9344 1.4002C12.4655 0.931361 11.8296 0.667969 11.1666 0.667969Z"
    />
</svg>
    