<svg width="16" height="13" viewBox="0 0 16 13" xmlns="http://www.w3.org/2000/svg">
    <path
        d="M14.4453 0.343735L8.03594 0.359344L1.62661 0.328125H1.62348C0.761829 0.328125 0.078125 1.13671 0.078125 2.14821V10.6211C0.078125 11.6327 0.761829 12.4412 1.62348 12.4412H14.4546C15.3163 12.4412 16 11.6327 16 10.6211V2.14821C16 1.13671 15.3225 0.343735 14.4453 0.343735ZM13.9426 1.59251L8.21701 6.828L8.19516 6.84673L8.17643 6.86858C8.10774 6.94351 8.02657 6.95287 7.98287 6.95287C7.93916 6.95287 7.85799 6.94038 7.79243 6.86234L7.7737 6.84048L2.30094 1.56753L8.03594 1.605L13.9426 1.59251ZM14.4546 11.1925H1.62348C1.51422 11.1925 1.3269 10.9864 1.3269 10.6211V2.34802L6.87146 7.70526C7.15243 8.01745 7.54892 8.19852 7.97038 8.20477H7.98911C8.40433 8.20477 8.79145 8.03306 9.07554 7.73336L14.7575 2.53221V10.6211C14.7512 10.9864 14.5639 11.1925 14.4546 11.1925Z"
    />
</svg>
    