<svg width="18" height="14" viewBox="0 0 18 14" xmlns="http://www.w3.org/2000/svg">
    <path
        d="M17.2667 6.66536C15.5834 2.75703 12.4167 0.332031 9.00006 0.332031C5.58339 0.332031 2.41672 2.75703 0.733389 6.66536C0.687503 6.7705 0.663818 6.88398 0.663818 6.9987C0.663818 7.11341 0.687503 7.22689 0.733389 7.33203C2.41672 11.2404 5.58339 13.6654 9.00006 13.6654C12.4167 13.6654 15.5834 11.2404 17.2667 7.33203C17.3126 7.22689 17.3363 7.11341 17.3363 6.9987C17.3363 6.88398 17.3126 6.7705 17.2667 6.66536ZM9.00006 11.9987C6.35839 11.9987 3.85839 10.0904 2.41672 6.9987C3.85839 3.90703 6.35839 1.9987 9.00006 1.9987C11.6417 1.9987 14.1417 3.90703 15.5834 6.9987C14.1417 10.0904 11.6417 11.9987 9.00006 11.9987ZM9.00006 3.66536C8.34078 3.66536 7.69632 3.86086 7.14816 4.22713C6.59999 4.5934 6.17275 5.114 5.92046 5.72309C5.66816 6.33217 5.60215 7.0024 5.73077 7.649C5.85939 8.2956 6.17686 8.88955 6.64303 9.35572C7.10921 9.8219 7.70315 10.1394 8.34975 10.268C8.99636 10.3966 9.66658 10.3306 10.2757 10.0783C10.8848 9.826 11.4053 9.39876 11.7716 8.8506C12.1379 8.30243 12.3334 7.65797 12.3334 6.9987C12.3334 6.11464 11.9822 5.2668 11.3571 4.64167C10.732 4.01655 9.88411 3.66536 9.00006 3.66536ZM9.00006 8.66536C8.67042 8.66536 8.34819 8.56762 8.07411 8.38448C7.80002 8.20134 7.5864 7.94105 7.46026 7.6365C7.33411 7.33196 7.3011 6.99685 7.36541 6.67355C7.42972 6.35025 7.58846 6.05327 7.82154 5.82019C8.05463 5.5871 8.3516 5.42836 8.6749 5.36406C8.99821 5.29975 9.33332 5.33275 9.63786 5.4589C9.9424 5.58504 10.2027 5.79867 10.3858 6.07275C10.569 6.34683 10.6667 6.66906 10.6667 6.9987C10.6667 7.44073 10.4911 7.86465 10.1786 8.17721C9.86601 8.48977 9.44208 8.66536 9.00006 8.66536Z" />
</svg>
    