<svg width="11" height="18" viewBox="0 0 11 18" xmlns="http://www.w3.org/2000/svg">
    <path
        d="M9.02599 0H1.97401C1.45047 0 0.948373 0.21023 0.578174 0.584443C0.207975 0.958655 0 1.4662 0 1.99541V16.0046C0 16.5338 0.207975 17.0413 0.578174 17.4156C0.948373 17.7898 1.45047 18 1.97401 18H9.02599C9.54953 18 10.0516 17.7898 10.4218 17.4156C10.792 17.0413 11 16.5338 11 16.0046V1.99541C11 1.4662 10.792 0.958655 10.4218 0.584443C10.0516 0.21023 9.54953 0 9.02599 0ZM9.5297 16.0046C9.5297 16.1396 9.47663 16.2691 9.38217 16.3646C9.2877 16.4601 9.15958 16.5138 9.02599 16.5138H1.97401C1.84042 16.5138 1.7123 16.4601 1.61783 16.3646C1.52337 16.2691 1.4703 16.1396 1.4703 16.0046V1.99541C1.4703 1.86037 1.52337 1.73086 1.61783 1.63537C1.7123 1.53988 1.84042 1.48624 1.97401 1.48624H9.02599C9.15958 1.48624 9.2877 1.53988 9.38217 1.63537C9.47663 1.73086 9.5297 1.86037 9.5297 1.99541V16.0046Z"
    />
    <path
        d="M6.22115 15H4.77885C4.57228 15 4.37418 15.0527 4.22812 15.1464C4.08206 15.2402 4 15.3674 4 15.5C4 15.6326 4.08206 15.7598 4.22812 15.8536C4.37418 15.9473 4.57228 16 4.77885 16H6.22115C6.42772 16 6.62582 15.9473 6.77188 15.8536C6.91794 15.7598 7 15.6326 7 15.5C7 15.3674 6.91794 15.2402 6.77188 15.1464C6.62582 15.0527 6.42772 15 6.22115 15Z"
    />
</svg>
    