<svg width="16" height="20" viewBox="0 0 16 20" xmlns="http://www.w3.org/2000/svg">
    <path
        d="M11.088 5.43893C11.088 5.61081 11.0763 5.78268 11.0548 5.9526C11.0645 5.88424 11.0743 5.81393 11.0821 5.74557C11.0352 6.08541 10.9454 6.41549 10.8145 6.7319C10.8399 6.6694 10.8673 6.6069 10.8927 6.5444C10.7618 6.85299 10.5938 7.14206 10.3888 7.40768L10.5118 7.24948C10.3087 7.5112 10.0724 7.74752 9.81064 7.95065L9.96884 7.8276C9.70322 8.03073 9.41415 8.20065 9.10556 8.33151C9.16806 8.30612 9.23056 8.27877 9.29306 8.25338C8.97665 8.38424 8.64658 8.47409 8.30673 8.52096C8.37509 8.5112 8.4454 8.50143 8.51376 8.49362C8.17197 8.53854 7.82822 8.53854 7.48642 8.49362C7.55478 8.50338 7.62509 8.51315 7.69345 8.52096C7.35361 8.47409 7.02353 8.38424 6.70712 8.25338C6.76962 8.27877 6.83212 8.30612 6.89462 8.33151C6.58603 8.20065 6.29697 8.03268 6.03134 7.8276L6.18954 7.95065C5.92783 7.74752 5.6915 7.5112 5.48837 7.24948L5.61142 7.40768C5.40829 7.14206 5.23837 6.85299 5.10751 6.5444C5.1329 6.6069 5.16025 6.6694 5.18564 6.7319C5.05478 6.41549 4.96494 6.08541 4.91806 5.74557C4.92783 5.81393 4.93759 5.88424 4.9454 5.9526C4.90048 5.61081 4.90048 5.26706 4.9454 4.92526C4.93564 4.99362 4.92587 5.06393 4.91806 5.13229C4.96494 4.79245 5.05478 4.46237 5.18564 4.14596C5.16025 4.20846 5.1329 4.27096 5.10751 4.33346C5.23837 4.02487 5.40634 3.73581 5.61142 3.47018L5.48837 3.62838C5.6915 3.36666 5.92783 3.13034 6.18954 2.92721L6.03134 3.05026C6.29697 2.84713 6.58603 2.67721 6.89462 2.54635C6.83212 2.57174 6.76962 2.59909 6.70712 2.62448C7.02353 2.49362 7.35361 2.40377 7.69345 2.3569C7.62509 2.36666 7.55478 2.37643 7.48642 2.38424C7.82822 2.33932 8.17197 2.33932 8.51376 2.38424C8.4454 2.37448 8.37509 2.36471 8.30673 2.3569C8.64658 2.40377 8.97665 2.49362 9.29306 2.62448C9.23056 2.59909 9.16806 2.57174 9.10556 2.54635C9.41415 2.67721 9.70322 2.84518 9.96884 3.05026L9.81064 2.92721C10.0724 3.13034 10.3087 3.36666 10.5118 3.62838L10.3888 3.47018C10.5919 3.73581 10.7618 4.02487 10.8927 4.33346C10.8673 4.27096 10.8399 4.20846 10.8145 4.14596C10.9454 4.46237 11.0352 4.79245 11.0821 5.13229C11.0724 5.06393 11.0626 4.99362 11.0548 4.92526C11.0763 5.09518 11.086 5.26706 11.088 5.43893C11.0899 5.84713 11.4454 6.23971 11.8692 6.22018C12.2911 6.20065 12.6524 5.87643 12.6505 5.43893C12.6466 4.50338 12.3653 3.54635 11.8145 2.78463C11.6661 2.57956 11.5079 2.37838 11.3321 2.19674C11.1544 2.01315 10.9591 1.85495 10.7559 1.70065C10.3868 1.4194 9.9747 1.21237 9.5372 1.05221C7.77353 0.405727 5.64658 0.981899 4.45322 2.43502C4.28915 2.63424 4.1329 2.84127 4.00009 3.06393C3.86728 3.28463 3.76376 3.51901 3.66806 3.75729C3.48837 4.1987 3.39658 4.66745 3.35947 5.14206C3.2872 6.07174 3.52939 7.04245 4.01376 7.83932C4.48056 8.60885 5.18564 9.26901 6.00986 9.64206C6.25204 9.75143 6.50009 9.85299 6.7579 9.92526C7.01376 9.99557 7.27353 10.0346 7.5372 10.0659C8.01767 10.1225 8.5079 10.0835 8.98251 9.98776C10.7852 9.62057 12.295 8.06784 12.5743 6.24557C12.6153 5.97995 12.6466 5.71432 12.6466 5.44479C12.6485 5.03659 12.2852 4.64401 11.8653 4.66354C11.4435 4.67721 11.088 5.00143 11.088 5.43893ZM13.6798 17.6518H3.65829C3.21494 17.6518 2.77158 17.6557 2.32822 17.6518C2.27939 17.6518 2.23056 17.6479 2.18368 17.6421C2.25204 17.6518 2.32236 17.6616 2.39072 17.6694C2.31259 17.6577 2.23837 17.6362 2.16611 17.6069C2.22861 17.6323 2.29111 17.6596 2.35361 17.685C2.27548 17.6518 2.20322 17.6089 2.13486 17.5561L2.29306 17.6792C2.23447 17.6303 2.17978 17.5776 2.1329 17.519L2.25595 17.6772C2.20322 17.6089 2.1622 17.5366 2.12704 17.4585C2.15244 17.521 2.17978 17.5835 2.20517 17.646C2.17587 17.5737 2.15634 17.4975 2.14267 17.4214C2.15244 17.4897 2.1622 17.56 2.17001 17.6284C2.13876 17.3921 2.16025 17.1421 2.16025 16.9038V16.0678C2.16025 15.8589 2.17197 15.6518 2.19931 15.4448C2.18954 15.5131 2.17978 15.5835 2.17197 15.6518C2.22665 15.2514 2.33212 14.8589 2.49033 14.4858C2.46493 14.5483 2.43759 14.6108 2.4122 14.6733C2.56454 14.3178 2.75986 13.9839 2.99619 13.6772L2.87314 13.8354C3.10947 13.5327 3.38095 13.2592 3.68564 13.0229L3.52744 13.146C3.83408 12.9096 4.16806 12.7143 4.52353 12.562C4.46103 12.5874 4.39853 12.6147 4.33603 12.6401C4.70908 12.4839 5.0997 12.3764 5.50204 12.3217C5.43369 12.3315 5.36337 12.3413 5.29501 12.3491C5.58408 12.312 5.87119 12.31 6.1622 12.31H9.73642C10.0587 12.31 10.379 12.3081 10.7013 12.3491C10.6329 12.3393 10.5626 12.3296 10.4942 12.3217C10.8946 12.3764 11.2872 12.4819 11.6602 12.6401C11.5977 12.6147 11.5352 12.5874 11.4727 12.562C11.8282 12.7143 12.1622 12.9096 12.4688 13.146L12.3106 13.0229C12.6134 13.2592 12.8868 13.5307 13.1231 13.8354L13.0001 13.6772C13.2364 13.9839 13.4317 14.3178 13.5841 14.6733C13.5587 14.6108 13.5313 14.5483 13.506 14.4858C13.6622 14.8589 13.7696 15.2495 13.8243 15.6518C13.8145 15.5835 13.8048 15.5131 13.797 15.4448C13.8341 15.7397 13.836 16.0327 13.836 16.3296V17.2964C13.836 17.4077 13.8399 17.519 13.8263 17.6284C13.836 17.56 13.8458 17.4897 13.8536 17.4214C13.8419 17.4995 13.8204 17.5737 13.7911 17.646C13.8165 17.5835 13.8438 17.521 13.8692 17.4585C13.836 17.5366 13.7931 17.6089 13.7403 17.6772L13.8634 17.519C13.8145 17.5776 13.7618 17.6323 13.7032 17.6792L13.8614 17.5561C13.7931 17.6089 13.7208 17.6499 13.6427 17.685C13.7052 17.6596 13.7677 17.6323 13.8302 17.6069C13.7579 17.6362 13.6817 17.6557 13.6056 17.6694C13.6739 17.6596 13.7442 17.6499 13.8126 17.6421C13.7696 17.6479 13.7247 17.6499 13.6798 17.6518C13.4786 17.6538 13.2716 17.7378 13.127 17.8803C12.9923 18.0151 12.8888 18.2378 12.8985 18.4331C12.9181 18.851 13.2423 19.2202 13.6798 19.2143C14.4395 19.2026 15.1075 18.7065 15.3302 17.978C15.4181 17.6889 15.3985 17.3784 15.3985 17.0815C15.3985 16.4018 15.42 15.728 15.3028 15.0542C15.131 14.0678 14.6349 13.1401 13.9552 12.4116C13.2755 11.6831 12.3614 11.1479 11.3946 10.9096C10.8399 10.7729 10.2813 10.7514 9.71494 10.7514H6.25009C5.67001 10.7514 5.09384 10.7788 4.52939 10.9292C3.5704 11.1831 2.66806 11.7241 2.00204 12.4585C1.33017 13.1987 0.843841 14.1284 0.685638 15.1206C0.580169 15.7866 0.601654 16.4546 0.601654 17.1264C0.601654 17.435 0.584076 17.7573 0.695404 18.0522C0.839935 18.4311 1.0704 18.7299 1.40829 18.9546C1.67197 19.1284 2.00595 19.2124 2.31845 19.2163C2.47079 19.2182 2.62314 19.2163 2.77548 19.2163H13.6817C14.0899 19.2163 14.4825 18.8569 14.463 18.435C14.4435 18.0092 14.1192 17.6518 13.6798 17.6518Z"
    />
</svg>
    