<svg width="47" height="46" viewBox="0 0 47 46" fill="none" xmlns="http://www.w3.org/2000/svg">
    <path
        d="M23.7539 0C11.0513 0 0.753906 10.2973 0.753906 23C0.753906 35.7026 11.0513 45.9999 23.7539 45.9999C36.4565 45.9999 46.7539 35.7026 46.7539 23C46.7538 10.2973 36.4563 0 23.7539 0ZM17.6174 34.1194H12.5676V17.8047H17.6174V34.1194ZM15.0684 15.6681C13.4192 15.6681 12.0822 14.3202 12.0822 12.6578C12.0822 10.9952 13.4194 9.64737 15.0684 9.64737C16.7175 9.64737 18.0545 10.9952 18.0545 12.6578C18.0546 14.3203 16.7176 15.6681 15.0684 15.6681ZM36.5418 34.1194H31.5164V25.5555C31.5164 23.2067 30.6242 21.8956 28.767 21.8956C26.7456 21.8956 25.6897 23.2611 25.6897 25.5555V34.1194H20.8462V17.8047H25.6897V20.002C25.6897 20.002 27.1466 17.307 30.6059 17.307C34.0654 17.307 36.5419 19.4194 36.5419 23.7891L36.5418 34.1194Z"
        fill="url(#paint0_linear_488_22512)" />
    <defs>
        <linearGradient id="paint0_linear_488_22512" x1="7.49043" y1="6.73652" x2="40.0173"
            y2="39.2634" gradientUnits="userSpaceOnUse">
            <stop stop-color="#2489BE" />
            <stop offset="1" stop-color="#0575B3" />
        </linearGradient>
    </defs>
</svg>
    