<svg width="48" height="47" viewBox="0 0 48 47" fill="none" xmlns="http://www.w3.org/2000/svg">
    <path fill-rule="evenodd" clip-rule="evenodd" d="M24.0181 46.1816C19.2929 46.1816 14.9117 44.7598 11.2229 42.3584L2.31013 45.1826L5.19195 36.5955C2.40634 32.8305 0.753906 28.1045 0.753906 23.0523C0.753906 22.303 0.811356 21.5923 0.907514 20.8431C2.04104 9.14389 11.9922 0 24.0181 0C36.2355 0 46.2825 9.39371 47.2231 21.2658C47.2617 21.8803 47.2617 22.495 47.2617 23.0522C47.2617 35.7887 36.8318 46.1815 24.018 46.1815L24.0181 46.1816Z" fill="#33CC33"/>
    <path fill-rule="evenodd" clip-rule="evenodd" d="M32.0857 26.1834C31.412 26.0105 30.9905 25.8568 30.51 26.5677C29.8179 27.6626 28.3582 30.0639 26.9371 29.3532C26.2265 29.0267 24.0562 28.3157 21.4625 26.0105C19.445 24.2047 18.0626 22.034 17.6963 21.3809C17.1017 20.2666 18.983 19.0948 19.6752 17.6925C19.9053 17.2314 19.8096 16.8472 19.6181 16.5206C19.4837 16.1941 18.1197 12.8516 17.5435 11.526C16.9857 10.162 16.4096 10.3927 16.0451 10.3927C12.2788 10.3927 10.5117 13.0629 10.5117 16.8087C10.5117 17.5579 10.6663 18.3649 10.8964 19.0756C11.5683 21.4769 13.0667 23.4171 13.2986 23.7437C13.6245 24.2046 17.9669 31.1973 24.8624 33.887C31.7967 36.576 31.7967 35.6733 33.0264 35.577C34.2376 35.4815 37.0227 33.9825 37.5989 32.3689C38.1567 30.8131 38.1567 29.4488 37.9634 29.1609C37.7333 28.7576 32.0857 26.2026 32.0857 26.1833V26.1834Z" fill="white"/>
    </svg>
    