<svg width="64" height="63" viewBox="0 0 64 63" xmlns="http://www.w3.org/2000/svg">
    <path
        d="M33.4475 0H37.7945V5.86047C45.5725 5.90442 53.3436 5.77959 61.1147 5.90442C62.7721 5.73564 64.073 7.03256 63.9206 8.70279C64.0439 23.1342 63.8915 37.5726 63.9933 52.004C63.9206 53.4838 64.1387 55.1247 63.2879 56.4357C62.2266 57.1976 60.8524 57.1026 59.6172 57.1606C52.3399 57.1249 45.0707 57.1395 37.7945 57.1395V63H33.2515C22.1884 60.9635 11.095 59.0958 0.00970765 57.1395C0.00214767 40.0492 0.00970765 22.9584 0.00970765 5.87512C11.1525 3.91186 22.3035 2.00018 33.4475 0Z"
    />
    <path
        d="M37.7945 8.05859H61.7829V54.9423H37.7945V49.0818H56.6945V46.1516H37.7945V42.4888H56.6945V39.5586H37.7945V35.8958H56.6945V32.9656H37.7945V29.3028H56.6945V26.3725H37.7945V22.7098H56.6945V19.7795H37.7945V16.1167H56.6945V13.1865H37.7945V8.05859ZM15.0274 21.0026C16.4085 20.9223 17.7897 20.8637 19.1708 20.7905C20.1373 25.7355 21.126 30.6724 22.1727 35.5952C22.9944 30.5112 23.9034 25.4419 24.7821 20.3656C26.2359 20.3146 27.6898 20.2337 29.1366 20.1458C27.4938 27.244 26.0545 34.4014 24.2587 41.4556C23.0444 42.0932 21.2271 41.4263 19.7878 41.5289C18.8207 36.6799 17.6943 31.8591 16.829 26.9879C15.9788 31.7202 14.8739 36.4086 13.8998 41.1122C12.5041 41.0389 11.1014 40.951 9.6976 40.8555C8.49149 34.409 7.0737 28.0064 5.94727 21.5453C7.19001 21.4867 8.44031 21.4351 9.68364 21.3912C10.4321 26.0573 11.2829 30.7023 11.9371 35.3754C12.9635 30.585 14.0097 25.7941 15.0274 21.0026Z"
        fill="white" />
</svg>
    