<svg width="19" height="18" viewBox="0 0 19 18" xmlns="http://www.w3.org/2000/svg">
    <path fill-rule="evenodd" clip-rule="evenodd"
        d="M4.23461 15.2362C4.23461 15.7206 3.84149 16.0216 3.35711 16.0216H0.724609V17.7766H4.23461C5.20425 17.7766 5.98961 17.0833 5.98961 16.1137V10.7566H4.23461V15.2362ZM13.0096 14.2666C13.0096 15.1975 13.3794 16.0902 14.0377 16.7485C14.6959 17.4067 15.5887 17.7766 16.5196 17.7766H18.2746V14.2666H16.5196V16.1137C15.55 16.1137 14.7646 15.2818 14.7646 14.3131C14.7646 13.3434 15.55 12.5116 16.5196 12.5116H18.2746V10.7566H16.5196C15.5887 10.7566 14.6959 11.1264 14.0377 11.7847C13.3794 12.4429 13.0096 13.3357 13.0096 14.2666ZM10.3771 13.4812C10.3771 13.2485 10.2847 13.0253 10.1201 12.8608C9.95553 12.6962 9.73234 12.6037 9.49961 12.6037H8.62211V14.3587H9.49961C9.73234 14.3587 9.95553 14.2663 10.1201 14.1017C10.2847 13.9371 10.3771 13.7139 10.3771 13.4812ZM12.1321 13.3891C12.1321 14.0872 11.8548 14.7568 11.3611 15.2505C10.8674 15.7442 10.1978 16.0216 9.49961 16.0216H8.62211V17.7766H6.86711V10.7566H9.49961C10.1978 10.7566 10.8674 11.0339 11.3611 11.5276C11.8548 12.0213 12.1321 12.6909 12.1321 13.3891ZM18.2746 5.8759V9.00156H16.5196V7.24656H11.2546V1.98156H2.47961V9.00156H0.724609V0.226562H12.9912L18.2746 5.8759Z"
        stroke="none" />
</svg>
    