<svg width="50" height="58" viewBox="0 0 50 58" xmlns="http://www.w3.org/2000/svg">
    <path
        d="M49.9234 25.4118L45.531 22.1651H45.4862V14.0563H45.4837L31.4056 0.280273L31.3992 0.287314H4.50192V22.1856L0.0756836 25.5302V43.8534H4.50192V57.7196H45.4862V43.8528H49.9125V38.1324L49.9234 25.4118ZM14.5506 39.2057V31.1232H17.2802C17.8331 31.1232 18.3112 31.1891 18.7144 31.3184C19.1176 31.4489 19.4485 31.6294 19.709 31.8624C19.9688 32.094 20.1608 32.3699 20.285 32.6899C20.4098 33.0086 20.4718 33.3561 20.4718 33.7312C20.4718 34.1286 20.4072 34.4921 20.2766 34.8236C20.1493 35.1498 19.947 35.4415 19.6859 35.6748C19.4222 35.9123 19.0901 36.0972 18.6888 36.2284C18.2882 36.3609 17.8184 36.4275 17.2795 36.4275H16.221V39.207L14.5506 39.2057ZM21.9061 39.2057V31.1232H25.0139C25.6341 31.1232 26.1986 31.223 26.7074 31.4246C27.2162 31.6249 27.6526 31.9046 28.0136 32.2636C28.3746 32.6227 28.6562 33.0483 28.8546 33.5424C29.0536 34.0358 29.1522 34.5753 29.1522 35.1628C29.1522 35.7529 29.0536 36.2963 28.8546 36.7916C28.6656 37.2714 28.3793 37.7068 28.0136 38.0704C27.6395 38.4348 27.195 38.7192 26.7074 38.9062C26.1986 39.1065 25.6341 39.207 25.0139 39.207L21.9061 39.2057ZM35.901 32.4326H32.436V34.6656H35.3442V35.9808H32.436V39.2057H30.7541V31.1232H35.901V32.4326ZM29.4254 2.26107L29.412 16.0121L43.5118 16.0281V25.422H6.47504V2.26107H29.4254ZM43.5125 55.7452H6.47504V43.8528H43.5125V55.7452Z"
    />
    <path
        d="M27.27 36.3102C27.3826 35.973 27.4377 35.5902 27.4377 35.1634C27.4377 34.7397 27.3826 34.3589 27.27 34.021C27.1709 33.7053 27.008 33.4134 26.7913 33.1634C26.5817 32.9282 26.3218 32.7434 26.031 32.6226C25.7321 32.4958 25.3935 32.4331 25.0146 32.4331H23.5887V37.8974H25.0146C25.3935 37.8974 25.7327 37.8347 26.031 37.7099C26.3229 37.5914 26.5833 37.4065 26.7913 37.1698C26.9993 36.9349 27.1586 36.6482 27.27 36.3102ZM18.4303 34.7672C18.6735 34.5144 18.7951 34.1694 18.7951 33.7317C18.7951 33.5314 18.765 33.3483 18.7036 33.1838C18.6451 33.0227 18.5495 32.8775 18.4246 32.7602C18.2894 32.6369 18.1288 32.5447 17.9542 32.4901C17.736 32.4229 17.5085 32.3911 17.2802 32.396H16.2217V35.1474H17.2802C17.8038 35.1467 18.1871 35.0194 18.4303 34.7672Z"
    />
</svg>
    