<svg width="15" height="20" viewBox="0 0 15 20" xmlns="http://www.w3.org/2000/svg">
    <path d="M10.0312 2.19531V5.14844C10.0312 5.49794 10.3146 5.78125 10.6641 5.78125H13.6172"
        fill="none" stroke-width="2" />
    <path
        d="M1.38281 7.99609V3.88281C1.38281 2.83433 2.23276 1.98438 3.28125 1.98438H9.62593C10.0124 1.98438 10.3835 2.13591 10.6595 2.40648L12.5732 4.28231L13.2216 4.97899C13.4758 5.25224 13.6172 5.61164 13.6172 5.98489V16.1172C13.6172 17.1657 12.7672 18.0156 11.7188 18.0156H3.28125C2.23276 18.0156 1.38281 17.1657 1.38281 16.1172V15.4844"
        fill="none" stroke-width="2" stroke-linecap="round" />
    <path
        d="M1.0918 13.2831V10.3384C1.0918 10.3075 1.10023 10.285 1.11711 10.2709C1.13398 10.2541 1.15508 10.2456 1.18039 10.2456H2.53461C2.67805 10.2456 2.80883 10.2752 2.92695 10.3342C3.04788 10.3933 3.15055 10.4706 3.23492 10.5662C3.3221 10.6619 3.3896 10.7716 3.43742 10.8953C3.48524 11.0163 3.50914 11.1414 3.50914 11.2708C3.50914 11.3973 3.48524 11.5211 3.43742 11.642C3.39243 11.763 3.32773 11.8713 3.24336 11.9669C3.15898 12.0625 3.05773 12.1398 2.93961 12.1989C2.82148 12.2552 2.6907 12.2833 2.54727 12.2833H1.9018V13.2831C1.9018 13.345 1.86946 13.3759 1.80477 13.3759H1.18039C1.12133 13.3759 1.0918 13.345 1.0918 13.2831ZM2.35742 10.9122H1.9018V11.6167H2.35742C2.46148 11.6167 2.54163 11.5816 2.59789 11.5112C2.65415 11.4381 2.68227 11.3566 2.68227 11.2666C2.68227 11.2244 2.67383 11.1822 2.65695 11.14C2.64288 11.0978 2.62179 11.0598 2.59367 11.0261C2.56836 10.9923 2.53461 10.9656 2.49242 10.9459C2.45304 10.9235 2.40805 10.9122 2.35742 10.9122ZM5.85344 13.2831L4.74391 11.4606V13.2831C4.74391 13.345 4.71016 13.3759 4.64266 13.3759H4.05203C3.99297 13.3759 3.96344 13.345 3.96344 13.2831V10.3384C3.96344 10.3131 3.97048 10.292 3.98453 10.2752C3.9986 10.2555 4.02111 10.2456 4.05203 10.2456H4.73547C4.79736 10.2456 4.84798 10.2766 4.88734 10.3384L5.94203 12.047V10.3384C5.94203 10.3131 5.95047 10.292 5.96734 10.2752C5.98422 10.2555 6.00814 10.2456 6.03906 10.2456H6.62547C6.64797 10.2456 6.67048 10.2541 6.69297 10.2709C6.71548 10.2878 6.72672 10.3103 6.72672 10.3384V13.2831C6.72672 13.345 6.69297 13.3759 6.62547 13.3759H6.00531C5.94064 13.3759 5.89001 13.345 5.85344 13.2831ZM8.89208 12.6419C8.93707 12.6419 8.98628 12.6391 9.03973 12.6334C9.09597 12.625 9.14659 12.6138 9.19161 12.5997V12.0428C9.19161 11.9809 9.22253 11.95 9.28442 11.95H9.84973C9.86941 11.95 9.88909 11.9556 9.90879 11.9669C9.93128 11.9781 9.94254 12.0035 9.94254 12.0428V13.0637C9.94254 13.1059 9.92567 13.1383 9.89192 13.1608C9.76253 13.2423 9.61066 13.307 9.43629 13.3548C9.26472 13.3999 9.08331 13.4223 8.89208 13.4223C8.66987 13.4223 8.46035 13.3802 8.26348 13.2958C8.06659 13.2114 7.89363 13.0961 7.74458 12.9498C7.59831 12.8008 7.48301 12.6278 7.39864 12.4309C7.31426 12.2341 7.27208 12.0245 7.27208 11.8023C7.27208 11.5774 7.31426 11.3678 7.39864 11.1737C7.48301 10.9797 7.59692 10.8109 7.74036 10.6675C7.8866 10.5213 8.05816 10.4074 8.25504 10.3258C8.45191 10.2414 8.66144 10.1992 8.88364 10.1992C9.07487 10.1992 9.24362 10.2245 9.38989 10.2752C9.53613 10.323 9.67394 10.3947 9.80333 10.4903C9.85112 10.5241 9.86097 10.5634 9.83286 10.6084L9.4827 11.1105C9.46863 11.133 9.44895 11.1456 9.42364 11.1484C9.40113 11.1484 9.37862 11.14 9.35614 11.1231C9.29144 11.0781 9.22114 11.0416 9.1452 11.0134C9.06926 10.9825 8.98489 10.967 8.89208 10.967C8.77112 10.967 8.66004 10.9895 8.55879 11.0345C8.46035 11.0767 8.37598 11.1358 8.30567 11.2117C8.23534 11.2848 8.1805 11.372 8.14114 11.4733C8.10456 11.5745 8.08629 11.6842 8.08629 11.8023C8.08629 11.9205 8.10597 12.0316 8.14536 12.1356C8.18472 12.2369 8.23956 12.3255 8.30989 12.4014C8.383 12.4773 8.46879 12.5378 8.56723 12.5828C8.66566 12.625 8.77395 12.6447 8.89208 12.6419Z"
        stroke="none" />
    <path fill-rule="evenodd" clip-rule="evenodd"
        d="M8.88364 10.25C8.66831 10.25 8.46588 10.2909 8.2758 10.3723L8.27521 10.3726C8.08454 10.4515 7.91883 10.5616 7.77763 10.7028C7.63909 10.8414 7.52885 11.0046 7.44699 11.1928C7.36569 11.3798 7.32481 11.5822 7.32481 11.8004C7.32481 12.0157 7.36565 12.2182 7.44709 12.4082C7.52889 12.5991 7.64048 12.7664 7.78185 12.9106C7.92605 13.052 8.09338 13.1636 8.28424 13.2454C8.47431 13.3268 8.67675 13.3677 8.89208 13.3677C9.07905 13.3677 9.25584 13.3457 9.42263 13.302C9.59247 13.2554 9.73909 13.1927 9.86317 13.1146C9.8812 13.1024 9.88981 13.087 9.88981 13.0618V12.0409C9.88981 12.0257 9.88755 12.0175 9.88591 12.0138C9.88549 12.0128 9.88513 12.0122 9.88494 12.012L9.88258 12.0108C9.86965 12.0034 9.85893 12.0008 9.84973 12.0008H9.28442C9.2616 12.0008 9.25419 12.0065 9.25208 12.0085C9.25 12.0106 9.24434 12.0181 9.24434 12.0409V12.6365L9.20732 12.6481C9.15927 12.6631 9.10594 12.6749 9.04754 12.6836L9.04526 12.684C8.99056 12.6897 8.93968 12.6926 8.89269 12.6927C8.76804 12.6955 8.65235 12.6747 8.54646 12.6293L8.54529 12.6288C8.44101 12.5812 8.34973 12.5169 8.2719 12.436L8.27118 12.4353C8.19613 12.3542 8.13785 12.2599 8.09621 12.1528L8.09602 12.1523C8.05425 12.042 8.03356 11.9245 8.03356 11.8004C8.03356 11.6768 8.05269 11.561 8.09153 11.4534L8.09197 11.4522C8.13363 11.3451 8.192 11.252 8.2673 11.1736C8.34267 11.0923 8.43299 11.0292 8.53768 10.9843C8.64619 10.9361 8.76456 10.9123 8.89208 10.9123C8.9905 10.9123 9.08148 10.9287 9.16429 10.9623C9.244 10.9919 9.31802 11.0304 9.38624 11.0779L9.3878 11.079C9.40176 11.0894 9.41254 11.093 9.42075 11.0936C9.42769 11.0923 9.43275 11.0889 9.43798 11.0806L9.43937 11.0783L9.78875 10.5775C9.797 10.564 9.79586 10.5578 9.79539 10.556C9.79466 10.553 9.79097 10.5442 9.77291 10.5315L9.77196 10.5308C9.64692 10.4384 9.51413 10.3693 9.3735 10.3233L9.37263 10.323C9.23306 10.2747 9.07034 10.25 8.88364 10.25ZM8.89269 12.6927C8.89248 12.6927 8.89229 12.6927 8.89208 12.6927V12.6399L8.89332 12.6927C8.89311 12.6927 8.8929 12.6927 8.89269 12.6927ZM8.23454 10.2752C8.43814 10.188 8.65469 10.1445 8.88364 10.1445C9.07924 10.1445 9.25388 10.1704 9.4067 10.2232C9.55824 10.2728 9.70077 10.3471 9.83423 10.4456C9.86376 10.4666 9.88867 10.4942 9.89772 10.5304C9.90709 10.5679 9.89677 10.6037 9.87758 10.6344L9.87616 10.6367L9.52662 11.1377C9.50443 11.1725 9.47106 11.1943 9.42946 11.1989L9.42655 11.1992H9.42364C9.38746 11.1992 9.35443 11.1856 9.32532 11.164C9.26457 11.1218 9.19848 11.0875 9.12687 11.0609L9.12529 11.0604C9.05644 11.0323 8.97896 11.0178 8.89208 11.0178C8.77783 11.0178 8.67411 11.039 8.5802 11.0808L8.57955 11.0811C8.48767 11.1204 8.40947 11.1753 8.34436 11.2456L8.34368 11.2463C8.27867 11.3139 8.22752 11.3949 8.1905 11.4899C8.15637 11.5847 8.13903 11.688 8.13903 11.8004C8.13903 11.9125 8.15766 12.0171 8.19459 12.1148C8.23161 12.2099 8.28285 12.2925 8.34822 12.3633C8.41641 12.434 8.4964 12.4904 8.58858 12.5326C8.67922 12.5714 8.77969 12.5899 8.89081 12.5872L8.89208 12.5872C8.9346 12.5872 8.98156 12.5846 9.03305 12.5792C9.07142 12.5734 9.10666 12.5663 9.13887 12.558V12.0409C9.13887 12.0018 9.14866 11.9628 9.17752 11.934C9.20635 11.9051 9.24535 11.8953 9.28442 11.8953H9.84973C9.87945 11.8953 9.90768 11.9038 9.93379 11.9185C9.98188 11.9434 9.99528 11.9943 9.99528 12.0409V13.0618C9.99528 13.1208 9.97028 13.17 9.92116 13.2027L9.92004 13.2035C9.78556 13.2882 9.62873 13.3548 9.45024 13.4037L9.44967 13.4039C9.27341 13.4501 9.08749 13.4731 8.89208 13.4731C8.66302 13.4731 8.44639 13.4296 8.2427 13.3423C8.03997 13.2554 7.86148 13.1365 7.70764 12.9855L7.70692 12.9848C7.55598 12.831 7.43705 12.6525 7.35016 12.4498C7.26286 12.2461 7.21934 12.0294 7.21934 11.8004C7.21934 11.5686 7.26284 11.3519 7.35027 11.1508C7.43716 10.9509 7.55473 10.7766 7.70306 10.6283C7.85429 10.4771 8.0316 10.3594 8.23454 10.2752ZM8.23454 10.2752C8.23465 10.2752 8.23475 10.2752 8.23486 10.2751L8.25504 10.3238L8.23427 10.2754C8.23435 10.2753 8.23446 10.2753 8.23454 10.2752ZM1.18039 10.2964C1.16811 10.2964 1.16073 10.2999 1.1544 10.3063L1.15272 10.308L1.15086 10.3095C1.15025 10.31 1.14453 10.3148 1.14453 10.3365V13.2812C1.14453 13.3046 1.15016 13.3123 1.15208 13.3144C1.15358 13.316 1.15963 13.3212 1.18039 13.3212H1.80477C1.82955 13.3212 1.83835 13.3153 1.84109 13.3127C1.84339 13.3105 1.84906 13.3034 1.84906 13.2812V12.2286H2.54727C2.68345 12.2286 2.80621 12.202 2.91649 12.1496C3.02858 12.0934 3.1242 12.0203 3.20381 11.93C3.28386 11.8393 3.34522 11.7366 3.388 11.6217L3.38838 11.6207C3.43382 11.5058 3.45641 11.3886 3.45641 11.2688C3.45641 11.1461 3.43377 11.0276 3.38838 10.9128L3.38823 10.9124C3.34271 10.7946 3.27863 10.6905 3.19596 10.5998L3.19537 10.5992C3.11585 10.5091 3.01886 10.4359 2.90381 10.3797L2.90337 10.3795C2.79318 10.3244 2.67058 10.2964 2.53461 10.2964H1.18039ZM1.08146 10.2301C1.10861 10.2038 1.1428 10.1909 1.18039 10.1909H2.53461C2.68543 10.1909 2.82431 10.222 2.9503 10.285C3.07691 10.3469 3.18506 10.4282 3.27418 10.5291C3.3657 10.6295 3.43649 10.7447 3.48655 10.8742C3.53673 11.0012 3.56188 11.1329 3.56188 11.2688C3.56188 11.4021 3.53671 11.5322 3.48665 11.659C3.43945 11.7857 3.37148 11.8994 3.28291 11.9998C3.19389 12.1007 3.08716 12.1821 2.96319 12.2441L2.96229 12.2446C2.83642 12.3045 2.69779 12.3341 2.54727 12.3341H1.95453V13.2812C1.95453 13.3208 1.94405 13.3601 1.91399 13.3889C1.88437 13.4172 1.84468 13.4267 1.80477 13.4267H1.18039C1.14208 13.4267 1.10384 13.4166 1.07581 13.3872C1.0482 13.3583 1.03906 13.3196 1.03906 13.2812V10.3365C1.03906 10.2973 1.04971 10.2577 1.08146 10.2301ZM4.05203 10.2964C4.03286 10.2964 4.02891 10.3018 4.02746 10.3039L4.02632 10.3055L4.02505 10.307C4.02007 10.3129 4.01617 10.3215 4.01617 10.3365V13.2812C4.01617 13.3046 4.0218 13.3123 4.02374 13.3144C4.02524 13.316 4.03127 13.3212 4.05203 13.3212H4.64266C4.66936 13.3212 4.67955 13.315 4.68297 13.3119C4.68552 13.3096 4.69117 13.3027 4.69117 13.2812V11.2706L5.89885 13.2543C5.9272 13.3023 5.96165 13.3212 6.00531 13.3212H6.62547C6.65217 13.3212 6.66238 13.315 6.66578 13.3119C6.66833 13.3096 6.67398 13.3027 6.67398 13.2812V10.3365C6.67398 10.325 6.67057 10.3181 6.66133 10.3112C6.64566 10.2994 6.63397 10.2964 6.62547 10.2964H6.03906C6.02027 10.2964 6.01229 10.3018 6.0074 10.3075L6.00607 10.3091L6.00464 10.3105C5.99831 10.3168 5.99477 10.3242 5.99477 10.3365V12.2309L4.84286 10.3648C4.84279 10.3647 4.84273 10.3646 4.84267 10.3645C4.81094 10.3148 4.77567 10.2964 4.73547 10.2964H4.05203ZM3.94281 10.2409C3.96951 10.2048 4.00997 10.1909 4.05203 10.1909H4.73547C4.81896 10.1909 4.88488 10.2344 4.93185 10.3082L4.93223 10.3088L5.8893 11.8593V10.3365C5.8893 10.2988 5.90218 10.2645 5.92866 10.2373C5.95739 10.2048 5.99666 10.1909 6.03906 10.1909H6.62547C6.66198 10.1909 6.69531 10.2048 6.72461 10.2268C6.76041 10.2536 6.77945 10.2918 6.77945 10.3365V13.2812C6.77945 13.3215 6.76825 13.3611 6.73705 13.3897C6.7067 13.4175 6.66628 13.4267 6.62547 13.4267H6.00531C5.91973 13.4267 5.85302 13.3839 5.80823 13.3083C5.80817 13.3082 5.80811 13.3081 5.80804 13.308L4.79664 11.6467V13.2812C4.79664 13.3215 4.78544 13.3611 4.75424 13.3897C4.72389 13.4175 4.68347 13.4267 4.64266 13.4267H4.05203C4.01375 13.4267 3.97548 13.4166 3.94745 13.3872C3.91986 13.3583 3.9107 13.3196 3.9107 13.2812V10.3365C3.9107 10.3015 3.92053 10.2684 3.94281 10.2409ZM1.84906 10.8575H2.35742C2.41537 10.8575 2.4689 10.8703 2.51668 10.8971C2.56458 10.9198 2.60451 10.9511 2.63504 10.9914C2.66668 11.0296 2.69051 11.0726 2.70648 11.1199C2.72528 11.1674 2.735 11.2157 2.735 11.2646C2.735 11.3666 2.70283 11.4594 2.6397 11.5415L2.63907 11.5422C2.57119 11.6271 2.4747 11.6675 2.35742 11.6675H1.84906V10.8575ZM1.95453 10.963V11.562H2.35742C2.44806 11.562 2.51181 11.5323 2.5564 11.4767C2.60555 11.4127 2.62953 11.3425 2.62953 11.2646C2.62953 11.2296 2.62257 11.1941 2.60799 11.1576L2.6074 11.1562L2.60692 11.1547C2.59492 11.1187 2.57703 11.0865 2.55315 11.0579L2.55142 11.0558C2.53185 11.0297 2.50529 11.0082 2.47013 10.9918L2.46814 10.9909L2.46627 10.9898C2.43574 10.9723 2.39997 10.963 2.35742 10.963H1.95453Z"
        stroke="none" />
</svg>
    