<svg width="50" height="50" viewBox="0 0 50 50" xmlns="http://www.w3.org/2000/svg">
    <path fill-rule="evenodd" clip-rule="evenodd"
        d="M27.8176 6.18581V43.4305L5.67397 39.5918V10.0246L27.8176 6.18581ZM28.8698 10.4854H43.5754C44.3882 10.4854 44.5442 10.645 44.5442 11.4541V38.1586C44.5442 38.9677 44.3882 39.1274 43.5754 39.1274H28.8698V36.6093H34.4829V32.7415H28.8698V31.5804H34.4829V27.709H28.8698V26.548H34.4829V22.6765H28.8698V21.5155H34.4829V17.6477H28.8698V16.4866H34.4829V12.6152H28.8698V10.4854ZM0.558038 49.5769H49.4461L49.4533 0.681641H0.550781L0.558038 49.5769Z"
    />
    <path fill-rule="evenodd" clip-rule="evenodd"
        d="M18.8665 17.8935L16.8491 22.5087L15.2817 18.1728L12.76 18.2853L15.2635 24.6022L12.4443 30.7813L14.9225 30.9663L16.9108 26.5216L18.7612 31.2239L21.6131 31.3799L18.5218 24.5768L21.4789 17.7048L18.8665 17.8935ZM35.6438 36.6084H42.0297V32.7406H35.6438V36.6084ZM35.6438 31.5795H42.0297V27.7081H35.6438V31.5795ZM35.6438 26.547H42.0297V22.6756H35.6438V26.547ZM35.6438 16.4857H42.0297V12.6143H35.6438V16.4857ZM35.6438 21.5145H42.0297V17.6467H35.6438V21.5145Z"
    />
</svg>
    