<svg width="242" height="161" viewBox="0 0 242 161" fill="none" xmlns="http://www.w3.org/2000/svg">
<mask id="mask0_634_17060" style="mask-type:luminance" maskUnits="userSpaceOnUse" x="80" y="5" width="83" height="83">
<path d="M84.3571 46.7269C84.3571 39.3148 86.5548 32.0692 90.6723 25.9061C94.7898 19.743 100.642 14.9391 107.49 12.1018C114.337 9.26452 121.872 8.52126 129.142 9.96599C136.412 11.4107 143.09 14.9786 148.333 20.2184C153.575 25.4583 157.146 32.1349 158.594 39.4041C160.042 46.6733 159.303 54.2086 156.469 61.0575C153.635 67.9063 148.834 73.7611 142.672 77.8815C136.511 82.002 129.267 84.2031 121.855 84.2066C111.914 84.202 102.382 80.2523 95.3513 73.225C88.3207 66.1977 84.3665 56.6673 84.3571 46.7269ZM80.8062 46.9754C80.8062 55.077 83.2077 62.9967 87.7072 69.7339C92.2067 76.471 98.6023 81.7232 106.086 84.8268C113.569 87.9303 121.805 88.746 129.752 87.1706C137.699 85.5952 145 81.6995 150.734 75.9759C156.467 70.2522 160.376 62.9573 161.965 55.0132C163.554 47.069 162.753 38.8321 159.662 31.3432C156.571 23.8544 151.33 17.4497 144.601 12.9385C137.872 8.4273 129.956 6.01209 121.855 5.99805C110.986 6.00275 100.565 10.3209 92.8781 18.0042C85.1915 25.6874 80.8688 36.1074 80.8594 46.9754" fill="white"/>
</mask>
<g mask="url(#mask0_634_17060)">
<path d="M162.803 6.01758H80.866V87.9546H162.803V6.01758Z" fill="url(#paint0_linear_634_17060)"/>
</g>
<mask id="mask1_634_17060" style="mask-type:luminance" maskUnits="userSpaceOnUse" x="118" y="8" width="6" height="49">
<path d="M118.953 8.00391L121.847 56.3849L123.925 8.00391H118.953Z" fill="white"/>
</mask>
<g mask="url(#mask1_634_17060)">
<path d="M123.932 7.82757L117.26 8.06055L118.953 56.5363L125.624 56.3033L123.932 7.82757Z" fill="url(#paint1_linear_634_17060)"/>
</g>
<path d="M112.993 5.14591C138.612 13.0822 144.649 38.4356 144.649 38.4356C143.75 30.0357 140.397 22.0867 135.006 15.5819C129.616 9.07712 122.429 4.30484 114.342 1.86133L112.993 5.14591Z" fill="#E83139"/>
<mask id="mask2_634_17060" style="mask-type:luminance" maskUnits="userSpaceOnUse" x="121" y="0" width="61" height="82">
<path d="M121.247 4.99004L122.561 8.1681C129.359 4.52506 137.121 3.08018 144.775 4.03254C152.429 4.98491 159.599 8.28765 165.298 13.4856C170.996 18.6836 174.942 25.521 176.592 33.0556C178.242 40.5901 177.515 48.451 174.511 55.5549C172.313 60.8266 169.014 65.5676 164.834 69.4596C160.654 73.3516 155.691 76.3047 150.276 78.1208C149.494 79.1506 148.5 80.2336 147.24 81.512C153.092 80.5327 158.662 78.293 163.564 74.9478C168.465 71.6025 172.581 67.2319 175.625 62.1385C178.67 57.045 180.571 51.3506 181.197 45.4496C181.823 39.5486 181.159 33.5821 179.25 27.9633C177.342 22.3445 174.234 17.2078 170.144 12.9088C166.053 8.60991 161.077 5.25156 155.56 3.0664C150.043 0.881231 144.117 -0.0785103 138.192 0.253644C132.267 0.585799 126.485 2.20191 121.247 4.99004Z" fill="white"/>
</mask>
<g mask="url(#mask2_634_17060)">
<path d="M154.098 -32.6766L80.6045 40.8164L154.098 114.309L227.591 40.8164L154.098 -32.6766Z" fill="url(#paint2_linear_634_17060)"/>
</g>
<path d="M86.791 3.36954C78.5059 6.84895 71.5963 12.9586 67.1287 20.7555C62.6612 28.5523 60.8841 37.6029 62.0717 46.5101C63.2593 55.4174 67.3457 63.6861 73.7 70.0401C80.0543 76.394 88.3233 80.4798 97.2307 81.6669C95.9881 80.6313 94.8027 79.5289 93.6798 78.3646C88.0829 76.6346 82.9354 73.6938 78.6028 69.7508C74.2702 65.8079 70.8587 60.9596 68.6104 55.55C65.6098 48.4482 64.8846 40.5907 66.5347 33.0596C68.1847 25.5285 72.1288 18.6941 77.8239 13.4974C83.5191 8.30067 90.6852 4.99727 98.3355 4.04199C105.986 3.08672 113.744 4.52656 120.542 8.16326L121.874 4.9852C116.515 2.12296 110.584 0.492664 104.515 0.213159C98.4458 -0.0663457 92.3907 1.01198 86.791 3.36954Z" fill="#E73139"/>
<path d="M143.886 54.3281C136.32 55.7037 128.935 57.9313 121.87 60.9683C123.113 61.5009 124.374 62.0691 125.652 62.7438L143.886 54.3281ZM118.053 62.6905C111.452 65.7927 105.311 69.7895 99.8013 74.5683L121.87 64.4127L118.053 62.6905Z" fill="#009444"/>
<path d="M99.8013 54.3281L118.053 62.6905L121.852 64.466L143.886 74.5683C138.372 69.8145 132.23 65.8417 125.634 62.7615C124.356 62.1401 123.095 61.572 121.852 60.9861C114.776 57.9427 107.379 55.7092 99.8013 54.3281Z" fill="#009444"/>
<mask id="mask3_634_17060" style="mask-type:luminance" maskUnits="userSpaceOnUse" x="98" y="1" width="32" height="42">
<path d="M98.614 42.1305C98.614 42.1305 105.307 12.1609 129.951 5.18337L129.063 1.86328C111.22 6.87005 99.0224 23.6481 98.614 42.1305Z" fill="white"/>
</mask>
<g mask="url(#mask3_634_17060)">
<path d="M114.26 -13.801L78.4553 22.0039L114.26 57.8089L150.065 22.0039L114.26 -13.801Z" fill="url(#paint3_linear_634_17060)"/>
</g>
<g style="mix-blend-mode:multiply" opacity="0.4">
<path d="M156.116 3.19581C150.8 0.956662 145.07 -0.128401 139.303 0.0123902C133.537 0.153181 127.866 1.51662 122.666 4.01252L121.725 4.47413L121.406 4.65168C119.085 3.45928 116.652 2.49598 114.144 1.77545C110.359 0.611859 106.422 0.0135904 102.462 0C92.0747 0.0136757 82.0811 3.97489 74.5053 11.0812C66.9295 18.1876 62.338 27.9077 61.6609 38.2728C60.9837 48.6378 64.2715 58.8727 70.8583 66.9043C77.4451 74.9359 86.8384 80.1637 97.1354 81.5287C95.5198 80.0551 94.7386 79.4514 93.5845 78.2086C87.9642 76.4904 82.7922 73.5533 78.4373 69.6066C74.0825 65.6599 70.6521 60.801 68.3909 55.3763C65.6616 48.9058 64.8153 41.796 65.9493 34.8655C67.0832 27.9351 70.1514 21.4658 74.8006 16.2026C79.4498 10.9393 85.4909 7.0961 92.2284 5.11539C98.9659 3.13468 106.126 3.09702 112.884 5.00677C114.055 5.36186 115.156 5.77021 116.239 6.19632C105.898 7.50144 96.4435 12.6981 89.799 20.7284C83.1545 28.7588 79.8198 39.0194 80.4736 49.4218C81.1275 59.8242 85.7207 69.5864 93.3185 76.7216C100.916 83.8568 110.947 87.8286 121.37 87.8286C131.793 87.8286 141.824 83.8568 149.422 76.7216C157.02 69.5864 161.613 59.8242 162.267 49.4218C162.921 39.0194 159.586 28.7588 152.942 20.7284C146.297 12.6981 136.842 7.50144 126.501 6.19632L127.052 5.98327L127.78 5.71695L129.2 5.27309C135.967 3.24178 143.171 3.17487 149.975 5.08015C156.778 6.98542 162.9 10.7845 167.627 16.0348C172.355 21.285 175.493 27.7705 176.677 34.7356C177.861 41.7008 177.042 48.8589 174.314 55.3763C172.123 60.6331 168.836 65.3619 164.673 69.2472C160.509 73.1325 155.564 76.0847 150.168 77.9068C149.387 78.9543 148.393 80.0196 147.132 81.2979C155.874 79.814 163.897 75.5323 169.997 69.0968C176.096 62.6612 179.941 54.4195 180.954 45.6109C181.967 36.8023 180.093 27.9029 175.614 20.2508C171.135 12.5988 164.292 6.60755 156.116 3.17806V3.19581ZM159.152 46.5523C159.155 53.6139 157.162 60.5327 153.405 66.5115C149.647 72.4902 144.276 77.2858 137.912 80.3456C131.548 83.4054 124.449 84.605 117.432 83.8061C110.416 83.0073 103.768 80.2425 98.2546 75.8304C92.741 71.4183 88.5861 65.5382 86.2684 58.8677C83.9508 52.1973 83.5648 45.0077 85.1549 38.1275C86.745 31.2472 90.2465 24.9561 95.256 19.979C100.265 15.0019 106.579 11.5412 113.47 9.99579C108.871 13.979 105.156 18.8797 102.563 24.3833C99.9705 29.8869 98.5571 35.8718 98.4138 41.9539C98.4138 41.9539 103.083 21.1456 118.902 10.1733L121.654 56.2108L123.643 9.96028C133.741 16.6006 141.124 26.6418 144.451 38.261C143.336 27.1481 137.857 16.9317 129.218 9.85375C137.664 11.6 145.252 16.2021 150.704 22.8859C156.155 29.5696 159.139 37.9271 159.152 46.5523Z" fill="url(#paint4_linear_634_17060)"/>
<path d="M121.654 60.8101C114.588 57.7619 107.195 55.534 99.6208 54.1699L117.872 62.5145C111.274 65.5906 105.132 69.5638 99.6208 74.3213L121.654 64.2545L143.705 74.3213C138.181 69.5648 132.027 65.5919 125.418 62.5145L143.67 54.1699C136.102 55.5377 128.716 57.7656 121.654 60.8101Z" fill="url(#paint5_linear_634_17060)"/>
</g>
<path d="M15.6868 114.514V122.015L13.7214 122.286V115.488H12.4052C11.7441 115.488 11.2392 115.668 10.8906 116.029C10.542 116.378 10.3677 116.894 10.3677 117.58V120.645C10.3677 122.412 9.96502 123.74 9.15964 124.63C8.35427 125.531 6.99595 125.982 5.08468 125.982C3.47393 125.982 2.2238 125.585 1.33428 124.792C0.44476 123.999 0 122.821 0 121.258C0 120.008 0.264452 118.577 0.793355 116.967L2.38007 117.399C1.98339 118.613 1.78505 119.719 1.78505 120.717C1.79707 121.775 2.09157 122.568 2.66856 123.097C3.24554 123.638 4.06895 123.908 5.13878 123.908C5.94415 123.908 6.58124 123.794 7.05004 123.566C7.53086 123.337 7.87946 122.971 8.09583 122.466C8.3122 121.961 8.42038 121.276 8.42038 120.41V117.165C8.42038 116.011 8.73292 115.097 9.35798 114.424C9.99507 113.751 10.9026 113.415 12.0806 113.415H14.4427L15.6868 114.514ZM7.24838 130.021L5.75182 128.56L4.29133 130.021L2.68659 128.434L4.2733 126.865L5.75182 128.308L7.23035 126.865L8.83509 128.434L7.24838 130.021Z" fill="black"/>
<path d="M16.8572 120.032H21.383C22.0321 120.032 22.5309 119.87 22.8795 119.545C23.2281 119.22 23.4024 118.77 23.4024 118.193L23.3844 117.291C23.3724 116.642 23.138 116.119 22.6812 115.722C22.2244 115.314 21.6354 115.109 20.9142 115.109H19.7963V113.09H21.3469C22.1162 113.09 22.8014 113.252 23.4024 113.577C24.0155 113.901 24.4903 114.364 24.8269 114.965C25.1754 115.566 25.3497 116.269 25.3497 117.075L25.3678 118.535C25.3558 119.689 25.0132 120.573 24.34 121.186C23.6789 121.799 22.6872 122.105 21.3649 122.105H17.1998L16.8572 120.032Z" fill="black"/>
<path d="M35.9782 120.032C36.0984 120.032 36.1585 120.086 36.1585 120.194V121.925C36.1585 122.045 36.0984 122.105 35.9782 122.105H34.9685C34.7521 124.69 32.4381 125.982 28.0266 125.982L27.8102 124.341C29.445 124.341 30.6832 124.161 31.5246 123.8C32.378 123.452 32.8709 122.887 33.0031 122.105H31.0558C30.2144 122.105 29.4751 121.931 28.838 121.582C28.2009 121.222 27.7021 120.711 27.3414 120.05C26.9928 119.389 26.8186 118.619 26.8186 117.742C26.8186 116.888 26.9989 116.125 27.3595 115.452C27.7321 114.767 28.243 114.232 28.8921 113.847C29.5412 113.463 30.2684 113.27 31.0738 113.27C31.8311 113.27 32.5043 113.445 33.0933 113.793C33.6823 114.142 34.1451 114.635 34.4816 115.272C34.8182 115.897 34.9865 116.63 34.9865 117.471V120.032H35.9782ZM28.6036 117.67C28.6036 118.463 28.844 119.07 29.3248 119.491C29.8057 119.912 30.4548 120.122 31.2722 120.122C31.4765 120.122 31.8311 120.11 32.336 120.086L33.0392 120.068V117.616C33.0392 116.906 32.8408 116.342 32.4442 115.921C32.0475 115.488 31.5306 115.272 30.8935 115.272C30.2444 115.272 29.6975 115.494 29.2527 115.939C28.82 116.384 28.6036 116.961 28.6036 117.67Z" fill="black"/>
<path d="M46.7399 120.032C46.8601 120.032 46.9202 120.086 46.9202 120.194V121.925C46.9202 122.045 46.8601 122.105 46.7399 122.105C45.7542 122.105 44.8647 122.027 44.0713 121.871C43.29 121.715 42.5507 121.462 41.8536 121.114C41.0121 121.498 40.1527 121.763 39.2752 121.907C38.4097 122.039 37.3098 122.105 35.9755 122.105C35.8553 122.093 35.7952 122.033 35.7952 121.925V120.194C35.7952 120.086 35.8553 120.032 35.9755 120.032C37.0574 120.032 38.1272 119.954 39.185 119.797C38.6441 119.148 38.1693 118.523 37.7606 117.922C37.3639 117.321 36.9312 116.57 36.4624 115.668L37.2016 113.919C38.0791 113.475 38.8725 113.156 39.5817 112.964C40.3029 112.759 41.0121 112.657 41.7093 112.657C42.5147 112.657 43.2419 112.801 43.891 113.09C44.5401 113.378 45.045 113.781 45.4056 114.298C45.7783 114.815 45.9646 115.404 45.9646 116.065C45.9646 116.702 45.7963 117.357 45.4597 118.03C45.1231 118.692 44.6063 119.293 43.9091 119.833C44.7265 119.966 45.6701 120.032 46.7399 120.032ZM41.3307 114.605C40.5373 114.605 39.6057 114.839 38.5359 115.308C39.0047 116.221 39.4495 116.997 39.8702 117.634C40.3029 118.259 40.8078 118.884 41.3848 119.509C42.1661 119.148 42.7912 118.71 43.26 118.193C43.7288 117.676 43.9632 117.183 43.9632 116.714C43.9632 116.089 43.7228 115.584 43.2419 115.2C42.7731 114.803 42.136 114.605 41.3307 114.605Z" fill="black"/>
<path d="M63.772 120.032C63.8922 120.032 63.9523 120.086 63.9523 120.194V121.925C63.9523 122.045 63.8922 122.105 63.772 122.105C62.7622 122.105 61.8667 121.751 61.0854 121.042C60.4603 121.739 59.5167 122.087 58.2545 122.087C57.2809 122.087 56.2832 121.763 55.2614 121.114C54.5763 121.763 53.6447 122.087 52.4667 122.087C51.5892 122.087 50.6936 121.757 49.7801 121.096C49.1069 121.769 48.1092 122.105 46.787 122.105C46.6667 122.105 46.6066 122.045 46.6066 121.925V120.194C46.6066 120.086 46.6667 120.032 46.787 120.032C48.1333 120.032 48.8064 119.329 48.8064 117.922L48.7884 115.254L50.7537 114.983V118.535C50.7537 118.92 50.7056 119.293 50.6095 119.653C51.1985 119.894 51.7574 120.014 52.2863 120.014C53.6326 120.014 54.3058 119.311 54.3058 117.904L54.2878 115.236L56.2531 114.965V118.517C56.2531 118.914 56.205 119.293 56.1089 119.653C56.7099 119.894 57.3229 120.014 57.948 120.014C58.5971 120.014 59.09 119.839 59.4265 119.491C59.7751 119.13 59.9494 118.601 59.9494 117.904V113.342L61.8968 113.072V118.517C61.8968 118.83 61.8667 119.148 61.8066 119.473C62.4197 119.845 63.0748 120.032 63.772 120.032Z" fill="black"/>
<path d="M63.7789 122.105C63.6587 122.105 63.5986 122.045 63.5986 121.925V120.194C63.5986 120.086 63.6647 120.032 63.7969 120.032C64.4821 120.032 64.9869 119.858 65.3115 119.509C65.636 119.148 65.7983 118.595 65.7983 117.85L65.8163 109.213L67.7637 108.943V118.427C67.7637 120.879 66.4354 122.105 63.7789 122.105Z" fill="black"/>
<path d="M70.6799 109.213L72.6452 108.943V122.105H70.6799V109.213Z" fill="black"/>
<path d="M96.6455 120.032C96.7657 120.032 96.8258 120.086 96.8258 120.194V121.925C96.8258 122.045 96.7657 122.105 96.6455 122.105H92.5886V115.488H91.2723C90.6112 115.488 90.1063 115.668 89.7577 116.029C89.4091 116.378 89.2348 116.894 89.2348 117.58V120.645C89.2348 122.412 88.8321 123.74 88.0268 124.63C87.2214 125.531 85.8631 125.982 83.9518 125.982C82.3411 125.982 81.0909 125.585 80.2014 124.792C79.3119 123.999 78.8671 122.821 78.8671 121.258C78.8671 120.008 79.1316 118.577 79.6605 116.967L81.2472 117.399C80.8505 118.613 80.6522 119.719 80.6522 120.717C80.6642 121.775 80.9587 122.568 81.5357 123.097C82.1127 123.638 82.9361 123.908 84.0059 123.908C84.8113 123.908 85.4484 123.794 85.9172 123.566C86.398 123.337 86.7466 122.971 86.9629 122.466C87.1793 121.961 87.2875 121.276 87.2875 120.41V117.165C87.2875 116.011 87.6 115.097 88.2251 114.424C88.8622 113.751 89.7697 113.415 90.9478 113.415H93.3098L94.5539 114.514V120.032H96.6455ZM86.6564 130.021L85.1599 128.56L83.6994 130.021L82.0946 128.434L83.6813 126.865L85.1599 128.308L86.6384 126.865L88.2431 128.434L86.6564 130.021Z" fill="black"/>
<path d="M107.237 112.964C108.007 112.964 108.692 113.132 109.293 113.469C109.906 113.805 110.381 114.274 110.717 114.875C111.066 115.476 111.24 116.161 111.24 116.931C111.24 117.423 111.198 117.904 111.114 118.373C111.03 118.842 110.874 119.509 110.645 120.374L109.149 122.105H99.2678H96.6534C96.5332 122.105 96.4731 122.045 96.4731 121.925L96.4911 120.194C96.4911 120.086 96.5512 120.032 96.6714 120.032H98.3302L98.3122 113.36L100.278 113.09V115.055C102.057 114.262 103.433 113.715 104.407 113.415C105.392 113.114 106.336 112.964 107.237 112.964ZM108.752 120.032C108.932 119.395 109.065 118.86 109.149 118.427C109.233 117.994 109.275 117.574 109.275 117.165C109.263 116.516 109.029 115.993 108.572 115.596C108.115 115.188 107.526 114.983 106.805 114.983C106.252 114.983 105.729 115.031 105.236 115.127C104.755 115.212 104.16 115.374 103.451 115.614C102.742 115.855 101.684 116.239 100.278 116.768V120.032H108.752ZM102.604 110.043L104.19 108.474L105.813 110.043L104.226 111.629L102.604 110.043Z" fill="black"/>
<path d="M117.418 122.105C114.774 122.105 113.451 120.879 113.451 118.427L113.433 109.213L115.399 108.943V117.85C115.399 118.595 115.561 119.148 115.886 119.509C116.21 119.858 116.715 120.032 117.4 120.032C117.52 120.032 117.58 120.086 117.58 120.194L117.599 121.925C117.599 122.045 117.538 122.105 117.418 122.105Z" fill="black"/>
<path d="M117.413 122.105C117.293 122.105 117.233 122.045 117.233 121.925L117.251 120.194C117.251 120.086 117.311 120.032 117.431 120.032H118.856C120.19 120.032 120.857 119.329 120.857 117.922V113.36L122.805 113.09V118.535C122.805 119.689 122.468 120.573 121.795 121.186C121.134 121.799 120.148 122.105 118.838 122.105H117.413ZM121.597 126.433L120.1 124.972L118.64 126.433L117.035 124.846L118.621 123.277L120.1 124.72L121.579 123.277L123.183 124.846L121.597 126.433Z" fill="black"/>
<path d="M130.366 120.032C130.487 120.032 130.547 120.086 130.547 120.194V121.925C130.547 122.045 130.487 122.105 130.366 122.105C129.501 122.105 128.84 121.817 128.383 121.24V121.637C128.383 123.151 127.986 124.251 127.193 124.936C126.412 125.633 125.216 125.982 123.605 125.982L123.442 124.341C124.404 124.341 125.143 124.113 125.66 123.656C126.189 123.211 126.454 122.514 126.454 121.564L126.436 113.36L128.383 113.09V118.463C128.455 119.016 128.671 119.419 129.032 119.671C129.405 119.912 129.849 120.032 130.366 120.032Z" fill="black"/>
<path d="M130.391 122.105C130.27 122.105 130.21 122.045 130.21 121.925V120.194C130.21 120.086 130.276 120.032 130.409 120.032C131.094 120.032 131.599 119.858 131.923 119.509C132.248 119.148 132.41 118.595 132.41 117.85L132.428 109.213L134.375 108.943V118.427C134.375 120.879 133.047 122.105 130.391 122.105Z" fill="black"/>
<path d="M137.292 109.213L139.257 108.943V122.105H137.292V109.213Z" fill="black"/>
<path d="M157.325 120.032C157.445 120.032 157.505 120.086 157.505 120.194V121.925C157.505 122.045 157.445 122.105 157.325 122.105H153.034C151.904 122.105 150.936 121.847 150.131 121.33C149.338 120.813 148.791 120.092 148.49 119.166C147.733 119.335 147.354 119.918 147.354 120.915V126.703L145.407 126.974L145.389 120.753C145.389 118.565 146.338 117.345 148.238 117.093C148.286 116.335 148.49 115.662 148.851 115.073C149.223 114.484 149.722 114.022 150.347 113.685C150.972 113.348 151.669 113.18 152.439 113.18C153.184 113.18 153.863 113.366 154.476 113.739C155.101 114.1 155.594 114.593 155.955 115.218C156.315 115.831 156.496 116.498 156.496 117.219C156.496 118.072 156.309 119.01 155.937 120.032H157.325ZM154.278 120.032C154.603 119.046 154.765 118.205 154.765 117.507C154.765 117.087 154.663 116.69 154.458 116.317C154.266 115.945 153.995 115.644 153.647 115.416C153.31 115.188 152.932 115.073 152.511 115.073C151.814 115.073 151.249 115.296 150.816 115.74C150.395 116.173 150.185 116.744 150.185 117.453C150.185 118.223 150.431 118.848 150.924 119.329C151.417 119.797 152.09 120.032 152.944 120.032H154.278Z" fill="black"/>
<path d="M164.201 120.032C164.321 120.032 164.381 120.086 164.381 120.194V121.925C164.381 122.045 164.321 122.105 164.201 122.105C163.684 122.105 163.161 121.991 162.632 121.763C162.115 121.534 161.634 121.204 161.189 120.771C160.48 121.661 159.2 122.105 157.349 122.105C157.229 122.105 157.169 122.045 157.169 121.925L157.187 120.194C157.187 120.086 157.247 120.032 157.367 120.032C158.244 120.032 158.887 119.87 159.296 119.545C159.717 119.208 159.927 118.667 159.927 117.922V115.254L161.875 114.983V118.535C161.875 118.776 161.857 119.016 161.82 119.256C162.554 119.773 163.347 120.032 164.201 120.032ZM162.235 126.433L160.739 124.972L159.278 126.433L157.673 124.846L159.26 123.277L160.739 124.72L162.217 123.277L163.822 124.846L162.235 126.433Z" fill="black"/>
<path d="M175.936 120.032C176.057 120.032 176.117 120.086 176.117 120.194V121.925C176.117 122.045 176.057 122.105 175.936 122.105C174.867 122.105 173.917 121.709 173.088 120.915C172.727 121.3 172.27 121.594 171.717 121.799C171.176 122.003 170.569 122.105 169.896 122.105H164.198C164.078 122.105 164.018 122.045 164.018 121.925V120.194C164.018 120.086 164.078 120.032 164.198 120.032H169.806C170.515 120.032 171.074 119.864 171.483 119.527C171.904 119.178 172.114 118.704 172.114 118.103C172.114 117.501 171.91 117.027 171.501 116.678C171.092 116.317 170.533 116.137 169.824 116.137H165.587L164.541 114.316L169.842 107.951L171.735 108.979L166.849 114.334H169.662C170.539 114.334 171.309 114.49 171.97 114.803C172.643 115.115 173.16 115.56 173.52 116.137C173.893 116.702 174.079 117.363 174.079 118.121C174.079 118.577 174.025 119.016 173.917 119.437C174.554 119.833 175.227 120.032 175.936 120.032Z" fill="black"/>
<path d="M187.375 120.032C187.495 120.032 187.555 120.086 187.555 120.194V121.925C187.555 122.045 187.495 122.105 187.375 122.105H186.726C185.992 122.105 185.385 121.943 184.904 121.619C184.424 121.282 184.093 120.813 183.913 120.212C182.506 120.873 181.178 121.354 179.928 121.655C178.678 121.955 177.355 122.105 175.961 122.105C175.829 122.105 175.763 122.045 175.763 121.925V120.194C175.763 120.086 175.829 120.032 175.961 120.032C177.488 120.032 178.894 119.888 180.18 119.599C181.467 119.311 182.771 118.866 184.093 118.265C183.095 117.483 182.296 116.894 181.695 116.498C181.094 116.089 180.577 115.807 180.144 115.65C179.724 115.494 179.297 115.416 178.864 115.416C178.612 115.416 178.341 115.446 178.053 115.506C177.764 115.554 177.452 115.614 177.115 115.686L176.736 113.937C177.674 113.577 178.473 113.396 179.135 113.396C179.675 113.396 180.21 113.499 180.739 113.703C181.28 113.907 181.953 114.286 182.759 114.839C183.564 115.38 184.676 116.209 186.094 117.327L185.752 119.293C185.487 119.437 185.289 119.539 185.157 119.599C185.505 119.888 186.034 120.032 186.744 120.032H187.375Z" fill="black"/>
<path d="M194.223 120.032C194.343 120.032 194.403 120.086 194.403 120.194V121.925C194.403 122.045 194.343 122.105 194.223 122.105C193.706 122.105 193.183 121.991 192.654 121.763C192.137 121.534 191.656 121.204 191.211 120.771C190.502 121.661 189.222 122.105 187.371 122.105C187.251 122.105 187.191 122.045 187.191 121.925L187.209 120.194C187.209 120.086 187.269 120.032 187.389 120.032C188.266 120.032 188.909 119.87 189.318 119.545C189.739 119.208 189.949 118.667 189.949 117.922V115.254L191.897 114.983V118.535C191.897 118.776 191.879 119.016 191.842 119.256C192.576 119.773 193.369 120.032 194.223 120.032ZM192.329 113.901L190.833 112.441L189.372 113.901L187.767 112.315L189.354 110.746L190.833 112.188L192.311 110.746L193.916 112.315L192.329 113.901Z" fill="black"/>
<path d="M194.22 122.105C194.1 122.105 194.04 122.045 194.04 121.925V120.194C194.04 120.086 194.106 120.032 194.238 120.032C194.924 120.032 195.428 119.858 195.753 119.509C196.078 119.148 196.24 118.595 196.24 117.85L196.258 109.213L198.205 108.943V118.427C198.205 120.879 196.877 122.105 194.22 122.105Z" fill="black"/>
<path d="M201.121 109.213L203.087 108.943V122.105H201.121V109.213Z" fill="black"/>
<path d="M215.115 120.032C215.235 120.032 215.295 120.086 215.295 120.194V121.925C215.295 122.045 215.235 122.105 215.115 122.105C214.249 122.105 213.588 121.817 213.131 121.24V121.637C213.131 123.151 212.734 124.251 211.941 124.936C211.16 125.633 209.964 125.982 208.353 125.982L208.191 124.341C209.152 124.341 209.892 124.113 210.409 123.656C210.937 123.211 211.202 122.514 211.202 121.564L211.184 113.36L213.131 113.09V118.463C213.203 119.016 213.42 119.419 213.78 119.671C214.153 119.912 214.598 120.032 215.115 120.032ZM210.571 110.385L212.158 108.817L213.78 110.385L212.194 111.972L210.571 110.385Z" fill="black"/>
<path d="M220.602 114.334C221.48 114.334 222.249 114.49 222.91 114.803C223.583 115.115 224.1 115.56 224.461 116.137C224.833 116.702 225.02 117.363 225.02 118.121C225.02 119.359 224.641 120.332 223.884 121.042C223.139 121.751 222.123 122.105 220.837 122.105H215.139C215.019 122.105 214.959 122.045 214.959 121.925V120.194C214.959 120.086 215.019 120.032 215.139 120.032H220.747C221.456 120.032 222.015 119.864 222.423 119.527C222.844 119.178 223.054 118.704 223.054 118.103C223.054 117.501 222.85 117.027 222.441 116.678C222.033 116.317 221.474 116.137 220.765 116.137H216.527L215.482 114.316L220.783 107.951L222.676 108.979L217.789 114.334H220.602Z" fill="black"/>
<path d="M232.124 120.032C232.244 120.032 232.304 120.086 232.304 120.194V121.925C232.304 122.045 232.244 122.105 232.124 122.105C231.259 122.105 230.597 121.817 230.141 121.24V121.637C230.141 123.151 229.744 124.251 228.951 124.936C228.169 125.633 226.973 125.982 225.363 125.982L225.2 124.341C226.162 124.341 226.901 124.113 227.418 123.656C227.947 123.211 228.211 122.514 228.211 121.564L228.193 113.36L230.141 113.09V118.463C230.213 119.016 230.429 119.419 230.79 119.671C231.162 119.912 231.607 120.032 232.124 120.032Z" fill="black"/>
<path d="M237.089 113.18C237.882 113.18 238.597 113.366 239.235 113.739C239.872 114.1 240.37 114.599 240.731 115.236C241.104 115.873 241.29 116.588 241.29 117.381C241.29 118.343 241.086 119.184 240.677 119.906C240.268 120.615 239.679 121.162 238.91 121.546C238.153 121.919 237.251 122.105 236.205 122.105H232.148C232.028 122.105 231.968 122.045 231.968 121.925V120.194C231.968 120.086 232.028 120.032 232.148 120.032H233.465C233.02 119.046 232.798 118.217 232.798 117.544C232.798 116.678 232.978 115.915 233.339 115.254C233.699 114.593 234.204 114.082 234.853 113.721C235.502 113.36 236.247 113.18 237.089 113.18ZM236.296 120.032C237.233 120.032 237.972 119.803 238.513 119.347C239.054 118.878 239.325 118.235 239.325 117.417C239.325 116.744 239.102 116.191 238.658 115.759C238.225 115.314 237.678 115.091 237.017 115.091C236.596 115.091 236.205 115.2 235.845 115.416C235.496 115.632 235.22 115.927 235.015 116.299C234.811 116.66 234.709 117.051 234.709 117.471C234.709 118.289 234.961 119.142 235.466 120.032H236.296Z" fill="black"/>
<path d="M1.31421 154.058C2.46978 154.82 3.77121 155.202 5.21848 155.202C6.00382 155.202 6.66575 155.056 7.20427 154.764C7.74279 154.473 8.01205 153.996 8.01205 153.334C8.01205 152.952 7.88864 152.622 7.64182 152.341C7.40621 152.061 7.09769 151.836 6.71624 151.668C6.33478 151.5 5.90846 151.343 5.43725 151.197C4.97727 151.051 4.51167 150.888 4.04047 150.709C3.58048 150.529 3.15976 150.327 2.77831 150.103C2.39686 149.867 2.08272 149.553 1.8359 149.16C1.6003 148.757 1.4825 148.285 1.4825 147.747C1.4825 146.737 1.85273 145.985 2.59319 145.492C3.33366 144.998 4.25924 144.751 5.36994 144.751C6.76111 144.751 8.08497 145.093 9.34152 145.778L9.10592 147.175C7.95034 146.445 6.76111 146.081 5.53822 146.081C3.90023 146.081 3.08123 146.614 3.08123 147.679C3.08123 148.027 3.19903 148.33 3.43463 148.588C3.68145 148.846 3.99559 149.054 4.37704 149.211C4.75849 149.357 5.17921 149.503 5.6392 149.648C6.1104 149.783 6.576 149.94 7.03598 150.12C7.50719 150.299 7.93351 150.512 8.31497 150.759C8.69642 150.995 9.00494 151.326 9.24055 151.752C9.48737 152.167 9.61078 152.655 9.61078 153.216C9.61078 154.338 9.20128 155.174 8.38228 155.724C7.5745 156.262 6.576 156.531 5.38676 156.531C3.83852 156.531 2.481 156.189 1.31421 155.505V154.058Z" fill="#6D6D6D"/>
<path d="M19.5719 155.37C19.83 155.37 20.0432 155.331 20.2114 155.252V156.363C19.8973 156.475 19.5327 156.531 19.1176 156.531C18.063 156.531 17.4684 156.055 17.3337 155.101C16.5372 156.055 15.477 156.531 14.1531 156.531C13.2668 156.531 12.56 156.307 12.0327 155.858C11.5054 155.398 11.2417 154.809 11.2417 154.091C11.2417 153.16 11.6063 152.464 12.3356 152.004C13.0648 151.544 14.0185 151.314 15.1965 151.314C15.8472 151.314 16.5484 151.365 17.3001 151.466V150.725C17.3001 150.209 17.1093 149.789 16.7279 149.463C16.3464 149.127 15.763 148.958 14.9777 148.958C13.9231 148.958 12.9022 149.194 11.9149 149.665L11.6288 148.487C12.5936 148.016 13.766 147.78 15.146 147.78C16.3464 147.78 17.2552 148.055 17.8722 148.605C18.5005 149.144 18.8147 149.878 18.8147 150.81V154.461C18.8147 154.764 18.8651 154.994 18.9661 155.151C19.0783 155.297 19.2802 155.37 19.5719 155.37ZM14.6243 155.353C15.634 155.353 16.5259 154.916 17.3001 154.041V152.593C16.7055 152.492 16.0379 152.442 15.2974 152.442C13.6258 152.442 12.79 152.93 12.79 153.906C12.79 154.355 12.9526 154.708 13.278 154.966C13.6146 155.224 14.0633 155.353 14.6243 155.353Z" fill="#6D6D6D"/>
<path d="M27.3466 147.949H28.8611V156.363H27.4812L27.3634 155.084C26.6341 156.049 25.6637 156.531 24.452 156.531C23.476 156.531 22.7243 156.262 22.197 155.724C21.6697 155.185 21.406 154.428 21.406 153.452V147.999L22.9206 147.78V153.418C22.9206 154.035 23.1001 154.512 23.4591 154.849C23.8181 155.185 24.3286 155.353 24.9905 155.353C25.8881 155.353 26.6734 154.949 27.3466 154.142V147.949Z" fill="#6D6D6D"/>
<path d="M34.9341 147.78C36.1794 147.78 37.1723 148.268 37.9128 149.245V144.297L39.4274 144.078V156.363H38.0306L37.9128 155.067C37.1499 156.043 36.157 156.531 34.9341 156.531C33.7336 156.531 32.7688 156.133 32.0395 155.337C31.3103 154.54 30.9457 153.48 30.9457 152.156C30.9457 150.832 31.3103 149.772 32.0395 148.975C32.7688 148.179 33.7336 147.78 34.9341 147.78ZM35.3212 155.353C36.3421 155.353 37.2004 154.927 37.8959 154.074V150.221C37.1891 149.379 36.3309 148.958 35.3212 148.958C34.4236 148.958 33.728 149.256 33.2344 149.85C32.7407 150.434 32.4939 151.202 32.4939 152.156C32.4939 153.11 32.7407 153.884 33.2344 154.478C33.728 155.062 34.4236 155.353 35.3212 155.353Z" fill="#6D6D6D"/>
<path d="M42.725 146.417L41.5638 145.29L42.725 144.179L43.8525 145.29L42.725 146.417ZM43.4655 156.363H41.9509V147.949H43.4655V156.363Z" fill="#6D6D6D"/>
<path d="M49.5654 154.058C50.7209 154.82 52.0224 155.202 53.4696 155.202C54.255 155.202 54.9169 155.056 55.4554 154.764C55.9939 154.473 56.2632 153.996 56.2632 153.334C56.2632 152.952 56.1398 152.622 55.893 152.341C55.6574 152.061 55.3488 151.836 54.9674 151.668C54.5859 151.5 54.1596 151.343 53.6884 151.197C53.2284 151.051 52.7628 150.888 52.2916 150.709C51.8316 150.529 51.4109 150.327 51.0295 150.103C50.648 149.867 50.3339 149.553 50.0871 149.16C49.8515 148.757 49.7337 148.285 49.7337 147.747C49.7337 146.737 50.1039 145.985 50.8443 145.492C51.5848 144.998 52.5104 144.751 53.6211 144.751C55.0123 144.751 56.3361 145.093 57.5927 145.778L57.3571 147.175C56.2015 146.445 55.0123 146.081 53.7894 146.081C52.1514 146.081 51.3324 146.614 51.3324 147.679C51.3324 148.027 51.4502 148.33 51.6858 148.588C51.9326 148.846 52.2467 149.054 52.6282 149.211C53.0096 149.357 53.4304 149.503 53.8904 149.648C54.3616 149.783 54.8271 149.94 55.2871 150.12C55.7583 150.299 56.1847 150.512 56.5661 150.759C56.9476 150.995 57.2561 151.326 57.4917 151.752C57.7385 152.167 57.8619 152.655 57.8619 153.216C57.8619 154.338 57.4524 155.174 56.6334 155.724C55.8257 156.262 54.8272 156.531 53.6379 156.531C52.0897 156.531 50.7322 156.189 49.5654 155.505V154.058Z" fill="#6D6D6D"/>
<path d="M64.374 156.531C63.1511 156.531 62.1582 156.043 61.3953 155.067V160.015L59.8807 160.234V147.949H61.2775L61.3953 149.245C62.1358 148.268 63.1287 147.78 64.374 147.78C65.5745 147.78 66.5393 148.179 67.2685 148.975C67.9978 149.772 68.3624 150.832 68.3624 152.156C68.3624 153.48 67.9978 154.54 67.2685 155.337C66.5393 156.133 65.5745 156.531 64.374 156.531ZM63.9869 148.958C62.9772 148.958 62.1133 149.379 61.3953 150.221V154.074C62.1133 154.927 62.9772 155.353 63.9869 155.353C64.8733 155.353 65.5632 155.062 66.0569 154.478C66.5617 153.884 66.8142 153.11 66.8142 152.156C66.8142 151.202 66.5617 150.434 66.0569 149.85C65.5632 149.256 64.8733 148.958 63.9869 148.958Z" fill="#6D6D6D"/>
<path d="M74.5041 147.78C75.8841 147.78 76.9779 148.201 77.7857 149.043C78.6047 149.873 79.0142 150.911 79.0142 152.156C79.0142 153.401 78.6047 154.445 77.7857 155.286C76.9779 156.116 75.8841 156.531 74.5041 156.531C73.1017 156.531 71.9966 156.116 71.1889 155.286C70.3811 154.445 69.9772 153.401 69.9772 152.156C69.9772 150.911 70.3811 149.873 71.1889 149.043C71.9966 148.201 73.1017 147.78 74.5041 147.78ZM74.4873 155.353C75.4297 155.353 76.1589 155.045 76.675 154.428C77.2023 153.8 77.466 153.042 77.466 152.156C77.466 151.281 77.2023 150.529 76.675 149.901C76.1589 149.273 75.4297 148.958 74.4873 148.958C73.5449 148.958 72.8156 149.273 72.2995 149.901C71.7835 150.518 71.5254 151.27 71.5254 152.156C71.5254 153.053 71.7779 153.811 72.2827 154.428C72.7988 155.045 73.5337 155.353 74.4873 155.353Z" fill="#6D6D6D"/>
<path d="M85.995 149.295C85.2545 149.295 84.5814 149.452 83.9755 149.766C83.3809 150.069 82.9209 150.462 82.5956 150.944V156.363H81.081V147.949H82.4778L82.5788 149.867C82.8929 149.239 83.3417 148.734 83.9251 148.353C84.5085 147.971 85.1479 147.78 85.8435 147.78L85.995 149.295Z" fill="#6D6D6D"/>
<path d="M89.7266 144.92V147.949H92.7053V149.127H89.7266V154.024C89.7266 154.91 90.2483 155.353 91.2917 155.353C91.7405 155.353 92.1948 155.264 92.6548 155.084L92.8736 156.195C92.2678 156.419 91.6058 156.531 90.8878 156.531C89.9678 156.531 89.2891 156.313 88.8515 155.875C88.4252 155.426 88.2121 154.82 88.2121 154.058V149.127H86.8321V147.949H88.2121V145.206L89.7266 144.92Z" fill="#6D6D6D"/>
<path d="M107.008 156.481L105.863 153.687H99.9565L98.8627 156.363H97.2471L102.026 144.936L103.81 144.718L108.573 156.245L107.008 156.481ZM100.495 152.375H105.325L102.902 146.468L100.495 152.375Z" fill="#6D6D6D"/>
<path d="M115.084 149.295C114.343 149.295 113.67 149.452 113.064 149.766C112.47 150.069 112.01 150.462 111.684 150.944V156.363H110.17V147.949H111.567L111.667 149.867C111.982 149.239 112.43 148.734 113.014 148.353C113.597 147.971 114.237 147.78 114.932 147.78L115.084 149.295Z" fill="#6D6D6D"/>
<path d="M121.204 147.78C122.404 147.78 123.369 148.179 124.098 148.975C124.828 149.772 125.192 150.832 125.192 152.156C125.192 153.48 124.828 154.54 124.098 155.337C123.369 156.133 122.404 156.531 121.204 156.531C119.981 156.531 118.988 156.043 118.225 155.067L118.107 156.363H116.711V144.297L118.225 144.078V149.245C118.966 148.268 119.959 147.78 121.204 147.78ZM120.817 155.353C121.703 155.353 122.393 155.062 122.887 154.478C123.392 153.884 123.644 153.11 123.644 152.156C123.644 151.202 123.392 150.434 122.887 149.85C122.393 149.256 121.703 148.958 120.817 148.958C119.807 148.958 118.943 149.379 118.225 150.221V154.074C118.943 154.927 119.807 155.353 120.817 155.353Z" fill="#6D6D6D"/>
<path d="M128.036 146.417L126.874 145.29L128.036 144.179L129.163 145.29L128.036 146.417ZM128.776 156.363H127.261V147.949H128.776V156.363Z" fill="#6D6D6D"/>
<path d="M133.458 144.92V147.949H136.437V149.127H133.458V154.024C133.458 154.91 133.98 155.353 135.023 155.353C135.472 155.353 135.927 155.264 136.387 155.084L136.605 156.195C135.999 156.419 135.338 156.531 134.62 156.531C133.7 156.531 133.021 156.313 132.583 155.875C132.157 155.426 131.944 154.82 131.944 154.058V149.127H130.564V147.949H131.944V145.206L133.458 144.92Z" fill="#6D6D6D"/>
<path d="M142.776 149.295C142.035 149.295 141.362 149.452 140.756 149.766C140.161 150.069 139.702 150.462 139.376 150.944V156.363H137.862V147.949H139.258L139.359 149.867C139.673 149.239 140.122 148.734 140.706 148.353C141.289 147.971 141.929 147.78 142.624 147.78L142.776 149.295Z" fill="#6D6D6D"/>
<path d="M152.197 155.37C152.455 155.37 152.668 155.331 152.836 155.252V156.363C152.522 156.475 152.158 156.531 151.743 156.531C150.688 156.531 150.093 156.055 149.959 155.101C149.162 156.055 148.102 156.531 146.778 156.531C145.892 156.531 145.185 156.307 144.658 155.858C144.13 155.398 143.867 154.809 143.867 154.091C143.867 153.16 144.231 152.464 144.961 152.004C145.69 151.544 146.643 151.314 147.821 151.314C148.472 151.314 149.173 151.365 149.925 151.466V150.725C149.925 150.209 149.734 149.789 149.353 149.463C148.971 149.127 148.388 148.958 147.603 148.958C146.548 148.958 145.527 149.194 144.54 149.665L144.254 148.487C145.219 148.016 146.391 147.78 147.771 147.78C148.971 147.78 149.88 148.055 150.497 148.605C151.125 149.144 151.44 149.878 151.44 150.81V154.461C151.44 154.764 151.49 154.994 151.591 155.151C151.703 155.297 151.905 155.37 152.197 155.37ZM147.249 155.353C148.259 155.353 149.151 154.916 149.925 154.041V152.593C149.33 152.492 148.663 152.442 147.922 152.442C146.251 152.442 145.415 152.93 145.415 153.906C145.415 154.355 145.578 154.708 145.903 154.966C146.24 155.224 146.688 155.353 147.249 155.353Z" fill="#6D6D6D"/>
<path d="M156.236 144.92V147.949H159.215V149.127H156.236V154.024C156.236 154.91 156.758 155.353 157.801 155.353C158.25 155.353 158.705 155.264 159.165 155.084L159.383 156.195C158.777 156.419 158.116 156.531 157.397 156.531C156.478 156.531 155.799 156.313 155.361 155.875C154.935 155.426 154.722 154.82 154.722 154.058V149.127H153.342V147.949H154.722V145.206L156.236 144.92Z" fill="#6D6D6D"/>
<path d="M161.414 146.417L160.252 145.29L161.414 144.179L162.541 145.29L161.414 146.417ZM162.154 156.363H160.64V147.949H162.154V156.363Z" fill="#6D6D6D"/>
<path d="M168.755 147.78C170.135 147.78 171.229 148.201 172.037 149.043C172.856 149.873 173.265 150.911 173.265 152.156C173.265 153.401 172.856 154.445 172.037 155.286C171.229 156.116 170.135 156.531 168.755 156.531C167.353 156.531 166.247 156.116 165.44 155.286C164.632 154.445 164.228 153.401 164.228 152.156C164.228 150.911 164.632 149.873 165.44 149.043C166.247 148.201 167.353 147.78 168.755 147.78ZM168.738 155.353C169.68 155.353 170.41 155.045 170.926 154.428C171.453 153.8 171.717 153.042 171.717 152.156C171.717 151.281 171.453 150.529 170.926 149.901C170.41 149.273 169.68 148.958 168.738 148.958C167.796 148.958 167.066 149.273 166.55 149.901C166.034 150.518 165.776 151.27 165.776 152.156C165.776 153.053 166.029 153.811 166.534 154.428C167.05 155.045 167.784 155.353 168.738 155.353Z" fill="#6D6D6D"/>
<path d="M179.758 147.78C180.734 147.78 181.486 148.05 182.013 148.588C182.54 149.127 182.804 149.884 182.804 150.86V156.363H181.289V150.894C181.289 150.277 181.11 149.8 180.751 149.463C180.392 149.127 179.881 148.958 179.219 148.958C178.31 148.958 177.52 149.362 176.846 150.17V156.363H175.332V147.949H176.729L176.846 149.228C177.553 148.263 178.524 147.78 179.758 147.78Z" fill="#6D6D6D"/>
<path d="M198.624 155.505C197.491 156.189 196.207 156.531 194.771 156.531C193.032 156.531 191.613 155.998 190.513 154.933C189.414 153.867 188.864 152.436 188.864 150.641C188.864 148.846 189.414 147.416 190.513 146.35C191.624 145.284 193.065 144.751 194.838 144.751C196.285 144.751 197.57 145.093 198.692 145.778L198.406 147.158C197.351 146.44 196.162 146.081 194.838 146.081C193.525 146.081 192.465 146.49 191.657 147.309C190.861 148.128 190.463 149.239 190.463 150.641C190.463 152.044 190.861 153.154 191.657 153.973C192.454 154.792 193.497 155.202 194.788 155.202C196.268 155.202 197.547 154.826 198.624 154.074V155.505Z" fill="#6D6D6D"/>
<path d="M208.399 151.903C208.399 152.24 208.394 152.476 208.383 152.61H201.735C201.825 153.485 202.134 154.17 202.661 154.663C203.199 155.157 203.934 155.404 204.865 155.404C205.875 155.404 206.834 155.174 207.743 154.714L208.029 155.791C207.076 156.285 205.987 156.531 204.764 156.531C203.272 156.531 202.128 156.144 201.331 155.37C200.546 154.585 200.153 153.513 200.153 152.156C200.153 150.821 200.546 149.761 201.331 148.975C202.117 148.179 203.171 147.78 204.495 147.78C205.224 147.78 205.847 147.893 206.363 148.117C206.891 148.341 207.294 148.656 207.575 149.059C207.867 149.463 208.074 149.901 208.198 150.372C208.332 150.832 208.399 151.343 208.399 151.903ZM201.752 151.5H206.885C206.874 150.703 206.689 150.069 206.33 149.598C205.982 149.127 205.354 148.891 204.445 148.891C203.715 148.891 203.11 149.121 202.627 149.581C202.145 150.03 201.853 150.669 201.752 151.5Z" fill="#6D6D6D"/>
<path d="M214.911 147.78C215.887 147.78 216.639 148.05 217.166 148.588C217.693 149.127 217.957 149.884 217.957 150.86V156.363H216.442V150.894C216.442 150.277 216.263 149.8 215.904 149.463C215.545 149.127 215.034 148.958 214.372 148.958C213.463 148.958 212.673 149.362 211.999 150.17V156.363H210.485V147.949H211.882L211.999 149.228C212.706 148.263 213.677 147.78 214.911 147.78Z" fill="#6D6D6D"/>
<path d="M222.499 144.92V147.949H225.478V149.127H222.499V154.024C222.499 154.91 223.021 155.353 224.065 155.353C224.513 155.353 224.968 155.264 225.428 155.084L225.646 156.195C225.041 156.419 224.379 156.531 223.661 156.531C222.741 156.531 222.062 156.313 221.624 155.875C221.198 155.426 220.985 154.82 220.985 154.058V149.127H219.605V147.949H220.985V145.206L222.499 144.92Z" fill="#6D6D6D"/>
<path d="M234.645 151.903C234.645 152.24 234.639 152.476 234.628 152.61H227.981C228.071 153.485 228.379 154.17 228.906 154.663C229.445 155.157 230.18 155.404 231.111 155.404C232.121 155.404 233.08 155.174 233.989 154.714L234.275 155.791C233.321 156.285 232.233 156.531 231.01 156.531C229.518 156.531 228.374 156.144 227.577 155.37C226.792 154.585 226.399 153.513 226.399 152.156C226.399 150.821 226.792 149.761 227.577 148.975C228.362 148.179 229.417 147.78 230.741 147.78C231.47 147.78 232.093 147.893 232.609 148.117C233.136 148.341 233.54 148.656 233.82 149.059C234.112 149.463 234.32 149.901 234.443 150.372C234.578 150.832 234.645 151.343 234.645 151.903ZM227.998 151.5H233.131C233.119 150.703 232.934 150.069 232.575 149.598C232.227 149.127 231.599 148.891 230.69 148.891C229.961 148.891 229.355 149.121 228.873 149.581C228.39 150.03 228.099 150.669 227.998 151.5Z" fill="#6D6D6D"/>
<path d="M241.644 149.295C240.904 149.295 240.231 149.452 239.625 149.766C239.03 150.069 238.57 150.462 238.245 150.944V156.363H236.73V147.949H238.127L238.228 149.867C238.542 149.239 238.991 148.734 239.574 148.353C240.158 147.971 240.797 147.78 241.493 147.78L241.644 149.295Z" fill="#6D6D6D"/>
<defs>
<linearGradient id="paint0_linear_634_17060" x1="81.117" y1="48.5916" x2="162.2" y2="48.5916" gradientUnits="userSpaceOnUse">
<stop stop-color="#2B8A3A"/>
<stop offset="0.12" stop-color="#499C3B"/>
<stop offset="0.28" stop-color="#67AF3C"/>
<stop offset="0.42" stop-color="#7DBC3D"/>
<stop offset="0.57" stop-color="#8BC43E"/>
<stop offset="0.7" stop-color="#8FC73E"/>
<stop offset="1" stop-color="#00A651"/>
</linearGradient>
<linearGradient id="paint1_linear_634_17060" x1="125.829" y1="62.1683" x2="123.701" y2="1.24006" gradientUnits="userSpaceOnUse">
<stop stop-color="#2B8A3A"/>
<stop offset="0.12" stop-color="#499C3B"/>
<stop offset="0.28" stop-color="#67AF3C"/>
<stop offset="0.42" stop-color="#7DBC3D"/>
<stop offset="0.57" stop-color="#8BC43E"/>
<stop offset="0.7" stop-color="#8FC73E"/>
<stop offset="1" stop-color="#00A651"/>
</linearGradient>
<linearGradient id="paint2_linear_634_17060" x1="185.647" y1="9.69422" x2="84.3331" y2="111.008" gradientUnits="userSpaceOnUse">
<stop stop-color="#324B58"/>
<stop offset="1" stop-color="#917DBA"/>
</linearGradient>
<linearGradient id="paint3_linear_634_17060" x1="159.435" y1="-21.7122" x2="48.0934" y2="89.6296" gradientUnits="userSpaceOnUse">
<stop stop-color="#324B58"/>
<stop offset="1" stop-color="#917DBA"/>
</linearGradient>
<linearGradient id="paint4_linear_634_17060" x1="61.5021" y1="43.8891" x2="181.221" y2="43.8891" gradientUnits="userSpaceOnUse">
<stop stop-color="#231F20"/>
<stop offset="0.02" stop-color="#2C2829"/>
<stop offset="0.12" stop-color="#636161"/>
<stop offset="0.22" stop-color="#939191"/>
<stop offset="0.32" stop-color="#BAB9B9"/>
<stop offset="0.42" stop-color="#D8D7D8"/>
<stop offset="0.52" stop-color="#EEEDED"/>
<stop offset="0.61" stop-color="#FBFBFB"/>
<stop offset="0.7" stop-color="white"/>
<stop offset="1" stop-color="#231F20"/>
</linearGradient>
<linearGradient id="paint5_linear_634_17060" x1="99.6208" y1="64.2545" x2="143.705" y2="64.2545" gradientUnits="userSpaceOnUse">
<stop stop-color="#231F20"/>
<stop offset="0.02" stop-color="#2C2829"/>
<stop offset="0.12" stop-color="#636161"/>
<stop offset="0.22" stop-color="#939191"/>
<stop offset="0.32" stop-color="#BAB9B9"/>
<stop offset="0.42" stop-color="#D8D7D8"/>
<stop offset="0.52" stop-color="#EEEDED"/>
<stop offset="0.61" stop-color="#FBFBFB"/>
<stop offset="0.7" stop-color="white"/>
<stop offset="1" stop-color="#231F20"/>
</linearGradient>
</defs>
</svg>
