<svg width="412" height="72" viewBox="0 0 412 72" fill="none" xmlns="http://www.w3.org/2000/svg">
<path d="M20.2427 16.4717V25.58L17.8301 25.9084V17.654H16.2144C15.4028 17.654 14.783 17.873 14.3551 18.3109C13.9272 18.7342 13.7132 19.3618 13.7132 20.1938V23.916C13.7132 26.0617 13.2189 27.6746 12.2303 28.7548C11.2416 29.8495 9.57423 30.3969 7.22805 30.3969C5.25077 30.3969 3.71616 29.9152 2.62423 28.9518C1.53229 27.9884 0.986328 26.558 0.986328 24.6604C0.986328 23.1424 1.31096 21.4054 1.96021 19.4494L3.90799 19.9749C3.42104 21.4492 3.17757 22.792 3.17757 24.0036C3.19233 25.2881 3.55384 26.2514 4.26213 26.8937C4.97041 27.5505 5.98118 27.879 7.29445 27.879C8.28309 27.879 9.06515 27.7403 9.64063 27.463C10.2309 27.1856 10.6588 26.7404 10.9244 26.1274C11.19 25.5143 11.3228 24.6823 11.3228 23.6314V19.6903C11.3228 18.289 11.7064 17.1796 12.4738 16.3622C13.2558 15.5448 14.3699 15.1361 15.8159 15.1361H18.7155L20.2427 16.4717ZM9.8841 35.3014L8.047 33.5279L6.25416 35.3014L4.28426 33.3746L6.23203 31.4697L8.047 33.2213L9.86197 31.4697L11.8319 33.3746L9.8841 35.3014Z" fill="#333333"/>
<path d="M21.6795 23.1716H27.2351C28.0319 23.1716 28.6443 22.9745 29.0722 22.5804C29.5001 22.1863 29.7141 21.6389 29.7141 20.9383L29.6919 19.8435C29.6772 19.0553 29.3894 18.4204 28.8287 17.9387C28.268 17.4424 27.5449 17.1942 26.6596 17.1942H25.2873V14.742H27.1908C28.1352 14.742 28.9763 14.9391 29.7141 15.3332C30.4666 15.7273 31.0495 16.2893 31.4626 17.0191C31.8905 17.7489 32.1045 18.6028 32.1045 19.5808L32.1266 21.3543C32.1119 22.7556 31.6913 23.8284 30.865 24.5728C30.0534 25.3173 28.8361 25.6895 27.2129 25.6895H22.1L21.6795 23.1716Z" fill="#333333"/>
<path d="M45.1515 23.1716C45.299 23.1716 45.3728 23.2372 45.3728 23.3686V25.4705C45.3728 25.6165 45.299 25.6895 45.1515 25.6895H43.912C43.6464 28.8278 40.8059 30.3969 35.3905 30.3969L35.1249 28.4045C37.1317 28.4045 38.6515 28.1855 39.6844 27.7476C40.7321 27.3243 41.3371 26.6383 41.4994 25.6895H39.109C38.0761 25.6895 37.1686 25.4778 36.3865 25.0545C35.6045 24.6166 34.9921 23.9963 34.5494 23.1935C34.1215 22.3906 33.9075 21.4565 33.9075 20.3909C33.9075 19.3545 34.1289 18.4277 34.5715 17.6102C35.029 16.7782 35.6561 16.1287 36.4529 15.6616C37.2497 15.1945 38.1425 14.961 39.1311 14.961C40.0607 14.961 40.887 15.1726 41.6101 15.5959C42.3331 16.0192 42.9012 16.6177 43.3144 17.3913C43.7275 18.1503 43.9341 19.0407 43.9341 20.0625V23.1716H45.1515ZM36.0988 20.3033C36.0988 21.2667 36.3939 22.0038 36.9841 22.5147C37.5744 23.0256 38.3712 23.281 39.3746 23.281C39.6254 23.281 40.0607 23.2664 40.6805 23.2372L41.5437 23.2154V20.2376C41.5437 19.3764 41.3002 18.6904 40.8133 18.1795C40.3263 17.654 39.6918 17.3913 38.9098 17.3913C38.1129 17.3913 37.4416 17.6613 36.8956 18.2014C36.3644 18.7415 36.0988 19.4421 36.0988 20.3033Z" fill="#333333"/>
<path d="M58.3621 23.1716C58.5096 23.1716 58.5834 23.2372 58.5834 23.3686V25.4705C58.5834 25.6165 58.5096 25.6895 58.3621 25.6895C57.1521 25.6895 56.0601 25.5946 55.0863 25.4048C54.1271 25.2151 53.2196 24.9086 52.3638 24.4853C51.3309 24.9523 50.2759 25.2735 49.1987 25.4486C48.1363 25.6092 46.7861 25.6895 45.1482 25.6895C45.0006 25.6749 44.9269 25.6019 44.9269 25.4705V23.3686C44.9269 23.2372 45.0006 23.1716 45.1482 23.1716C46.4762 23.1716 47.7895 23.0767 49.088 22.8869C48.424 22.0987 47.8411 21.3397 47.3394 20.6099C46.8525 19.88 46.3213 18.9677 45.7458 17.873L46.6533 15.7492C47.7305 15.2091 48.7044 14.8223 49.575 14.5887C50.4603 14.3406 51.3309 14.2165 52.1867 14.2165C53.1754 14.2165 54.0681 14.3917 54.8649 14.742C55.6617 15.0923 56.2815 15.5813 56.7242 16.209C57.1816 16.8366 57.4103 17.5519 57.4103 18.3547C57.4103 19.1283 57.2037 19.9238 56.7906 20.7412C56.3774 21.544 55.7429 22.2739 54.8871 22.9307C55.8905 23.0913 57.0488 23.1716 58.3621 23.1716ZM51.7219 16.5812C50.748 16.5812 49.6045 16.8658 48.2912 17.4351C48.8667 18.5444 49.4126 19.4859 49.9291 20.2595C50.4603 21.0186 51.08 21.7776 51.7883 22.5366C52.7475 22.0987 53.5148 21.5659 54.0902 20.9383C54.6657 20.3106 54.9535 19.7122 54.9535 19.1429C54.9535 18.3839 54.6583 17.7708 54.0681 17.3037C53.4926 16.822 52.7106 16.5812 51.7219 16.5812Z" fill="#333333"/>
<path d="M79.2698 23.1716C79.4174 23.1716 79.4911 23.2372 79.4911 23.3686V25.4705C79.4911 25.6165 79.4174 25.6895 79.2698 25.6895C78.0303 25.6895 76.931 25.2589 75.9719 24.3977C75.2046 25.2443 74.0462 25.6676 72.4969 25.6676C71.3017 25.6676 70.0769 25.2735 68.8227 24.4853C67.9816 25.2735 66.838 25.6676 65.3919 25.6676C64.3148 25.6676 63.2155 25.2662 62.094 24.4634C61.2677 25.2808 60.043 25.6895 58.4198 25.6895C58.2723 25.6895 58.1985 25.6165 58.1985 25.4705V23.3686C58.1985 23.2372 58.2723 23.1716 58.4198 23.1716C60.0725 23.1716 60.8988 22.3177 60.8988 20.6099L60.8767 17.3694L63.2892 17.041V21.3543C63.2892 21.8214 63.2302 22.2739 63.1122 22.7118C63.8352 23.0037 64.5214 23.1497 65.1706 23.1497C66.8233 23.1497 67.6496 22.2958 67.6496 20.588L67.6275 17.3475L70.04 17.0191V21.3324C70.04 21.8141 69.981 22.2739 69.863 22.7118C70.6008 23.0037 71.3533 23.1497 72.1206 23.1497C72.9174 23.1497 73.5224 22.938 73.9356 22.5147C74.3635 22.0768 74.5775 21.4346 74.5775 20.588V15.0485L76.9679 14.7201V21.3324C76.9679 21.7119 76.931 22.0987 76.8572 22.4928C77.6098 22.9453 78.414 23.1716 79.2698 23.1716Z" fill="#333333"/>
<path d="M79.2783 25.6895C79.1307 25.6895 79.057 25.6165 79.057 25.4705V23.3686C79.057 23.2372 79.1381 23.1716 79.3004 23.1716C80.1415 23.1716 80.7613 22.9599 81.1597 22.5366C81.5581 22.0987 81.7573 21.4273 81.7573 20.5223L81.7794 10.0346L84.1698 9.70618V21.2229C84.1698 24.2006 82.5393 25.6895 79.2783 25.6895Z" fill="#333333"/>
<path d="M87.7496 10.0346L90.1622 9.70618V25.6895H87.7496V10.0346Z" fill="#333333"/>
<path d="M119.624 23.1716C119.771 23.1716 119.845 23.2372 119.845 23.3686V25.4705C119.845 25.6165 119.771 25.6895 119.624 25.6895H114.644V17.654H113.028C112.216 17.654 111.597 17.873 111.169 18.3109C110.741 18.7342 110.527 19.3618 110.527 20.1938V23.916C110.527 26.0617 110.033 27.6746 109.044 28.7548C108.055 29.8495 106.388 30.3969 104.042 30.3969C102.064 30.3969 100.53 29.9152 99.4378 28.9518C98.3459 27.9884 97.7999 26.558 97.7999 24.6604C97.7999 23.1424 98.1245 21.4054 98.7738 19.4494L100.722 19.9749C100.235 21.4492 99.9912 22.792 99.9912 24.0036C100.006 25.2881 100.367 26.2514 101.076 26.8937C101.784 27.5505 102.795 27.879 104.108 27.879C105.097 27.879 105.879 27.7403 106.454 27.463C107.044 27.1856 107.472 26.7404 107.738 26.1274C108.004 25.5143 108.136 24.6823 108.136 23.6314V19.6903C108.136 18.289 108.52 17.1796 109.287 16.3622C110.069 15.5448 111.183 15.1361 112.63 15.1361H115.529L117.056 16.4717V23.1716H119.624ZM107.362 35.3014L105.525 33.5279L103.732 35.3014L101.762 33.3746L103.71 31.4697L105.525 33.2213L107.34 31.4697L109.309 33.3746L107.362 35.3014Z" fill="#333333"/>
<path d="M132.626 14.5887C133.57 14.5887 134.411 14.7931 135.149 15.2018C135.902 15.6105 136.485 16.1798 136.898 16.9096C137.326 17.6394 137.54 18.4714 137.54 19.4056C137.54 20.0041 137.488 20.588 137.385 21.1572C137.281 21.7265 137.09 22.5366 136.809 23.5876L134.972 25.6895H122.843H119.633C119.486 25.6895 119.412 25.6165 119.412 25.4705L119.434 23.3686C119.434 23.2372 119.508 23.1716 119.656 23.1716H121.692L121.67 15.0704L124.082 14.742V17.1286C126.266 16.1652 127.956 15.501 129.151 15.1361C130.361 14.7712 131.519 14.5887 132.626 14.5887ZM134.485 23.1716C134.707 22.3979 134.869 21.7484 134.972 21.2229C135.075 20.6974 135.127 20.1866 135.127 19.6903C135.112 18.902 134.825 18.2671 134.264 17.7854C133.703 17.2891 132.98 17.041 132.095 17.041C131.416 17.041 130.774 17.0994 130.169 17.2161C129.579 17.3183 128.849 17.5154 127.978 17.8073C127.107 18.0992 125.809 18.5663 124.082 19.2086V23.1716H134.485ZM126.938 11.0418L128.885 9.13691L130.877 11.0418L128.93 12.9685L126.938 11.0418Z" fill="#333333"/>
<path d="M145.123 25.6895C141.877 25.6895 140.254 24.2006 140.254 21.2229L140.232 10.0346L142.644 9.70618V20.5223C142.644 21.4273 142.844 22.0987 143.242 22.5366C143.641 22.9599 144.26 23.1716 145.101 23.1716C145.249 23.1716 145.323 23.2372 145.323 23.3686L145.345 25.4705C145.345 25.6165 145.271 25.6895 145.123 25.6895Z" fill="#333333"/>
<path d="M145.118 25.6895C144.97 25.6895 144.896 25.6165 144.896 25.4705L144.918 23.3686C144.918 23.2372 144.992 23.1716 145.14 23.1716H146.888C148.526 23.1716 149.345 22.3177 149.345 20.6099V15.0704L151.736 14.742V21.3543C151.736 22.7556 151.322 23.8284 150.496 24.5728C149.685 25.3173 148.475 25.6895 146.866 25.6895H145.118ZM150.253 30.9443L148.416 29.1708L146.623 30.9443L144.653 29.0175L146.601 27.1126L148.416 28.8642L150.23 27.1126L152.2 29.0175L150.253 30.9443Z" fill="#333333"/>
<path d="M161.018 23.1716C161.165 23.1716 161.239 23.2372 161.239 23.3686V25.4705C161.239 25.6165 161.165 25.6895 161.018 25.6895C159.956 25.6895 159.144 25.3392 158.583 24.6385V25.1202C158.583 26.9594 158.096 28.295 157.122 29.127C156.163 29.9736 154.695 30.3969 152.718 30.3969L152.519 28.4045C153.699 28.4045 154.607 28.1271 155.241 27.5724C155.89 27.0324 156.215 26.1858 156.215 25.0326L156.193 15.0704L158.583 14.742V21.2667C158.672 21.9381 158.937 22.4271 159.38 22.7337C159.837 23.0256 160.383 23.1716 161.018 23.1716Z" fill="#333333"/>
<path d="M161.048 25.6895C160.9 25.6895 160.827 25.6165 160.827 25.4705V23.3686C160.827 23.2372 160.908 23.1716 161.07 23.1716C161.911 23.1716 162.531 22.9599 162.929 22.5366C163.328 22.0987 163.527 21.4273 163.527 20.5223L163.549 10.0346L165.939 9.70618V21.2229C165.939 24.2006 164.309 25.6895 161.048 25.6895Z" fill="#333333"/>
<path d="M169.519 10.0346L171.932 9.70618V25.6895H169.519V10.0346Z" fill="#333333"/>
<path d="M194.111 23.1716C194.259 23.1716 194.333 23.2372 194.333 23.3686V25.4705C194.333 25.6165 194.259 25.6895 194.111 25.6895H188.844C187.456 25.6895 186.269 25.3757 185.28 24.748C184.306 24.1203 183.635 23.2445 183.266 22.1206C182.336 22.325 181.871 23.0329 181.871 24.2444V31.2727L179.481 31.6011L179.459 24.0474C179.459 21.3908 180.625 19.9092 182.956 19.6027C183.015 18.6831 183.266 17.8657 183.708 17.1505C184.166 16.4352 184.778 15.8732 185.546 15.4645C186.313 15.0558 187.169 14.8515 188.113 14.8515C189.028 14.8515 189.862 15.0777 190.614 15.5302C191.382 15.9681 191.987 16.5666 192.429 17.3256C192.872 18.07 193.093 18.8802 193.093 19.756C193.093 20.7923 192.865 21.9308 192.407 23.1716H194.111ZM190.371 23.1716C190.769 21.9746 190.968 20.9529 190.968 20.1063C190.968 19.5954 190.843 19.1137 190.592 18.6612C190.356 18.2087 190.024 17.8438 189.596 17.5665C189.183 17.2891 188.718 17.1505 188.202 17.1505C187.346 17.1505 186.652 17.4205 186.121 17.9606C185.605 18.486 185.346 19.1794 185.346 20.0406C185.346 20.9748 185.649 21.7338 186.254 22.3177C186.859 22.8869 187.685 23.1716 188.733 23.1716H190.371Z" fill="#333333"/>
<path d="M202.551 23.1716C202.699 23.1716 202.773 23.2372 202.773 23.3686V25.4705C202.773 25.6165 202.699 25.6895 202.551 25.6895C201.917 25.6895 201.275 25.5508 200.626 25.2735C199.991 24.9961 199.401 24.5947 198.855 24.0693C197.984 25.1494 196.413 25.6895 194.14 25.6895C193.993 25.6895 193.919 25.6165 193.919 25.4705L193.941 23.3686C193.941 23.2372 194.015 23.1716 194.163 23.1716C195.24 23.1716 196.029 22.9745 196.531 22.5804C197.047 22.1717 197.306 21.5148 197.306 20.6099V17.3694L199.696 17.041V21.3543C199.696 21.6462 199.674 21.9381 199.63 22.2301C200.53 22.8577 201.504 23.1716 202.551 23.1716ZM200.139 30.9443L198.302 29.1708L196.509 30.9443L194.539 29.0175L196.487 27.1126L198.302 28.8642L200.117 27.1126L202.086 29.0175L200.139 30.9443Z" fill="#333333"/>
<path d="M216.958 23.1716C217.105 23.1716 217.179 23.2372 217.179 23.3686V25.4705C217.179 25.6165 217.105 25.6895 216.958 25.6895C215.644 25.6895 214.479 25.2078 213.461 24.2444C213.018 24.7115 212.457 25.0691 211.778 25.3173C211.114 25.5654 210.369 25.6895 209.543 25.6895H202.549C202.401 25.6895 202.327 25.6165 202.327 25.4705V23.3686C202.327 23.2372 202.401 23.1716 202.549 23.1716H209.432C210.303 23.1716 210.989 22.9672 211.491 22.5585C212.007 22.1352 212.265 21.5586 212.265 20.8288C212.265 20.099 212.015 19.5224 211.513 19.0991C211.011 18.6612 210.325 18.4423 209.454 18.4423H204.253L202.969 16.2309L209.477 8.50195L211.801 9.74996L205.802 16.2528H209.255C210.332 16.2528 211.277 16.4425 212.088 16.822C212.915 17.2015 213.549 17.7416 213.992 18.4423C214.449 19.1283 214.678 19.9311 214.678 20.8507C214.678 21.4054 214.612 21.9381 214.479 22.449C215.261 22.9307 216.087 23.1716 216.958 23.1716Z" fill="#333333"/>
<path d="M230.999 23.1716C231.146 23.1716 231.22 23.2372 231.22 23.3686V25.4705C231.22 25.6165 231.146 25.6895 230.999 25.6895H230.202C229.302 25.6895 228.557 25.4924 227.966 25.0983C227.376 24.6896 226.97 24.1203 226.749 23.3905C225.023 24.1933 223.392 24.7772 221.857 25.1421C220.323 25.507 218.7 25.6895 216.988 25.6895C216.826 25.6895 216.745 25.6165 216.745 25.4705V23.3686C216.745 23.2372 216.826 23.1716 216.988 23.1716C218.862 23.1716 220.588 22.9964 222.167 22.6461C223.746 22.2958 225.347 21.7557 226.97 21.0259C225.746 20.0771 224.764 19.3618 224.027 18.8802C223.289 18.3839 222.654 18.0408 222.123 17.8511C221.607 17.6613 221.083 17.5665 220.552 17.5665C220.242 17.5665 219.91 17.6029 219.556 17.6759C219.201 17.7343 218.818 17.8073 218.405 17.8949L217.94 15.7711C219.091 15.3332 220.072 15.1142 220.884 15.1142C221.548 15.1142 222.204 15.2383 222.853 15.4864C223.517 15.7346 224.344 16.1944 225.332 16.8658C226.321 17.5227 227.686 18.5298 229.427 19.8873L229.007 22.2739C228.682 22.449 228.439 22.5731 228.276 22.6461C228.704 22.9964 229.353 23.1716 230.224 23.1716H230.999Z" fill="#333333"/>
<path d="M239.405 23.1716C239.552 23.1716 239.626 23.2372 239.626 23.3686V25.4705C239.626 25.6165 239.552 25.6895 239.405 25.6895C238.77 25.6895 238.128 25.5508 237.479 25.2735C236.845 24.9961 236.254 24.5947 235.708 24.0693C234.838 25.1494 233.266 25.6895 230.994 25.6895C230.846 25.6895 230.773 25.6165 230.773 25.4705L230.795 23.3686C230.795 23.2372 230.869 23.1716 231.016 23.1716C232.093 23.1716 232.883 22.9745 233.384 22.5804C233.901 22.1717 234.159 21.5148 234.159 20.6099V17.3694L236.55 17.041V21.3543C236.55 21.6462 236.527 21.9381 236.483 22.2301C237.383 22.8577 238.357 23.1716 239.405 23.1716ZM237.081 15.7273L235.244 13.9538L233.451 15.7273L231.481 13.8005L233.429 11.8957L235.244 13.6473L237.059 11.8957L239.029 13.8005L237.081 15.7273Z" fill="#333333"/>
<path d="M239.402 25.6895C239.255 25.6895 239.181 25.6165 239.181 25.4705V23.3686C239.181 23.2372 239.262 23.1716 239.424 23.1716C240.265 23.1716 240.885 22.9599 241.284 22.5366C241.682 22.0987 241.881 21.4273 241.881 20.5223L241.903 10.0346L244.294 9.70618V21.2229C244.294 24.2006 242.663 25.6895 239.402 25.6895Z" fill="#333333"/>
<path d="M247.874 10.0346L250.286 9.70618V25.6895H247.874V10.0346Z" fill="#333333"/>
<path d="M265.051 23.1716C265.199 23.1716 265.272 23.2372 265.272 23.3686V25.4705C265.272 25.6165 265.199 25.6895 265.051 25.6895C263.989 25.6895 263.177 25.3392 262.616 24.6385V25.1202C262.616 26.9594 262.129 28.295 261.155 29.127C260.196 29.9736 258.728 30.3969 256.751 30.3969L256.552 28.4045C257.732 28.4045 258.64 28.1271 259.274 27.5724C259.923 27.0324 260.248 26.1858 260.248 25.0326L260.226 15.0704L262.616 14.742V21.2667C262.705 21.9381 262.97 22.4271 263.413 22.7337C263.87 23.0256 264.416 23.1716 265.051 23.1716ZM259.473 11.4578L261.421 9.55291L263.413 11.4578L261.465 13.3845L259.473 11.4578Z" fill="#333333"/>
<path d="M271.787 16.2528C272.865 16.2528 273.809 16.4425 274.62 16.822C275.447 17.2015 276.081 17.7416 276.524 18.4423C276.981 19.1283 277.21 19.9311 277.21 20.8507C277.21 22.3541 276.745 23.5365 275.816 24.3977C274.901 25.2589 273.654 25.6895 272.075 25.6895H265.081C264.933 25.6895 264.86 25.6165 264.86 25.4705V23.3686C264.86 23.2372 264.933 23.1716 265.081 23.1716H271.964C272.835 23.1716 273.521 22.9672 274.023 22.5585C274.539 22.1352 274.798 21.5586 274.798 20.8288C274.798 20.099 274.547 19.5224 274.045 19.0991C273.543 18.6612 272.857 18.4423 271.987 18.4423H266.785L265.501 16.2309L272.009 8.50195L274.333 9.74996L268.335 16.2528H271.787Z" fill="#333333"/>
<path d="M285.931 23.1716C286.079 23.1716 286.152 23.2372 286.152 23.3686V25.4705C286.152 25.6165 286.079 25.6895 285.931 25.6895C284.869 25.6895 284.057 25.3392 283.496 24.6385V25.1202C283.496 26.9594 283.009 28.295 282.035 29.127C281.076 29.9736 279.608 30.3969 277.631 30.3969L277.432 28.4045C278.612 28.4045 279.52 28.1271 280.154 27.5724C280.803 27.0324 281.128 26.1858 281.128 25.0326L281.106 15.0704L283.496 14.742V21.2667C283.585 21.9381 283.85 22.4271 284.293 22.7337C284.751 23.0256 285.297 23.1716 285.931 23.1716Z" fill="#333333"/>
<path d="M292.026 14.8515C292.999 14.8515 293.877 15.0777 294.659 15.5302C295.442 15.9681 296.054 16.5739 296.497 17.3475C296.954 18.1211 297.183 18.9896 297.183 19.953C297.183 21.1207 296.932 22.1425 296.43 23.0183C295.929 23.8795 295.205 24.5436 294.261 25.0107C293.331 25.4632 292.225 25.6895 290.941 25.6895H285.961C285.813 25.6895 285.74 25.6165 285.74 25.4705V23.3686C285.74 23.2372 285.813 23.1716 285.961 23.1716H287.577C287.031 21.9746 286.758 20.9675 286.758 20.1501C286.758 19.0991 286.979 18.1722 287.422 17.3694C287.864 16.5666 288.484 15.9462 289.281 15.5083C290.078 15.0704 290.993 14.8515 292.026 14.8515ZM291.052 23.1716C292.203 23.1716 293.11 22.8942 293.774 22.3396C294.438 21.7703 294.77 20.9894 294.77 19.9968C294.77 19.1794 294.497 18.5079 293.951 17.9825C293.42 17.4424 292.749 17.1723 291.937 17.1723C291.421 17.1723 290.941 17.3037 290.498 17.5665C290.07 17.8292 289.731 18.1868 289.48 18.6393C289.229 19.0772 289.104 19.5516 289.104 20.0625C289.104 21.0551 289.414 22.0914 290.034 23.1716H291.052Z" fill="#333333"/>
<path d="M0.83252 58.9635C2.24381 59.8852 3.83323 60.346 5.60077 60.346C6.5599 60.346 7.3683 60.1698 8.02599 59.8174C8.68368 59.465 9.01253 58.889 9.01253 58.0893C9.01253 57.6284 8.86181 57.2286 8.56037 56.8898C8.27263 56.5509 7.89583 56.2798 7.42996 56.0765C6.9641 55.8732 6.44343 55.6834 5.86795 55.5072C5.30618 55.331 4.73755 55.1345 4.16207 54.9176C3.60029 54.7008 3.08647 54.4568 2.62061 54.1857C2.15475 53.9011 1.7711 53.5216 1.46966 53.0472C1.18192 52.5592 1.03805 51.99 1.03805 51.3394C1.03805 50.1195 1.49021 49.2114 2.39453 48.615C3.29885 48.0187 4.42926 47.7205 5.78574 47.7205C7.48477 47.7205 9.10159 48.1339 10.6362 48.9607L10.3485 50.6481C8.93717 49.7671 7.48477 49.3266 5.99127 49.3266C3.9908 49.3266 2.99056 49.9704 2.99056 51.2581C2.99056 51.6782 3.13443 52.0442 3.42217 52.3559C3.72361 52.6677 4.10726 52.9184 4.57313 53.1082C5.03899 53.2844 5.55281 53.4606 6.11458 53.6368C6.69006 53.7994 7.25869 53.9892 7.82047 54.2061C8.39594 54.4229 8.91661 54.6805 9.38248 54.9786C9.84834 55.2633 10.2251 55.6631 10.5129 56.1782C10.8143 56.6797 10.965 57.2693 10.965 57.947C10.965 59.3024 10.4649 60.3121 9.46469 60.9763C8.47816 61.6269 7.25869 61.9522 5.80629 61.9522C3.91544 61.9522 2.25751 61.5388 0.83252 60.712V58.9635Z" fill="#A5A5A5"/>
<path d="M23.1305 60.5493C23.4457 60.5493 23.706 60.5019 23.9115 60.407V61.7489C23.5279 61.8844 23.0826 61.9522 22.5756 61.9522C21.2876 61.9522 20.5614 61.3761 20.397 60.224C19.4242 61.3761 18.1293 61.9522 16.5125 61.9522C15.4301 61.9522 14.5669 61.6811 13.9229 61.1389C13.2789 60.5832 12.9569 59.8716 12.9569 59.0042C12.9569 57.8792 13.4022 57.0388 14.2928 56.4831C15.1834 55.9274 16.3481 55.6496 17.7868 55.6496C18.5815 55.6496 19.4379 55.7106 20.3559 55.8325V54.938C20.3559 54.3145 20.123 53.8062 19.6571 53.4132C19.1912 53.0065 18.4787 52.8032 17.5196 52.8032C16.2316 52.8032 14.9848 53.0879 13.779 53.6571L13.4296 52.234C14.608 51.6647 16.0398 51.38 17.7251 51.38C19.1912 51.38 20.3011 51.7121 21.0547 52.3763C21.822 53.0269 22.2056 53.9146 22.2056 55.0396V59.4515C22.2056 59.8174 22.2673 60.0953 22.3906 60.285C22.5276 60.4612 22.7743 60.5493 23.1305 60.5493ZM17.088 60.529C18.3212 60.529 19.4105 60.0004 20.3559 58.9432V57.1947C19.6297 57.0727 18.8144 57.0117 17.9101 57.0117C15.8685 57.0117 14.8478 57.6013 14.8478 58.7805C14.8478 59.3227 15.0464 59.7497 15.4438 60.0614C15.8548 60.3731 16.4029 60.529 17.088 60.529Z" fill="#A5A5A5"/>
<path d="M32.6256 51.5834H34.4753V61.7489H32.79L32.6461 60.2037C31.7555 61.3694 30.5703 61.9522 29.0905 61.9522C27.8984 61.9522 26.9804 61.6269 26.3364 60.9763C25.6924 60.3257 25.3705 59.4108 25.3705 58.2316V51.6444L27.2202 51.38V58.1909C27.2202 58.9364 27.4394 59.5125 27.8779 59.9191C28.3164 60.3257 28.9398 60.529 29.7482 60.529C30.8443 60.529 31.8035 60.0411 32.6256 59.0652V51.5834Z" fill="#A5A5A5"/>
<path d="M41.8922 51.38C43.4131 51.38 44.6257 51.9696 45.53 53.1488V47.1715L47.3798 46.9072V61.7489H45.6739L45.53 60.1834C44.5983 61.3626 43.3857 61.9522 41.8922 61.9522C40.4261 61.9522 39.2477 61.471 38.3571 60.5087C37.4665 59.5463 37.0212 58.2655 37.0212 56.6661C37.0212 55.0667 37.4665 53.7859 38.3571 52.8236C39.2477 51.8612 40.4261 51.38 41.8922 51.38ZM42.3649 60.529C43.6117 60.529 44.6599 60.014 45.5095 58.9838V54.328C44.6462 53.3115 43.598 52.8032 42.3649 52.8032C41.2687 52.8032 40.4192 53.1624 39.8163 53.8808C39.2134 54.5856 38.912 55.514 38.912 56.6661C38.912 57.8182 39.2134 58.7534 39.8163 59.4718C40.4192 60.1766 41.2687 60.529 42.3649 60.529Z" fill="#A5A5A5"/>
<path d="M51.4071 49.7332L49.989 48.3711L51.4071 47.0292L52.7842 48.3711L51.4071 49.7332ZM52.3115 61.7489H50.4617V51.5834H52.3115V61.7489Z" fill="#A5A5A5"/>
<path d="M59.7612 58.9635C61.1725 59.8852 62.7619 60.346 64.5294 60.346C65.4886 60.346 66.297 60.1698 66.9547 59.8174C67.6124 59.465 67.9412 58.889 67.9412 58.0893C67.9412 57.6284 67.7905 57.2286 67.489 56.8898C67.2013 56.5509 66.8245 56.2798 66.3586 56.0765C65.8928 55.8732 65.3721 55.6834 64.7966 55.5072C64.2349 55.331 63.6662 55.1345 63.0908 54.9176C62.529 54.7008 62.0152 54.4568 61.5493 54.1857C61.0834 53.9011 60.6998 53.5216 60.3983 53.0472C60.1106 52.5592 59.9667 51.99 59.9667 51.3394C59.9667 50.1195 60.4189 49.2114 61.3232 48.615C62.2275 48.0187 63.3579 47.7205 64.7144 47.7205C66.4135 47.7205 68.0303 48.1339 69.5649 48.9607L69.2771 50.6481C67.8659 49.7671 66.4135 49.3266 64.9199 49.3266C62.9195 49.3266 61.9192 49.9704 61.9192 51.2581C61.9192 51.6782 62.0631 52.0442 62.3508 52.3559C62.6523 52.6677 63.0359 52.9184 63.5018 53.1082C63.9677 53.2844 64.4815 53.4606 65.0433 53.6368C65.6187 53.7994 66.1874 53.9892 66.7491 54.2061C67.3246 54.4229 67.8453 54.6805 68.3112 54.9786C68.777 55.2633 69.1538 55.6631 69.4416 56.1782C69.743 56.6797 69.8937 57.2693 69.8937 57.947C69.8937 59.3024 69.3936 60.3121 68.3934 60.9763C67.4068 61.6269 66.1874 61.9522 64.735 61.9522C62.8441 61.9522 61.1862 61.5388 59.7612 60.712V58.9635Z" fill="#A5A5A5"/>
<path d="M77.8468 61.9522C76.3533 61.9522 75.1407 61.3626 74.209 60.1834V66.1607L72.3593 66.425V51.5834H74.0651L74.209 53.1488C75.1133 51.9696 76.3259 51.38 77.8468 51.38C79.3129 51.38 80.4913 51.8612 81.3819 52.8236C82.2726 53.7859 82.7179 55.0667 82.7179 56.6661C82.7179 58.2655 82.2726 59.5463 81.3819 60.5087C80.4913 61.471 79.3129 61.9522 77.8468 61.9522ZM77.3741 52.8032C76.141 52.8032 75.0859 53.3115 74.209 54.328V58.9838C75.0859 60.014 76.141 60.529 77.3741 60.529C78.4566 60.529 79.2992 60.1766 79.9021 59.4718C80.5187 58.7534 80.827 57.8182 80.827 56.6661C80.827 55.514 80.5187 54.5856 79.9021 53.8808C79.2992 53.1624 78.4566 52.8032 77.3741 52.8032Z" fill="#A5A5A5"/>
<path d="M90.2187 51.38C91.904 51.38 93.2399 51.8883 94.2265 52.9049C95.2267 53.9079 95.7268 55.1616 95.7268 56.6661C95.7268 58.1706 95.2267 59.4311 94.2265 60.4477C93.2399 61.4507 91.904 61.9522 90.2187 61.9522C88.5059 61.9522 87.1563 61.4507 86.1698 60.4477C85.1832 59.4311 84.69 58.1706 84.69 56.6661C84.69 55.1616 85.1832 53.9079 86.1698 52.9049C87.1563 51.8883 88.5059 51.38 90.2187 51.38ZM90.1981 60.529C91.3491 60.529 92.2397 60.1563 92.87 59.4108C93.514 58.6518 93.836 57.7369 93.836 56.6661C93.836 55.6089 93.514 54.7008 92.87 53.9418C92.2397 53.1827 91.3491 52.8032 90.1981 52.8032C89.0471 52.8032 88.1565 53.1827 87.5262 53.9418C86.896 54.6872 86.5808 55.5953 86.5808 56.6661C86.5808 57.7504 86.8891 58.6653 87.5057 59.4108C88.136 60.1563 89.0335 60.529 90.1981 60.529Z" fill="#A5A5A5"/>
<path d="M104.252 53.2098C103.348 53.2098 102.526 53.3996 101.786 53.7791C101.06 54.1451 100.498 54.6195 100.101 55.2023V61.7489H98.2509V51.5834H99.9568L100.08 53.9011C100.464 53.1421 101.012 52.5321 101.724 52.0713C102.437 51.6105 103.218 51.38 104.067 51.38L104.252 53.2098Z" fill="#A5A5A5"/>
<path d="M108.81 47.9238V51.5834H112.448V53.0065H108.81V58.9229C108.81 59.9936 109.447 60.529 110.721 60.529C111.269 60.529 111.824 60.4206 112.386 60.2037L112.653 61.5456C111.913 61.8166 111.105 61.9522 110.228 61.9522C109.104 61.9522 108.275 61.6879 107.741 61.1593C107.22 60.6171 106.96 59.8852 106.96 58.9635V53.0065H105.275V51.5834H106.96V48.2694L108.81 47.9238Z" fill="#A5A5A5"/>
<path d="M129.915 61.8912L128.517 58.5162H121.303L119.968 61.7489H117.994L123.831 47.9441L126.01 47.6798L131.826 61.6065L129.915 61.8912ZM121.961 56.9304H127.86L124.9 49.7942L121.961 56.9304Z" fill="#A5A5A5"/>
<path d="M139.778 53.2098C138.874 53.2098 138.052 53.3996 137.312 53.7791C136.586 54.1451 136.024 54.6195 135.626 55.2023V61.7489H133.777V51.5834H135.483L135.606 53.9011C135.99 53.1421 136.538 52.5321 137.25 52.0713C137.963 51.6105 138.744 51.38 139.593 51.38L139.778 53.2098Z" fill="#A5A5A5"/>
<path d="M147.253 51.38C148.719 51.38 149.897 51.8612 150.788 52.8236C151.678 53.7859 152.124 55.0667 152.124 56.6661C152.124 58.2655 151.678 59.5463 150.788 60.5087C149.897 61.471 148.719 61.9522 147.253 61.9522C145.759 61.9522 144.547 61.3626 143.615 60.1834L143.471 61.7489H141.765V47.1715L143.615 46.9072V53.1488C144.519 51.9696 145.732 51.38 147.253 51.38ZM146.78 60.529C147.862 60.529 148.705 60.1766 149.308 59.4718C149.924 58.7534 150.233 57.8182 150.233 56.6661C150.233 55.514 149.924 54.5856 149.308 53.8808C148.705 53.1624 147.862 52.8032 146.78 52.8032C145.547 52.8032 144.492 53.3115 143.615 54.328V58.9838C144.492 60.014 145.547 60.529 146.78 60.529Z" fill="#A5A5A5"/>
<path d="M155.596 49.7332L154.178 48.3711L155.596 47.0292L156.973 48.3711L155.596 49.7332ZM156.5 61.7489H154.651V51.5834H156.5V61.7489Z" fill="#A5A5A5"/>
<path d="M162.219 47.9238V51.5834H165.857V53.0065H162.219V58.9229C162.219 59.9936 162.856 60.529 164.13 60.529C164.678 60.529 165.233 60.4206 165.795 60.2037L166.062 61.5456C165.322 61.8166 164.514 61.9522 163.637 61.9522C162.513 61.9522 161.685 61.6879 161.15 61.1593C160.629 60.6171 160.369 59.8852 160.369 58.9635V53.0065H158.684V51.5834H160.369V48.2694L162.219 47.9238Z" fill="#A5A5A5"/>
<path d="M173.598 53.2098C172.694 53.2098 171.871 53.3996 171.132 53.7791C170.405 54.1451 169.844 54.6195 169.446 55.2023V61.7489H167.596V51.5834H169.302L169.426 53.9011C169.809 53.1421 170.357 52.5321 171.07 52.0713C171.782 51.6105 172.563 51.38 173.413 51.38L173.598 53.2098Z" fill="#A5A5A5"/>
<path d="M185.104 60.5493C185.419 60.5493 185.68 60.5019 185.885 60.407V61.7489C185.501 61.8844 185.056 61.9522 184.549 61.9522C183.261 61.9522 182.535 61.3761 182.371 60.224C181.398 61.3761 180.103 61.9522 178.486 61.9522C177.404 61.9522 176.54 61.6811 175.896 61.1389C175.252 60.5832 174.93 59.8716 174.93 59.0042C174.93 57.8792 175.376 57.0388 176.266 56.4831C177.157 55.9274 178.322 55.6496 179.76 55.6496C180.555 55.6496 181.411 55.7106 182.329 55.8325V54.938C182.329 54.3145 182.097 53.8062 181.631 53.4132C181.165 53.0065 180.452 52.8032 179.493 52.8032C178.205 52.8032 176.958 53.0879 175.753 53.6571L175.403 52.234C176.582 51.6647 178.013 51.38 179.699 51.38C181.165 51.38 182.275 51.7121 183.028 52.3763C183.796 53.0269 184.179 53.9146 184.179 55.0396V59.4515C184.179 59.8174 184.241 60.0953 184.364 60.285C184.501 60.4612 184.748 60.5493 185.104 60.5493ZM179.062 60.529C180.295 60.529 181.384 60.0004 182.329 58.9432V57.1947C181.603 57.0727 180.788 57.0117 179.884 57.0117C177.842 57.0117 176.821 57.6013 176.821 58.7805C176.821 59.3227 177.02 59.7497 177.417 60.0614C177.828 60.3731 178.376 60.529 179.062 60.529Z" fill="#A5A5A5"/>
<path d="M190.037 47.9238V51.5834H193.675V53.0065H190.037V58.9229C190.037 59.9936 190.675 60.529 191.949 60.529C192.497 60.529 193.052 60.4206 193.614 60.2037L193.881 61.5456C193.141 61.8166 192.332 61.9522 191.456 61.9522C190.332 61.9522 189.503 61.6879 188.969 61.1593C188.448 60.6171 188.188 59.8852 188.188 58.9635V53.0065H186.502V51.5834H188.188V48.2694L190.037 47.9238Z" fill="#A5A5A5"/>
<path d="M196.36 49.7332L194.942 48.3711L196.36 47.0292L197.737 48.3711L196.36 49.7332ZM197.265 61.7489H195.415V51.5834H197.265V61.7489Z" fill="#A5A5A5"/>
<path d="M205.326 51.38C207.012 51.38 208.348 51.8883 209.334 52.9049C210.334 53.9079 210.834 55.1616 210.834 56.6661C210.834 58.1706 210.334 59.4311 209.334 60.4477C208.348 61.4507 207.012 61.9522 205.326 61.9522C203.614 61.9522 202.264 61.4507 201.277 60.4477C200.291 59.4311 199.798 58.1706 199.798 56.6661C199.798 55.1616 200.291 53.9079 201.277 52.9049C202.264 51.8883 203.614 51.38 205.326 51.38ZM205.306 60.529C206.457 60.529 207.347 60.1563 207.978 59.4108C208.622 58.6518 208.944 57.7369 208.944 56.6661C208.944 55.6089 208.622 54.7008 207.978 53.9418C207.347 53.1827 206.457 52.8032 205.306 52.8032C204.155 52.8032 203.264 53.1827 202.634 53.9418C202.004 54.6872 201.688 55.5953 201.688 56.6661C201.688 57.7504 201.997 58.6653 202.613 59.4108C203.244 60.1563 204.141 60.529 205.306 60.529Z" fill="#A5A5A5"/>
<path d="M218.764 51.38C219.956 51.38 220.874 51.7053 221.518 52.3559C222.162 53.0065 222.484 53.9214 222.484 55.1006V61.7489H220.634V55.1413C220.634 54.3958 220.415 53.8198 219.977 53.4132C219.538 53.0065 218.915 52.8032 218.106 52.8032C216.996 52.8032 216.03 53.2912 215.208 54.2671V61.7489H213.359V51.5834H215.064L215.208 53.1285C216.072 51.9629 217.257 51.38 218.764 51.38Z" fill="#A5A5A5"/>
<path d="M241.806 60.712C240.422 61.5388 238.853 61.9522 237.099 61.9522C234.975 61.9522 233.242 61.3084 231.899 60.0207C230.556 58.7331 229.885 57.005 229.885 54.8363C229.885 52.6677 230.556 50.9395 231.899 49.6519C233.256 48.3643 235.016 47.7205 237.181 47.7205C238.949 47.7205 240.518 48.1339 241.888 48.9607L241.538 50.6278C240.251 49.7603 238.798 49.3266 237.181 49.3266C235.578 49.3266 234.283 49.8213 233.297 50.8108C232.324 51.8002 231.838 53.1421 231.838 54.8363C231.838 56.5306 232.324 57.8724 233.297 58.8619C234.27 59.8513 235.544 60.346 237.12 60.346C238.928 60.346 240.49 59.892 241.806 58.9838V60.712Z" fill="#A5A5A5"/>
<path d="M253.744 56.3611C253.744 56.7678 253.737 57.0524 253.723 57.2151H245.605C245.715 58.2723 246.091 59.0991 246.735 59.6954C247.393 60.2918 248.29 60.59 249.428 60.59C250.661 60.59 251.832 60.3121 252.942 59.7564L253.292 61.0576C252.127 61.654 250.798 61.9522 249.304 61.9522C247.482 61.9522 246.084 61.4846 245.112 60.5493C244.153 59.6006 243.673 58.3061 243.673 56.6661C243.673 55.0532 244.153 53.7723 245.112 52.8236C246.071 51.8612 247.359 51.38 248.976 51.38C249.866 51.38 250.627 51.5156 251.257 51.7867C251.901 52.0577 252.394 52.4373 252.737 52.9252C253.093 53.4131 253.346 53.9418 253.497 54.511C253.662 55.0667 253.744 55.6834 253.744 56.3611ZM245.625 55.8732H251.894C251.88 54.9109 251.654 54.1451 251.216 53.5758C250.791 53.0065 250.024 52.7219 248.914 52.7219C248.023 52.7219 247.283 52.9998 246.694 53.5555C246.105 54.0976 245.749 54.8702 245.625 55.8732Z" fill="#A5A5A5"/>
<path d="M261.696 51.38C262.888 51.38 263.806 51.7053 264.45 52.3559C265.094 53.0065 265.416 53.9214 265.416 55.1006V61.7489H263.566V55.1413C263.566 54.3958 263.347 53.8198 262.909 53.4132C262.47 53.0065 261.847 52.8032 261.038 52.8032C259.928 52.8032 258.962 53.2912 258.14 54.2671V61.7489H256.291V51.5834H257.996L258.14 53.1285C259.004 51.9629 260.189 51.38 261.696 51.38Z" fill="#A5A5A5"/>
<path d="M270.964 47.9238V51.5834H274.602V53.0065H270.964V58.9229C270.964 59.9936 271.601 60.529 272.875 60.529C273.423 60.529 273.978 60.4206 274.54 60.2037L274.807 61.5456C274.067 61.8166 273.259 61.9522 272.382 61.9522C271.259 61.9522 270.43 61.6879 269.895 61.1593C269.375 60.6171 269.114 59.8852 269.114 58.9635V53.0065H267.429V51.5834H269.114V48.2694L270.964 47.9238Z" fill="#A5A5A5"/>
<path d="M285.797 56.3611C285.797 56.7678 285.79 57.0524 285.777 57.2151H277.658C277.768 58.2723 278.145 59.0991 278.789 59.6954C279.447 60.2918 280.344 60.59 281.481 60.59C282.714 60.59 283.886 60.3121 284.996 59.7564L285.345 61.0576C284.181 61.654 282.851 61.9522 281.358 61.9522C279.536 61.9522 278.138 61.4846 277.165 60.5493C276.206 59.6006 275.726 58.3061 275.726 56.6661C275.726 55.0532 276.206 53.7723 277.165 52.8236C278.124 51.8612 279.412 51.38 281.029 51.38C281.92 51.38 282.68 51.5156 283.31 51.7867C283.954 52.0577 284.448 52.4373 284.79 52.9252C285.146 53.4131 285.4 53.9418 285.551 54.511C285.715 55.0667 285.797 55.6834 285.797 56.3611ZM277.679 55.8732H283.948C283.934 54.9109 283.708 54.1451 283.269 53.5758C282.845 53.0065 282.077 52.7219 280.967 52.7219C280.077 52.7219 279.337 52.9998 278.748 53.5555C278.159 54.0976 277.802 54.8702 277.679 55.8732Z" fill="#A5A5A5"/>
<path d="M294.345 53.2098C293.441 53.2098 292.619 53.3996 291.879 53.7791C291.153 54.1451 290.591 54.6195 290.194 55.2023V61.7489H288.344V51.5834H290.05L290.173 53.9011C290.557 53.1421 291.105 52.5321 291.818 52.0713C292.53 51.6105 293.311 51.38 294.161 51.38L294.345 53.2098Z" fill="#A5A5A5"/>
<mask id="mask0_368_1698" style="mask-type:luminance" maskUnits="userSpaceOnUse" x="330" y="5" width="66" height="67">
<path d="M333.131 38.2853C333.131 32.3215 334.887 26.4917 338.176 21.5328C341.465 16.5739 346.14 12.7087 351.61 10.4258C357.08 8.14287 363.099 7.54484 368.906 8.70728C374.713 9.86971 380.048 12.7404 384.236 16.9564C388.423 21.1725 391.276 26.5445 392.433 32.3933C393.589 38.2422 392.999 44.3052 390.735 49.8158C388.471 55.3264 384.636 60.0372 379.714 63.3525C374.792 66.6679 369.005 68.4389 363.084 68.4417C355.144 68.4379 347.529 65.26 341.913 59.6058C336.297 53.9516 333.138 46.2834 333.131 38.2853ZM330.294 38.4853C330.294 45.0038 332.213 51.3761 335.807 56.7969C339.401 62.2176 344.51 66.4436 350.488 68.9407C356.466 71.4378 363.045 72.0941 369.393 70.8265C375.741 69.559 381.574 66.4245 386.154 61.8192C390.734 57.2139 393.856 51.3444 395.125 44.9525C396.395 38.5606 395.754 31.9331 393.286 25.9075C390.817 19.8819 386.63 14.7287 381.255 11.099C375.879 7.46924 369.556 5.52595 363.084 5.51465C354.403 5.51843 346.078 8.99287 339.938 15.1748C333.798 21.3568 330.344 29.7408 330.337 38.4853" fill="white"/>
</mask>
<g mask="url(#mask0_368_1698)">
<path d="M395.795 5.52832H330.343V71.4553H395.795V5.52832Z" fill="url(#paint0_linear_368_1698)"/>
</g>
<mask id="mask1_368_1698" style="mask-type:luminance" maskUnits="userSpaceOnUse" x="360" y="7" width="5" height="40">
<path d="M360.767 7.12891L363.079 46.0566L364.739 7.12891H360.767Z" fill="white"/>
</mask>
<g mask="url(#mask1_368_1698)">
<path d="M364.744 6.99028L359.415 7.17773L360.767 46.1816L366.097 45.9942L364.744 6.99028Z" fill="url(#paint1_linear_368_1698)"/>
</g>
<path d="M356.005 4.82932C376.471 11.2149 381.293 31.6144 381.293 31.6144C380.575 24.8558 377.896 18.46 373.59 13.2262C369.285 7.99239 363.543 4.15259 357.083 2.18652L356.005 4.82932Z" fill="#E83139"/>
<mask id="mask2_368_1698" style="mask-type:luminance" maskUnits="userSpaceOnUse" x="362" y="0" width="49" height="67">
<path d="M362.599 4.70145L363.649 7.25853C369.08 4.32732 375.279 3.16476 381.394 3.93104C387.508 4.69732 393.235 7.35472 397.788 11.5371C402.34 15.7194 405.492 21.2208 406.81 27.2831C408.128 33.3455 407.547 39.6704 405.147 45.3862C403.392 49.6279 400.756 53.4425 397.417 56.574C394.079 59.7056 390.113 62.0816 385.788 63.5429C385.164 64.3715 384.37 65.2429 383.363 66.2714C388.038 65.4835 392.487 63.6814 396.402 60.9898C400.318 58.2982 403.605 54.7816 406.037 50.6834C408.47 46.5852 409.988 42.0034 410.488 37.2555C410.988 32.5075 410.458 27.7068 408.933 23.1859C407.408 18.665 404.926 14.5319 401.659 11.073C398.391 7.61402 394.416 4.91187 390.009 3.15367C385.602 1.39548 380.868 0.623262 376.135 0.890516C371.402 1.15777 366.784 2.4581 362.599 4.70145Z" fill="white"/>
</mask>
<g mask="url(#mask2_368_1698)">
<path d="M388.841 -25.6036L330.133 33.5293L388.841 92.6622L447.548 33.5293L388.841 -25.6036Z" fill="url(#paint2_linear_368_1698)"/>
</g>
<path d="M335.075 3.40061C328.457 6.20016 322.938 11.116 319.369 17.3894C315.8 23.6628 314.38 30.9449 315.329 38.1118C316.278 45.2786 319.542 51.9317 324.618 57.0441C329.694 62.1565 336.299 65.444 343.415 66.3991C342.422 65.5659 341.475 64.6789 340.578 63.742C336.107 62.3501 331.995 59.9839 328.534 56.8114C325.074 53.6389 322.348 49.7379 320.552 45.3853C318.155 39.6711 317.576 33.349 318.894 27.2894C320.212 21.2298 323.363 15.7308 327.912 11.5495C332.462 7.36822 338.186 4.71028 344.297 3.94166C350.408 3.17304 356.606 4.33155 362.036 7.25766L363.1 4.70057C358.819 2.3976 354.082 1.08585 349.234 0.860961C344.385 0.63607 339.548 1.5037 335.075 3.40061Z" fill="#E73139"/>
<path d="M380.684 44.3994C374.64 45.5062 368.74 47.2985 363.097 49.7421C364.09 50.1707 365.097 50.6278 366.118 51.1707L380.684 44.3994ZM360.048 51.1278C354.775 53.6239 349.869 56.8398 345.468 60.6847L363.097 52.5135L360.048 51.1278Z" fill="#009444"/>
<path d="M345.468 44.3994L360.048 51.1278L363.083 52.5564L380.684 60.6847C376.279 56.8599 371.373 53.6633 366.104 51.185C365.083 50.685 364.076 50.2278 363.083 49.7564C357.431 47.3077 351.522 45.5106 345.468 44.3994Z" fill="#009444"/>
<mask id="mask3_368_1698" style="mask-type:luminance" maskUnits="userSpaceOnUse" x="344" y="2" width="26" height="33">
<path d="M344.52 34.5858C344.52 34.5858 349.866 10.472 369.552 4.85789L368.843 2.18652C354.589 6.215 344.846 19.7147 344.52 34.5858Z" fill="white"/>
</mask>
<g mask="url(#mask3_368_1698)">
<path d="M357.018 -10.4153L328.416 18.3936L357.018 47.2024L385.619 18.3936L357.018 -10.4153Z" fill="url(#paint3_linear_368_1698)"/>
</g>
<g style="mix-blend-mode:multiply" opacity="0.4">
<path d="M390.453 3.25789C386.207 1.45626 381.629 0.583212 377.023 0.696493C372.417 0.809774 367.887 1.9068 363.733 3.91502L362.982 4.28644L362.726 4.42929C360.872 3.46988 358.929 2.69481 356.926 2.11506C353.902 1.17883 350.757 0.697458 347.593 0.686523C339.296 0.697527 331.313 3.88474 325.261 9.60254C319.21 15.3203 315.542 23.1413 315.001 31.481C314.46 39.8208 317.087 48.0558 322.348 54.5181C327.61 60.9804 335.113 65.1867 343.339 66.285C342.048 65.0993 341.424 64.6136 340.502 63.6136C336.013 62.2311 331.881 59.8679 328.402 56.6924C324.924 53.5169 322.183 49.6073 320.377 45.2426C318.197 40.0364 317.521 34.3158 318.427 28.7395C319.333 23.1633 321.784 17.9581 325.497 13.7232C329.211 9.48837 334.037 6.39608 339.419 4.80239C344.801 3.2087 350.52 3.17841 355.919 4.715C356.855 5.00071 357.734 5.32927 358.599 5.67212C350.339 6.72223 342.786 10.9034 337.478 17.3647C332.171 23.826 329.507 32.0818 330.029 40.4516C330.551 48.8214 334.22 56.6762 340.29 62.4172C346.359 68.1582 354.372 71.3539 362.698 71.3539C371.024 71.3539 379.037 68.1582 385.106 62.4172C391.175 56.6762 394.844 48.8214 395.367 40.4516C395.889 32.0818 393.225 23.826 387.918 17.3647C382.61 10.9034 375.057 6.72223 366.797 5.67212L367.236 5.50069L367.818 5.28641L368.952 4.92928C374.358 3.29488 380.113 3.24104 385.547 4.77404C390.982 6.30703 395.872 9.36376 399.649 13.5882C403.425 17.8126 405.932 23.0308 406.878 28.635C407.823 34.2392 407.169 39.9987 404.99 45.2426C403.24 49.4722 400.614 53.2771 397.288 56.4032C393.962 59.5293 390.012 61.9047 385.702 63.3707C385.078 64.2136 384.284 65.0707 383.277 66.0993C390.26 64.9053 396.669 61.4603 401.541 56.2822C406.413 51.1041 409.485 44.4728 410.294 37.3853C411.103 30.2979 409.606 23.1374 406.028 16.9805C402.45 10.8235 396.985 6.00299 390.453 3.24361V3.25789ZM392.878 38.1428C392.881 43.8246 391.289 49.3915 388.287 54.202C385.286 59.0126 380.996 62.8711 375.912 65.333C370.828 67.795 365.157 68.7601 359.552 68.1174C353.947 67.4747 348.637 65.2501 344.233 61.7001C339.828 58.15 336.509 53.4189 334.658 48.0518C332.807 42.6847 332.498 36.9 333.769 31.3641C335.039 25.8282 337.836 20.7664 341.837 16.7617C345.839 12.7571 350.882 9.97268 356.387 8.72919C352.713 11.9341 349.746 15.8772 347.675 20.3055C345.603 24.7337 344.474 29.5492 344.36 34.4429C344.36 34.4429 348.09 17.7004 360.727 8.87204L362.925 45.914L364.513 8.70062C372.58 14.0435 378.478 22.1226 381.135 31.4715C380.244 22.5301 375.868 14.3099 368.967 8.61491C375.714 10.0199 381.775 13.7228 386.13 19.1006C390.485 24.4784 392.868 31.2029 392.878 38.1428Z" fill="url(#paint4_linear_368_1698)"/>
<path d="M362.925 49.6132C357.28 47.1607 351.375 45.368 345.324 44.2705L359.904 50.9846C354.633 53.4596 349.726 56.6565 345.324 60.4844L362.925 52.3846L380.539 60.4844C376.126 56.6573 371.211 53.4607 365.931 50.9846L380.511 44.2705C374.466 45.371 368.566 47.1636 362.925 49.6132Z" fill="url(#paint5_linear_368_1698)"/>
</g>
<defs>
<linearGradient id="paint0_linear_368_1698" x1="330.543" y1="39.7836" x2="395.313" y2="39.7836" gradientUnits="userSpaceOnUse">
<stop stop-color="#2B8A3A"/>
<stop offset="0.12" stop-color="#499C3B"/>
<stop offset="0.28" stop-color="#67AF3C"/>
<stop offset="0.42" stop-color="#7DBC3D"/>
<stop offset="0.57" stop-color="#8BC43E"/>
<stop offset="0.7" stop-color="#8FC73E"/>
<stop offset="1" stop-color="#00A651"/>
</linearGradient>
<linearGradient id="paint1_linear_368_1698" x1="366.26" y1="50.7132" x2="364.536" y2="1.6908" gradientUnits="userSpaceOnUse">
<stop stop-color="#2B8A3A"/>
<stop offset="0.12" stop-color="#499C3B"/>
<stop offset="0.28" stop-color="#67AF3C"/>
<stop offset="0.42" stop-color="#7DBC3D"/>
<stop offset="0.57" stop-color="#8BC43E"/>
<stop offset="0.7" stop-color="#8FC73E"/>
<stop offset="1" stop-color="#00A651"/>
</linearGradient>
<linearGradient id="paint2_linear_368_1698" x1="414.042" y1="8.48821" x2="332.527" y2="89.4167" gradientUnits="userSpaceOnUse">
<stop stop-color="#324B58"/>
<stop offset="1" stop-color="#917DBA"/>
</linearGradient>
<linearGradient id="paint3_linear_368_1698" x1="393.104" y1="-16.7806" x2="303.52" y2="72.1584" gradientUnits="userSpaceOnUse">
<stop stop-color="#324B58"/>
<stop offset="1" stop-color="#917DBA"/>
</linearGradient>
<linearGradient id="paint4_linear_368_1698" x1="314.874" y1="36" x2="410.507" y2="36" gradientUnits="userSpaceOnUse">
<stop stop-color="#231F20"/>
<stop offset="0.02" stop-color="#2C2829"/>
<stop offset="0.12" stop-color="#636161"/>
<stop offset="0.22" stop-color="#939191"/>
<stop offset="0.32" stop-color="#BAB9B9"/>
<stop offset="0.42" stop-color="#D8D7D8"/>
<stop offset="0.52" stop-color="#EEEDED"/>
<stop offset="0.61" stop-color="#FBFBFB"/>
<stop offset="0.7" stop-color="white"/>
<stop offset="1" stop-color="#231F20"/>
</linearGradient>
<linearGradient id="paint5_linear_368_1698" x1="345.324" y1="52.3846" x2="380.539" y2="52.3846" gradientUnits="userSpaceOnUse">
<stop stop-color="#231F20"/>
<stop offset="0.02" stop-color="#2C2829"/>
<stop offset="0.12" stop-color="#636161"/>
<stop offset="0.22" stop-color="#939191"/>
<stop offset="0.32" stop-color="#BAB9B9"/>
<stop offset="0.42" stop-color="#D8D7D8"/>
<stop offset="0.52" stop-color="#EEEDED"/>
<stop offset="0.61" stop-color="#FBFBFB"/>
<stop offset="0.7" stop-color="white"/>
<stop offset="1" stop-color="#231F20"/>
</linearGradient>
</defs>
</svg>
