<svg width="335" height="58" viewBox="0 0 335 58" fill="none" xmlns="http://www.w3.org/2000/svg">
<path d="M15.8184 12.937V20.4018L13.8523 20.671V13.906H12.5355C11.8741 13.906 11.369 14.0854 11.0203 14.4443C10.6715 14.7912 10.4972 15.3056 10.4972 15.9875V19.038C10.4972 20.7966 10.0943 22.1185 9.28863 23.0037C8.48293 23.9009 7.12406 24.3495 5.21203 24.3495C3.60063 24.3495 2.35 23.9548 1.46012 23.1652C0.570244 22.3757 0.125305 21.2033 0.125305 19.6481C0.125305 18.404 0.389863 16.9804 0.918979 15.3774L2.50633 15.8081C2.10949 17.0163 1.91107 18.1169 1.91107 19.1098C1.9231 20.1625 2.21772 20.9521 2.79493 21.4785C3.37215 22.0168 4.19589 22.286 5.26615 22.286C6.07185 22.286 6.70919 22.1723 7.17818 21.945C7.65919 21.7177 8.00793 21.3528 8.22439 20.8504C8.44084 20.348 8.54907 19.6661 8.54907 18.8048V15.5748C8.54907 14.4264 8.86173 13.5172 9.48705 12.8473C10.1244 12.1773 11.0323 11.8424 12.2108 11.8424H14.5738L15.8184 12.937ZM7.3766 28.3691L5.87944 26.9156L4.41836 28.3691L2.81297 26.79L4.40032 25.2288L5.87944 26.6644L7.35856 25.2288L8.96394 26.79L7.3766 28.3691Z" fill="white"/>
<path d="M16.9893 18.4279H21.5169C22.1662 18.4279 22.6653 18.2664 23.014 17.9434C23.3628 17.6204 23.5371 17.1718 23.5371 16.5976L23.5191 15.7004C23.5071 15.0544 23.2726 14.534 22.8156 14.1393C22.3586 13.7325 21.7694 13.5291 21.0479 13.5291H19.9295V11.5194H21.4808C22.2504 11.5194 22.9359 11.6809 23.5371 12.0039C24.1504 12.3269 24.6254 12.7875 24.9621 13.3856C25.3109 13.9837 25.4852 14.6836 25.4852 15.4851L25.5033 16.9386C25.4913 18.087 25.1485 18.9663 24.4751 19.5764C23.8137 20.1865 22.8216 20.4915 21.4988 20.4915H17.332L16.9893 18.4279Z" fill="white"/>
<path d="M36.118 18.4279C36.2382 18.4279 36.2983 18.4818 36.2983 18.5894V20.3121C36.2983 20.4317 36.2382 20.4915 36.118 20.4915H35.1078C34.8914 23.0635 32.5765 24.3495 28.1632 24.3495L27.9467 22.7166C29.5822 22.7166 30.8208 22.5372 31.6626 22.1783C32.5164 21.8314 33.0094 21.2691 33.1417 20.4915H31.1936C30.3518 20.4915 29.6122 20.3181 28.9749 19.9711C28.3375 19.6123 27.8385 19.1038 27.4777 18.4459C27.129 17.7879 26.9546 17.0223 26.9546 16.149C26.9546 15.2996 27.135 14.54 27.4958 13.8701C27.8686 13.1882 28.3796 12.6559 29.029 12.273C29.6784 11.8902 30.4059 11.6988 31.2116 11.6988C31.9692 11.6988 32.6426 11.8723 33.2319 12.2192C33.8211 12.5661 34.2841 13.0566 34.6208 13.6906C34.9575 14.3127 35.1259 15.0424 35.1259 15.8798V18.4279H36.118ZM28.7404 16.0772C28.7404 16.8668 28.9809 17.4709 29.4619 17.8896C29.9429 18.3083 30.5923 18.5177 31.41 18.5177C31.6145 18.5177 31.9692 18.5057 32.4743 18.4818L33.1778 18.4638V16.0234C33.1778 15.3176 32.9793 14.7553 32.5825 14.3366C32.1857 13.906 31.6686 13.6906 31.0312 13.6906C30.3819 13.6906 29.8347 13.912 29.3898 14.3546C28.9569 14.7972 28.7404 15.3714 28.7404 16.0772Z" fill="white"/>
<path d="M46.884 18.4279C47.0042 18.4279 47.0644 18.4818 47.0644 18.5894V20.3121C47.0644 20.4317 47.0042 20.4915 46.884 20.4915C45.8979 20.4915 45.008 20.4138 44.2144 20.2582C43.4327 20.1027 42.6931 19.8515 41.9957 19.5046C41.1539 19.8874 40.2941 20.1506 39.4162 20.2941C38.5504 20.4257 37.4501 20.4915 36.1153 20.4915C35.995 20.4796 35.9349 20.4197 35.9349 20.3121V18.5894C35.9349 18.4818 35.995 18.4279 36.1153 18.4279C37.1976 18.4279 38.2678 18.3502 39.326 18.1947C38.7849 17.5487 38.3099 16.9266 37.901 16.3285C37.5042 15.7303 37.0713 14.9826 36.6023 14.0854L37.3419 12.3448C38.2197 11.9022 39.0134 11.5852 39.7229 11.3938C40.4444 11.1904 41.1539 11.0887 41.8514 11.0887C42.6571 11.0887 43.3846 11.2323 44.034 11.5194C44.6833 11.8065 45.1884 12.2073 45.5492 12.7217C45.922 13.2361 46.1083 13.8222 46.1083 14.4802C46.1083 15.1142 45.94 15.7662 45.6033 16.4361C45.2666 17.0941 44.7495 17.6922 44.052 18.2305C44.8697 18.3621 45.8137 18.4279 46.884 18.4279ZM41.4726 13.0267C40.6789 13.0267 39.7469 13.26 38.6767 13.7265C39.1457 14.6357 39.5906 15.4073 40.0115 16.0413C40.4444 16.6634 40.9495 17.2855 41.5267 17.9075C42.3083 17.5487 42.9337 17.112 43.4026 16.5976C43.8716 16.0832 44.1061 15.5927 44.1061 15.1262C44.1061 14.5041 43.8656 14.0017 43.3846 13.6189C42.9156 13.2241 42.2783 13.0267 41.4726 13.0267Z" fill="white"/>
<path d="M63.9229 18.4279C64.0431 18.4279 64.1033 18.4818 64.1033 18.5894V20.3121C64.1033 20.4317 64.0431 20.4915 63.9229 20.4915C62.9128 20.4915 62.0169 20.1386 61.2352 19.4328C60.6099 20.1267 59.6659 20.4736 58.4032 20.4736C57.4292 20.4736 56.4311 20.1506 55.4089 19.5046C54.7235 20.1506 53.7915 20.4736 52.613 20.4736C51.7352 20.4736 50.8393 20.1446 49.9254 19.4866C49.2519 20.1566 48.2538 20.4915 46.9311 20.4915C46.8108 20.4915 46.7507 20.4317 46.7507 20.3121V18.5894C46.7507 18.4818 46.8108 18.4279 46.9311 18.4279C48.2779 18.4279 48.9513 17.7281 48.9513 16.3285L48.9333 13.6727L50.8994 13.4035V16.9386C50.8994 17.3214 50.8513 17.6922 50.7551 18.0511C51.3444 18.2904 51.9035 18.41 52.4327 18.41C53.7795 18.41 54.4529 17.7102 54.4529 16.3105L54.4349 13.6548L56.401 13.3856V16.9206C56.401 17.3154 56.3529 17.6922 56.2567 18.0511C56.858 18.2904 57.4713 18.41 58.0966 18.41C58.746 18.41 59.239 18.2365 59.5757 17.8896C59.9245 17.5307 60.0988 17.0044 60.0988 16.3105V11.7706L62.0469 11.5014V16.9206C62.0469 17.2316 62.0169 17.5487 61.9567 17.8717C62.57 18.2425 63.2254 18.4279 63.9229 18.4279Z" fill="white"/>
<path d="M63.9298 20.4915C63.8095 20.4915 63.7494 20.4317 63.7494 20.3121V18.5894C63.7494 18.4818 63.8156 18.4279 63.9478 18.4279C64.6333 18.4279 65.1383 18.2545 65.463 17.9075C65.7877 17.5487 65.9501 16.9984 65.9501 16.2567L65.9681 7.66137L67.9162 7.39221V16.8309C67.9162 19.2713 66.5874 20.4915 63.9298 20.4915Z" fill="white"/>
<path d="M70.8336 7.66137L72.7997 7.39221V20.4915H70.8336V7.66137Z" fill="white"/>
<path d="M96.8096 18.4279C96.9299 18.4279 96.99 18.4818 96.99 18.5894V20.3121C96.99 20.4317 96.9299 20.4915 96.8096 20.4915H92.7511V13.906H91.4343C90.7729 13.906 90.2678 14.0854 89.9191 14.4443C89.5703 14.7912 89.396 15.3056 89.396 15.9875V19.038C89.396 20.7966 88.9931 22.1185 88.1874 23.0037C87.3817 23.9009 86.0229 24.3495 84.1108 24.3495C82.4994 24.3495 81.2488 23.9548 80.3589 23.1652C79.469 22.3757 79.0241 21.2033 79.0241 19.6481C79.0241 18.404 79.2887 16.9804 79.8178 15.3774L81.4051 15.8081C81.0083 17.0163 80.8099 18.1169 80.8099 19.1098C80.8219 20.1625 81.1165 20.9521 81.6937 21.4785C82.271 22.0168 83.0947 22.286 84.1649 22.286C84.9706 22.286 85.608 22.1723 86.077 21.945C86.558 21.7177 86.9067 21.3528 87.1232 20.8504C87.3396 20.348 87.4479 19.6661 87.4479 18.8048V15.5748C87.4479 14.4264 87.7605 13.5172 88.3858 12.8473C89.0232 12.1773 89.9311 11.8424 91.1096 11.8424H93.4726L94.7172 12.937V18.4279H96.8096ZM86.8165 28.3691L85.3194 26.9156L83.8583 28.3691L82.2529 26.79L83.8403 25.2288L85.3194 26.6644L86.7985 25.2288L88.4039 26.79L86.8165 28.3691Z" fill="white"/>
<path d="M107.406 11.3938C108.175 11.3938 108.861 11.5613 109.462 11.8962C110.075 12.2312 110.55 12.6977 110.887 13.2959C111.236 13.894 111.41 14.5759 111.41 15.3415C111.41 15.832 111.368 16.3105 111.284 16.7771C111.2 17.2436 111.044 17.9075 110.815 18.7689L109.318 20.4915H99.433H96.8175C96.6973 20.4915 96.6371 20.4317 96.6371 20.3121L96.6552 18.5894C96.6552 18.4818 96.7153 18.4279 96.8355 18.4279H98.495L98.477 11.7886L100.443 11.5194V13.4753C102.223 12.6858 103.6 12.1415 104.574 11.8424C105.56 11.5433 106.504 11.3938 107.406 11.3938ZM108.921 18.4279C109.101 17.7939 109.234 17.2616 109.318 16.8309C109.402 16.4002 109.444 15.9815 109.444 15.5748C109.432 14.9288 109.198 14.4084 108.741 14.0136C108.284 13.6069 107.694 13.4035 106.973 13.4035C106.42 13.4035 105.897 13.4514 105.404 13.5471C104.923 13.6308 104.327 13.7923 103.618 14.0316C102.908 14.2708 101.85 14.6537 100.443 15.18V18.4279H108.921ZM102.77 8.48681L104.357 6.92566L105.981 8.48681L104.393 10.0659L102.77 8.48681Z" fill="white"/>
<path d="M117.591 20.4915C114.945 20.4915 113.622 19.2713 113.622 16.8309L113.604 7.66137L115.57 7.39221V16.2567C115.57 16.9984 115.733 17.5487 116.057 17.9075C116.382 18.2545 116.887 18.4279 117.573 18.4279C117.693 18.4279 117.753 18.4818 117.753 18.5894L117.771 20.3121C117.771 20.4317 117.711 20.4915 117.591 20.4915Z" fill="white"/>
<path d="M117.586 20.4915C117.466 20.4915 117.406 20.4317 117.406 20.3121L117.424 18.5894C117.424 18.4818 117.484 18.4279 117.604 18.4279H119.029C120.364 18.4279 121.031 17.7281 121.031 16.3285V11.7886L122.979 11.5194V16.9386C122.979 18.087 122.643 18.9663 121.969 19.5764C121.308 20.1865 120.322 20.4915 119.011 20.4915H117.586ZM121.771 24.7981L120.274 23.3447L118.812 24.7981L117.207 23.2191L118.794 21.6579L120.274 23.0934L121.753 21.6579L123.358 23.2191L121.771 24.7981Z" fill="white"/>
<path d="M130.544 18.4279C130.664 18.4279 130.724 18.4818 130.724 18.5894V20.3121C130.724 20.4317 130.664 20.4915 130.544 20.4915C129.678 20.4915 129.017 20.2044 128.56 19.6302V20.025C128.56 21.5323 128.163 22.6269 127.369 23.3088C126.588 24.0026 125.391 24.3495 123.78 24.3495L123.617 22.7166C124.579 22.7166 125.319 22.4893 125.836 22.0347C126.365 21.5921 126.63 20.8983 126.63 19.9532L126.612 11.7886L128.56 11.5194V16.8668C128.632 17.4171 128.848 17.8178 129.209 18.069C129.582 18.3083 130.027 18.4279 130.544 18.4279Z" fill="white"/>
<path d="M130.568 20.4915C130.448 20.4915 130.388 20.4317 130.388 20.3121V18.5894C130.388 18.4818 130.454 18.4279 130.586 18.4279C131.272 18.4279 131.777 18.2545 132.102 17.9075C132.426 17.5487 132.589 16.9984 132.589 16.2567L132.607 7.66137L134.555 7.39221V16.8309C134.555 19.2713 133.226 20.4915 130.568 20.4915Z" fill="white"/>
<path d="M137.472 7.66137L139.438 7.39221V20.4915H137.472V7.66137Z" fill="white"/>
<path d="M157.514 18.4279C157.634 18.4279 157.694 18.4818 157.694 18.5894V20.3121C157.694 20.4317 157.634 20.4915 157.514 20.4915H153.221C152.09 20.4915 151.122 20.2343 150.316 19.7199C149.523 19.2055 148.976 18.4877 148.675 17.5666C147.917 17.7341 147.539 18.3143 147.539 19.3072V25.0673L145.591 25.3365L145.572 19.1457C145.572 16.9685 146.523 15.7542 148.423 15.503C148.471 14.7494 148.675 14.0794 149.036 13.4933C149.409 12.9071 149.908 12.4465 150.533 12.1116C151.158 11.7766 151.856 11.6091 152.625 11.6091C153.371 11.6091 154.05 11.7945 154.664 12.1654C155.289 12.5243 155.782 13.0147 156.143 13.6368C156.504 14.2469 156.684 14.9109 156.684 15.6286C156.684 16.478 156.498 17.4111 156.125 18.4279H157.514ZM154.465 18.4279C154.79 17.447 154.952 16.6096 154.952 15.9157C154.952 15.497 154.85 15.1023 154.646 14.7314C154.453 14.3606 154.183 14.0615 153.834 13.8342C153.497 13.6069 153.118 13.4933 152.698 13.4933C152 13.4933 151.435 13.7146 151.002 14.1572C150.581 14.5879 150.371 15.1561 150.371 15.8619C150.371 16.6275 150.617 17.2496 151.11 17.7281C151.603 18.1947 152.277 18.4279 153.13 18.4279H154.465Z" fill="white"/>
<path d="M164.392 18.4279C164.512 18.4279 164.572 18.4818 164.572 18.5894V20.3121C164.572 20.4317 164.512 20.4915 164.392 20.4915C163.875 20.4915 163.352 20.3779 162.822 20.1506C162.305 19.9233 161.824 19.5943 161.379 19.1636C160.67 20.0489 159.389 20.4915 157.537 20.4915C157.417 20.4915 157.357 20.4317 157.357 20.3121L157.375 18.5894C157.375 18.4818 157.435 18.4279 157.555 18.4279C158.433 18.4279 159.077 18.2664 159.485 17.9434C159.906 17.6085 160.117 17.0702 160.117 16.3285V13.6727L162.065 13.4035V16.9386C162.065 17.1778 162.047 17.4171 162.011 17.6563C162.744 18.1707 163.538 18.4279 164.392 18.4279ZM162.426 24.7981L160.928 23.3447L159.467 24.7981L157.862 23.2191L159.449 21.6579L160.928 23.0934L162.408 21.6579L164.013 23.2191L162.426 24.7981Z" fill="white"/>
<path d="M176.132 18.4279C176.253 18.4279 176.313 18.4818 176.313 18.5894V20.3121C176.313 20.4317 176.253 20.4915 176.132 20.4915C175.062 20.4915 174.112 20.0968 173.282 19.3072C172.922 19.69 172.465 19.9831 171.912 20.1865C171.37 20.3898 170.763 20.4915 170.09 20.4915H164.39C164.269 20.4915 164.209 20.4317 164.209 20.3121V18.5894C164.209 18.4818 164.269 18.4279 164.39 18.4279H170C170.709 18.4279 171.268 18.2605 171.677 17.9255C172.098 17.5786 172.308 17.106 172.308 16.5079C172.308 15.9098 172.104 15.4372 171.695 15.0903C171.286 14.7314 170.727 14.552 170.018 14.552H165.779L164.732 12.7396L170.036 6.40527L171.93 7.4281L167.041 12.7575H169.855C170.733 12.7575 171.503 12.9131 172.164 13.2241C172.837 13.5351 173.355 13.9778 173.715 14.552C174.088 15.1142 174.275 15.7722 174.275 16.5258C174.275 16.9804 174.22 17.4171 174.112 17.8358C174.75 18.2305 175.423 18.4279 176.132 18.4279Z" fill="white"/>
<path d="M187.575 18.4279C187.695 18.4279 187.756 18.4818 187.756 18.5894V20.3121C187.756 20.4317 187.695 20.4915 187.575 20.4915H186.926C186.192 20.4915 185.585 20.33 185.104 20.007C184.623 19.6721 184.292 19.2055 184.112 18.6074C182.705 19.2653 181.376 19.7438 180.125 20.0429C178.875 20.342 177.552 20.4915 176.157 20.4915C176.025 20.4915 175.959 20.4317 175.959 20.3121V18.5894C175.959 18.4818 176.025 18.4279 176.157 18.4279C177.684 18.4279 179.091 18.2844 180.378 17.9973C181.665 17.7102 182.969 17.2675 184.292 16.6694C183.294 15.8918 182.494 15.3056 181.893 14.9109C181.292 14.5041 180.775 14.223 180.342 14.0675C179.921 13.912 179.494 13.8342 179.061 13.8342C178.809 13.8342 178.538 13.8641 178.25 13.9239C177.961 13.9718 177.648 14.0316 177.312 14.1034L176.933 12.3628C177.871 12.0039 178.67 11.8244 179.332 11.8244C179.873 11.8244 180.408 11.9261 180.937 12.1295C181.478 12.3329 182.152 12.7097 182.957 13.26C183.763 13.7983 184.876 14.6237 186.294 15.7363L185.952 17.6922C185.687 17.8358 185.489 17.9375 185.357 17.9973C185.705 18.2844 186.234 18.4279 186.944 18.4279H187.575Z" fill="white"/>
<path d="M194.426 18.4279C194.546 18.4279 194.606 18.4818 194.606 18.5894V20.3121C194.606 20.4317 194.546 20.4915 194.426 20.4915C193.909 20.4915 193.386 20.3779 192.857 20.1506C192.339 19.9233 191.858 19.5943 191.413 19.1636C190.704 20.0489 189.423 20.4915 187.571 20.4915C187.451 20.4915 187.391 20.4317 187.391 20.3121L187.409 18.5894C187.409 18.4818 187.469 18.4279 187.589 18.4279C188.467 18.4279 189.111 18.2664 189.52 17.9434C189.94 17.6085 190.151 17.0702 190.151 16.3285V13.6727L192.099 13.4035V16.9386C192.099 17.1778 192.081 17.4171 192.045 17.6563C192.778 18.1707 193.572 18.4279 194.426 18.4279ZM192.532 12.3269L191.035 10.8734L189.574 12.3269L187.968 10.7478L189.556 9.18663L191.035 10.6222L192.514 9.18663L194.119 10.7478L192.532 12.3269Z" fill="white"/>
<path d="M194.424 20.4915C194.303 20.4915 194.243 20.4317 194.243 20.3121V18.5894C194.243 18.4818 194.309 18.4279 194.442 18.4279C195.127 18.4279 195.632 18.2545 195.957 17.9075C196.282 17.5487 196.444 16.9984 196.444 16.2567L196.462 7.66137L198.41 7.39221V16.8309C198.41 19.2713 197.081 20.4915 194.424 20.4915Z" fill="white"/>
<path d="M201.327 7.66137L203.294 7.39221V20.4915H201.327V7.66137Z" fill="white"/>
<path d="M215.326 18.4279C215.447 18.4279 215.507 18.4818 215.507 18.5894V20.3121C215.507 20.4317 215.447 20.4915 215.326 20.4915C214.46 20.4915 213.799 20.2044 213.342 19.6302V20.025C213.342 21.5323 212.945 22.6269 212.152 23.3088C211.37 24.0026 210.173 24.3495 208.562 24.3495L208.4 22.7166C209.362 22.7166 210.101 22.4893 210.618 22.0347C211.147 21.5921 211.412 20.8983 211.412 19.9532L211.394 11.7886L213.342 11.5194V16.8668C213.414 17.4171 213.631 17.8178 213.991 18.069C214.364 18.3083 214.809 18.4279 215.326 18.4279ZM210.781 8.82775L212.368 7.2666L213.991 8.82775L212.404 10.4068L210.781 8.82775Z" fill="white"/>
<path d="M220.816 12.7575C221.694 12.7575 222.464 12.9131 223.125 13.2241C223.798 13.5351 224.316 13.9778 224.676 14.552C225.049 15.1142 225.236 15.7722 225.236 16.5258C225.236 17.758 224.857 18.727 224.099 19.4328C223.354 20.1386 222.337 20.4915 221.051 20.4915H215.351C215.23 20.4915 215.17 20.4317 215.17 20.3121V18.5894C215.17 18.4818 215.23 18.4279 215.351 18.4279H220.96C221.67 18.4279 222.229 18.2605 222.638 17.9255C223.059 17.5786 223.269 17.106 223.269 16.5079C223.269 15.9098 223.065 15.4372 222.656 15.0903C222.247 14.7314 221.688 14.552 220.979 14.552H216.74L215.693 12.7396L220.997 6.40527L222.891 7.4281L218.002 12.7575H220.816Z" fill="white"/>
<path d="M232.343 18.4279C232.463 18.4279 232.523 18.4818 232.523 18.5894V20.3121C232.523 20.4317 232.463 20.4915 232.343 20.4915C231.477 20.4915 230.815 20.2044 230.358 19.6302V20.025C230.358 21.5323 229.962 22.6269 229.168 23.3088C228.386 24.0026 227.19 24.3495 225.578 24.3495L225.416 22.7166C226.378 22.7166 227.118 22.4893 227.635 22.0347C228.164 21.5921 228.428 20.8983 228.428 19.9532L228.41 11.7886L230.358 11.5194V16.8668C230.431 17.4171 230.647 17.8178 231.008 18.069C231.381 18.3083 231.826 18.4279 232.343 18.4279Z" fill="white"/>
<path d="M237.309 11.6091C238.103 11.6091 238.819 11.7945 239.456 12.1654C240.093 12.5243 240.592 13.0207 240.953 13.6548C241.326 14.2888 241.512 15.0006 241.512 15.7901C241.512 16.7472 241.308 17.5846 240.899 18.3023C240.49 19.0081 239.901 19.5524 239.131 19.9353C238.374 20.3061 237.472 20.4915 236.426 20.4915H232.367C232.247 20.4915 232.187 20.4317 232.187 20.3121V18.5894C232.187 18.4818 232.247 18.4279 232.367 18.4279H233.684C233.239 17.447 233.016 16.6215 233.016 15.9516C233.016 15.0903 233.197 14.3307 233.558 13.6727C233.918 13.0147 234.423 12.5063 235.073 12.1474C235.722 11.7886 236.468 11.6091 237.309 11.6091ZM236.516 18.4279C237.454 18.4279 238.193 18.2006 238.734 17.7461C239.276 17.2795 239.546 16.6395 239.546 15.826C239.546 15.1561 239.324 14.6058 238.879 14.1751C238.446 13.7325 237.899 13.5112 237.237 13.5112C236.816 13.5112 236.426 13.6189 236.065 13.8342C235.716 14.0495 235.439 14.3426 235.235 14.7135C235.031 15.0724 234.928 15.4611 234.928 15.8798C234.928 16.6933 235.181 17.5427 235.686 18.4279H236.516Z" fill="white"/>
<path d="M0 47.7613C1.15014 48.5166 2.44544 48.8943 3.88591 48.8943C4.66756 48.8943 5.32638 48.7499 5.86236 48.4611C6.39835 48.1723 6.66634 47.7002 6.66634 47.0448C6.66634 46.6671 6.54351 46.3394 6.29785 46.0617C6.06336 45.784 5.75628 45.5618 5.37662 45.3952C4.99697 45.2285 4.57264 45.073 4.10365 44.9286C3.64583 44.7842 3.18243 44.6231 2.71344 44.4454C2.25561 44.2677 1.83687 44.0677 1.45722 43.8456C1.07756 43.6123 0.764899 43.3012 0.519238 42.9125C0.284743 42.5126 0.167496 42.046 0.167496 41.5128C0.167496 40.5131 0.535987 39.7688 1.27297 39.28C2.00995 38.7913 2.93118 38.5469 4.03666 38.5469C5.42129 38.5469 6.73893 38.8857 7.98956 39.5633L7.75507 40.9463C6.60493 40.2242 5.42129 39.8632 4.20415 39.8632C2.57386 39.8632 1.75871 40.3909 1.75871 41.4462C1.75871 41.7905 1.87596 42.0904 2.11045 42.3459C2.35611 42.6014 2.66877 42.8069 3.04843 42.9624C3.42809 43.1069 3.84683 43.2513 4.30465 43.3957C4.77364 43.529 5.23704 43.6845 5.69487 43.8622C6.16386 44.04 6.58818 44.251 6.96784 44.4954C7.34749 44.7287 7.65457 45.0564 7.88906 45.4785C8.13473 45.8895 8.25756 46.3727 8.25756 46.9281C8.25756 48.039 7.84998 48.8665 7.03484 49.4108C6.23085 49.944 5.23704 50.2106 4.0534 50.2106C2.51244 50.2106 1.16131 49.8718 0 49.1942V47.7613Z" fill="#A5A5A5"/>
<path d="M18.1719 49.0609C18.4287 49.0609 18.6409 49.0221 18.8084 48.9443V50.044C18.4957 50.1551 18.1328 50.2106 17.7196 50.2106C16.67 50.2106 16.0782 49.7385 15.9442 48.7943C15.1514 49.7385 14.0961 50.2106 12.7785 50.2106C11.8964 50.2106 11.1929 49.9885 10.6681 49.5441C10.1432 49.0887 9.88083 48.5055 9.88083 47.7946C9.88083 46.8726 10.2437 46.1839 10.9696 45.7284C11.6954 45.273 12.6445 45.0453 13.817 45.0453C14.4646 45.0453 15.1625 45.0952 15.9107 45.1952V44.4621C15.9107 43.9511 15.7209 43.5345 15.3412 43.2124C14.9615 42.8791 14.3809 42.7125 13.5992 42.7125C12.5496 42.7125 11.5335 42.9458 10.5508 43.4123L10.2661 42.246C11.2264 41.7794 12.3933 41.5461 13.7667 41.5461C14.9615 41.5461 15.866 41.8183 16.4802 42.3626C17.1055 42.8958 17.4182 43.6234 17.4182 44.5454V48.1612C17.4182 48.4611 17.4684 48.6888 17.5689 48.8443C17.6806 48.9887 17.8816 49.0609 18.1719 49.0609ZM13.2475 49.0443C14.2525 49.0443 15.1402 48.611 15.9107 47.7446V46.3116C15.3189 46.2116 14.6545 46.1616 13.9175 46.1616C12.2537 46.1616 11.4218 46.6449 11.4218 47.6113C11.4218 48.0556 11.5837 48.4055 11.9075 48.661C12.2425 48.9165 12.6892 49.0443 13.2475 49.0443Z" fill="#A5A5A5"/>
<path d="M25.9099 41.7128H27.4174V50.044H26.0439L25.9267 48.7777C25.2009 49.733 24.235 50.2106 23.029 50.2106C22.0575 50.2106 21.3094 49.944 20.7846 49.4108C20.2597 48.8776 19.9973 48.1278 19.9973 47.1614V41.7627L21.5048 41.5461V47.1281C21.5048 47.739 21.6835 48.2111 22.0408 48.5444C22.3981 48.8776 22.9062 49.0443 23.565 49.0443C24.4583 49.0443 25.24 48.6444 25.9099 47.8446V41.7128Z" fill="#A5A5A5"/>
<path d="M33.4618 41.5461C34.7013 41.5461 35.6895 42.0293 36.4265 42.9958V38.097L37.9339 37.8804V50.044H36.5437L36.4265 48.761C35.6672 49.7274 34.6789 50.2106 33.4618 50.2106C32.267 50.2106 31.3067 49.8163 30.5809 49.0276C29.855 48.2389 29.4921 47.1892 29.4921 45.8784C29.4921 44.5676 29.855 43.5179 30.5809 42.7292C31.3067 41.9405 32.267 41.5461 33.4618 41.5461ZM33.847 49.0443C34.8632 49.0443 35.7174 48.6222 36.4097 47.7779V43.9622C35.7062 43.1291 34.852 42.7125 33.847 42.7125C32.9537 42.7125 32.2614 43.0069 31.7701 43.5956C31.2788 44.1733 31.0331 44.9342 31.0331 45.8784C31.0331 46.8226 31.2788 47.5891 31.7701 48.1778C32.2614 48.7555 32.9537 49.0443 33.847 49.0443Z" fill="#A5A5A5"/>
<path d="M41.2161 40.1965L40.0603 39.0801L41.2161 37.9803L42.3383 39.0801L41.2161 40.1965ZM41.9531 50.044H40.4456V41.7128H41.9531V50.044Z" fill="#A5A5A5"/>
<path d="M48.0243 47.7613C49.1744 48.5166 50.4697 48.8943 51.9102 48.8943C52.6918 48.8943 53.3506 48.7499 53.8866 48.4611C54.4226 48.1723 54.6906 47.7002 54.6906 47.0448C54.6906 46.6671 54.5678 46.3394 54.3221 46.0617C54.0876 45.784 53.7805 45.5618 53.4009 45.3952C53.0212 45.2285 52.5969 45.073 52.1279 44.9286C51.6701 44.7842 51.2067 44.6231 50.7377 44.4454C50.2799 44.2677 49.8611 44.0677 49.4815 43.8456C49.1018 43.6123 48.7892 43.3012 48.5435 42.9125C48.309 42.5126 48.1918 42.046 48.1918 41.5128C48.1918 40.5131 48.5602 39.7688 49.2972 39.28C50.0342 38.7913 50.9554 38.5469 52.0609 38.5469C53.4456 38.5469 54.7632 38.8857 56.0138 39.5633L55.7793 40.9463C54.6292 40.2242 53.4456 39.8632 52.2284 39.8632C50.5981 39.8632 49.783 40.3909 49.783 41.4462C49.783 41.7905 49.9002 42.0904 50.1347 42.3459C50.3804 42.6014 50.693 42.8069 51.0727 42.9624C51.4524 43.1069 51.8711 43.2513 52.3289 43.3957C52.7979 43.529 53.2613 43.6845 53.7191 43.8622C54.1881 44.04 54.6124 44.251 54.9921 44.4954C55.3718 44.7287 55.6788 45.0564 55.9133 45.4785C56.159 45.8895 56.2818 46.3727 56.2818 46.9281C56.2818 48.039 55.8742 48.8665 55.0591 49.4108C54.2551 49.944 53.2613 50.2106 52.0777 50.2106C50.5367 50.2106 49.1856 49.8718 48.0243 49.1942V47.7613Z" fill="#A5A5A5"/>
<path d="M62.7633 50.2106C61.5461 50.2106 60.5579 49.7274 59.7986 48.761V53.6598L58.2911 53.8764V41.7128H59.6813L59.7986 42.9958C60.5356 42.0293 61.5238 41.5461 62.7633 41.5461C63.9581 41.5461 64.9184 41.9405 65.6442 42.7292C66.37 43.5179 66.7329 44.5676 66.7329 45.8784C66.7329 47.1892 66.37 48.2389 65.6442 49.0276C64.9184 49.8163 63.9581 50.2106 62.7633 50.2106ZM62.378 42.7125C61.373 42.7125 60.5132 43.1291 59.7986 43.9622V47.7779C60.5132 48.6222 61.373 49.0443 62.378 49.0443C63.2602 49.0443 63.9469 48.7555 64.4382 48.1778C64.9407 47.5891 65.192 46.8226 65.192 45.8784C65.192 44.9342 64.9407 44.1733 64.4382 43.5956C63.9469 43.0069 63.2602 42.7125 62.378 42.7125Z" fill="#A5A5A5"/>
<path d="M72.8457 41.5461C74.2192 41.5461 75.3079 41.9627 76.1119 42.7958C76.9271 43.6178 77.3346 44.6454 77.3346 45.8784C77.3346 47.1114 76.9271 48.1445 76.1119 48.9776C75.3079 49.7996 74.2192 50.2106 72.8457 50.2106C71.4499 50.2106 70.3501 49.7996 69.5461 48.9776C68.7421 48.1445 68.3401 47.1114 68.3401 45.8784C68.3401 44.6454 68.7421 43.6178 69.5461 42.7958C70.3501 41.9627 71.4499 41.5461 72.8457 41.5461ZM72.829 49.0443C73.767 49.0443 74.4928 48.7388 75.0064 48.1278C75.5313 47.5058 75.7937 46.7559 75.7937 45.8784C75.7937 45.0119 75.5313 44.2677 75.0064 43.6456C74.4928 43.0235 73.767 42.7125 72.829 42.7125C71.891 42.7125 71.1652 43.0235 70.6515 43.6456C70.1379 44.2566 69.8811 45.0008 69.8811 45.8784C69.8811 46.7671 70.1323 47.5169 70.6348 48.1278C71.1485 48.7388 71.8799 49.0443 72.829 49.0443Z" fill="#A5A5A5"/>
<path d="M84.2826 43.0458C83.5456 43.0458 82.8756 43.2013 82.2726 43.5123C81.6808 43.8122 81.223 44.201 80.8992 44.6787V50.044H79.3917V41.7128H80.7819L80.8824 43.6123C81.1951 42.9902 81.6417 42.4903 82.2224 42.1127C82.803 41.735 83.4395 41.5461 84.1318 41.5461L84.2826 43.0458Z" fill="#A5A5A5"/>
<path d="M87.9967 38.7135V41.7128H90.9614V42.8791H87.9967V47.7279C87.9967 48.6055 88.5159 49.0443 89.5544 49.0443C90.0011 49.0443 90.4533 48.9554 90.9111 48.7777L91.1289 49.8774C90.5259 50.0996 89.8671 50.2106 89.1524 50.2106C88.2368 50.2106 87.5612 49.994 87.1257 49.5608C86.7014 49.1165 86.4892 48.5166 86.4892 47.7613V42.8791H85.1157V41.7128H86.4892V38.9968L87.9967 38.7135Z" fill="#A5A5A5"/>
<path d="M105.197 50.1607L104.058 47.3947H98.1785L97.0898 50.044H95.4818L100.239 38.7302L102.014 38.5135L106.754 49.9274L105.197 50.1607ZM98.7145 46.095H103.522L101.11 40.2465L98.7145 46.095Z" fill="#A5A5A5"/>
<path d="M113.235 43.0458C112.498 43.0458 111.828 43.2013 111.225 43.5123C110.633 43.8122 110.175 44.201 109.851 44.6787V50.044H108.344V41.7128H109.734L109.834 43.6123C110.147 42.9902 110.594 42.4903 111.174 42.1127C111.755 41.735 112.391 41.5461 113.084 41.5461L113.235 43.0458Z" fill="#A5A5A5"/>
<path d="M119.326 41.5461C120.521 41.5461 121.481 41.9405 122.207 42.7292C122.933 43.5179 123.296 44.5676 123.296 45.8784C123.296 47.1892 122.933 48.2389 122.207 49.0276C121.481 49.8163 120.521 50.2106 119.326 50.2106C118.109 50.2106 117.121 49.7274 116.361 48.761L116.244 50.044H114.854V38.097L116.361 37.8804V42.9958C117.098 42.0293 118.086 41.5461 119.326 41.5461ZM118.941 49.0443C119.823 49.0443 120.51 48.7555 121.001 48.1778C121.503 47.5891 121.755 46.8226 121.755 45.8784C121.755 44.9342 121.503 44.1733 121.001 43.5956C120.51 43.0069 119.823 42.7125 118.941 42.7125C117.936 42.7125 117.076 43.1291 116.361 43.9622V47.7779C117.076 48.6222 117.936 49.0443 118.941 49.0443Z" fill="#A5A5A5"/>
<path d="M126.125 40.1965L124.97 39.0801L126.125 37.9803L127.248 39.0801L126.125 40.1965ZM126.862 50.044H125.355V41.7128H126.862V50.044Z" fill="#A5A5A5"/>
<path d="M131.523 38.7135V41.7128H134.487V42.8791H131.523V47.7279C131.523 48.6055 132.042 49.0443 133.08 49.0443C133.527 49.0443 133.979 48.9554 134.437 48.7777L134.655 49.8774C134.052 50.0996 133.393 50.2106 132.678 50.2106C131.763 50.2106 131.087 49.994 130.652 49.5608C130.227 49.1165 130.015 48.5166 130.015 47.7613V42.8791H128.642V41.7128H130.015V38.9968L131.523 38.7135Z" fill="#A5A5A5"/>
<path d="M140.796 43.0458C140.059 43.0458 139.389 43.2013 138.786 43.5123C138.194 43.8122 137.737 44.201 137.413 44.6787V50.044H135.905V41.7128H137.295L137.396 43.6123C137.709 42.9902 138.155 42.4903 138.736 42.1127C139.317 41.735 139.953 41.5461 140.645 41.5461L140.796 43.0458Z" fill="#A5A5A5"/>
<path d="M150.173 49.0609C150.43 49.0609 150.642 49.0221 150.81 48.9443V50.044C150.497 50.1551 150.134 50.2106 149.721 50.2106C148.671 50.2106 148.079 49.7385 147.945 48.7943C147.153 49.7385 146.097 50.2106 144.78 50.2106C143.898 50.2106 143.194 49.9885 142.669 49.5441C142.145 49.0887 141.882 48.5055 141.882 47.7946C141.882 46.8726 142.245 46.1839 142.971 45.7284C143.697 45.273 144.646 45.0453 145.818 45.0453C146.466 45.0453 147.164 45.0952 147.912 45.1952V44.4621C147.912 43.9511 147.722 43.5345 147.342 43.2124C146.963 42.8791 146.382 42.7125 145.601 42.7125C144.551 42.7125 143.535 42.9458 142.552 43.4123L142.267 42.246C143.228 41.7794 144.395 41.5461 145.768 41.5461C146.963 41.5461 147.867 41.8183 148.481 42.3626C149.107 42.8958 149.419 43.6234 149.419 44.5454V48.1612C149.419 48.4611 149.47 48.6888 149.57 48.8443C149.682 48.9887 149.883 49.0609 150.173 49.0609ZM145.249 49.0443C146.254 49.0443 147.141 48.611 147.912 47.7446V46.3116C147.32 46.2116 146.656 46.1616 145.919 46.1616C144.255 46.1616 143.423 46.6449 143.423 47.6113C143.423 48.0556 143.585 48.4055 143.909 48.661C144.244 48.9165 144.69 49.0443 145.249 49.0443Z" fill="#A5A5A5"/>
<path d="M154.194 38.7135V41.7128H157.158V42.8791H154.194V47.7279C154.194 48.6055 154.713 49.0443 155.751 49.0443C156.198 49.0443 156.65 48.9554 157.108 48.7777L157.326 49.8774C156.723 50.0996 156.064 50.2106 155.349 50.2106C154.434 50.2106 153.758 49.994 153.323 49.5608C152.898 49.1165 152.686 48.5166 152.686 47.7613V42.8791H151.313V41.7128H152.686V38.9968L154.194 38.7135Z" fill="#A5A5A5"/>
<path d="M159.347 40.1965L158.191 39.0801L159.347 37.9803L160.469 39.0801L159.347 40.1965ZM160.084 50.044H158.576V41.7128H160.084V50.044Z" fill="#A5A5A5"/>
<path d="M166.653 41.5461C168.027 41.5461 169.116 41.9627 169.92 42.7958C170.735 43.6178 171.142 44.6454 171.142 45.8784C171.142 47.1114 170.735 48.1445 169.92 48.9776C169.116 49.7996 168.027 50.2106 166.653 50.2106C165.258 50.2106 164.158 49.7996 163.354 48.9776C162.55 48.1445 162.148 47.1114 162.148 45.8784C162.148 44.6454 162.55 43.6178 163.354 42.7958C164.158 41.9627 165.258 41.5461 166.653 41.5461ZM166.637 49.0443C167.575 49.0443 168.3 48.7388 168.814 48.1278C169.339 47.5058 169.601 46.7559 169.601 45.8784C169.601 45.0119 169.339 44.2677 168.814 43.6456C168.3 43.0235 167.575 42.7125 166.637 42.7125C165.699 42.7125 164.973 43.0235 164.459 43.6456C163.945 44.2566 163.689 45.0008 163.689 45.8784C163.689 46.7671 163.94 47.5169 164.442 48.1278C164.956 48.7388 165.687 49.0443 166.637 49.0443Z" fill="#A5A5A5"/>
<path d="M177.604 41.5461C178.576 41.5461 179.324 41.8127 179.849 42.3459C180.374 42.8791 180.636 43.6289 180.636 44.5954V50.044H179.129V44.6287C179.129 44.0177 178.95 43.5456 178.593 43.2124C178.235 42.8791 177.727 42.7125 177.068 42.7125C176.164 42.7125 175.377 43.1124 174.707 43.9122V50.044H173.199V41.7128H174.59L174.707 42.9791C175.41 42.0238 176.376 41.5461 177.604 41.5461Z" fill="#A5A5A5"/>
<path d="M196.382 49.1942C195.255 49.8718 193.976 50.2106 192.547 50.2106C190.816 50.2106 189.403 49.683 188.309 48.6277C187.215 47.5724 186.668 46.1561 186.668 44.3788C186.668 42.6014 187.215 41.1851 188.309 40.1298C189.415 39.0745 190.85 38.5469 192.614 38.5469C194.054 38.5469 195.333 38.8857 196.449 39.5633L196.165 40.9296C195.115 40.2187 193.931 39.8632 192.614 39.8632C191.307 39.8632 190.252 40.2687 189.448 41.0796C188.655 41.8905 188.259 42.9902 188.259 44.3788C188.259 45.7673 188.655 46.867 189.448 47.6779C190.241 48.4889 191.279 48.8943 192.564 48.8943C194.038 48.8943 195.31 48.5222 196.382 47.7779V49.1942Z" fill="#A5A5A5"/>
<path d="M206.111 45.6285C206.111 45.9617 206.106 46.195 206.095 46.3283H199.479C199.568 47.1947 199.875 47.8723 200.4 48.3611C200.936 48.8499 201.667 49.0943 202.594 49.0943C203.599 49.0943 204.554 48.8665 205.458 48.4111L205.743 49.4775C204.794 49.9663 203.711 50.2106 202.494 50.2106C201.008 50.2106 199.869 49.8274 199.077 49.0609C198.295 48.2833 197.904 47.2225 197.904 45.8784C197.904 44.5565 198.295 43.5068 199.077 42.7292C199.858 41.9405 200.908 41.5461 202.226 41.5461C202.951 41.5461 203.571 41.6572 204.085 41.8794C204.61 42.1015 205.012 42.4126 205.291 42.8125C205.581 43.2124 205.788 43.6456 205.911 44.1122C206.044 44.5676 206.111 45.073 206.111 45.6285ZM199.495 45.2285H204.604C204.593 44.4399 204.409 43.8122 204.051 43.3457C203.705 42.8791 203.08 42.6459 202.175 42.6459C201.45 42.6459 200.847 42.8736 200.366 43.329C199.886 43.7734 199.596 44.4065 199.495 45.2285Z" fill="#A5A5A5"/>
<path d="M212.592 41.5461C213.564 41.5461 214.312 41.8127 214.837 42.3459C215.361 42.8791 215.624 43.6289 215.624 44.5954V50.044H214.116V44.6287C214.116 44.0177 213.938 43.5456 213.58 43.2124C213.223 42.8791 212.715 42.7125 212.056 42.7125C211.152 42.7125 210.364 43.1124 209.694 43.9122V50.044H208.187V41.7128H209.577L209.694 42.9791C210.398 42.0238 211.364 41.5461 212.592 41.5461Z" fill="#A5A5A5"/>
<path d="M220.145 38.7135V41.7128H223.11V42.8791H220.145V47.7279C220.145 48.6055 220.664 49.0443 221.703 49.0443C222.15 49.0443 222.602 48.9554 223.06 48.7777L223.277 49.8774C222.674 50.0996 222.016 50.2106 221.301 50.2106C220.385 50.2106 219.71 49.994 219.274 49.5608C218.85 49.1165 218.638 48.5166 218.638 47.7613V42.8791H217.264V41.7128H218.638V38.9968L220.145 38.7135Z" fill="#A5A5A5"/>
<path d="M232.234 45.6285C232.234 45.9617 232.228 46.195 232.217 46.3283H225.601C225.69 47.1947 225.997 47.8723 226.522 48.3611C227.058 48.8499 227.789 49.0943 228.716 49.0943C229.721 49.0943 230.676 48.8665 231.58 48.4111L231.865 49.4775C230.916 49.9663 229.833 50.2106 228.616 50.2106C227.131 50.2106 225.992 49.8274 225.199 49.0609C224.417 48.2833 224.026 47.2225 224.026 45.8784C224.026 44.5565 224.417 43.5068 225.199 42.7292C225.98 41.9405 227.03 41.5461 228.348 41.5461C229.074 41.5461 229.693 41.6572 230.207 41.8794C230.732 42.1015 231.134 42.4126 231.413 42.8125C231.703 43.2124 231.91 43.6456 232.033 44.1122C232.167 44.5676 232.234 45.073 232.234 45.6285ZM225.618 45.2285H230.726C230.715 44.4399 230.531 43.8122 230.173 43.3457C229.827 42.8791 229.202 42.6459 228.298 42.6459C227.572 42.6459 226.969 42.8736 226.489 43.329C226.008 43.7734 225.718 44.4065 225.618 45.2285Z" fill="#A5A5A5"/>
<path d="M239.2 43.0458C238.463 43.0458 237.793 43.2013 237.19 43.5123C236.598 43.8122 236.14 44.201 235.817 44.6787V50.044H234.309V41.7128H235.699L235.8 43.6123C236.113 42.9902 236.559 42.4903 237.14 42.1127C237.721 41.735 238.357 41.5461 239.049 41.5461L239.2 43.0458Z" fill="#A5A5A5"/>
<mask id="mask0_627_841" style="mask-type:luminance" maskUnits="userSpaceOnUse" x="268" y="3" width="54" height="55">
<path d="M270.809 30.8146C270.809 25.9269 272.239 21.149 274.92 17.0849C277.6 13.0208 281.41 9.85296 285.868 7.982C290.326 6.11103 295.231 5.6209 299.964 6.57359C304.696 7.52628 309.044 9.879 312.457 13.3343C315.869 16.7896 318.194 21.1923 319.137 25.9858C320.08 30.7793 319.598 35.7483 317.753 40.2646C315.908 44.7809 312.783 48.6416 308.772 51.3588C304.761 54.0759 300.045 55.5274 295.219 55.5297C288.748 55.5266 282.543 52.9221 277.966 48.2881C273.389 43.6541 270.815 37.3696 270.809 30.8146ZM268.497 30.9785C268.497 36.3209 270.06 41.5433 272.99 45.986C275.919 50.4286 280.082 53.8921 284.954 55.9386C289.826 57.9852 295.187 58.523 300.36 57.4842C305.534 56.4454 310.287 53.8764 314.02 50.1021C317.752 46.3278 320.297 41.5174 321.331 36.2788C322.366 31.0402 321.844 25.6086 319.832 20.6703C317.82 15.7319 314.408 11.5085 310.027 8.53372C305.646 5.55894 300.493 3.96629 295.219 3.95703C288.144 3.96013 281.36 6.80765 276.356 11.8742C271.352 16.9407 268.538 23.8119 268.532 30.9785" fill="white"/>
</mask>
<g mask="url(#mask0_627_841)">
<path d="M321.877 3.96875H268.536V58H321.877V3.96875Z" fill="url(#paint0_linear_627_841)"/>
</g>
<mask id="mask1_627_841" style="mask-type:luminance" maskUnits="userSpaceOnUse" x="293" y="5" width="4" height="33">
<path d="M293.331 5.27979L295.215 37.1834L296.567 5.27979H293.331Z" fill="white"/>
</mask>
<g mask="url(#mask1_627_841)">
<path d="M296.572 5.16619L292.229 5.31982L293.331 37.2859L297.674 37.1323L296.572 5.16619Z" fill="url(#paint1_linear_627_841)"/>
</g>
<path d="M289.45 3.39494C306.129 8.6283 310.059 25.347 310.059 25.347C309.474 19.8079 307.29 14.5661 303.781 10.2767C300.272 5.98727 295.593 2.84032 290.329 1.229L289.45 3.39494Z" fill="#E83139"/>
<mask id="mask2_627_841" style="mask-type:luminance" maskUnits="userSpaceOnUse" x="294" y="0" width="40" height="54">
<path d="M294.824 3.29063L295.679 5.38631C300.105 2.98401 305.158 2.03121 310.14 2.65923C315.123 3.28724 319.791 5.46515 323.501 8.89283C327.21 12.3205 329.779 16.8292 330.854 21.7977C331.928 26.7662 331.454 31.9498 329.498 36.6343C328.068 40.1106 325.92 43.2369 323.199 45.8034C320.478 48.3699 317.247 50.3173 313.722 51.5149C313.213 52.1939 312.566 52.9081 311.745 53.7511C315.555 53.1053 319.181 51.6284 322.372 49.4225C325.563 47.2165 328.242 44.3344 330.224 40.9757C332.206 37.617 333.444 33.8619 333.851 29.9707C334.259 26.0794 333.826 22.1449 332.584 18.4398C331.341 14.7346 329.319 11.3473 326.656 8.51248C323.993 5.67766 320.753 3.46308 317.162 2.02213C313.57 0.581176 309.712 -0.0517017 305.855 0.167329C301.998 0.38636 298.234 1.45206 294.824 3.29063Z" fill="white"/>
</mask>
<g mask="url(#mask2_627_841)">
<path d="M316.209 -21.5466L268.366 26.9165L316.209 75.3796L364.053 26.9165L316.209 -21.5466Z" fill="url(#paint2_linear_627_841)"/>
</g>
<path d="M272.393 2.22417C267 4.51858 262.501 8.54743 259.593 13.6889C256.685 18.8303 255.528 24.7984 256.301 30.6721C257.074 36.5458 259.734 41.9984 263.871 46.1883C268.008 50.3783 273.391 53.0726 279.189 53.8554C278.38 53.1725 277.609 52.4455 276.878 51.6777C273.234 50.5369 269.883 48.5977 267.063 45.9976C264.242 43.3976 262.021 40.2005 260.558 36.6333C258.604 31.9501 258.132 26.7687 259.206 21.8025C260.28 16.8363 262.848 12.3295 266.556 8.9027C270.263 5.47587 274.928 3.29753 279.909 2.6676C284.889 2.03767 289.94 2.98713 294.365 5.38526L295.232 3.28957C291.743 1.40214 287.882 0.327082 283.931 0.14277C279.98 -0.0415428 276.038 0.669535 272.393 2.22417Z" fill="#E73139"/>
<path d="M309.562 35.8252C304.637 36.7323 299.829 38.2012 295.23 40.2039C296.039 40.5551 296.859 40.9298 297.692 41.3747L309.562 35.8252ZM292.745 41.3396C288.448 43.3852 284.45 46.0208 280.863 49.172L295.23 42.4752L292.745 41.3396Z" fill="#009444"/>
<path d="M280.863 35.8252L292.745 41.3396L295.218 42.5103L309.562 49.172C305.972 46.0373 301.974 43.4175 297.68 41.3864C296.848 40.9766 296.027 40.602 295.218 40.2156C290.612 38.2087 285.796 36.7359 280.863 35.8252Z" fill="#009444"/>
<mask id="mask3_627_841" style="mask-type:luminance" maskUnits="userSpaceOnUse" x="280" y="1" width="21" height="27">
<path d="M280.09 27.7827C280.09 27.7827 284.447 8.01999 300.49 3.41884L299.912 1.22949C288.296 4.53108 280.356 15.5949 280.09 27.7827Z" fill="white"/>
</mask>
<g mask="url(#mask3_627_841)">
<path d="M290.275 -9.09796L266.966 14.5127L290.275 38.1234L313.584 14.5127L290.275 -9.09796Z" fill="url(#paint3_linear_627_841)"/>
</g>
<g style="mix-blend-mode:multiply" opacity="0.4">
<path d="M317.524 2.1074C314.063 0.630846 310.333 -0.0846704 306.579 0.0081704C302.825 0.101011 299.133 1.00009 295.748 2.64595L295.135 2.95035L294.927 3.06743C293.416 2.28114 291.833 1.64591 290.2 1.17078C287.736 0.403475 285.173 0.00896187 282.595 0C275.833 0.00901806 269.327 2.62114 264.395 7.30724C259.463 11.9933 256.474 18.403 256.034 25.238C255.593 32.0729 257.733 38.8221 262.021 44.1183C266.309 49.4146 272.424 52.8619 279.127 53.762C278.076 52.7903 277.567 52.3922 276.816 51.5727C273.157 50.4396 269.79 48.5028 266.955 45.9003C264.12 43.2978 261.887 40.0937 260.415 36.5165C258.638 32.2497 258.087 27.5613 258.825 22.9912C259.563 18.4211 261.561 14.1551 264.587 10.6844C267.614 7.21366 271.547 4.67934 275.933 3.37321C280.319 2.06708 284.98 2.04225 289.379 3.30159C290.142 3.53574 290.859 3.80502 291.564 4.08601C284.832 4.94663 278.677 8.37341 274.351 13.6688C270.026 18.9643 267.855 25.7304 268.281 32.5899C268.706 39.4495 271.696 45.887 276.643 50.5921C281.589 55.2972 288.119 57.9163 294.904 57.9163C301.69 57.9163 308.22 55.2972 313.166 50.5921C318.112 45.887 321.102 39.4495 321.528 32.5899C321.954 25.7304 319.783 18.9643 315.457 13.6688C311.132 8.37341 304.976 4.94663 298.245 4.08601L298.603 3.94551L299.077 3.7699L300.001 3.4772C304.407 2.13771 309.097 2.09359 313.526 3.34997C317.955 4.60636 321.94 7.11154 325.018 10.5737C328.095 14.0359 330.138 18.3125 330.909 22.9055C331.68 27.4985 331.146 32.2188 329.371 36.5165C327.944 39.9829 325.805 43.1013 323.094 45.6633C320.383 48.2253 317.164 50.1721 313.652 51.3736C313.143 52.0644 312.496 52.7668 311.675 53.6098C317.366 52.6313 322.589 49.8079 326.56 45.5641C330.53 41.3203 333.034 35.8855 333.693 30.077C334.353 24.2684 333.133 18.3999 330.217 13.3539C327.301 8.30792 322.846 4.35718 317.524 2.09569V2.1074ZM319.5 30.6977C319.502 35.3543 318.205 39.9167 315.759 43.8593C313.312 47.8018 309.816 50.9641 305.673 52.9818C301.53 54.9995 296.908 55.7906 292.341 55.2638C287.773 54.737 283.445 52.9139 279.856 50.0044C276.267 47.0949 273.562 43.2175 272.053 38.8188C270.544 34.4202 270.293 29.6792 271.328 25.1422C272.363 20.6052 274.643 16.4567 277.904 13.1746C281.165 9.89261 285.275 7.61058 289.761 6.59147C286.767 9.21809 284.349 12.4497 282.661 16.0789C280.973 19.7081 280.053 23.6547 279.96 27.6654C279.96 27.6654 282.999 13.9439 293.298 6.70854L295.089 37.0667L296.384 6.56805C302.958 10.9468 307.764 17.5682 309.93 25.2302C309.204 17.9022 305.637 11.1652 300.013 6.4978C305.512 7.64932 310.451 10.6841 314 15.0915C317.549 19.4989 319.491 25.0101 319.5 30.6977Z" fill="url(#paint4_linear_627_841)"/>
<path d="M295.089 40.0989C290.489 38.0889 285.676 36.6197 280.746 35.7202L292.627 41.2229C288.332 43.2513 284.333 45.8713 280.746 49.0085L295.089 42.3702L309.444 49.0085C305.848 45.872 301.842 43.2522 297.54 41.2229L309.421 35.7202C304.495 36.6222 299.686 38.0913 295.089 40.0989Z" fill="url(#paint5_linear_627_841)"/>
</g>
<defs>
<linearGradient id="paint0_linear_627_841" x1="268.7" y1="32.0431" x2="321.484" y2="32.0431" gradientUnits="userSpaceOnUse">
<stop stop-color="#2B8A3A"/>
<stop offset="0.12" stop-color="#499C3B"/>
<stop offset="0.28" stop-color="#67AF3C"/>
<stop offset="0.42" stop-color="#7DBC3D"/>
<stop offset="0.57" stop-color="#8BC43E"/>
<stop offset="0.7" stop-color="#8FC73E"/>
<stop offset="1" stop-color="#00A651"/>
</linearGradient>
<linearGradient id="paint1_linear_627_841" x1="297.807" y1="40.9998" x2="296.386" y2="0.823501" gradientUnits="userSpaceOnUse">
<stop stop-color="#2B8A3A"/>
<stop offset="0.12" stop-color="#499C3B"/>
<stop offset="0.28" stop-color="#67AF3C"/>
<stop offset="0.42" stop-color="#7DBC3D"/>
<stop offset="0.57" stop-color="#8BC43E"/>
<stop offset="0.7" stop-color="#8FC73E"/>
<stop offset="1" stop-color="#00A651"/>
</linearGradient>
<linearGradient id="paint2_linear_627_841" x1="336.748" y1="6.39377" x2="269.945" y2="72.3432" gradientUnits="userSpaceOnUse">
<stop stop-color="#324B58"/>
<stop offset="1" stop-color="#917DBA"/>
</linearGradient>
<linearGradient id="paint3_linear_627_841" x1="319.684" y1="-14.3147" x2="246.269" y2="58.1625" gradientUnits="userSpaceOnUse">
<stop stop-color="#324B58"/>
<stop offset="1" stop-color="#917DBA"/>
</linearGradient>
<linearGradient id="paint4_linear_627_841" x1="255.93" y1="28.9416" x2="333.867" y2="28.9416" gradientUnits="userSpaceOnUse">
<stop stop-color="#231F20"/>
<stop offset="0.02" stop-color="#2C2829"/>
<stop offset="0.12" stop-color="#636161"/>
<stop offset="0.22" stop-color="#939191"/>
<stop offset="0.32" stop-color="#BAB9B9"/>
<stop offset="0.42" stop-color="#D8D7D8"/>
<stop offset="0.52" stop-color="#EEEDED"/>
<stop offset="0.61" stop-color="#FBFBFB"/>
<stop offset="0.7" stop-color="white"/>
<stop offset="1" stop-color="#231F20"/>
</linearGradient>
<linearGradient id="paint5_linear_627_841" x1="280.746" y1="42.3702" x2="309.444" y2="42.3702" gradientUnits="userSpaceOnUse">
<stop stop-color="#231F20"/>
<stop offset="0.02" stop-color="#2C2829"/>
<stop offset="0.12" stop-color="#636161"/>
<stop offset="0.22" stop-color="#939191"/>
<stop offset="0.32" stop-color="#BAB9B9"/>
<stop offset="0.42" stop-color="#D8D7D8"/>
<stop offset="0.52" stop-color="#EEEDED"/>
<stop offset="0.61" stop-color="#FBFBFB"/>
<stop offset="0.7" stop-color="white"/>
<stop offset="1" stop-color="#231F20"/>
</linearGradient>
</defs>
</svg>
