<svg width="535" height="396" viewBox="0 0 535 396" fill="none" xmlns="http://www.w3.org/2000/svg">
    <path opacity="0.6"
        d="M422.739 14.4092C398.971 4.31338 373.347 -0.57893 347.563 0.0558647C321.78 0.690659 296.424 6.83809 273.172 18.0916L268.964 20.1729L267.535 20.9734C257.156 15.5971 246.281 11.2539 235.066 8.00512C218.139 2.75874 200.537 0.0612763 182.828 0C136.383 0.0616605 91.6972 17.9219 57.8227 49.9629C23.9482 82.0038 3.41758 125.83 0.38971 172.564C-2.63816 219.297 12.0631 265.444 41.5154 301.657C70.9678 337.87 112.969 361.441 159.012 367.595C151.788 360.951 148.294 358.229 143.134 352.625C118.003 344.879 94.8768 331.636 75.4045 313.841C55.9321 296.046 40.5935 274.138 30.4825 249.68C18.2788 220.505 14.4943 188.449 19.5649 157.201C24.6354 125.953 38.3547 96.7848 59.1432 73.0539C79.9317 49.3231 106.944 31.9948 137.07 23.0642C167.196 14.1336 199.211 13.9638 229.429 22.5744C234.669 24.1755 239.591 26.0166 244.433 27.9379C198.195 33.8224 155.918 57.2528 126.207 93.46C96.497 129.667 81.5861 175.93 84.5097 222.832C87.4333 269.734 107.972 313.75 141.945 345.921C175.917 378.092 220.771 396 267.377 396C313.982 396 358.836 378.092 392.809 345.921C426.781 313.75 447.32 269.734 450.244 222.832C453.167 175.93 438.256 129.667 408.546 93.46C378.835 57.2528 336.558 33.8224 290.32 27.9379L292.781 26.9773L296.036 25.7765L302.387 23.7752C332.644 14.6165 364.859 14.3148 395.279 22.9053C425.7 31.4958 453.073 48.6248 474.212 72.2972C495.351 95.9696 509.384 125.211 514.678 156.615C519.971 188.02 516.307 220.294 504.112 249.68C494.316 273.381 479.618 294.703 461 312.221C442.381 329.738 420.271 343.049 396.144 351.265C392.651 355.988 388.205 360.791 382.569 366.554C421.656 359.864 457.533 340.559 484.806 311.542C512.078 282.526 529.272 245.366 533.801 205.65C538.331 165.934 529.951 125.808 509.923 91.3066C489.895 56.805 459.3 29.792 422.739 14.3292V14.4092ZM436.315 209.894C436.327 241.734 427.419 272.929 410.616 299.886C393.813 326.843 369.8 348.465 341.342 362.261C312.885 376.057 281.141 381.465 249.768 377.864C218.395 374.262 188.67 361.796 164.016 341.903C139.362 322.009 120.784 295.498 110.421 265.422C100.058 235.346 98.3318 202.93 105.442 171.908C112.552 140.887 128.209 112.522 150.608 90.081C173.008 67.6402 201.239 52.037 232.049 45.0688C211.487 63.0282 194.876 85.1244 183.282 109.939C171.689 134.753 165.369 161.738 164.728 189.161C164.728 189.161 185.607 95.341 256.342 45.8693L268.647 253.442L277.538 44.9087C322.693 74.8485 355.705 120.122 370.581 172.51C365.594 122.405 341.097 76.3415 302.466 44.4284C340.235 52.3019 374.161 73.0518 398.538 103.187C422.916 133.323 436.256 171.005 436.315 209.894Z"
        fill="url(#paint0_linear_507_7518)" fill-opacity="0.05" />
    <defs>
        <linearGradient id="paint0_linear_507_7518" x1="-0.320142" y1="197.887" x2="534.994"
            y2="197.887" gradientUnits="userSpaceOnUse">
            <stop stop-color="#231F20" />
            <stop offset="0.02" stop-color="#2C2829" />
            <stop offset="0.12" stop-color="#636161" />
            <stop offset="0.22" stop-color="#939191" />
            <stop offset="0.32" stop-color="#BAB9B9" />
            <stop offset="0.42" stop-color="#D8D7D8" />
            <stop offset="0.52" stop-color="#EEEDED" />
            <stop offset="0.61" stop-color="#FBFBFB" />
            <stop offset="0.7" stop-color="white" />
            <stop offset="1" stop-color="#231F20" />
        </linearGradient>
    </defs>
</svg>
    