<svg width="239" height="178" viewBox="0 0 239 178" fill="none" xmlns="http://www.w3.org/2000/svg">
<mask id="mask0_169_1252" style="mask-type:luminance" maskUnits="userSpaceOnUse" x="38" y="12" width="164" height="166">
<path d="M45.5084 94.3426C45.5084 79.3783 49.8887 64.7501 58.0954 52.3072C66.3022 39.8644 77.9668 30.1658 91.6147 24.4376C105.263 18.7094 120.281 17.2088 134.77 20.1256C149.26 23.0423 162.571 30.2455 173.019 40.8243C183.468 51.4032 190.585 64.8826 193.472 79.5585C196.358 94.2344 194.884 109.448 189.235 123.275C183.587 137.102 174.017 148.922 161.738 157.241C149.458 165.56 135.018 170.004 120.245 170.011C100.433 170.002 81.434 162.027 67.4212 147.84C53.4084 133.652 45.5272 114.411 45.5084 94.3426ZM38.4311 94.8444C38.4311 111.201 43.2176 127.19 52.1856 140.792C61.1537 154.393 73.9009 164.997 88.8163 171.263C103.732 177.529 120.146 179.176 135.985 175.995C151.824 172.814 166.377 164.949 177.805 153.394C189.233 141.838 197.022 127.11 200.19 111.072C203.357 95.0334 201.76 78.4037 195.6 63.2843C189.44 48.165 178.994 35.2344 165.582 26.1268C152.169 17.0191 136.393 12.143 120.245 12.1146C98.5839 12.1241 77.812 20.8422 62.4918 36.3539C47.1716 51.8657 38.556 72.9027 38.5372 94.8444" fill="white"/>
</mask>
<g mask="url(#mask0_169_1252)">
<path d="M201.861 12.1501H38.5513V177.574H201.861V12.1501Z" fill="#D6D6D6"/>
</g>
<mask id="mask1_169_1252" style="mask-type:luminance" maskUnits="userSpaceOnUse" x="114" y="16" width="11" height="98">
<path d="M114.464 16.1654L120.232 113.842L124.372 16.1654H114.464Z" fill="white"/>
</mask>
<g mask="url(#mask1_169_1252)">
<path d="M124.386 15.8182L111.089 16.2886L114.463 114.157L127.76 113.687L124.386 15.8182Z" fill="#D6D6D6"/>
</g>
<path d="M102.582 10.3944C153.645 26.417 165.677 77.6034 165.677 77.6034C163.886 60.6446 157.201 44.5964 146.458 31.4638C135.715 18.3311 121.39 8.6963 105.272 3.76306L102.582 10.3944Z" fill="#D6D6D6"/>
<mask id="mask2_169_1252" style="mask-type:luminance" maskUnits="userSpaceOnUse" x="119" y="0" width="120" height="165">
<path d="M119.034 10.0745L121.653 16.4908C135.203 9.13579 150.672 6.21869 165.928 8.14143C181.183 10.0642 195.474 16.7321 206.832 27.2264C218.19 37.7207 226.055 51.5248 229.344 66.7364C232.633 81.948 231.183 97.8184 225.195 112.161C220.815 122.804 214.24 132.375 205.909 140.233C197.578 148.091 187.684 154.053 176.892 157.719C175.335 159.798 173.353 161.985 170.841 164.566C182.506 162.589 193.607 158.067 203.376 151.313C213.145 144.559 221.348 135.735 227.417 125.452C233.485 115.169 237.274 103.673 238.522 91.7589C239.769 79.8453 238.445 67.7995 234.641 56.4556C230.837 45.1118 224.644 34.7411 216.491 26.0619C208.338 17.3827 198.42 10.6025 187.424 6.19086C176.428 1.77921 164.616 -0.158427 152.807 0.512165C140.999 1.18276 129.475 4.44555 119.034 10.0745Z" fill="white"/>
</mask>
<g mask="url(#mask2_169_1252)">
<path d="M184.509 -65.9663L38.0292 82.4098L184.509 230.786L330.989 82.4097L184.509 -65.9663Z" fill="#D6D6D6"/>
</g>
<path d="M50.3594 6.80973C33.8462 13.8344 20.0745 26.1692 11.1702 41.9104C2.26582 57.6515 -1.27617 75.9238 1.09093 93.9068C3.45802 111.89 11.6026 128.584 24.2675 141.412C36.9324 154.24 53.4135 162.489 71.1668 164.885C68.6901 162.795 66.3275 160.569 64.0895 158.218C52.9342 154.725 42.6747 148.788 34.0393 140.828C25.404 132.867 18.6044 123.079 14.1234 112.158C8.14284 97.8195 6.69742 81.956 9.98611 66.7514C13.2748 51.5467 21.1359 37.7486 32.4869 27.2569C43.838 16.7653 58.1208 10.096 73.3689 8.16735C88.6169 6.23874 104.08 9.14565 117.63 16.4878L120.284 10.0716C109.602 4.29299 97.7821 1.00156 85.6854 0.437268C73.5887 -0.127028 61.5201 2.05003 50.3594 6.80973Z" fill="#D6D6D6"/>
<path d="M164.156 109.684C149.077 112.461 134.357 116.958 120.277 123.09C122.754 124.165 125.266 125.312 127.814 126.674L164.156 109.684ZM112.669 126.567C99.513 132.83 87.2721 140.899 76.291 150.547L120.277 130.044L112.669 126.567Z" fill="#D6D6D6"/>
<path d="M76.291 109.684L112.669 126.567L120.241 130.151L164.156 150.547C153.167 140.95 140.926 132.929 127.779 126.71C125.231 125.456 122.718 124.309 120.241 123.126C106.138 116.981 91.3945 112.472 76.291 109.684Z" fill="#D6D6D6"/>
<mask id="mask3_169_1252" style="mask-type:luminance" maskUnits="userSpaceOnUse" x="73" y="3" width="64" height="83">
<path d="M73.9237 85.0602C73.9237 85.0602 87.2645 24.5542 136.381 10.4671L134.612 3.76416C99.0483 13.8724 74.7376 47.7457 73.9237 85.0602Z" fill="white"/>
</mask>
<g mask="url(#mask3_169_1252)">
<path d="M105.108 -27.8545L33.7447 44.4326L105.108 116.72L176.471 44.4326L105.108 -27.8545Z" fill="#D6D6D6"/>
</g>
<g style="mix-blend-mode:multiply" opacity="0.4">
<path d="M188.532 6.45206C177.938 1.93142 166.516 -0.259229 155.023 0.0250147C143.53 0.309259 132.228 3.06192 121.864 8.10092L119.988 9.03289L119.351 9.39134C114.724 6.98399 109.877 5.03918 104.878 3.58448C97.3329 1.23529 89.4868 0.0274379 81.5934 0C60.8907 0.02761 40.9723 8.02495 25.873 22.372C10.7736 36.7191 1.62224 56.3433 0.272588 77.2694C-1.07706 98.1955 5.47592 118.859 18.6041 135.074C31.7323 151.289 50.4542 161.844 70.9774 164.599C67.7572 161.624 66.2002 160.405 63.9001 157.896C52.698 154.427 42.3896 148.498 33.7099 140.53C25.0303 132.562 18.1932 122.752 13.6862 111.8C8.24653 98.7365 6.55964 84.3824 8.81979 70.3905C11.0799 56.3986 17.1953 43.3377 26.4616 32.7116C35.7279 22.0856 47.7686 14.3264 61.1971 10.3275C74.6257 6.32864 88.8961 6.25262 102.365 10.1082C104.701 10.8251 106.895 11.6496 109.054 12.5098C88.4431 15.1448 69.5983 25.6363 56.3551 41.8489C43.1118 58.0616 36.4654 78.7768 37.7686 99.7783C39.0717 120.78 48.2266 140.489 63.3698 154.894C78.513 169.3 98.5063 177.318 119.28 177.318C140.054 177.318 160.048 169.3 175.191 154.894C190.334 140.489 199.489 120.78 200.792 99.7783C202.095 78.7768 195.449 58.0616 182.206 41.8489C168.962 25.6363 150.118 15.1448 129.507 12.5098L130.604 12.0797L132.055 11.542L134.886 10.6459C148.373 6.54488 162.732 6.40979 176.292 10.2564C189.852 14.103 202.054 21.7729 211.476 32.3728C220.898 42.9727 227.154 56.0662 229.513 70.1282C231.873 84.1902 230.24 98.6419 224.804 111.8C220.437 122.413 213.886 131.96 205.587 139.804C197.288 147.648 187.432 153.608 176.678 157.287C175.121 159.402 173.139 161.553 170.627 164.133C188.05 161.137 204.042 152.493 216.198 139.5C228.355 126.507 236.018 109.868 238.037 92.0845C240.056 74.3007 236.321 56.3336 227.394 40.8847C218.466 25.4358 204.829 13.3401 188.532 6.41622V6.45206ZM194.583 93.9851C194.589 108.242 190.618 122.21 183.128 134.281C175.639 146.351 164.935 156.033 152.25 162.211C139.565 168.388 125.416 170.81 111.431 169.197C97.4472 167.585 84.1972 162.003 73.208 153.095C62.2188 144.187 53.9375 132.316 49.3183 118.849C44.699 105.382 43.9297 90.8667 47.0989 76.9761C50.2682 63.0854 57.247 50.3842 67.2315 40.3359C77.216 30.2875 89.7998 23.3008 103.533 20.1806C94.3679 28.2224 86.9637 38.1164 81.7959 49.2277C76.6281 60.339 73.811 72.4221 73.5253 84.7013C73.5253 84.7013 82.832 42.6912 114.362 20.5391L119.847 113.485L123.81 20.1089C143.937 33.5152 158.652 53.7874 165.283 77.2455C163.06 54.8097 152.141 34.1837 134.921 19.8939C151.756 23.4194 166.879 32.7107 177.745 46.2046C188.611 59.6985 194.557 76.5715 194.583 93.9851Z" fill="#D6D6D6"/>
<path d="M119.847 122.768C105.762 116.614 91.0278 112.116 75.9318 109.362L112.309 126.209C99.1574 132.419 86.9158 140.441 75.9318 150.046L119.847 129.722L163.797 150.046C152.786 140.443 140.521 132.422 127.349 126.209L163.726 109.362C148.644 112.123 133.922 116.621 119.847 122.768Z" fill="#D6D6D6"/>
</g>
</svg>
