<svg width="346" height="244" viewBox="0 0 346 244" fill="none" xmlns="http://www.w3.org/2000/svg">
    <path
        d="M273.539 9.29961C258.197 3.10678 241.657 0.10582 225.015 0.495205C208.372 0.884591 192.005 4.65545 176.997 11.5584L174.281 12.8351L173.358 13.3261C166.659 10.0283 159.639 7.3641 152.4 5.37131C141.474 2.15316 130.112 0.498525 118.682 0.460938C88.7028 0.49876 59.8592 11.4543 37.994 31.1084C16.1288 50.7624 2.87686 77.6455 0.922447 106.312C-1.03197 134.979 8.45732 163.286 27.4681 185.499C46.4789 207.712 73.5898 222.17 103.309 225.945C98.646 221.87 96.3913 220.2 93.0605 216.763C76.839 212.011 61.9115 203.888 49.3426 192.972C36.7737 182.057 26.873 168.619 20.3466 153.615C12.4694 135.72 10.0266 116.056 13.2995 96.8887C16.5724 77.7212 25.4279 59.8291 38.8464 45.2725C52.2649 30.7159 69.7007 20.0867 89.1464 14.6086C108.592 9.13052 129.257 9.02639 148.762 14.3082C152.144 15.2903 155.321 16.4196 158.447 17.5981C128.601 21.2077 101.312 35.58 82.1347 57.7897C62.9573 79.9994 53.3327 108.377 55.2198 137.147C57.107 165.917 70.364 192.917 92.2927 212.65C114.221 232.384 143.173 243.369 173.256 243.369C203.339 243.369 232.291 232.384 254.219 212.65C276.148 192.917 289.405 165.917 291.292 137.147C293.179 108.377 283.555 79.9994 264.377 57.7897C245.2 35.58 217.911 21.2077 188.065 17.5981L189.654 17.0089L191.755 16.2723L195.854 15.0447C215.384 9.42675 236.178 9.24169 255.814 14.5111C275.449 19.7806 293.119 30.2876 306.763 44.8083C320.408 59.3291 329.466 77.2659 332.883 96.5294C336.3 115.793 333.934 135.59 326.063 153.615C319.74 168.154 310.253 181.233 298.235 191.978C286.217 202.724 271.945 210.889 256.372 215.928C254.118 218.825 251.248 221.771 247.61 225.307C272.84 221.203 295.997 209.361 313.601 191.562C331.205 173.763 342.303 150.969 345.226 126.607C348.15 102.245 342.741 77.6322 329.814 56.4688C316.886 35.3054 297.138 18.7355 273.539 9.2505V9.29961ZM282.301 129.211C282.309 148.741 276.559 167.877 265.713 184.412C254.868 200.948 239.368 214.211 220.999 222.673C202.63 231.136 182.141 234.453 161.89 232.244C141.64 230.035 122.453 222.388 106.539 210.185C90.6259 197.983 78.6339 181.72 71.9448 163.272C65.2557 144.823 64.1417 124.939 68.731 105.91C73.3203 86.8815 83.4263 69.4822 97.8847 55.717C112.343 41.9517 130.566 32.3806 150.453 28.1063C137.181 39.1227 126.459 52.6766 118.975 67.8979C111.492 83.1193 107.412 99.6718 106.999 116.493C106.999 116.493 120.476 58.9435 166.133 28.5974L174.076 155.923L179.815 28.0081C208.961 46.3733 230.27 74.1442 239.872 106.279C236.653 75.5447 220.841 47.2891 195.905 27.7135C220.284 32.5431 242.183 45.2712 257.918 63.7565C273.653 82.2418 282.263 105.356 282.301 129.211Z"
        fill="#D6D6D6" />
    <path
        d="M174.076 168.638C153.681 160.208 132.344 154.046 110.483 150.273L163.161 173.352C144.116 181.86 126.389 192.848 110.483 206.006L174.076 178.164L237.72 206.006C221.774 192.851 204.014 181.863 184.94 173.352L237.617 150.273C215.776 154.056 194.458 160.218 174.076 168.638Z"
        fill="#D6D6D6" />
</svg>
    