<svg width="199" height="306" viewBox="0 0 199 306" fill="none" xmlns="http://www.w3.org/2000/svg">
    <path d="M326.339 11.1344C307.99 3.33307 288.21 -0.447355 268.306 0.0431682C248.402 0.533691 228.828 5.28398 210.879 13.9798L207.63 15.5882L206.527 16.2067C198.515 12.0523 190.12 8.69616 181.462 6.18577C168.395 2.13175 154.807 0.0473499 141.137 0C105.283 0.0476468 70.7868 13.8487 44.6369 38.6077C18.4871 63.3666 2.63824 97.2322 0.300842 133.345C-2.03656 169.457 9.31225 205.116 32.0484 233.099C54.7845 261.081 87.2081 279.295 122.751 284.051C117.174 278.917 114.478 276.813 110.494 272.483C91.094 266.497 73.2413 256.264 58.2094 242.513C43.1775 228.763 31.3367 211.834 23.5313 192.934C14.1105 170.391 11.1891 145.62 15.1033 121.474C19.0176 97.3276 29.6084 74.7883 45.6564 56.4508C61.7043 38.1133 82.5569 24.7232 105.813 17.8223C129.069 10.9214 153.784 10.7902 177.111 17.4439C181.155 18.681 184.955 20.1038 188.693 21.5884C152.999 26.1355 120.363 44.2408 97.4275 72.2191C74.4921 100.197 62.9814 135.946 65.2383 172.188C67.4953 208.431 83.3502 242.443 109.576 267.303C135.802 292.162 170.427 306 206.405 306C242.382 306 277.008 292.162 303.234 267.303C329.459 242.443 345.314 208.431 347.571 172.188C349.828 135.946 338.317 100.197 315.382 72.2191C292.447 44.2408 259.81 26.1355 224.116 21.5884L226.016 20.8461L228.529 19.9182L233.431 18.3717C256.789 11.2946 281.657 11.0614 305.141 17.6995C328.624 24.3376 349.756 37.5737 366.074 55.866C382.392 74.1583 393.226 96.754 397.312 121.021C401.398 145.288 398.57 170.227 389.156 192.934C381.594 211.249 370.247 227.725 355.874 241.261C341.502 254.798 324.433 265.084 305.809 271.432C303.112 275.081 299.68 278.793 295.329 283.247C325.503 278.077 353.199 263.159 374.252 240.737C395.305 218.315 408.578 189.601 412.075 158.911C415.571 128.221 409.103 97.2155 393.642 70.5551C378.18 43.8948 354.563 23.0211 326.339 11.0725V11.1344ZM336.819 162.191C336.828 186.794 329.951 210.899 316.98 231.73C304.009 252.56 285.472 269.268 263.504 279.929C241.535 290.589 217.03 294.769 192.812 291.985C168.593 289.202 145.646 279.57 126.614 264.198C107.583 248.825 93.2406 228.339 85.2407 205.099C77.2408 181.858 75.9085 156.81 81.3971 132.838C86.8858 108.867 98.9722 86.9486 116.264 69.608C133.555 52.2674 155.349 40.2104 179.133 34.8259C163.26 48.7036 150.437 65.7779 141.487 84.9528C132.537 104.128 127.659 124.979 127.164 146.17C127.164 146.17 143.282 73.6726 197.886 35.4445L207.385 195.842L214.249 34.7022C249.107 57.8374 274.591 92.8214 286.075 133.303C282.225 94.5857 263.314 58.9912 233.493 34.331C262.648 40.4151 288.838 56.4491 307.657 79.7357C326.475 103.022 336.773 132.14 336.819 162.191Z" fill="url(#paint0_linear_507_7588)" fill-opacity="0.1"/>
    <defs>
    <linearGradient id="paint0_linear_507_7588" x1="-0.247138" y1="152.912" x2="412.995" y2="152.912" gradientUnits="userSpaceOnUse">
    <stop stop-color="#231F20"/>
    <stop offset="0.02" stop-color="#2C2829"/>
    <stop offset="0.12" stop-color="#636161"/>
    <stop offset="0.22" stop-color="#939191"/>
    <stop offset="0.32" stop-color="#BAB9B9"/>
    <stop offset="0.42" stop-color="#D8D7D8"/>
    <stop offset="0.52" stop-color="#EEEDED"/>
    <stop offset="0.61" stop-color="#FBFBFB"/>
    <stop offset="0.7" stop-color="white"/>
    <stop offset="1" stop-color="#231F20"/>
    </linearGradient>
    </defs>
    </svg>
    