<svg width="206" height="269" viewBox="0 0 206 269" fill="none" xmlns="http://www.w3.org/2000/svg">
<path d="M130.04 9.78808C113.958 2.93005 96.6199 -0.393263 79.1738 0.0379485C61.7277 0.46916 44.5708 4.64507 28.8379 12.2895L25.9908 13.7033L25.024 14.2471C18.0007 10.595 10.6425 7.64466 3.05376 5.43782C-8.39952 1.87399 -20.3098 0.0416246 -32.2919 0C-63.7184 0.0418856 -93.9544 12.1742 -116.875 33.9394C-139.796 55.7046 -153.688 85.4754 -155.736 117.221C-157.785 148.967 -147.838 180.314 -127.909 204.913C-107.981 229.512 -79.561 245.524 -48.407 249.705C-53.2952 245.191 -55.6587 243.342 -59.1503 239.536C-76.1549 234.274 -91.803 225.278 -104.979 213.19C-118.154 201.102 -128.533 186.22 -135.374 169.606C-143.632 149.788 -146.193 128.012 -142.762 106.786C-139.331 85.5592 -130.048 65.7452 -115.982 49.625C-101.915 33.5048 -83.6378 21.7338 -63.2534 15.6673C-42.8689 9.60083 -21.2065 9.48552 -0.760132 15.3347C2.78519 16.4222 6.11563 17.6729 9.39235 18.978C-21.8942 22.9753 -50.5004 38.8914 -70.6035 63.4867C-90.7067 88.0821 -100.796 119.508 -98.8177 151.368C-96.8395 183.228 -82.9425 213.128 -59.9552 234.982C-36.968 256.835 -6.61826 269 24.9165 269C56.4513 269 86.801 256.835 109.788 234.982C132.775 213.128 146.673 183.228 148.651 151.368C150.629 119.508 140.54 88.0821 120.437 63.4867C100.333 38.8914 71.7273 22.9753 40.4407 18.978L42.1059 18.3255L44.3083 17.5098L48.6057 16.1503C69.0786 9.92888 90.8763 9.72394 111.46 15.5594C132.043 21.3948 150.566 33.0305 164.869 49.111C179.172 65.1915 188.667 85.0549 192.249 106.388C195.831 127.72 193.352 149.644 185.1 169.606C178.472 185.706 168.527 200.189 155.929 212.089C143.331 223.989 128.37 233.031 112.045 238.612C109.682 241.82 106.674 245.083 102.86 248.998C129.308 244.453 153.583 231.339 172.037 211.628C190.49 191.918 202.124 166.675 205.189 139.696C208.254 112.718 202.584 85.4607 189.032 62.024C175.48 38.5872 154.779 20.2375 130.04 9.7337V9.78808ZM139.226 142.58C139.234 164.208 133.207 185.399 121.837 203.71C110.468 222.022 94.2197 236.71 74.9644 246.081C55.709 255.453 34.23 259.127 13.002 256.68C-8.22604 254.233 -28.3394 245.766 -45.0209 232.252C-61.7024 218.739 -74.2733 200.729 -81.2854 180.299C-88.2974 159.869 -89.4652 137.849 -84.6543 116.776C-79.8434 95.7034 -69.2496 76.4352 -54.0932 61.1914C-38.9369 45.9475 -19.8347 35.3484 1.01253 30.6149C-12.9004 42.8146 -24.14 57.8244 -31.9846 74.6807C-39.8292 91.5371 -44.1056 109.868 -44.5393 128.496C-44.5393 128.496 -30.4118 64.7644 17.4499 31.1587L25.776 172.161L31.7923 30.5062C62.3457 50.844 84.6827 81.5979 94.7484 117.185C91.3739 83.1489 74.7984 51.8583 48.6594 30.1799C74.2148 35.5283 97.1708 49.6236 113.665 70.0945C130.16 90.5653 139.186 116.163 139.226 142.58Z" fill="url(#paint0_linear_44_2841)" fill-opacity="0.2"/>
<defs>
<linearGradient id="paint0_linear_44_2841" x1="-156.217" y1="134.423" x2="205.996" y2="134.423" gradientUnits="userSpaceOnUse">
<stop stop-color="#231F20"/>
<stop offset="0.02" stop-color="#2C2829"/>
<stop offset="0.12" stop-color="#636161"/>
<stop offset="0.22" stop-color="#939191"/>
<stop offset="0.32" stop-color="#BAB9B9"/>
<stop offset="0.42" stop-color="#D8D7D8"/>
<stop offset="0.52" stop-color="#EEEDED"/>
<stop offset="0.61" stop-color="#FBFBFB"/>
<stop offset="0.7" stop-color="white"/>
<stop offset="1" stop-color="#231F20"/>
</linearGradient>
</defs>
</svg>
