<svg width="139" height="104" viewBox="0 0 139 104" fill="none" xmlns="http://www.w3.org/2000/svg">
    <mask id="mask0_1_2" style="mask-type:luminance" maskUnits="userSpaceOnUse" x="22" y="7"
        width="96" height="97">
        <path
            d="M26.4007 55.612C26.4007 46.9121 28.9473 38.4076 33.7185 31.1736C38.4897 23.9397 45.2713 18.3011 53.2058 14.9709C61.1403 11.6407 69.8715 10.7683 78.2954 12.464C86.7194 14.1597 94.4578 18.3475 100.532 24.4977C106.607 30.648 110.745 38.4846 112.423 47.0168C114.101 55.549 113.244 64.3936 109.96 72.4324C106.676 80.4712 101.113 87.3432 93.9734 92.1796C86.8342 97.016 78.4396 99.5996 69.8509 99.6037C58.3324 99.5982 47.287 94.9622 39.1403 86.714C30.9936 78.4657 26.4116 67.2795 26.4007 55.612ZM22.2861 55.9037C22.2861 65.4128 25.0689 74.7086 30.2827 82.6163C35.4965 90.524 42.9074 96.6888 51.5789 100.332C60.2504 103.974 69.7933 104.932 79.0017 103.083C88.2102 101.234 96.6709 96.661 103.315 89.9428C109.958 83.2247 114.487 74.6624 116.329 65.338C118.17 56.0136 117.241 46.3455 113.66 37.5554C110.079 28.7654 104.006 21.2479 96.2083 15.9529C88.4107 10.658 79.2385 7.82312 69.8509 7.80664C57.2575 7.81216 45.1812 12.8806 36.2745 21.8988C27.3677 30.9169 22.3588 43.1473 22.3479 55.9037"
            fill="white" />
    </mask>
    <g mask="url(#mask0_1_2)">
        <path d="M117.301 7.82617H22.3564V103.999H117.301V7.82617Z" fill="#D6D6D6" />
    </g>
    <mask id="mask1_1_2" style="mask-type:luminance" maskUnits="userSpaceOnUse" x="66" y="10"
        width="7" height="57">
        <path d="M66.4893 10.1602L69.8427 66.9472L72.2497 10.1602H66.4893Z" fill="white" />
    </mask>
    <g mask="url(#mask1_1_2)">
        <path d="M72.2571 9.95701L64.5264 10.2305L66.4879 67.1287L74.2186 66.8553L72.2571 9.95701Z"
            fill="#D6D6D6" />
    </g>
    <path
        d="M59.582 6.80644C89.2689 16.1216 96.2637 45.8801 96.2637 45.8801C95.2225 36.0207 91.3362 26.6907 85.0903 19.0557C78.8445 11.4207 70.5161 5.81924 61.1456 2.95117L59.582 6.80644Z"
        fill="#D6D6D6" />
    <mask id="mask2_1_2" style="mask-type:luminance" maskUnits="userSpaceOnUse" x="69" y="0"
        width="70" height="97">
        <path
            d="M69.1465 6.61905L70.6689 10.3493C78.5467 6.07328 87.5398 4.37735 96.409 5.49519C105.278 6.61302 113.587 10.4896 120.19 16.5907C126.793 22.6918 131.366 30.7172 133.278 39.5608C135.19 48.4045 134.347 57.6311 130.865 65.9693C128.319 72.157 124.497 77.7217 119.653 82.2899C114.81 86.8582 109.058 90.3244 102.783 92.456C101.878 93.6647 100.726 94.9359 99.2653 96.4363C106.047 95.287 112.501 92.6581 118.181 88.7316C123.86 84.8052 128.629 79.6751 132.157 73.6968C135.685 67.7184 137.888 61.0346 138.613 54.1083C139.339 47.1821 138.569 40.1789 136.357 33.5839C134.146 26.9888 130.545 20.9596 125.805 15.9137C121.066 10.8679 115.299 6.926 108.907 4.36117C102.514 1.79635 95.6466 0.669854 88.7813 1.05972C81.916 1.44958 75.2163 3.34649 69.1465 6.61905Z"
            fill="white" />
    </mask>
    <g mask="url(#mask2_1_2)">
        <path
            d="M107.213 -37.5903L22.0527 48.6719L107.213 134.934L192.372 48.6718L107.213 -37.5903Z"
            fill="#D6D6D6" />
    </g>
    <path
        d="M29.2207 4.72039C19.6203 8.80433 11.6138 15.9755 6.437 25.127C1.26023 34.2785 -0.798991 44.9016 0.577179 55.3565C1.95335 65.8113 6.6884 75.5167 14.0515 82.9746C21.4145 90.4325 30.9962 95.2283 41.3176 96.6216C39.8777 95.4061 38.5041 94.1121 37.203 92.7455C30.7176 90.715 24.753 87.2632 19.7326 82.6352C14.7122 78.0072 10.7591 72.3165 8.15391 65.967C4.67699 57.6312 3.83665 48.4086 5.74862 39.569C7.66058 30.7293 12.2308 22.7075 18.83 16.6079C25.4293 10.5083 33.733 6.63092 42.5978 5.50967C51.4626 4.38842 60.4526 6.07843 68.3299 10.347L69.8729 6.61676C63.6629 3.25721 56.791 1.34366 49.7583 1.01559C42.7256 0.687526 35.7092 1.95321 29.2207 4.72039Z"
        fill="#D6D6D6" />
    <path
        d="M95.3796 64.5312C86.613 66.1458 78.055 68.7604 69.8691 72.3251C71.3092 72.9503 72.7699 73.6172 74.2511 74.4091L95.3796 64.5312ZM65.4459 74.3466C57.7976 77.9878 50.681 82.679 44.2969 88.288L69.8691 76.368L65.4459 74.3466Z"
        fill="#D6D6D6" />
    <path
        d="M44.2969 64.5312L65.4459 74.3466L69.8485 76.4305L95.3796 88.288C88.9905 82.7084 81.8741 78.0453 74.2306 74.4299C72.7493 73.7005 71.2886 73.0337 69.8485 72.346C61.6493 68.7738 53.0777 66.1523 44.2969 64.5312Z"
        fill="#D6D6D6" />
    <mask id="mask3_1_2" style="mask-type:luminance" maskUnits="userSpaceOnUse" x="42" y="2"
        width="38" height="49">
        <path
            d="M42.9189 50.2127C42.9189 50.2127 50.675 15.036 79.2303 6.84617L78.2016 2.94922C57.5258 8.8259 43.3921 28.519 42.9189 50.2127Z"
            fill="white" />
    </mask>
    <g mask="url(#mask3_1_2)">
        <path
            d="M61.0494 -15.4341L19.5605 26.5918L61.0494 68.6177L102.538 26.5918L61.0494 -15.4341Z"
            fill="#D6D6D6" />
    </g>
    <g style="mix-blend-mode:multiply" opacity="0.4">
        <path
            d="M109.55 4.51279C103.391 1.8846 96.7508 0.611009 90.0691 0.776262C83.3874 0.941514 76.8165 2.54184 70.791 5.4714L69.7006 6.01322L69.3303 6.22161C66.6405 4.82204 63.8223 3.69137 60.9159 2.84565C56.5295 1.47989 51.9679 0.77767 47.3789 0.761719C35.3429 0.77777 23.7628 5.42723 14.9844 13.7683C6.20603 22.1093 0.885645 33.5183 0.100991 45.6842C-0.683663 57.8501 3.12608 69.8633 10.7585 79.2904C18.3909 88.7174 29.2754 94.8535 41.207 96.4557C39.3349 94.726 38.4297 94.0175 37.0924 92.5587C30.5798 90.542 24.5868 87.0946 19.5406 82.4622C14.4945 77.8298 10.5196 72.1266 7.89936 65.7594C4.73684 58.1647 3.75613 49.8196 5.07012 41.685C6.38412 33.5504 9.93941 25.9572 15.3266 19.7794C20.7139 13.6017 27.714 9.09073 35.521 6.76588C43.328 4.44103 51.6245 4.39684 59.4553 6.6384C60.8131 7.05518 62.0886 7.53448 63.3436 8.03463C51.3611 9.56651 40.4053 15.666 32.706 25.0916C25.0066 34.5173 21.1426 46.5606 21.9002 58.7703C22.6579 70.9801 27.9803 82.4385 36.7842 90.8134C45.588 99.1883 57.2117 103.85 69.2892 103.85C81.3667 103.85 92.9903 99.1883 101.794 90.8134C110.598 82.4385 115.92 70.9801 116.678 58.7703C117.436 46.5606 113.572 34.5173 105.872 25.0916C98.173 15.666 87.2172 9.56651 75.2347 8.03463L75.8725 7.78456L76.716 7.47197L78.3618 6.95098C86.2028 4.56675 94.5511 4.48821 102.434 6.72452C110.318 8.96083 117.411 13.4199 122.889 19.5824C128.367 25.745 132.004 33.3572 133.376 41.5325C134.748 49.7078 133.798 58.1097 130.638 65.7594C128.099 71.9295 124.29 77.48 119.465 82.0403C114.641 86.6007 108.911 90.0658 102.659 92.2045C101.753 93.434 100.601 94.6843 99.1406 96.1848C109.27 94.4431 118.567 89.4175 125.635 81.8638C132.702 74.31 137.158 64.6364 138.332 54.2973C139.505 43.9583 137.334 33.5127 132.144 24.5311C126.953 15.5495 119.025 8.5173 109.55 4.49195V4.51279ZM113.068 55.4023C113.072 63.6909 110.763 71.8117 106.409 78.8293C102.054 85.8468 95.8316 91.4756 88.457 95.067C81.0824 98.6584 72.8561 100.066 64.726 99.1288C56.5959 98.1912 48.8927 94.9461 42.5038 89.7673C36.115 84.5886 31.3005 77.6869 28.6149 69.8575C25.9294 62.0281 25.4821 53.5894 27.3247 45.5137C29.1672 37.438 33.2245 30.0539 39.0292 24.212C44.834 18.3701 52.1499 14.3082 60.1342 12.4942C54.8056 17.1695 50.501 22.9217 47.4966 29.3815C44.4922 35.8413 42.8544 42.8661 42.6883 50.0049C42.6883 50.0049 48.099 25.5813 66.4295 12.7026L69.6183 66.7389L71.9225 12.4526C83.6241 20.2466 92.179 32.0324 96.034 45.6704C94.7416 32.6267 88.3934 20.6353 78.3824 12.3275C88.1699 14.3772 96.9618 19.7789 103.279 27.6239C109.596 35.4689 113.053 45.2785 113.068 55.4023Z"
            fill="#D6D6D6" />
        <path
            d="M69.619 72.1357C61.4306 68.5579 52.8643 65.9429 44.0879 64.3418L65.2369 74.1363C57.5907 77.7468 50.4737 82.4102 44.0879 87.9944L69.619 76.1785L95.1706 87.9944C88.7688 82.4115 81.6384 77.7483 73.9804 74.1363L95.1295 64.3418C86.3607 65.9472 77.8017 68.5622 69.619 72.1357Z"
            fill="#D6D6D6" />
    </g>
</svg>
    