<svg width="1512" height="1164" viewBox="0 0 1512 1164" fill="none" xmlns="http://www.w3.org/2000/svg">
<path d="M1512 8.10938H0V1164H1512V8.10938Z" fill="#00415D" fill-opacity="0.02"/>
<path d="M400.076 368.421H240.56C233.781 368.163 227.227 365.686 221.74 361.308C216.253 356.929 212.083 350.85 209.765 343.851L161.281 180.435C159.264 173.528 159.797 166.028 162.766 159.549C165.736 153.07 170.903 148.13 177.157 145.793L303.157 99.1421C307.244 97.71 311.517 97.0184 315.807 97.0945C325.341 96.9496 334.703 99.8947 342.721 105.561L495.382 224.706C498.038 226.755 500.281 229.382 501.972 232.424C503.663 235.467 504.765 238.859 505.209 242.389C505.654 245.92 505.431 249.513 504.556 252.944C503.68 256.376 502.17 259.573 500.12 262.336L436.364 349.329C431.777 355.003 426.204 359.614 419.973 362.893C413.742 366.171 406.977 368.051 400.076 368.421ZM315.857 107.996C312.648 107.962 309.453 108.466 306.382 109.49L180.382 156.141C176.593 157.531 173.459 160.512 171.664 164.431C169.87 168.351 169.562 172.891 170.806 177.059L219.19 340.475C220.866 345.272 223.771 349.434 227.554 352.459C231.337 355.483 235.837 357.241 240.509 357.519H400.076C410.928 356.727 421.079 351.352 428.401 342.522L492.358 255.474C493.601 253.867 494.521 251.99 495.058 249.966C495.596 247.941 495.738 245.815 495.477 243.727C495.215 241.638 494.555 239.633 493.54 237.843C492.525 236.053 491.178 234.518 489.586 233.339L337.025 114.471C330.679 110.133 323.332 107.886 315.857 107.996Z" fill="white"/>
<path d="M433.944 392.437C432.869 385.792 433.01 378.978 434.36 372.394C435.71 365.809 438.241 359.586 441.806 354.088L506.873 265.545C510.692 260.817 515.661 257.383 521.197 255.648C526.732 253.913 532.603 253.948 538.121 255.751L679.543 310.425C684.883 312.813 689.489 316.827 692.82 321.994C696.151 327.161 698.067 333.266 698.342 339.589V508.372C698.176 514.414 696.137 520.213 692.563 524.811C688.99 529.409 684.095 532.532 678.686 533.662L491.803 566.312C486.474 567.137 481.054 565.776 476.581 562.488C472.109 559.201 468.897 554.218 467.561 548.493L433.944 392.437Z" fill="white"/>
<path d="M693.353 764.923C688.326 762.114 684.216 757.663 681.589 752.182C678.962 746.701 677.948 740.461 678.687 734.321L705.6 564.541C706.605 558.741 709.542 553.561 713.838 550.01C718.134 546.46 723.481 544.794 728.835 545.338L838.908 558.288C851.533 560.513 863.308 566.679 872.828 576.052L945.857 655.573C949.78 660.332 952.482 666.149 953.686 672.43C954.89 678.711 954.554 685.231 952.712 691.322L897.927 843.726C896.989 846.317 895.581 848.672 893.787 850.646C891.993 852.62 889.852 854.172 887.494 855.208C885.136 856.244 882.61 856.741 880.072 856.67C877.533 856.598 875.034 855.96 872.727 854.793L693.353 764.923Z" fill="white"/>
<path d="M547.092 864.645C545.603 862.407 544.573 859.842 544.073 857.126C543.572 854.41 543.613 851.607 544.193 848.91C544.772 846.212 545.876 843.685 547.429 841.501C548.983 839.316 550.948 837.527 553.19 836.256L651.319 777.32C656.859 774.433 662.877 772.821 669.005 772.584C675.133 772.346 681.241 773.487 686.952 775.936L865.62 865.862C867.839 866.693 869.819 868.153 871.36 870.094C872.9 872.035 873.945 874.389 874.39 876.917C874.835 879.445 874.664 882.057 873.894 884.488C873.124 886.92 871.782 889.085 870.005 890.765L804.787 965.472C795.538 975.01 783.728 981.008 771.12 982.572L647.741 990.54C641.72 990.556 635.774 989.069 630.352 986.193C624.93 983.317 620.174 979.127 616.442 973.939L547.092 864.645Z" fill="white"/>
<path d="M215.057 793.921C211.904 788.879 210.332 782.847 210.578 776.737C210.823 770.627 212.873 764.771 216.418 760.054L271.858 691.378C280.874 680.954 291.506 672.372 303.257 666.033L441.202 597.634C451.282 592.709 457.632 598.298 455.515 610.085L426.989 768.908C423.85 782.388 416.768 794.364 406.829 802.996L300.989 885.175C296.633 888.511 291.267 889.863 286.022 888.944C280.777 888.025 276.061 884.909 272.866 880.25L215.057 793.921Z" fill="white"/>
<path d="M-46.9723 1038.52C-50.213 1033.15 -52.1058 1026.93 -52.4598 1020.5C-52.8137 1014.07 -51.6163 1007.65 -48.9883 1001.88L1.96609 903.215C8.84953 891.231 18.3637 881.336 29.6357 874.439L175.896 793.921C180.911 791.369 186.562 790.745 191.938 792.15C197.314 793.556 202.103 796.909 205.532 801.668L263.844 887.997C266.969 892.81 268.363 898.722 267.758 904.596C267.154 910.47 264.593 915.891 260.568 919.817L38.4557 1128.5C36.5333 1130.35 34.2806 1131.73 31.842 1132.57C29.4033 1133.41 26.8325 1133.67 24.2941 1133.36C21.7557 1133.04 19.3057 1132.14 17.1011 1130.72C14.8965 1129.31 12.9859 1127.4 11.4917 1125.12L-46.9723 1038.52Z" fill="white"/>
<path d="M306.332 923.746C304.584 921.771 303.252 919.398 302.431 916.796C301.609 914.194 301.318 911.426 301.577 908.687C301.837 905.948 302.641 903.304 303.933 900.944C305.224 898.583 306.972 896.563 309.053 895.025L413.28 814.175C418.353 810.678 424.107 808.55 430.072 807.963C436.038 807.376 442.045 808.348 447.603 810.799L505.21 840.405C516.73 846.962 526.783 856.242 534.644 867.577L602.885 975.211C609.135 985.061 605.355 993.915 594.418 994.912L402.344 1012.01C396.199 1012.17 390.088 1010.98 384.361 1008.53C378.635 1006.08 373.407 1002.41 368.979 997.734L306.332 923.746Z" fill="white"/>
<path d="M1016.82 971.007C1008.64 971.184 1000.65 968.273 994.19 962.761L913.198 889.105C908.124 884.157 904.511 877.658 902.823 870.441C901.135 863.224 901.448 855.617 903.722 848.597L959.465 693.648C962.298 686.774 966.476 680.671 971.703 675.774C976.93 670.876 983.077 667.305 989.705 665.315L1118.07 634.436C1119.98 633.857 1121.94 633.522 1123.92 633.439C1129.66 633.449 1135.26 635.354 1140 638.908C1144.73 642.461 1148.39 647.497 1150.48 653.361L1210.71 831.94C1212.86 838.88 1212.75 846.427 1210.39 853.285C1208.02 860.142 1203.56 865.881 1197.76 869.515L1032.85 966.69C1027.92 969.584 1022.41 971.069 1016.82 971.007ZM1123.92 644.507C1122.78 644.493 1121.65 644.623 1120.54 644.895L992.175 675.774C987.117 677.362 982.427 680.119 978.42 683.861C974.413 687.602 971.181 692.241 968.94 697.467L913.198 852.415C911.725 857.294 911.565 862.535 912.736 867.511C913.907 872.488 916.359 876.988 919.8 880.472L1000.54 954.405C1005.25 958.197 1010.98 960.145 1016.82 959.939C1020.66 960.023 1024.46 959.093 1027.91 957.227L1192.82 860.052C1196.5 857.673 1199.33 853.984 1200.84 849.596C1202.36 845.208 1202.46 840.385 1201.13 835.924L1140.9 657.235C1139.51 653.527 1137.16 650.348 1134.14 648.086C1131.13 645.825 1127.57 644.581 1123.92 644.507Z" fill="white"/>
<path d="M1186.26 231.623C1180.36 231.715 1174.53 230.214 1169.28 227.251L1059.46 162.45C1053.6 158.657 1048.87 153.087 1045.83 146.411C1042.79 139.736 1041.57 132.238 1042.32 124.819L1060.47 -6.55518C1061.77 -13.9144 1064.84 -20.7577 1069.36 -26.38C1073.88 -32.0023 1079.68 -36.2001 1086.17 -38.541L1229.81 -82.8121C1232.24 -83.547 1234.75 -83.9193 1237.27 -83.9189C1242.72 -83.9294 1248.08 -82.4095 1252.84 -79.5038C1257.61 -76.598 1261.61 -72.4029 1264.49 -67.3172L1343.97 86.6908C1347.11 93.1172 1348.04 100.576 1346.58 107.694C1345.12 114.811 1341.36 121.109 1336 125.428L1208.14 224.706C1201.64 229.351 1194.02 231.76 1186.26 231.623ZM1237.27 -72.7404C1235.57 -72.7731 1233.87 -72.5496 1232.23 -72.0764L1088.64 -27.8053C1084 -26.0308 1079.85 -22.9766 1076.59 -18.9356C1073.34 -14.8947 1071.08 -10.0027 1070.04 -4.729L1051.95 126.701C1051.49 131.886 1052.37 137.109 1054.49 141.769C1056.61 146.429 1059.89 150.337 1063.94 153.042L1173.82 217.623C1177.68 219.738 1181.95 220.784 1186.26 220.666C1191.97 220.805 1197.58 219.092 1202.39 215.741L1330.26 116.74C1333.61 113.988 1335.96 110.014 1336.88 105.53C1337.81 101.047 1337.25 96.3486 1335.3 92.28L1255.82 -61.6727C1253.84 -65.113 1251.1 -67.9477 1247.86 -69.9122C1244.62 -71.8766 1240.97 -72.9068 1237.27 -72.9065V-72.7404Z" fill="white"/>
<path d="M1270.84 -70.3056C1268.26 -75.6052 1267.46 -81.7262 1268.56 -87.6083C1269.67 -93.4904 1272.61 -98.763 1276.88 -102.513L1346.89 -160.674C1357.34 -168.417 1369.92 -171.92 1382.47 -170.58L1477.93 -154.587C1490.19 -151.784 1501.06 -144.07 1508.42 -132.949L1585.69 -1.40868C1587.13 0.710007 1588.07 3.18736 1588.43 5.80296C1588.79 8.41858 1588.56 11.0913 1587.75 13.5833C1586.94 16.0754 1585.58 18.3095 1583.8 20.0868C1582.01 21.8641 1579.86 23.1295 1577.52 23.7705L1378.94 95.7111C1373.6 97.4542 1367.89 97.205 1362.69 95.0022C1357.49 92.7994 1353.11 88.7673 1350.22 83.5365L1270.84 -70.3056Z" fill="white"/>
<path d="M1671.36 294.709C1669.16 294.713 1666.97 294.359 1664.86 293.658L1481.41 235.331C1468.18 230.579 1456.11 222.572 1446.13 211.923L1378.24 133.175C1376 130.877 1374.32 127.989 1373.38 124.784C1372.44 121.579 1372.25 118.163 1372.85 114.858C1373.74 111.639 1375.37 108.722 1377.57 106.38C1379.78 104.038 1382.49 102.347 1385.45 101.466L1584.27 29.5256C1588.45 28.121 1592.81 27.4304 1597.18 27.4781C1606.66 27.32 1615.98 30.1012 1624.09 35.5022L1678.57 75.7336C1684.07 80.2418 1688.55 86.0819 1691.67 92.8002C1694.78 99.5185 1696.44 106.934 1696.51 114.471L1691.07 272.851C1691.1 275.713 1690.62 278.553 1689.64 281.208C1688.67 283.862 1687.22 286.276 1685.39 288.31C1683.55 290.345 1681.37 291.958 1678.96 293.057C1676.55 294.155 1673.97 294.717 1671.36 294.709ZM1597.18 38.2691C1593.86 38.2178 1590.56 38.7407 1587.4 39.8186L1388.57 111.759C1387.22 112.061 1385.97 112.725 1384.91 113.69C1383.86 114.656 1383.04 115.894 1382.52 117.293C1382.36 118.809 1382.54 120.347 1383.05 121.767C1383.56 123.187 1384.38 124.445 1385.45 125.428L1453.54 204.341C1462.25 213.563 1472.72 220.555 1484.18 224.816L1667.58 283.199C1668.82 283.583 1670.09 283.787 1671.36 283.808C1672.68 283.816 1673.98 283.533 1675.19 282.976C1676.4 282.418 1677.49 281.598 1678.4 280.564C1679.32 279.53 1680.03 278.304 1680.5 276.959C1680.97 275.615 1681.19 274.179 1681.14 272.74L1686.59 114.305C1686.45 108.612 1685.16 103.024 1682.8 97.95C1680.45 92.8757 1677.09 88.4428 1672.98 84.9751L1618.55 44.7438C1612.09 40.4838 1604.7 38.2447 1597.18 38.2691Z" fill="white"/>
<path d="M1206.22 414.739C1203.63 414.763 1201.06 414.195 1198.68 413.072C1196.3 411.948 1194.16 410.293 1192.39 408.211C1190.62 406.13 1189.27 403.667 1188.41 400.981C1187.56 398.294 1187.22 395.441 1187.42 392.604L1194.08 265.324C1194.77 258.613 1196.66 252.119 1199.65 246.212C1202.63 240.306 1206.65 235.104 1211.47 230.904L1340.24 131.294C1344.81 127.953 1350.3 126.452 1355.76 127.047C1361.23 127.643 1366.34 130.296 1370.23 134.559L1439.02 214.081C1442.72 218.661 1444.96 224.444 1445.38 230.549C1445.81 236.654 1444.41 242.745 1441.39 247.893L1347.55 396.754C1343.8 402.021 1339.08 406.351 1333.69 409.452C1328.3 412.554 1322.37 414.356 1316.3 414.739H1206.22Z" fill="white"/>
<path d="M1360.8 436.155C1357.07 431.653 1354.8 425.928 1354.34 419.866C1353.87 413.804 1355.24 407.742 1358.23 402.62L1451.52 255.363C1455.02 250.363 1459.76 246.584 1465.17 244.482C1470.58 242.38 1476.43 242.046 1482.01 243.521L1611.69 284.803C1616.92 286.636 1621.42 290.383 1624.44 295.419C1627.46 300.454 1628.81 306.474 1628.27 312.473L1611.69 454.915C1610.74 461.022 1608.09 466.654 1604.1 471.035C1600.11 475.416 1594.98 478.33 1589.41 479.375L1440.73 500.238C1434.62 500.712 1428.47 499.819 1422.68 497.612C1416.88 495.405 1411.55 491.931 1407.02 487.399L1360.8 436.155Z" fill="white"/>
<path d="M1434.69 733.602C1428.84 732.052 1423.39 729.051 1418.76 724.831C1414.13 720.61 1410.44 715.281 1407.97 709.253L1386.71 647.771C1382.83 634.54 1383.08 620.267 1387.41 607.208L1415.13 536.097C1417.78 530.188 1421.66 525.043 1426.44 521.074C1431.23 517.105 1436.8 514.423 1442.7 513.242L1589.62 492.601C1594.88 491.926 1600.17 493.55 1604.34 497.123C1608.52 500.695 1611.25 505.929 1611.94 511.693L1640.62 753.468C1641.14 756.001 1641.05 758.638 1640.37 761.123C1639.68 763.608 1638.42 765.856 1636.72 767.649C1635.01 769.442 1632.9 770.72 1630.61 771.357C1628.32 771.995 1625.92 771.971 1623.64 771.287L1434.69 733.602Z" fill="white"/>
<path d="M1349.31 626.078H1169.68C1166.52 626.195 1163.38 625.516 1160.5 624.093C1157.62 622.671 1155.07 620.543 1153.05 617.873C1151.03 615.202 1149.59 612.059 1148.85 608.686C1148.11 605.312 1148.08 601.796 1148.77 598.409L1176.08 448.496C1177.63 441.325 1181.28 434.91 1186.47 430.24C1191.66 425.57 1198.11 422.904 1204.81 422.652H1316.9C1330.82 423.363 1344.07 429.415 1354.35 439.752L1401.12 492.047C1405.75 497.58 1408.89 504.416 1410.19 511.793C1411.49 519.17 1410.9 526.799 1408.48 533.828L1381.62 602.78C1378.66 609.515 1374.09 615.24 1368.4 619.344C1362.71 623.448 1356.11 625.775 1349.31 626.078ZM1204.81 433.333C1200.39 433.495 1196.13 435.252 1192.71 438.332C1189.28 441.413 1186.88 445.645 1185.86 450.377L1158.55 600.235C1158.14 602.054 1158.12 603.949 1158.47 605.78C1158.83 607.611 1159.56 609.328 1160.61 610.805C1161.73 612.223 1163.13 613.347 1164.7 614.094C1166.27 614.841 1167.97 615.192 1169.68 615.121H1349.31C1354.16 614.821 1358.85 613.131 1362.92 610.218C1366.99 607.304 1370.29 603.271 1372.49 598.519L1399.31 529.567C1400.95 524.57 1401.35 519.18 1400.47 513.956C1399.58 508.731 1397.44 503.861 1394.27 499.85L1347.29 447.444C1338.94 439.168 1328.28 434.251 1317.05 433.499L1204.81 433.333Z" fill="white"/>
<path d="M1244.17 854.794C1238.33 853.467 1232.86 850.618 1228.23 846.486C1223.6 842.355 1219.94 837.062 1217.56 831.054L1157.94 654.246C1156.9 651.96 1156.45 649.41 1156.62 646.864C1156.79 644.317 1157.58 641.868 1158.91 639.774C1160.24 637.68 1162.06 636.017 1164.18 634.961C1166.29 633.904 1168.63 633.493 1170.94 633.771H1349.11C1354.9 634.073 1360.49 636.144 1365.27 639.753C1370.04 643.361 1373.8 648.361 1376.12 654.191L1397.34 715.064C1401.29 728.449 1401.81 742.768 1398.85 756.457L1373.1 853.743C1371.42 859.449 1367.99 864.339 1363.39 867.579C1358.8 870.818 1353.32 872.207 1347.9 871.507L1244.17 854.794Z" fill="white"/>
<path d="M1473.75 986.059C1469.52 986.114 1465.33 985.22 1461.43 983.431C1457.53 981.642 1454 978.995 1451.07 975.655L1388.27 900.449C1383.87 894.636 1380.77 887.78 1379.2 880.423C1377.64 873.066 1377.65 865.41 1379.25 858.06L1404.45 762.434C1406.19 756.274 1409.68 750.883 1414.4 747.043C1419.12 743.202 1424.83 741.112 1430.71 741.074C1432.23 741.051 1433.75 741.199 1435.24 741.516L1624.69 779.147C1631.21 780.51 1637 784.537 1640.91 790.413C1644.82 796.289 1646.56 803.575 1645.76 810.801L1639.16 866.139C1637.93 873.595 1635.3 880.687 1631.44 886.966C1627.58 893.245 1622.57 898.572 1616.73 902.608L1488.01 982.074C1483.64 984.712 1478.73 986.083 1473.75 986.059ZM1430.86 751.975C1427.13 752.039 1423.51 753.38 1420.51 755.811C1417.51 758.242 1415.28 761.641 1414.12 765.533L1388.92 861.159C1387.79 866.687 1387.8 872.426 1388.97 877.946C1390.14 883.466 1392.43 888.624 1395.68 893.034L1458.53 968.24C1460.49 970.445 1462.85 972.191 1465.45 973.37C1468.04 974.549 1470.83 975.138 1473.65 975.102C1476.91 975.144 1480.13 974.288 1483.02 972.611L1611.89 893.145C1616.39 889.956 1620.25 885.802 1623.25 880.933C1626.24 876.064 1628.31 870.58 1629.33 864.811L1635.93 809.472C1636.41 805.021 1635.34 800.536 1632.93 796.921C1630.51 793.306 1626.94 790.83 1622.93 789.993L1433.53 752.363C1432.65 752.155 1431.75 752.025 1430.86 751.975Z" fill="white"/>
<path d="M815.22 78.6111C813.501 72.5528 813.399 66.0805 814.927 59.9606C816.454 53.8407 819.547 48.3296 823.838 44.0797L917.935 -41.6955C927.911 -49.6831 940.348 -53.0423 952.56 -51.0478L1036.58 -31.8452C1041.85 -30.6267 1046.51 -27.2633 1049.63 -22.4295C1052.74 -17.5956 1054.07 -11.6486 1053.36 -5.78061L1035.37 124.764C1034.11 131.275 1031.57 137.406 1027.93 142.729C1024.29 148.053 1019.64 152.441 1014.3 155.587L883.26 222.382C880.97 223.587 878.474 224.246 875.936 224.317C873.397 224.387 870.874 223.867 868.532 222.79C866.19 221.714 864.082 220.105 862.346 218.069C860.611 216.034 859.288 213.619 858.463 210.982L815.22 78.6111Z" fill="white"/>
<path d="M788.508 49.8351C785.454 49.8811 782.407 49.5093 779.436 48.7283L693.756 25.0433C680.567 20.985 667.938 14.9912 656.208 7.22417L545.127 -71.191C536.811 -77.0569 536.206 -83.5316 536.609 -86.8519C537.012 -90.1722 539.029 -96.3148 548.353 -99.7458L744.913 -171.686C749.196 -173.187 753.672 -173.916 758.168 -173.845C767.521 -174.024 776.735 -171.341 784.779 -166.097L907.755 -78.3297C910.398 -76.5527 912.632 -74.1304 914.285 -71.2511C915.937 -68.3718 916.962 -65.1131 917.28 -61.7281C917.373 -58.2915 916.723 -54.8798 915.382 -51.7727C914.042 -48.6656 912.05 -45.9517 909.569 -43.8536L818.849 39.1547C810.091 46.3047 799.42 50.0611 788.508 49.8351ZM758.268 -162.998C754.855 -163.074 751.452 -162.551 748.188 -161.449L551.628 -89.5082C547.798 -88.1247 546.588 -86.4092 546.588 -85.6898C546.588 -84.9704 547.244 -82.9782 550.62 -80.5433L661.753 -2.01743C672.566 5.15382 684.19 10.7354 696.327 14.5842L782.007 38.2139C784.185 38.7914 786.419 39.0702 788.66 39.044C797.149 39.1005 805.432 36.1723 812.297 30.6879L903.269 -52.3204C904.533 -53.3342 905.564 -54.657 906.282 -56.1842C906.999 -57.7115 907.383 -59.4011 907.402 -61.1193C907.183 -62.8505 906.594 -64.5002 905.683 -65.9334C904.772 -67.3666 903.565 -68.5425 902.16 -69.3648L779.285 -157.077C772.821 -161.096 765.494 -163.141 758.067 -162.998H758.268Z" fill="white"/>
<path d="M525.068 836.809C518.727 836.924 512.437 835.547 506.621 832.769L451.181 804.38C445.15 801.062 440.245 795.709 437.189 789.105C434.132 782.502 433.083 774.996 434.196 767.691L463.731 603.334C465.278 596.058 468.708 589.428 473.608 584.244C478.509 579.06 484.67 575.542 491.35 574.115L676.318 541.797C679.598 541.059 682.997 541.274 686.179 542.419C689.361 543.564 692.216 545.601 694.462 548.327C696.254 550.827 697.521 553.73 698.175 556.829C698.828 559.928 698.851 563.147 698.242 566.257L671.328 734.875C669.805 742.269 666.946 749.253 662.921 755.413C658.895 761.572 653.785 766.782 647.892 770.734L546.437 831.607C539.798 835.201 532.468 836.985 525.068 836.809ZM680.4 552.367C679.645 552.317 678.888 552.317 678.132 552.367L493.164 584.685C488.451 585.838 484.129 588.428 480.696 592.158C477.263 595.888 474.859 600.606 473.76 605.769L444.226 770.07C443.556 774.98 444.299 779.996 446.35 784.421C448.401 788.845 451.658 792.456 455.667 794.751L511.107 823.14C515.596 825.239 520.442 826.258 525.32 826.129C531.145 826.292 536.921 824.906 542.153 822.089L643.558 761.216C652.805 754.825 659.408 744.715 661.954 733.049L688.918 564.376C689.239 562.838 689.256 561.242 688.97 559.696C688.683 558.15 688.098 556.689 687.255 555.411C686.403 554.357 685.342 553.535 684.153 553.007C682.964 552.479 681.679 552.26 680.4 552.367Z" fill="white"/>
<path d="M883.714 569.246C879.941 564.93 877.691 559.278 877.368 553.306C877.044 547.333 878.669 541.429 881.95 536.652L974.635 407.38C978.56 402.467 983.517 398.68 989.076 396.346C994.636 394.013 1000.63 393.203 1006.54 393.988L1153.3 422.764C1155.88 423.223 1158.35 424.246 1160.56 425.774C1162.77 427.302 1164.68 429.303 1166.17 431.658C1167.66 434.013 1168.7 436.674 1169.24 439.481C1169.77 442.289 1169.79 445.185 1169.28 447.999L1141.26 600.236C1139.83 606.474 1136.92 612.182 1132.82 616.772C1128.72 621.363 1123.57 624.671 1117.92 626.356L988.344 657.567C982.374 658.607 976.269 658.184 970.466 656.327C964.663 654.471 959.305 651.229 954.778 646.832L883.714 569.246Z" fill="white"/>
<path d="M545.933 244.628C543.655 243.996 541.566 242.722 539.874 240.933C538.181 239.144 536.943 236.9 536.281 234.425C535.619 231.949 535.557 229.327 536.101 226.817C536.645 224.307 537.775 221.996 539.381 220.113L663.516 45.1866C667.344 40.3098 672.28 36.6342 677.822 34.5344C683.365 32.4347 689.315 31.9857 695.067 33.2334L777.572 56.0884C783.368 58.084 788.7 61.4386 793.199 65.9198C797.698 70.4011 801.257 75.9021 803.628 82.0423L847.376 216.294C849.114 221.857 848.881 227.935 846.724 233.318C844.567 238.702 840.643 242.996 835.733 245.347L722.484 297.366C710.532 302.088 697.518 302.495 685.34 298.528L545.933 244.628Z" fill="white"/>
<path d="M347.76 99.8612C343.183 95.8674 339.649 90.616 337.516 84.6393C335.383 78.6625 334.726 72.1728 335.614 65.8279L354.514 -33.2287C355.943 -39.3786 358.893 -44.9748 363.038 -49.3988C367.183 -53.8229 372.361 -56.9025 378 -58.2972L496.39 -79.2706C509.012 -80.7658 521.743 -77.8617 532.778 -70.9698L647.942 10.323C650.106 11.785 651.961 13.7378 653.382 16.0505C654.803 18.3631 655.758 20.9824 656.183 23.7331C656.608 26.4837 656.492 29.3022 655.845 31.9999C655.197 34.6976 654.032 37.2124 652.428 39.3759L528.394 214.302C525.056 218.879 520.262 221.898 514.979 222.75C509.695 223.602 504.313 222.225 499.918 218.895L347.76 99.8612Z" fill="white"/>
<path d="M841.932 550.763C840.842 550.847 839.747 550.847 838.656 550.763L729.54 537.703C722.931 536.775 716.845 533.268 712.395 527.823C707.944 522.378 705.425 515.357 705.298 508.042V339.092C705.583 331.611 707.73 324.359 711.507 318.124C715.283 311.89 720.544 306.911 726.718 303.73L839.815 251.601C843.658 249.902 847.769 249.055 851.911 249.111C861.41 248.954 870.58 252.933 877.414 260.179L966.521 363.496C970.982 368.963 973.584 375.954 973.887 383.286C974.19 390.618 972.175 397.84 968.184 403.728L875.196 533.829C871.03 539.038 865.92 543.235 860.192 546.151C854.464 549.067 848.245 550.638 841.932 550.763ZM852.012 260.179C849.185 260.132 846.376 260.696 843.747 261.839L730.8 313.802C726.472 316.177 722.793 319.768 720.137 324.21C717.481 328.652 715.944 333.786 715.68 339.092V508.042C715.807 512.666 717.419 517.092 720.233 520.535C723.046 523.979 726.879 526.219 731.052 526.857L840.118 539.695H842.335C847.107 539.501 851.795 538.26 856.122 536.045C860.45 533.831 864.331 530.688 867.535 526.801L960.473 397.087C963.009 393.283 964.287 388.643 964.094 383.933C963.902 379.224 962.251 374.728 959.415 371.189L870.207 268.203C865.253 262.977 858.629 260.096 851.76 260.179H852.012Z" fill="white"/>
<path d="M1007.04 380.762C994.529 377.638 983.029 370.827 973.779 361.061L885.377 258.518C883.605 256.819 882.27 254.641 881.504 252.199C880.738 249.757 880.568 247.137 881.012 244.601C881.456 242.065 882.497 239.7 884.032 237.744C885.567 235.787 887.543 234.306 889.762 233.449L1019.49 167.375C1025.18 164.902 1031.27 163.729 1037.39 163.929C1043.51 164.129 1049.53 165.697 1055.07 168.537L1165.7 233.948C1170.73 237.312 1174.88 242.045 1177.75 247.688C1180.62 253.331 1182.11 259.692 1182.08 266.155L1175.53 391.719C1175.46 394.481 1174.83 397.192 1173.7 399.662C1172.57 402.132 1170.97 404.3 1168.99 406.014C1167.02 407.728 1164.73 408.947 1162.28 409.584C1159.83 410.222 1157.28 410.263 1154.82 409.704L1007.04 380.762Z" fill="white"/>
<path d="M146.967 547.885C142.738 544.151 139.868 538.877 138.878 533.018C137.889 527.159 138.845 521.105 141.574 515.955L209.262 394.707C212.684 389.288 217.186 384.797 222.426 381.576C227.666 378.354 233.506 376.486 239.502 376.113H398.161C403.768 376.346 409.163 378.53 413.566 382.35C417.969 386.169 421.152 391.427 422.655 397.363L456.02 552.312C457.128 558.301 456.398 564.525 453.945 570.011C451.493 575.497 447.455 579.937 442.462 582.638L300.586 652.808C295.028 655.156 289.034 655.991 283.118 655.239C277.202 654.487 271.54 652.172 266.617 648.491L146.967 547.885Z" fill="white"/>
<path d="M19.5055 868.297C14.8736 868.275 10.3441 866.799 6.45076 864.044C2.55742 861.289 -0.537407 857.369 -2.46891 852.747L-39.1601 765.311C-41.7526 758.388 -42.555 750.815 -41.479 743.423C-40.403 736.032 -37.4904 729.11 -33.0617 723.42L106.798 557.403C111.388 552.12 117.576 548.856 124.201 548.225C130.826 547.593 137.433 549.637 142.784 553.972L260.115 652.697C262.713 654.821 264.876 657.519 266.466 660.618C268.055 663.716 269.036 667.146 269.345 670.686C269.654 674.226 269.283 677.798 268.258 681.171C267.232 684.545 265.574 687.645 263.391 690.272L208.757 757.785C199.335 768.708 188.418 777.95 176.401 785.178L30.2407 865.419C26.9118 867.273 23.2379 868.258 19.5055 868.297ZM126.605 559.063C124.289 559.004 121.985 559.464 119.836 560.415C117.687 561.367 115.737 562.79 114.106 564.597L-25.7537 730.614C-28.8997 734.724 -30.9771 739.69 -31.7666 744.989C-32.5561 750.287 -32.0284 755.721 -30.2393 760.718L6.55268 848.209C7.35097 850.119 8.49133 851.834 9.90583 853.25C11.3203 854.666 12.98 855.755 14.786 856.453C16.5919 857.15 18.5072 857.44 20.4177 857.308C22.3282 857.175 24.1948 856.621 25.9063 855.68L171.764 775.383C182.75 768.856 192.72 760.45 201.298 750.48L255.932 683.244C257.205 681.735 258.174 679.948 258.776 678C259.377 676.052 259.597 673.987 259.421 671.939C259.244 669.891 258.677 667.907 257.754 666.117C256.832 664.327 255.575 662.771 254.067 661.551L136.736 562.66C133.804 560.286 130.248 559.023 126.605 559.063Z" fill="white"/>
<path d="M-10.5327 486.071C-15.9519 484.032 -20.7073 480.292 -24.21 475.315C-27.7128 470.338 -29.809 464.342 -30.2391 458.069L-34.4727 284.029C-34.3233 277.579 -32.6459 271.283 -29.6057 265.761C-26.5655 260.24 -22.2674 255.683 -17.1351 252.541L131.041 172.687C133.244 171.401 135.68 170.669 138.172 170.544C140.664 170.418 143.151 170.903 145.451 171.962C147.752 173.021 149.81 174.629 151.475 176.668C153.141 178.708 154.373 181.128 155.082 183.755L203.617 347.89C206.792 361.157 205.28 375.252 199.383 387.346L131.041 509.867C127.872 515.014 123.341 518.969 118.058 521.195C112.776 523.422 106.998 523.814 101.507 522.318L-10.5327 486.071Z" fill="white"/>
<path d="M-152.056 704.051C-157.785 701.914 -163.014 698.415 -167.37 693.805C-171.726 689.194 -175.101 683.585 -177.256 677.378L-209.714 564.984C-210.505 562.301 -210.789 559.468 -210.549 556.66C-210.31 553.852 -209.551 551.126 -208.32 548.651C-207.089 546.175 -205.411 544.001 -203.389 542.261C-201.367 540.522 -199.043 539.253 -196.56 538.532L-54.8852 497.25C-42.2278 494.212 -29.103 494.421 -16.5308 497.858L93.2404 533.331C103.774 536.706 106.244 546.723 98.8348 555.466L-38.4044 718.494C-42.6801 723.021 -47.9072 726.318 -53.622 728.094C-59.3367 729.871 -65.3624 730.071 -71.1644 728.677L-152.056 704.051Z" fill="white"/>
<path d="M64.4115 -37.2131C61.8811 -43.0593 60.752 -49.5181 61.1313 -55.9775C61.5106 -62.437 63.3856 -68.6831 66.5787 -74.1241L154.224 -206.937C155.694 -209.28 157.599 -211.255 159.814 -212.731C162.028 -214.207 164.503 -215.151 167.074 -215.502C169.645 -215.852 172.255 -215.6 174.731 -214.763C177.207 -213.926 179.494 -212.523 181.44 -210.645L331.531 -71.9659C335.879 -67.4946 339.169 -61.9285 341.119 -55.7482C343.068 -49.5679 343.618 -42.9595 342.72 -36.4937L323.568 63.4483C322.021 69.8195 319.143 75.7072 315.162 80.6444C311.182 85.5818 306.208 89.4329 300.636 91.8925L174.183 138.875C168.882 140.63 163.198 140.379 158.043 138.161C152.888 135.943 148.561 131.887 145.757 126.645L64.4115 -37.2131Z" fill="white"/>
<path d="M-171.359 168.039C-176.266 164.601 -180.192 159.715 -182.688 153.941C-185.184 148.166 -186.148 141.737 -185.471 135.389L-151.199 -91.8325C-150.859 -94.5729 -149.974 -97.1977 -148.607 -99.5211C-147.241 -101.844 -145.426 -103.81 -143.291 -105.277C-141.156 -106.745 -138.753 -107.68 -136.253 -108.015C-133.752 -108.35 -131.215 -108.077 -128.821 -107.217L24.8481 -57.4117C36.7388 -52.7855 46.8371 -43.845 53.4753 -32.0665L134.72 131.737C135.97 134.215 136.746 136.948 137 139.767C137.254 142.587 136.981 145.433 136.198 148.133C135.414 150.832 134.137 153.327 132.444 155.466C130.752 157.604 128.679 159.34 126.354 160.568L-22.9311 241.086C-28.5469 243.69 -34.6118 244.921 -40.7044 244.691C-46.797 244.462 -52.771 242.779 -58.2111 239.758L-171.359 168.039Z" fill="white"/>
</svg>
