<svg width="1512" height="800" viewBox="0 0 1512 800" fill="none" xmlns="http://www.w3.org/2000/svg">
<mask id="mask0_210_5885" style="mask-type:luminance" maskUnits="userSpaceOnUse" x="0" y="0" width="1512" height="800">
<path d="M1512 0H0V800H1512V0Z" fill="white"/>
</mask>
<g mask="url(#mask0_210_5885)">
<path d="M1512 0H0V800H1512V0Z" fill="#00415D" fill-opacity="0.02"/>
<path d="M400.075 347.253H240.559C233.78 347.004 227.226 344.617 221.739 340.397C216.252 336.178 212.082 330.319 209.765 323.573L161.28 166.079C159.263 159.423 159.797 152.195 162.766 145.95C165.735 139.706 170.903 134.945 177.156 132.693L303.156 87.7327C307.244 86.3525 311.516 85.686 315.806 85.7594C325.341 85.6197 334.702 88.4581 342.72 93.9194L495.382 208.746C498.038 210.721 500.281 213.253 501.972 216.185C503.662 219.117 504.764 222.386 505.209 225.788C505.653 229.191 505.431 232.654 504.555 235.961C503.679 239.269 502.169 242.35 500.119 245.013L436.363 328.853C431.776 334.321 426.204 338.765 419.972 341.925C413.741 345.084 406.977 346.896 400.075 347.253ZM315.857 96.266C312.648 96.2333 309.452 96.7189 306.382 97.706L180.382 142.666C176.592 144.006 173.458 146.878 171.664 150.656C169.869 154.433 169.561 158.809 170.806 162.826L219.19 320.319C220.866 324.943 223.771 328.954 227.554 331.869C231.337 334.784 235.836 336.478 240.509 336.746H400.075C410.927 335.982 421.078 330.803 428.4 322.293L492.358 238.399C493.6 236.85 494.52 235.041 495.058 233.09C495.595 231.139 495.737 229.09 495.476 227.077C495.214 225.064 494.554 223.132 493.539 221.407C492.525 219.682 491.177 218.203 489.586 217.066L337.025 102.506C330.678 98.3254 323.332 96.1596 315.857 96.266Z" fill="white"/>
<path d="M433.944 370.4C432.869 363.995 433.01 357.428 434.36 351.082C435.71 344.736 438.241 338.739 441.806 333.44L506.873 248.106C510.692 243.549 515.661 240.239 521.197 238.567C526.732 236.895 532.603 236.929 538.121 238.666L679.543 291.36C684.883 293.661 689.489 297.529 692.82 302.509C696.151 307.489 698.067 313.372 698.342 319.466V482.133C698.176 487.956 696.137 493.545 692.564 497.976C688.99 502.408 684.095 505.417 678.686 506.506L491.803 537.973C486.474 538.768 481.054 537.456 476.581 534.288C472.109 531.119 468.897 526.317 467.561 520.8L433.944 370.4Z" fill="white"/>
<path d="M693.353 729.386C688.326 726.679 684.215 722.389 681.589 717.107C678.962 711.825 677.948 705.81 678.686 699.893L705.6 536.266C706.605 530.677 709.542 525.684 713.838 522.262C718.134 518.84 723.48 517.235 728.834 517.76L838.908 530.24C851.533 532.384 863.307 538.327 872.827 547.36L945.857 624C949.78 628.586 952.481 634.192 953.686 640.246C954.89 646.299 954.554 652.582 952.711 658.453L897.926 805.333C896.989 807.831 895.58 810.1 893.786 812.003C891.993 813.905 889.852 815.401 887.493 816.399C885.135 817.397 882.61 817.877 880.071 817.808C877.532 817.739 875.033 817.124 872.726 816L693.353 729.386Z" fill="white"/>
<path d="M547.092 825.493C545.603 823.336 544.573 820.864 544.073 818.246C543.572 815.629 543.613 812.927 544.193 810.328C544.772 807.729 545.876 805.293 547.429 803.188C548.983 801.082 550.948 799.358 553.19 798.133L651.319 741.333C656.859 738.551 662.877 736.997 669.005 736.768C675.133 736.539 681.241 737.638 686.952 739.999L865.62 826.666C867.839 827.467 869.819 828.874 871.36 830.745C872.9 832.616 873.945 834.884 874.39 837.32C874.835 839.756 874.664 842.274 873.894 844.617C873.124 846.961 871.782 849.048 870.005 850.666L804.787 922.666C795.538 931.858 783.728 937.639 771.12 939.146L647.741 946.826C641.72 946.841 635.774 945.408 630.352 942.636C624.93 939.865 620.174 935.826 616.442 930.826L547.092 825.493Z" fill="white"/>
<path d="M215.057 757.332C211.904 752.473 210.332 746.66 210.577 740.771C210.823 734.883 212.873 729.239 216.418 724.692L271.858 658.506C280.874 648.46 291.506 640.189 303.257 634.079L441.202 568.159C451.282 563.412 457.632 568.799 455.515 580.159L426.989 733.226C423.85 746.217 416.767 757.759 406.829 766.079L300.989 845.279C296.632 848.495 291.267 849.797 286.022 848.912C280.777 848.026 276.06 845.022 272.866 840.532L215.057 757.332Z" fill="white"/>
<path d="M-46.9728 993.066C-50.2135 987.889 -52.1063 981.898 -52.4603 975.699C-52.8142 969.501 -51.6168 963.312 -48.9888 957.76L1.96557 862.666C8.84901 851.116 18.3632 841.58 29.6352 834.933L175.896 757.333C180.91 754.873 186.561 754.272 191.937 755.627C197.314 756.981 202.103 760.213 205.531 764.8L263.844 848C266.969 852.639 268.362 858.336 267.758 863.997C267.153 869.658 264.592 874.882 260.568 878.666L38.4552 1079.79C36.5328 1081.57 34.2801 1082.9 31.8415 1083.71C29.4028 1084.52 26.832 1084.77 24.2936 1084.47C21.7552 1084.16 19.3052 1083.3 17.1006 1081.93C14.896 1080.56 12.9854 1078.73 11.4912 1076.53L-46.9728 993.066Z" fill="white"/>
<path d="M306.331 882.453C304.583 880.549 303.252 878.263 302.43 875.755C301.609 873.247 301.317 870.579 301.577 867.94C301.836 865.3 302.641 862.752 303.932 860.477C305.224 858.202 306.972 856.255 309.053 854.773L413.28 776.853C418.353 773.483 424.107 771.432 430.072 770.866C436.037 770.301 442.045 771.237 447.602 773.6L505.21 802.133C516.73 808.451 526.782 817.395 534.643 828.319L602.885 932.053C609.134 941.546 605.354 950.08 594.418 951.04L402.343 967.52C396.199 967.669 390.087 966.53 384.361 964.169C378.635 961.807 373.407 958.269 368.978 953.759L306.331 882.453Z" fill="white"/>
<path d="M1016.82 927.999C1008.64 928.17 1000.65 925.365 994.19 920.053L913.198 849.066C908.124 844.297 904.511 838.034 902.823 831.078C901.135 824.123 901.448 816.792 903.722 810.026L959.465 660.693C962.298 654.068 966.476 648.186 971.703 643.466C976.93 638.746 983.077 635.304 989.705 633.386L1118.07 603.626C1119.98 603.068 1121.94 602.746 1123.92 602.666C1129.66 602.675 1135.26 604.512 1140 607.936C1144.73 611.36 1148.39 616.214 1150.48 621.866L1210.71 793.973C1212.86 800.661 1212.75 807.935 1210.39 814.544C1208.02 821.153 1203.56 826.684 1197.76 830.186L1032.85 923.839C1027.92 926.629 1022.41 928.059 1016.82 927.999ZM1123.92 613.333C1122.78 613.319 1121.65 613.445 1120.54 613.706L992.174 643.466C987.117 644.997 982.427 647.654 978.42 651.26C974.413 654.866 971.181 659.337 968.94 664.373L913.198 813.706C911.725 818.408 911.564 823.459 912.735 828.255C913.906 833.051 916.359 837.388 919.8 840.746L1000.54 911.999C1005.25 915.654 1010.98 917.532 1016.82 917.333C1020.66 917.414 1024.46 916.517 1027.91 914.719L1192.82 821.066C1196.5 818.773 1199.33 815.218 1200.84 810.989C1202.36 806.76 1202.46 802.111 1201.13 797.813L1140.9 625.599C1139.51 622.026 1137.16 618.961 1134.14 616.782C1131.13 614.603 1127.57 613.404 1123.92 613.333Z" fill="white"/>
<path d="M1186.26 215.413C1180.36 215.502 1174.53 214.055 1169.28 211.2L1059.46 148.747C1053.6 145.091 1048.87 139.724 1045.83 133.29C1042.79 126.856 1041.57 119.629 1042.32 112.48L1060.47 -14.1333C1061.77 -21.2259 1064.85 -27.8212 1069.36 -33.2397C1073.88 -38.6582 1079.68 -42.7039 1086.17 -44.96L1229.81 -87.6266C1232.24 -88.3349 1234.75 -88.6937 1237.27 -88.6933C1242.72 -88.7034 1248.08 -87.2386 1252.84 -84.4382C1257.61 -81.6378 1261.61 -77.5947 1264.49 -72.6933L1343.97 75.7333C1347.11 81.9268 1348.04 89.1151 1346.58 95.9749C1345.12 102.835 1341.36 108.904 1336 113.067L1208.14 208.747C1201.64 213.224 1194.02 215.545 1186.26 215.413ZM1237.27 -77.92C1235.57 -77.9514 1233.87 -77.7361 1232.23 -77.28L1088.64 -34.6133C1084 -32.9031 1079.85 -29.9596 1076.59 -26.0651C1073.34 -22.1707 1071.08 -17.456 1070.04 -12.3733L1051.95 114.293C1051.49 119.291 1052.37 124.325 1054.49 128.816C1056.61 133.307 1059.89 137.073 1063.94 139.68L1173.82 201.92C1177.68 203.959 1181.95 204.966 1186.26 204.853C1191.97 204.988 1197.58 203.336 1202.39 200.107L1330.26 104.693C1333.61 102.042 1335.96 98.211 1336.89 93.89C1337.81 89.5691 1337.25 85.0411 1335.3 81.12L1255.82 -67.2533C1253.84 -70.569 1251.1 -73.3009 1247.86 -75.1942C1244.62 -77.0874 1240.97 -78.0803 1237.27 -78.08V-77.92Z" fill="white"/>
<path d="M1270.84 -75.5738C1268.26 -80.6813 1267.46 -86.5805 1268.56 -92.2495C1269.67 -97.9184 1272.61 -103 1276.88 -106.614L1346.89 -162.667C1357.34 -170.13 1369.92 -173.505 1382.47 -172.214L1477.93 -156.8C1490.19 -154.099 1501.06 -146.665 1508.42 -135.947L1585.68 -9.17375C1587.13 -7.13187 1588.07 -4.74428 1588.43 -2.22346C1588.79 0.297348 1588.56 2.87321 1587.75 5.27495C1586.94 7.67668 1585.58 9.8298 1583.8 11.5427C1582.01 13.2556 1579.86 14.4752 1577.52 15.0929L1378.94 84.4263C1373.6 86.1063 1367.89 85.866 1362.69 83.7431C1357.49 81.6201 1353.11 77.7342 1350.22 72.6929L1270.84 -75.5738Z" fill="white"/>
<path d="M1671.36 276.213C1669.16 276.216 1666.97 275.875 1664.86 275.2L1481.41 218.986C1468.18 214.406 1456.11 206.69 1446.13 196.426L1378.24 120.533C1376 118.318 1374.32 115.535 1373.38 112.446C1372.44 109.357 1372.25 106.065 1372.85 102.88C1373.74 99.7768 1375.37 96.9656 1377.57 94.7085C1379.78 92.4514 1382.49 90.8222 1385.45 89.973L1584.27 20.6396C1588.45 19.2859 1592.8 18.6203 1597.18 18.6663C1606.66 18.514 1615.98 21.1944 1624.09 26.3996L1678.57 65.173C1684.07 69.5178 1688.55 75.1463 1691.67 81.6211C1694.78 88.0959 1696.44 95.2427 1696.51 102.506L1691.07 255.146C1691.1 257.905 1690.62 260.642 1689.64 263.2C1688.67 265.758 1687.22 268.085 1685.39 270.046C1683.55 272.006 1681.37 273.561 1678.96 274.62C1676.55 275.679 1673.97 276.22 1671.36 276.213ZM1597.18 29.0663C1593.86 29.0168 1590.56 29.5208 1587.4 30.5596L1388.57 99.893C1387.22 100.184 1385.97 100.824 1384.91 101.754C1383.86 102.685 1383.04 103.878 1382.52 105.226C1382.36 106.687 1382.54 108.169 1383.05 109.538C1383.56 110.907 1384.38 112.12 1385.45 113.066L1453.54 189.12C1462.25 198.007 1472.71 204.746 1484.18 208.853L1667.58 265.12C1668.81 265.489 1670.09 265.687 1671.36 265.706C1672.68 265.714 1673.98 265.442 1675.19 264.904C1676.4 264.367 1677.49 263.576 1678.4 262.58C1679.32 261.583 1680.03 260.402 1680.5 259.106C1680.97 257.81 1681.19 256.427 1681.14 255.04L1686.59 102.346C1686.45 96.8598 1685.16 91.4747 1682.8 86.5843C1680.45 81.6938 1677.09 77.4216 1672.98 74.0796L1618.55 35.3063C1612.09 31.2007 1604.7 29.0427 1597.18 29.0663Z" fill="white"/>
<path d="M1206.22 391.892C1203.63 391.916 1201.06 391.368 1198.68 390.285C1196.3 389.202 1194.16 387.607 1192.39 385.601C1190.62 383.595 1189.27 381.222 1188.41 378.632C1187.56 376.043 1187.22 373.294 1187.42 370.559L1194.08 247.892C1194.77 241.425 1196.66 235.165 1199.65 229.473C1202.63 223.781 1206.65 218.767 1211.46 214.719L1340.24 118.719C1344.81 115.499 1350.3 114.053 1355.76 114.627C1361.23 115.2 1366.34 117.758 1370.22 121.866L1439.02 198.506C1442.72 202.92 1444.96 208.494 1445.38 214.377C1445.81 220.261 1444.41 226.131 1441.39 231.092L1347.54 374.559C1343.8 379.635 1339.08 383.808 1333.69 386.797C1328.3 389.786 1322.37 391.523 1316.3 391.892H1206.22Z" fill="white"/>
<path d="M1360.8 412.533C1357.07 408.194 1354.8 402.676 1354.34 396.834C1353.87 390.991 1355.24 385.15 1358.23 380.213L1451.52 238.293C1455.02 233.474 1459.76 229.832 1465.17 227.806C1470.58 225.78 1476.43 225.458 1482.01 226.879L1611.69 266.666C1616.92 268.432 1621.42 272.043 1624.44 276.897C1627.46 281.75 1628.81 287.551 1628.27 293.333L1611.69 430.613C1610.74 436.498 1608.09 441.926 1604.1 446.149C1600.11 450.371 1594.98 453.179 1589.41 454.186L1440.73 474.293C1434.62 474.75 1428.47 473.889 1422.68 471.762C1416.88 469.636 1411.55 466.287 1407.02 461.919L1360.8 412.533Z" fill="white"/>
<path d="M1434.69 699.2C1428.84 697.706 1423.39 694.814 1418.76 690.747C1414.13 686.679 1410.44 681.543 1407.97 675.733L1386.71 616.48C1382.83 603.728 1383.08 589.973 1387.41 577.387L1415.13 508.853C1417.78 503.159 1421.66 498.2 1426.44 494.375C1431.23 490.55 1436.8 487.965 1442.7 486.827L1589.62 466.933C1594.88 466.283 1600.17 467.848 1604.34 471.291C1608.52 474.734 1611.25 479.778 1611.94 485.333L1640.62 718.347C1641.14 720.788 1641.05 723.329 1640.37 725.724C1639.68 728.119 1638.42 730.285 1636.72 732.014C1635.01 733.742 1632.9 734.973 1630.61 735.587C1628.32 736.202 1625.92 736.179 1623.64 735.52L1434.69 699.2Z" fill="white"/>
<path d="M1349.31 595.573H1169.68C1166.52 595.685 1163.38 595.031 1160.5 593.66C1157.62 592.29 1155.07 590.239 1153.05 587.665C1151.03 585.091 1149.59 582.062 1148.85 578.811C1148.11 575.559 1148.08 572.171 1148.77 568.906L1176.08 424.426C1177.63 417.515 1181.28 411.333 1186.47 406.832C1191.66 402.331 1198.1 399.762 1204.81 399.52H1316.9C1330.82 400.205 1344.07 406.037 1354.35 416L1401.12 466.4C1405.75 471.732 1408.89 478.32 1410.19 485.43C1411.49 492.54 1410.9 499.892 1408.48 506.666L1381.62 573.12C1378.66 579.61 1374.09 585.128 1368.4 589.083C1362.71 593.038 1356.11 595.281 1349.31 595.573ZM1204.81 409.813C1200.39 409.969 1196.13 411.662 1192.71 414.631C1189.28 417.6 1186.88 421.679 1185.86 426.24L1158.54 570.666C1158.14 572.419 1158.12 574.246 1158.47 576.01C1158.83 577.775 1159.56 579.43 1160.61 580.853C1161.73 582.22 1163.13 583.304 1164.7 584.023C1166.27 584.743 1167.97 585.082 1169.68 585.013H1349.31C1354.16 584.724 1358.85 583.095 1362.92 580.287C1366.99 577.48 1370.29 573.592 1372.49 569.013L1399.31 502.56C1400.95 497.743 1401.35 492.549 1400.47 487.514C1399.58 482.479 1397.44 477.785 1394.27 473.92L1347.29 423.413C1338.94 415.437 1328.28 410.698 1317.05 409.973L1204.81 409.813Z" fill="white"/>
<path d="M1244.17 815.999C1238.33 814.72 1232.86 811.974 1228.23 807.992C1223.6 804.01 1219.94 798.909 1217.56 793.119L1157.94 622.719C1156.9 620.516 1156.45 618.058 1156.62 615.604C1156.79 613.15 1157.58 610.79 1158.91 608.771C1160.24 606.753 1162.06 605.15 1164.18 604.132C1166.29 603.114 1168.63 602.718 1170.94 602.985H1349.11C1354.9 603.276 1360.49 605.273 1365.27 608.75C1370.04 612.228 1373.8 617.047 1376.12 622.665L1397.34 681.332C1401.29 694.232 1401.81 708.032 1398.85 721.225L1373.1 814.985C1371.42 820.485 1367.99 825.198 1363.39 828.32C1358.8 831.442 1353.32 832.78 1347.9 832.105L1244.17 815.999Z" fill="white"/>
<path d="M1473.75 942.506C1469.52 942.56 1465.33 941.698 1461.43 939.974C1457.53 938.249 1454 935.699 1451.07 932.48L1388.27 860C1383.87 854.397 1380.77 847.79 1379.2 840.699C1377.64 833.609 1377.65 826.23 1379.25 819.146L1404.45 726.986C1406.19 721.049 1409.68 715.854 1414.4 712.153C1419.12 708.451 1424.83 706.436 1430.7 706.4C1432.23 706.378 1433.75 706.521 1435.24 706.826L1624.69 743.093C1631.2 744.407 1637 748.288 1640.91 753.951C1644.82 759.614 1646.56 766.636 1645.76 773.6L1639.16 826.933C1637.93 834.118 1635.3 840.954 1631.44 847.005C1627.58 853.056 1622.57 858.19 1616.73 862.08L1488.01 938.666C1483.64 941.208 1478.73 942.53 1473.75 942.506ZM1430.86 716.906C1427.13 716.968 1423.51 718.26 1420.51 720.603C1417.51 722.946 1415.28 726.222 1414.12 729.973L1388.92 822.133C1387.79 827.461 1387.8 832.992 1388.97 838.312C1390.14 843.632 1392.43 848.603 1395.68 852.853L1458.53 925.333C1460.49 927.459 1462.85 929.141 1465.45 930.278C1468.04 931.414 1470.83 931.982 1473.65 931.946C1476.91 931.987 1480.13 931.162 1483.02 929.546L1611.89 852.96C1616.39 849.886 1620.25 845.883 1623.25 841.191C1626.24 836.498 1628.31 831.213 1629.33 825.653L1635.93 772.32C1636.41 768.03 1635.34 763.707 1632.93 760.223C1630.51 756.739 1626.94 754.353 1622.93 753.546L1433.53 717.28C1432.65 717.079 1431.75 716.954 1430.86 716.906Z" fill="white"/>
<path d="M815.22 67.946C813.501 62.1072 813.4 55.8695 814.927 49.9714C816.454 44.0733 819.547 38.7619 823.838 34.666L917.935 -48.0006C927.911 -55.6987 940.348 -58.9362 952.56 -57.014L1036.58 -38.5073C1041.85 -37.3329 1046.51 -34.0915 1049.63 -29.4328C1052.74 -24.7741 1054.07 -19.0426 1053.36 -13.3873L1035.37 112.426C1034.11 118.701 1031.57 124.61 1027.93 129.74C1024.29 134.871 1019.64 139.1 1014.3 142.133L883.26 206.506C880.97 207.668 878.474 208.303 875.936 208.371C873.398 208.439 870.874 207.938 868.532 206.9C866.19 205.862 864.082 204.312 862.346 202.35C860.611 200.389 859.288 198.061 858.463 195.519L815.22 67.946Z" fill="white"/>
<path d="M788.508 40.2123C785.454 40.2566 782.406 39.8983 779.436 39.1456L693.756 16.319C680.567 12.4078 667.937 6.63123 656.208 -0.854355L545.126 -76.4277C536.81 -82.081 536.206 -88.321 536.609 -91.521C537.012 -94.721 539.028 -100.641 548.352 -103.948L744.912 -173.281C749.195 -174.727 753.672 -175.43 758.167 -175.361C767.521 -175.534 776.735 -172.948 784.779 -167.894L907.754 -83.3077C910.398 -81.595 912.632 -79.2605 914.284 -76.4856C915.936 -73.7107 916.961 -70.57 917.28 -67.3077C917.373 -63.9957 916.722 -60.7076 915.382 -57.7131C914.042 -54.7186 912.049 -52.103 909.569 -50.081L818.849 29.919C810.091 36.8098 799.42 40.4302 788.508 40.2123ZM758.268 -164.908C754.854 -164.981 751.451 -164.477 748.188 -163.414L551.628 -94.081C547.798 -92.7477 546.588 -91.0944 546.588 -90.401C546.588 -89.7077 547.243 -87.7877 550.62 -85.441L661.752 -9.76103C672.566 -2.84967 684.19 2.52963 696.326 6.23898L782.006 29.0123C784.184 29.5688 786.419 29.8375 788.659 29.8123C797.149 29.8668 805.432 27.0447 812.297 21.759L903.269 -58.241C904.533 -59.218 905.564 -60.4929 906.281 -61.9648C906.999 -63.4367 907.382 -65.0651 907.402 -66.721C907.183 -68.3895 906.594 -69.9794 905.683 -71.3606C904.772 -72.7419 903.565 -73.8751 902.16 -74.6677L779.285 -159.201C772.821 -163.075 765.494 -165.045 758.066 -164.908H758.268Z" fill="white"/>
<path d="M525.067 798.666C518.726 798.777 512.436 797.45 506.621 794.773L451.181 767.413C445.149 764.215 440.245 759.055 437.188 752.691C434.131 746.327 433.083 739.094 434.196 732.053L463.73 573.653C465.277 566.64 468.708 560.251 473.608 555.255C478.508 550.258 484.67 546.868 491.35 545.493L676.318 514.346C679.598 513.635 682.997 513.841 686.179 514.945C689.361 516.049 692.216 518.012 694.462 520.64C696.253 523.049 697.521 525.846 698.174 528.833C698.828 531.82 698.851 534.922 698.242 537.92L671.328 700.426C669.805 707.553 666.946 714.284 662.92 720.22C658.895 726.156 653.785 731.178 647.892 734.986L546.437 793.653C539.798 797.117 532.468 798.836 525.067 798.666ZM680.4 524.533C679.645 524.485 678.887 524.485 678.132 524.533L493.164 555.68C488.45 556.791 484.128 559.287 480.696 562.882C477.263 566.476 474.859 571.023 473.76 576L444.226 734.346C443.556 739.078 444.299 743.913 446.349 748.177C448.4 752.441 451.657 755.921 455.666 758.133L511.106 785.493C515.595 787.516 520.442 788.498 525.319 788.373C531.145 788.531 536.92 787.195 542.153 784.48L643.558 725.813C652.805 719.654 659.407 709.91 661.954 698.666L688.918 536.106C689.238 534.624 689.256 533.086 688.969 531.596C688.682 530.106 688.098 528.698 687.254 527.466C686.403 526.451 685.341 525.658 684.152 525.149C682.963 524.64 681.679 524.429 680.4 524.533Z" fill="white"/>
<path d="M883.714 540.799C879.94 536.639 877.691 531.193 877.367 525.436C877.044 519.68 878.669 513.99 881.95 509.386L974.635 384.799C978.56 380.065 983.517 376.414 989.076 374.165C994.636 371.916 1000.63 371.136 1006.54 371.893L1153.3 399.626C1155.88 400.068 1158.35 401.054 1160.56 402.527C1162.77 403.999 1164.68 405.928 1166.17 408.198C1167.66 410.467 1168.7 413.031 1169.24 415.737C1169.77 418.443 1169.79 421.234 1169.28 423.946L1141.26 570.666C1139.83 576.678 1136.92 582.179 1132.82 586.603C1128.72 591.028 1123.57 594.216 1117.92 595.839L988.344 625.919C982.374 626.921 976.269 626.513 970.466 624.725C964.662 622.936 959.305 619.81 954.778 615.573L883.714 540.799Z" fill="white"/>
<path d="M545.933 227.946C543.655 227.337 541.566 226.109 539.873 224.385C538.18 222.66 536.942 220.498 536.28 218.112C535.619 215.726 535.557 213.199 536.101 210.78C536.644 208.361 537.775 206.134 539.381 204.319L663.516 35.7323C667.343 31.0322 672.28 27.4899 677.822 25.4662C683.364 23.4425 689.315 23.0098 695.066 24.2123L777.571 46.239C783.367 48.1623 788.699 51.3953 793.198 55.7141C797.697 60.033 801.256 65.3347 803.628 71.2523L847.375 200.639C849.114 206 848.881 211.858 846.724 217.046C844.566 222.234 840.643 226.373 835.733 228.639L722.484 278.772C710.531 283.323 697.517 283.716 685.339 279.892L545.933 227.946Z" fill="white"/>
<path d="M347.76 88.4263C343.183 84.5772 339.649 79.5161 337.516 73.756C335.383 67.9958 334.726 61.7413 335.614 55.6263L354.514 -39.8404C355.943 -45.7674 358.893 -51.1608 363.038 -55.4245C367.183 -59.6882 372.361 -62.6562 378 -64.0004L496.39 -84.2137C509.012 -85.6547 521.743 -82.8559 532.778 -76.2137L647.942 2.13294C650.106 3.54203 651.961 5.42398 653.382 7.65285C654.803 9.88171 655.758 12.4061 656.183 15.057C656.608 17.708 656.492 20.4243 655.845 23.0243C655.197 25.6242 654.032 28.0479 652.428 30.1329L528.394 198.72C525.056 203.131 520.262 206.04 514.979 206.861C509.695 207.683 504.313 206.355 499.918 203.146L347.76 88.4263Z" fill="white"/>
<path d="M841.932 522.986C840.841 523.067 839.747 523.067 838.656 522.986L729.54 510.399C722.93 509.505 716.845 506.125 712.394 500.877C707.944 495.629 705.425 488.863 705.298 481.813V318.986C705.582 311.776 707.73 304.787 711.506 298.778C715.283 292.769 720.544 287.972 726.718 284.906L839.815 234.666C843.658 233.028 847.769 232.212 851.911 232.266C861.41 232.115 870.579 235.95 877.414 242.933L966.521 342.506C970.981 347.774 973.584 354.513 973.887 361.579C974.19 368.645 972.175 375.605 968.184 381.279L875.196 506.666C871.03 511.686 865.92 515.731 860.192 518.541C854.464 521.351 848.245 522.865 841.932 522.986ZM852.012 242.933C849.184 242.888 846.376 243.431 843.746 244.533L730.8 294.613C726.471 296.902 722.792 300.363 720.137 304.644C717.481 308.924 715.943 313.873 715.68 318.986V481.813C715.806 486.269 717.419 490.535 720.233 493.854C723.046 497.173 726.879 499.331 731.052 499.946L840.118 512.319H842.335C847.107 512.132 851.794 510.936 856.122 508.802C860.45 506.668 864.331 503.638 867.535 499.893L960.473 374.879C963.009 371.213 964.287 366.741 964.094 362.202C963.902 357.664 962.251 353.33 959.414 349.919L870.206 250.666C865.253 245.63 858.629 242.853 851.76 242.933H852.012Z" fill="white"/>
<path d="M1007.04 359.146C994.529 356.135 983.029 349.571 973.778 340.159L885.377 241.332C883.605 239.695 882.27 237.596 881.504 235.242C880.738 232.889 880.568 230.364 881.012 227.92C881.455 225.475 882.497 223.197 884.032 221.311C885.567 219.425 887.543 217.998 889.762 217.172L1019.49 153.492C1025.18 151.109 1031.27 149.979 1037.39 150.171C1043.51 150.364 1049.53 151.875 1055.07 154.612L1165.7 217.652C1170.73 220.895 1174.88 225.457 1177.75 230.895C1180.62 236.333 1182.11 242.464 1182.08 248.692L1175.53 369.706C1175.46 372.368 1174.83 374.981 1173.7 377.361C1172.57 379.741 1170.97 381.831 1168.99 383.483C1167.02 385.135 1164.72 386.31 1162.28 386.924C1159.83 387.538 1157.28 387.578 1154.82 387.039L1007.04 359.146Z" fill="white"/>
<path d="M146.966 520.213C142.737 516.614 139.867 511.531 138.878 505.884C137.888 500.238 138.845 494.403 141.574 489.439L209.261 372.586C212.683 367.364 217.185 363.035 222.425 359.93C227.665 356.825 233.505 355.025 239.501 354.666H398.16C403.767 354.89 409.162 356.995 413.565 360.676C417.968 364.358 421.151 369.425 422.654 375.146L456.019 524.479C457.127 530.251 456.397 536.249 453.945 541.536C451.492 546.823 447.454 551.103 442.462 553.706L300.586 621.333C295.027 623.596 289.033 624.4 283.117 623.676C277.201 622.951 271.539 620.72 266.616 617.173L146.966 520.213Z" fill="white"/>
<path d="M19.5048 829.012C14.8729 828.991 10.3434 827.569 6.45005 824.914C2.55672 822.258 -0.538109 818.481 -2.46962 814.026L-39.1608 729.759C-41.7533 723.087 -42.5557 715.788 -41.4797 708.664C-40.4037 701.541 -37.4911 694.87 -33.0624 689.386L106.798 529.386C111.388 524.294 117.575 521.149 124.2 520.54C130.825 519.931 137.432 521.901 142.783 526.079L260.114 621.226C262.712 623.273 264.875 625.874 266.465 628.86C268.055 631.846 269.036 635.151 269.344 638.563C269.653 641.975 269.283 645.417 268.257 648.669C267.232 651.92 265.574 654.907 263.39 657.439L208.757 722.506C199.334 733.033 188.417 741.94 176.4 748.906L30.24 826.239C26.9111 828.026 23.2372 828.975 19.5048 829.012ZM126.605 530.986C124.288 530.928 121.985 531.372 119.836 532.289C117.686 533.206 115.737 534.577 114.106 536.319L-25.7544 696.319C-28.9005 700.28 -30.9778 705.066 -31.7673 710.173C-32.5568 715.279 -32.0291 720.517 -30.24 725.332L6.55198 809.652C7.35027 811.493 8.49063 813.146 9.90513 814.511C11.3196 815.876 12.9793 816.925 14.7853 817.597C16.5912 818.269 18.5065 818.549 20.417 818.421C22.3275 818.293 24.1941 817.76 25.9056 816.852L171.763 739.466C182.749 733.175 192.719 725.074 201.298 715.466L255.931 650.666C257.205 649.212 258.174 647.49 258.775 645.612C259.376 643.735 259.596 641.744 259.42 639.771C259.244 637.797 258.676 635.885 257.753 634.16C256.831 632.435 255.574 630.935 254.066 629.759L136.735 534.452C133.803 532.164 130.248 530.947 126.605 530.986Z" fill="white"/>
<path d="M-10.5336 460.639C-15.9528 458.674 -20.7082 455.07 -24.2109 450.273C-27.7137 445.476 -29.8099 439.697 -30.24 433.652L-34.4736 265.919C-34.3243 259.703 -32.6468 253.635 -29.6066 248.314C-26.5664 242.992 -22.2683 238.601 -17.136 235.573L131.04 158.613C133.243 157.373 135.679 156.668 138.171 156.547C140.663 156.426 143.15 156.893 145.45 157.914C147.751 158.935 149.809 160.484 151.474 162.45C153.14 164.415 154.372 166.748 155.081 169.279L203.616 327.466C206.791 340.253 205.279 353.837 199.382 365.493L131.04 483.572C127.872 488.533 123.34 492.344 118.057 494.491C112.775 496.637 106.997 497.015 101.506 495.572L-10.5336 460.639Z" fill="white"/>
<path d="M-152.057 670.719C-157.786 668.66 -163.014 665.288 -167.37 660.844C-171.726 656.401 -175.102 650.995 -177.257 645.012L-209.714 536.692C-210.505 534.106 -210.789 531.376 -210.55 528.67C-210.31 525.963 -209.552 523.337 -208.321 520.951C-207.089 518.565 -205.412 516.47 -203.39 514.793C-201.368 513.116 -199.044 511.894 -196.56 511.199L-54.8856 471.412C-42.2282 468.485 -29.1034 468.686 -16.5312 471.999L93.24 506.186C103.774 509.439 106.243 519.092 98.8344 527.519L-38.4048 684.639C-42.6806 689.001 -47.9077 692.179 -53.6224 693.891C-59.3371 695.603 -65.3628 695.796 -71.1648 694.453L-152.057 670.719Z" fill="white"/>
<path d="M64.4112 -43.6805C61.8808 -49.3148 60.7518 -55.5395 61.131 -61.7649C61.5103 -67.9902 63.3853 -74.0099 66.5784 -79.2538L154.224 -207.254C155.694 -209.512 157.599 -211.415 159.813 -212.837C162.028 -214.26 164.503 -215.17 167.074 -215.508C169.645 -215.845 172.255 -215.603 174.731 -214.796C177.207 -213.989 179.493 -212.637 181.44 -210.827L331.531 -77.1738C335.879 -72.8646 339.169 -67.5001 341.118 -61.5438C343.068 -55.5876 343.618 -49.2186 342.72 -42.9872L323.568 53.3329C322.021 59.4731 319.142 65.1474 315.162 69.9058C311.181 74.6642 306.208 78.3758 300.636 80.7462L174.182 126.026C168.882 127.718 163.197 127.475 158.042 125.338C152.887 123.2 148.561 119.292 145.757 114.24L64.4112 -43.6805Z" fill="white"/>
<path d="M-171.36 154.132C-176.267 150.819 -180.193 146.11 -182.689 140.545C-185.185 134.98 -186.149 128.784 -185.472 122.666L-151.2 -96.3209C-150.86 -98.9621 -149.975 -101.492 -148.608 -103.731C-147.242 -105.97 -145.427 -107.864 -143.292 -109.279C-141.157 -110.693 -138.754 -111.594 -136.254 -111.917C-133.753 -112.24 -131.216 -111.977 -128.822 -111.148L24.8472 -63.1476C36.7379 -58.6891 46.8361 -50.0726 53.4744 -38.7209L134.719 119.146C135.969 121.534 136.745 124.168 136.999 126.885C137.253 129.603 136.98 132.346 136.197 134.948C135.413 137.549 134.136 139.954 132.443 142.015C130.751 144.076 128.678 145.749 126.353 146.932L-22.932 224.532C-28.5478 227.042 -34.6128 228.228 -40.7053 228.007C-46.7979 227.786 -52.7719 226.163 -58.212 223.252L-171.36 154.132Z" fill="white"/>
</g>
</svg>
